<?xml version="1.0" encoding="utf-8"?><!DOCTYPE svg PUBLIC "-//W3C//DTD SVG 1.1//EN" "http://www.w3.org/Graphics/SVG/1.1/DTD/svg11.dtd"><svg version="1.1" id="Layer_1" xmlns="http://www.w3.org/2000/svg" xmlns:xlink="http://www.w3.org/1999/xlink" x="0px" y="0px"  width="258px" height="106.1px" viewBox="-268 253.9 258 106.1" enable-background="new -268 253.9 258 106.1"  xml:space="preserve"><g> <path fill="#010101" d="M-92.7,279.6c-0.5-0.9-1.1-1.6-2.2-1.9v-0.6c0.7,0,3,0.1,3.5,0.1s2.7-0.1,3.4-0.1v0.5  c-0.7,0.1-1.3,0.5-1.3,1.1c0,0.5,0.3,1.1,0.8,2.2l5,11.4l4.7-11.4c0.4-0.9,0.7-1.7,0.7-2.1c0-0.7-0.6-1-1.4-1.2V277  c0.7,0,2.1,0.1,2.6,0.1s2.2-0.1,3-0.1v0.6c-1.2,0.3-1.9,1-2.6,2.5l-7,16.5H-85C-85,296.6-92.7,279.6-92.7,279.6z M-160.4,296.1  c0.9-0.2,1.6-0.7,1.6-1.7v-15.2c0-1-0.6-1.4-1.6-1.7v-0.6c0.5,0,2.5,0.1,3.1,0.1c0.6,0,2.7-0.1,3.3-0.1v0.6  c-0.9,0.2-1.6,0.7-1.6,1.7v6.3h11.3v-6.3c0-1-0.6-1.5-1.6-1.7v-0.6c0.5,0,2.6,0.1,3.2,0.1c0.5,0,2.6-0.1,3.1-0.1v0.6  c-0.9,0.2-1.6,0.7-1.6,1.7v15.2c0,1,0.7,1.4,1.6,1.7v0.5h-6.3v-0.5c0.9-0.2,1.6-0.7,1.6-1.7v-7.2h-11.3v7.2c0,1,0.7,1.4,1.6,1.7  v0.5h-6.4C-160.4,296.6-160.4,296.1-160.4,296.1z M-30.2,296.1c1.2-0.2,1.8-0.7,1.8-1.8v-15c0-1-0.7-1.5-1.8-1.7V277  c0.7,0,2.8,0.1,3.3,0.1c0.9,0,3.6-0.2,5.7-0.2c6.9,0,11.2,3.9,11.2,9.8c0,5.7-4.4,10-11.5,10c-2,0-4.5-0.2-5.5-0.2  c-0.6,0-2.5,0.1-3.2,0.1C-30.2,296.6-30.2,296.1-30.2,296.1z M-25.3,295.1c0.7,0.1,2,0.2,3.1,0.2c5.9,0,8.8-3.5,8.8-8.4  c0-5-3.2-8.7-8.7-8.7c-1.1,0-2.5,0.1-3.3,0.2L-25.3,295.1L-25.3,295.1z M-108.5,294.3c0,1,0.7,1.6,1.8,1.8v0.6  c-0.7,0-2.8-0.1-3.3-0.1s-2.6,0.1-3.3,0.1v-0.6c1.1-0.2,1.8-0.7,1.8-1.8v-14.9c0-0.9-0.5-1.5-1.8-1.7v-0.6c0.7,0,2.7,0.1,3.3,0.1  c0.9,0,3.6-0.2,4.7-0.2c4.7,0,7.3,2,7.3,5.2c0,2.6-2,4.4-4.9,5c0,0,0.7,0.4,1.3,1.2c0.8,0.9,3.1,4.2,4,5.3c0.9,1.1,2,2.3,3.3,2.4  v0.5c-0.6,0.1-1.6,0.3-2.3,0.3c-1.6,0-2.9-0.6-4.1-2c-1-1.3-2.9-4-4-5.4c-0.7-0.8-1.5-1.5-3-1.8c-0.3-0.1-0.6-0.1-0.9-0.1  L-108.5,294.3L-108.5,294.3z M-108.5,286.4c0.7,0.1,1.5,0.1,2.4,0.1c3.6,0,4.7-2.1,4.7-3.9c0-2.6-1.8-4.3-4.9-4.3  c-0.7,0-1.6,0.1-2.2,0.2C-108.5,278.5-108.5,286.4-108.5,286.4z M-47.1,294.3c0,1,0.7,1.6,1.8,1.8v0.6c-0.7,0-2.8-0.1-3.3-0.1  c-0.6,0-2.6,0.1-3.3,0.1v-0.6c1.1-0.2,1.8-0.7,1.8-1.8v-14.9c0-0.9-0.5-1.5-1.7-1.7v-0.6c0.7,0,2.7,0.1,3.3,0.1  c0.9,0,3.6-0.2,4.7-0.2c4.7,0,7.3,2,7.3,5.2c0,2.6-2,4.4-4.9,5c0,0,0.7,0.4,1.3,1.2c0.8,0.9,3.1,4.2,4,5.3c0.9,1.1,2.1,2.3,3.3,2.4  v0.5c-0.6,0.1-1.6,0.3-2.3,0.3c-1.6,0-2.9-0.6-4.1-2c-1-1.3-2.9-4-4-5.4c-0.7-0.8-1.5-1.5-3-1.8c-0.3-0.1-0.6-0.1-0.9-0.1  L-47.1,294.3L-47.1,294.3z M-47.1,286.4c0.7,0.1,1.5,0.1,2.4,0.1c3.6,0,4.7-2.1,4.7-3.9c0-2.6-1.8-4.3-4.9-4.3  c-0.7,0-1.6,0.1-2.3,0.2C-47.2,278.5-47.1,286.4-47.1,286.4z M-136.7,296.1c1.2-0.3,1.9-1.1,2.3-2.1l6.2-15  c0.3-0.7,0.6-1.9,0.6-1.9h1.8c0,0,0.3,1.3,0.6,1.9l6.6,15.1c0.5,1,1,1.8,2.3,2.1v0.5h-6.7v-0.5c0.9-0.3,1.3-0.7,1.3-1.2  c0-0.4-0.2-0.8-0.4-1.3l-1.4-3.3h-7.3l-1.3,3.3c-0.2,0.4-0.3,0.9-0.3,1.2c0,0.6,0.3,0.9,1.4,1.3v0.5h-5.5L-136.7,296.1z   M-124.4,288.8l-3.1-7.3l-2.9,7.3H-124.4 M-75,296.1c1.2-0.3,2-1.1,2.3-2.1l6.2-15c0.3-0.7,0.6-1.9,0.6-1.9h1.8  c0,0,0.3,1.3,0.6,1.9l6.6,15.1c0.5,1,0.9,1.8,2.3,2.1v0.5h-6.7v-0.5c0.9-0.3,1.3-0.7,1.3-1.2c0-0.4-0.2-0.8-0.4-1.3l-1.4-3.3h-7.3  l-1.3,3.3c-0.2,0.4-0.3,0.9-0.3,1.2c0,0.6,0.3,0.9,1.4,1.3v0.5h-5.6L-75,296.1L-75,296.1z M-62.6,288.8l-3.1-7.3l-2.9,7.3H-62.6   M-158.5,317.6c0.7-0.1,0.9-0.7,0.9-1v-9.8c0-0.4-0.3-0.8-0.9-0.9v-0.5h7.7c0.2,0,0.6,0,0.7-0.2h0.5l-0.1,2.5h-0.5  c-0.3-0.8-0.8-1.2-1.9-1.2h-3.5v4.5h3.1c0.5,0,0.8-0.3,1.1-0.7h0.6v2.5h-0.5c-0.3-0.5-0.7-0.7-1.1-0.7h-3.1v5h3.4  c1.2,0,1.8-0.5,2.2-1.2l0.6,0.1l-0.3,2.2c-1.2-0.1-1.9-0.1-3.2-0.1h-5.9L-158.5,317.6L-158.5,317.6z M-147.4,317.6  c0.7-0.2,1.2-0.7,1.7-1.3l2-2.2l-1.8-2.5c-0.5-0.7-0.9-1-1.5-1.2v-0.5h3.7v0.5c-0.3,0.1-0.4,0.3-0.4,0.4s0.1,0.3,0.2,0.5l1,1.4  l1.2-1.4c0.2-0.2,0.2-0.4,0.2-0.6c0-0.1-0.2-0.3-0.5-0.3v-0.5h3.2v0.5c-0.6,0.2-1.3,0.7-1.9,1.4l-1.6,1.9l2,2.8  c0.4,0.5,0.8,0.9,1.5,1.2v0.5h-3.8v-0.5c0.6-0.3,0.4-0.6,0.1-0.9l-1.2-1.7l-1.4,1.7c-0.2,0.2-0.3,0.4-0.3,0.5  c0,0.2,0.2,0.4,0.5,0.5v0.5h-3.1L-147.4,317.6 M-135.7,310.8h-1.2v-0.7l1.2-0.4c0.5-0.5,0.8-1.2,1-2.2h1v2.4h2.3v0.9h-2.3v5  c0,0.9,0.4,1.2,0.7,1.2c0.6,0,0.8-0.2,1.2-0.7l0.5,0.4c-0.3,0.6-1.1,1.5-2.3,1.5c-1,0-2.1-0.6-2.1-2.4L-135.7,310.8L-135.7,310.8z   M-122.2,316.8c-0.6,0.7-1.5,1.4-3.2,1.4c-2.9,0-4.5-1.8-4.5-4.3c0-2.6,1.9-4.3,4.2-4.3c2.2,0,3.7,1.4,3.5,3.2c0,0.2,0,0.4-0.1,0.6  h-5.5c-0.2,2,0.8,3.6,2.6,3.6c0.8,0,1.8-0.2,2.3-0.7C-122.9,316.3-122.2,316.8-122.2,316.8z M-124.3,312.6c0-0.8-0.3-2-1.4-2  c-1.2,0-1.7,1-1.9,2H-124.3L-124.3,312.6z M-120.3,317.6c0.5-0.2,0.8-0.4,0.8-0.7V312c0-0.5-0.2-0.7-0.9-0.9v-0.5l2.5-0.9h0.4  l0.1,0.9c0.7-0.6,1.6-0.9,2.6-0.9c2,0,3,1.2,3,2.6v4.7c0,0.3,0.3,0.5,0.8,0.7v0.5h-3.7v-0.5c0.5-0.2,0.8-0.4,0.8-0.7v-4  c0-1.4-0.5-2-1.7-2c-0.7,0-1.4,0.3-1.8,1v5c0,0.3,0.3,0.5,0.8,0.7v0.5h-3.7L-120.3,317.6L-120.3,317.6z M-109.1,315.9h0.5  c0.7,0.9,1.2,1.5,2.2,1.5c1.1,0,1.6-0.5,1.6-1c0-0.4-0.2-0.7-0.6-0.8l-2.5-1.1c-0.8-0.4-1.4-1.1-1.4-2.1c0-1.7,1.6-2.5,3.3-2.5  c0.8,0,1.9,0.2,2.7,0.5v1.9h-0.5c-0.5-0.8-1.2-1.4-2.1-1.4s-1.4,0.6-1.4,1.1s0.2,0.8,0.7,1.1l2.5,1.1c0.5,0.3,1.1,0.9,1.1,1.9  c0,1.5-1.4,2.4-3.3,2.4c-0.8,0-1.9-0.2-2.7-0.5L-109.1,315.9 M-101,317.6c0.5-0.2,0.8-0.4,0.8-0.7V312c0-0.5-0.2-0.7-0.9-0.9v-0.5  l2.5-0.9h0.5v7.3c0,0.3,0.3,0.5,0.8,0.7v0.5h-3.7V317.6z M-100.3,307.3c0-0.6,0.5-1,1-1c0.6,0,1,0.5,1,1s-0.5,1-1,1  C-99.8,308.4-100.3,307.9-100.3,307.3 M-91.3,309.8c2.6,0,4.5,1.9,4.5,4.3c0,2.5-1.8,4.3-4.5,4.3c-2.6,0-4.5-1.8-4.5-4.3  S-93.9,309.8-91.3,309.8 M-89,314.1c0-1.7-0.7-3.3-2.3-3.3c-1.7,0-2.3,1.8-2.3,3.3c0,1.7,0.7,3.4,2.3,3.4  C-89.7,317.3-89,315.6-89,314.1 M-85.1,317.6c0.5-0.2,0.8-0.4,0.8-0.7V312c0-0.5-0.2-0.7-0.9-0.9v-0.5l2.5-0.9h0.4l0.1,0.9  c0.7-0.6,1.6-0.9,2.6-0.9c2,0,3,1.2,3,2.6v4.7c0,0.3,0.3,0.5,0.8,0.7v0.5h-3.7v-0.5c0.5-0.2,0.8-0.4,0.8-0.7v-4c0-1.4-0.5-2-1.7-2  c-0.7,0-1.4,0.3-1.8,1v5c0,0.3,0.3,0.5,0.8,0.7v0.5h-3.7L-85.1,317.6 M-67.1,315.3h0.6c0.2,0.7,0.7,1.2,1,1.4  c0.6,0.4,1.5,0.6,2.1,0.6c1.5,0,2.6-0.6,2.6-2c0-0.7-0.2-1.2-0.7-1.6c-1.1-0.7-2.5-1.2-3.7-1.8c-1.1-0.6-2-1.5-2-3.2  c0-2.6,2.2-3.6,4.7-3.6c1,0,2.1,0.3,3.3,0.2l0.1,2.6h-0.5c-0.5-1.2-1.8-1.9-3.1-1.9c-1.5,0-2.5,0.8-2.5,2c0,0.9,0.5,1.5,1.1,2  c1.1,0.7,2.7,1.2,3.8,1.9c0.8,0.6,1.5,1.4,1.5,2.7c0,2.4-1.9,3.8-4.5,3.8c-1.2,0-2.3-0.3-3.6-0.7L-67.1,315.3L-67.1,315.3z   M-49,316.8c-0.6,0.7-1.7,1.6-3.3,1.6c-2.9,0-4.5-1.8-4.5-4.3c0-2.7,2-4.3,4.5-4.3c0.8,0,2,0.2,3,0.4v1.9h-0.5  c-0.4-0.8-1.2-1.4-2.2-1.4c-1.5,0-2.5,1.3-2.5,3.2c0,2,1.2,3.3,2.8,3.3c0.8,0,1.8-0.3,2.4-0.9C-49.3,316.3-49,316.8-49,316.8z   M-47.5,317.6c0.5-0.2,0.8-0.4,0.8-0.7v-10.1c0-0.5-0.2-0.7-0.9-0.9v-0.5l2.5-0.9h0.5v6.1c0.7-0.6,1.6-0.9,2.6-0.9c2,0,3,1.2,3,2.6  v4.7c0,0.3,0.3,0.5,0.8,0.7v0.5h-3.7v-0.5c0.5-0.2,0.8-0.4,0.8-0.7v-4c0-1.4-0.5-2-1.7-2c-0.7,0-1.4,0.3-1.8,1v5  c0,0.3,0.3,0.5,0.8,0.7v0.5h-3.7L-47.5,317.6L-47.5,317.6z M-32.3,309.8c2.6,0,4.5,1.9,4.5,4.3c0,2.5-1.8,4.3-4.5,4.3  c-2.6,0-4.5-1.8-4.5-4.3S-34.9,309.8-32.3,309.8 M-30,314.1c0-1.7-0.7-3.3-2.3-3.3c-1.6,0-2.3,1.8-2.3,3.3c0,1.7,0.7,3.4,2.3,3.4  C-30.8,317.3-30,315.6-30,314.1 M-21.7,309.8c2.6,0,4.5,1.9,4.5,4.3c0,2.5-1.8,4.3-4.5,4.3c-2.6,0-4.5-1.8-4.5-4.3  S-24.3,309.8-21.7,309.8 M-19.4,314.1c0-1.7-0.7-3.3-2.3-3.3c-1.7,0-2.3,1.8-2.3,3.3c0,1.7,0.7,3.4,2.3,3.4  C-20,317.4-19.4,315.6-19.4,314.1 M-15.5,317.6c0.5-0.2,0.8-0.4,0.8-0.7v-10.1c0-0.5-0.2-0.7-0.9-0.9v-0.5l2.5-0.9h0.5V317  c0,0.3,0.3,0.5,0.8,0.7v0.5h-3.7L-15.5,317.6L-15.5,317.6z"/> <path fill="#FFFFFF" d="M-179.7,256.3v36.8c0,19.2-6.5,50.4-42.9,64.3c-36.3-13.9-42.9-45.1-42.9-64.3v-36.8  C-265.5,256.3-179.7,256.3-179.7,256.3z"/> <path fill="#00498F" d="M-187.6,297.4l-0.1,0.1c0.4,0.4-0.2,1.9-1.3,1.8l-0.2,0.7c0.7,0.2,1.3,0.3,1.7,0.5c0,0,1.7-2.5,1.3-2.9  C-186.4,297.3-186.9,297.2-187.6,297.4 M-203.8,299.2c-1,0.1-1.7-1.1-1.5-1.6c-1.2-0.4-1.4-0.3-1.9-0.1c-0.5,0.2,1.3,2.8,1.3,2.8  c0.5-0.2,1.2-0.4,2.1-0.6l-0.2-0.5H-203.8z"/> <path fill="#00498F" d="M-203.8,299.8c-0.9,0.2-1.7,0.4-2.1,0.6c0,0-1.9-2.6-1.3-2.8c0.5-0.2,0.7-0.3,1.9,0.1  c-0.2,0.5,0.5,1.8,1.5,1.6h-0.1L-203.8,299.8C-203.7,299.8-203.8,299.8-203.8,299.8z M-187.6,300.5c-0.3-0.2-0.9-0.4-1.6-0.5  l0.2-0.7c1.1,0,1.7-1.4,1.3-1.8c0,0,0.1,0,0.1-0.1c0.7-0.2,1.2,0,1.3,0.2C-185.9,298-187.6,300.5-187.6,300.5z M-222.7,313.8  l-27.1,24.8v0.2c0.2,0.3,0.5,0.6,0.8,0.9c2.8,3.1,6.1,6.1,9.9,8.8c4.7,3.4,10.2,6.4,16.6,8.8c6.4-2.4,11.8-5.5,16.4-8.8  c3.7-2.7,7-5.7,9.8-8.8c0.3-0.4,0.6-0.7,0.9-1.1L-222.7,313.8z M-204.8,334.6c-0.8,0.9-1.1,1.3-2.7,1.3c1.1,1.1,1,2.7,1,2.7  c-0.1,4.2-4.3,6.4-11.8,7.2c-0.6,0.2-1.1,0.3-1.7,0.4c0,1.1,1.2,0.6,1.2,1.4l1.5,1.4c0.8,0.3,1.2,0.5,1.2,1c0,1-2.8,1.9-6.2,1.9  c-3.4,0-6.2-0.8-6.2-1.9c0-0.4,0.5-1,1.3-1.2l1.2-1.1c-0.1-0.9,1.3-0.4,1.3-1.5c-0.7-0.1-1.4-0.2-2-0.4h-0.2  c-1.1-0.1-5.7-1-8.5-5.6c-1.6-2.6-2.3-2.7-2.3-2.7s-1.3-0.7-1.3-1.5c0-0.4,0.7-0.7,1.7-0.8c0.2-0.1,0.5-0.1,0.9-0.2v-0.5h-0.6  c-0.7-0.2-1.2-0.4-1.4-1.3c-0.2-1,0.9-2.1,1.4-3c0.5-0.8,0.5-1.2,0.7-2c0.8-0.3,0.2,1.2,0.7,2c0.6,0.9,1.6,2,1.4,3  c-0.1,0.9-0.7,1.1-1.4,1.3c-0.2,0.1-0.4,0-0.5,0v0.5c0.4,0,0.8,0.1,1,0.1c1.1,0.1,1.8,0.4,1.8,0.8v0.1c-0.4,2.8,1.9,2.9,1.9,2.9  c1-1.8,3.5-3.1,6.6-3.6c0-0.4,0.4-0.8,1-1.1v-0.8c-0.9-0.2-1.4-0.7-1.4-1.5c0-0.8,0.6-1.4,1.4-1.7c0.1-0.1,0.2-0.3,0.5-0.5  c0-0.4,0.4-1.6,0.6-1.7c0.3,0.1,0.6,1.3,0.6,1.7c0.3,0.1,0.4,0.2,0.6,0.5c0.9,0.3,1.5,1,1.5,1.8c0,0.7-0.6,1.3-1.4,1.5v0.7  c0.6,0.3,1,0.8,1,1.1c4.1,0.6,7.1,2.8,7.1,5.4c0,0.2,0,0.5-0.1,0.7c0,0,1,0.5,1.9,0.5c1.9,0,3.2-1.2,3.2-3.6c0-1.6-1-2.5-2.3-2.5  c-1.4,0-2,1.1-1.9,2.2c0,0.7,0.5,1.2,1.2,1.1c0.3,0,0.6-0.3,0.7-0.7c0.1-0.5-0.1-0.8-0.7-1.1c0,0,0-0.4,0.7-0.4  c0.6,0,1.1,0.6,1.1,1.7c0,1.3-0.9,1.9-1.9,1.9c-1.4,0-2.6-1.1-2.6-2.8c0-2.1,1.4-3.7,3.4-3.6c0,0,3.2,0.6,4.4,0.1  C-204.5,333.9-204.3,334.1-204.8,334.6 M-255.7,299.2c-1,0.1-1.7-1.1-1.5-1.6c-1.3-0.4-1.4-0.3-2-0.1c-0.5,0.3,1.4,2.9,1.4,2.9  c0.4-0.2,1.2-0.4,2.1-0.6l-0.1-0.5L-255.7,299.2z M-239.5,297.4l-0.1,0.1c0.4,0.4-0.2,1.9-1.3,1.8l-0.2,0.7  c0.7,0.2,1.3,0.3,1.7,0.5c0,0,1.7-2.5,1.3-2.9C-238.4,297.3-238.9,297.2-239.5,297.4"/> <path fill="#00498F" d="M-179.8,281.1c-0.4,1.5-1.7,2.7-3.6,3.4c-1,0.4-2.2,0.6-3.5,0.6s-2.5-0.2-3.5-0.6c-1.9-0.7-3.3-2-3.6-3.4  c-0.4,1.5-1.7,2.7-3.7,3.4c-1,0.4-2.2,0.6-3.5,0.6s-2.5-0.2-3.5-0.6c-1.9-0.7-3.3-2-3.6-3.4c-0.4,1.5-1.7,2.7-3.7,3.4  c-1,0.4-2.2,0.6-3.5,0.6s-2.5-0.2-3.5-0.6c-1.9-0.7-3.3-2-3.6-3.4c-0.4,1.5-1.7,2.7-3.7,3.4c-1,0.4-2.2,0.6-3.5,0.6  c-1.3,0-2.5-0.2-3.5-0.6c-1.9-0.7-3.3-2-3.6-3.4c-0.4,1.5-1.7,2.7-3.7,3.4c-1,0.4-2.2,0.6-3.5,0.6c-1.3,0-2.5-0.2-3.5-0.6  c-1.9-0.7-3.3-1.9-3.6-3.4c-0.4,1.5-1.7,2.7-3.6,3.4c-1,0.4-2.2,0.6-3.5,0.6c-1.3,0-2.5-0.2-3.5-0.6c-1.9-0.7-3.3-2-3.6-3.4v16.1  c0,0.4,0,0.9,0.1,1.3c0,0.4,0,0.7,0.1,1.1c0,0.4,0.1,0.7,0.1,1.1c0.2,2.3,0.5,4.6,1,7.1c1.3,6.8,3.6,14.1,7.5,21.2l23.6-21.5l8-7.1  l1.2-1.1l1.1-1l1.1,1l1.2,1.1l8,7.1l23.9,21.2c3.9-7,6.1-14.3,7.3-21.2c0.4-2.4,0.7-4.8,0.9-7.1c0-0.4,0.1-0.7,0.1-1.1  c0.2-0.4,0.2-0.7,0.3-1.1c0-0.4,0-0.9,0.1-1.3V296v-0.9v-0.9C-179.8,294.2-179.8,281.1-179.8,281.1z M-238.6,300.7  c0.1,0.1,0.2,0.2,0.2,0.3c-0.5,5.9-1.8,9.7-3,10.6c-1.1,0.8-2.4,1.6-7.3,1.6c-5.5,0-6.6-1.2-7.6-2.5c-0.7-0.9-2.4-4-2.7-9.7  c0-0.1,0-0.2,0.1-0.3h0.1c0,0-1.5-1.8-1.5-3.2s2.2-1.1,2.6-1c-0.1-0.3-0.1-0.6,0.1-0.7c-0.4-0.1-1.1-1.5-0.5-1.7  c-0.5-0.1-1.3-1.9-0.3-1.7h0.2c0,0-0.4-0.3-0.4-0.7c0-0.6,0.2-0.7,0.2-1.4c0.5,0.4,0.7,0.5,1,0.9c0.2,0.3,0,0.8,0,0.8v0.1  c0.1-0.1,0.1-0.2,0.2-0.3c0.7-0.8,1,1.2,0.7,1.5c0.6-0.1,0.9,1.5,0.7,1.8c0.5-0.2,0.8,1.3,0.5,1.6c0.6,0,1,1.6,0,2.3h0.1l0.2,0.7  c0.7-0.1,1.5-0.2,2.4-0.3h0.1l-0.3-2.1h0.1c-1.1-0.2-1.5-1.8-1-2.1c-0.3-0.2-0.7-1.7-0.1-1.7c-0.4-0.1-0.8-1.7-0.2-1.8  c-0.4-0.2-0.9-2.1,0.1-1.7c0.1,0,0.2,0.1,0.3,0.1V290c0,0-0.4-0.4-0.3-0.7c0.1-0.6,0.3-0.7,0.5-1.3c0.2,0.6,0.4,0.7,0.6,1.2  c0.2,0.3-0.1,0.8-0.1,0.8l0.2-0.2c0.8-0.6,0.8,1.4,0.5,1.6c0.6-0.1,0.5,1.5,0.2,1.7c0.6-0.1,0.5,1.5,0.3,1.7c0.6,0.4,0.7,2-0.6,2.5  h0.1l0.3,2.1c0.9-0.1,2-0.1,3-0.1V297c-1.2-0.4-1.4-2-0.8-2.2c-0.3-0.3-0.6-1.7,0.1-1.7c-0.4-0.2-0.6-1.8,0-1.8  c-0.4-0.2-0.7-2.2,0.3-1.7c0.1,0.1,0.2,0.1,0.3,0.2c0,0-0.4-0.4-0.2-0.8c0.2-0.6,0.4-0.7,0.7-1.2c0.4,0.5,0.6,0.7,0.8,1.2  c0.1,0.4-0.3,0.8-0.3,0.8c0.1,0,0.2-0.1,0.3-0.1c1-0.5,0.7,1.5,0.3,1.7c0.6,0,0.4,1.6,0,1.8c0.6,0,0.4,1.5,0,1.8  c0.6,0.2,0.6,1.8-0.7,2.2v2.4c1.1,0,2.2,0.1,3.2,0.1l0.2-2.2c-1.1-0.5-1-2.1-0.4-2.2c-0.3-0.3-0.3-1.8,0.2-1.7  c-0.3-0.2-0.3-1.8,0.2-1.7c-0.3-0.6-0.3-2.6,0.6-2c0.1,0,0.1,0.1,0.2,0.2V290c0,0-0.3-0.5-0.1-0.8c0.3-0.5,0.4-0.6,0.9-1.1  c0.2,0.6,0.4,0.7,0.5,1.3c0,0.4-0.4,0.7-0.4,0.7c0.1,0,0.2-0.1,0.3-0.1c0.9-0.4,0.5,1.6,0.1,1.7c0.6,0.1,0.2,1.6-0.2,1.8  c0.6,0.1,0.2,1.5-0.1,1.7c0.5,0.3,0.1,1.8-1,2.1l-0.2,2.1c0.9,0.1,1.8,0.2,2.5,0.3l0.3-0.8c-1-0.8-0.6-2.3,0-2.3  c-0.2-0.3,0-1.8,0.6-1.6c-0.2-0.3,0-1.9,0.5-1.7c-0.3-0.3,0.1-2.3,0.7-1.5c0.1,0.1,0.1,0.2,0.2,0.2c0,0-0.2-0.5,0-0.8  c0.3-0.5,0.5-0.5,1-0.9c0.1,0.7,0.2,0.8,0.2,1.4c0,0.4-0.4,0.7-0.4,0.7c0.1,0,0.2,0,0.3-0.1c1-0.1,0.2,1.6-0.2,1.7  c0.5,0.2-0.1,1.6-0.5,1.7c-0.1,0.2-0.1,0.4-0.1,0.7c0.8-0.1,1.9,0.1,1.9,1.1C-237.1,298.8-238.6,300.6-238.6,300.7z M-186.7,300.7  c0.1,0.1,0.2,0.2,0.2,0.3c-0.5,5.9-1.8,9.7-3,10.6c-1.1,0.8-2.4,1.6-7.3,1.6c-5.5,0-6.6-1.2-7.6-2.5c-0.7-0.9-2.4-4-2.7-9.7  c0-0.1,0-0.2,0.1-0.3h0.1c0,0-1.5-1.8-1.5-3.2s2.2-1.1,2.6-1c-0.1-0.3-0.1-0.6,0.1-0.7c-0.3-0.1-1-1.5-0.5-1.7  c-0.4-0.1-1.2-1.8-0.2-1.7h0.2c0,0-0.4-0.3-0.4-0.7c0-0.6,0.2-0.7,0.2-1.4c0.5,0.4,0.7,0.5,1,0.9c0.2,0.3,0,0.8,0,0.8v0.1  c0.1-0.1,0.1-0.2,0.2-0.3c0.7-0.8,1,1.2,0.7,1.5c0.5-0.2,0.8,1.4,0.5,1.7c0.5-0.2,0.8,1.3,0.5,1.6c0.6,0,1,1.6-0.1,2.3h0.1l0.2,0.7  c0.7-0.1,1.5-0.2,2.4-0.3h0.1l-0.3-2.1h0.1c-1.1-0.2-1.5-1.8-1-2.1c-0.3-0.2-0.7-1.7-0.1-1.7c-0.3-0.1-0.8-1.7-0.2-1.8  c-0.4-0.2-0.9-2.1,0.1-1.7c0.1,0,0.2,0.1,0.3,0.1v-0.1c0,0-0.4-0.4-0.3-0.7c0.1-0.6,0.3-0.7,0.5-1.3c0.4,0.5,0.6,0.6,0.9,1.1  c0.2,0.3-0.1,0.8-0.1,0.8l0.2-0.2c0.8-0.6,0.8,1.4,0.5,1.6c0.6-0.1,0.5,1.5,0.2,1.7c0.6-0.1,0.5,1.5,0.3,1.7  c0.6,0.2,0.7,1.8-0.5,2.3h0.1l0.3,2.1c0.9-0.1,2-0.1,3-0.1v-2.4c-1.2-0.4-1.4-2-0.8-2.2c-0.3-0.3-0.6-1.7,0.1-1.7  c-0.4-0.2-0.6-1.8,0-1.8c-0.4-0.2-0.7-2.2,0.3-1.7c0.1,0.1,0.2,0.1,0.3,0.2c0,0-0.4-0.4-0.2-0.8c0.1-0.2,0.3-0.3,0.6-0.8  c0.4,0.5,0.6,0.7,0.8,1.2c0.1,0.3-0.3,0.7-0.3,0.7c0.1,0,0.2-0.1,0.3-0.1c1-0.5,0.7,1.5,0.3,1.7c0.6,0,0.4,1.6,0,1.8  c0.6,0,0.4,1.5,0,1.8c0.6,0.2,0.6,1.8-0.7,2.2v2.4c1.1,0,2.2,0.1,3.2,0.1l0.2-2.2c-1.1-0.5-1-2.1-0.4-2.2c-0.3-0.3-0.3-1.8,0.2-1.7  c-0.3-0.2-0.3-1.8,0.2-1.7c-0.3-0.4-0.3-2.4,0.5-1.8c0.1,0.1,0.2,0.1,0.3,0.2V290c0,0-0.3-0.5-0.1-0.8c0.3-0.5,0.4-0.6,0.9-1.1  c0.2,0.6,0.4,0.7,0.5,1.3c0,0.4-0.4,0.7-0.4,0.7c0.1,0,0.2-0.1,0.3-0.1c0.9-0.4,0.5,1.6,0.1,1.7c0.6,0.1,0.2,1.6-0.2,1.8  c0.6,0.1,0.2,1.5-0.2,1.7c0.5,0.3,0.1,1.8-1,2.1l-0.3,2.1c0.9,0.1,1.8,0.2,2.5,0.3l0.3-0.8c-1-0.8-0.6-2.3,0-2.3  c-0.2-0.3,0-1.8,0.6-1.6c-0.2-0.3,0-1.9,0.5-1.7c-0.3-0.3,0.1-2.3,0.7-1.5c0.1,0.1,0.1,0.2,0.2,0.2c0,0-0.2-0.5,0-0.8  c0.3-0.5,0.5-0.5,1-0.9c0.1,0.7,0.2,0.8,0.2,1.4c0,0.4-0.4,0.7-0.4,0.7c0.1,0,0.2,0,0.3-0.1c1-0.1,0.2,1.6-0.2,1.7  c0.5,0.2-0.1,1.6-0.5,1.7c0.2,0.1,0.2,0.3,0.2,0.6c0.8-0.1,1.9,0.1,1.9,1.1C-185.2,298.8-186.6,300.6-186.7,300.7z"/> <path fill="#A80533" d="M-250.1,260.2C-250.2,260.2-250.2,260.2-250.1,260.2L-250.1,260.2L-250.1,260.2z M-194.8,260.2  C-194.8,260.2-194.9,260.2-194.8,260.2h-0.1H-194.8z M-222.4,260.2C-222.5,260.2-222.5,260.2-222.4,260.2L-222.4,260.2  L-222.4,260.2z"/> <path fill="#B30838" d="M-265.5,277.2c0.5,3.1,3.5,5.6,7.2,5.6c3.6,0,6.6-2.4,7.1-5.5c0.5,3.2,3.5,5.5,7.1,5.5  c3.6,0,6.6-2.5,7.1-5.6c0.5,3.2,3.5,5.6,7.2,5.6c3.6,0,6.6-2.5,7.1-5.6c0.5,3.2,3.5,5.6,7.2,5.6c3.6,0,6.6-2.5,7.1-5.6  c0.5,3.2,3.5,5.6,7.2,5.6c3.6,0,6.6-2.5,7.1-5.6c0.5,3.2,3.5,5.6,7.2,5.6c3.6,0,6.6-2.4,7.1-5.5v-20.9h-85.7V277.2z M-208.2,272.3  c0-0.5,0.3-0.8,0.8-0.8h1.1v-6.4h-1.1c-0.4,0-0.8-0.4-0.8-0.8v-0.8c0-0.5,0.3-0.8,0.8-0.8h1.1v-1.5h1v-1l0.7,0.3v-0.3  c0.6,0.2,0.5,0.4,1.7,0.3c0.8,0,4.1-1.8,6.6-1c0.6,0.2,0.9,0.4,1.5,0.7c0.6-0.3,0.9-0.5,1.5-0.7c2.5-0.8,5.9,0.9,6.6,1  c1.2,0.1,1.3-0.1,1.7-0.3v0.4l0.7-0.3v0.9h1v1.5h1.1c0.4,0,0.8,0.4,0.8,0.8v0.8c0,0.4-0.3,0.8-0.8,0.8h-1.1v6.4h1.1  c0.4,0,0.8,0.4,0.8,0.8v0.8c0,0.5-0.3,0.8-0.8,0.8h-1.1v1.5h-10.5c-0.3,0.2-0.4,0.4-0.7,0.5h-0.3h-0.1c-0.4,0-0.6-0.2-0.9-0.5  l-0.1-0.1h-10.4v-1.5h-1.1c-0.4,0-0.8-0.4-0.8-0.8C-208.2,273-208.2,272.3-208.2,272.3z M-235.9,272.3c0-0.5,0.3-0.8,0.8-0.8h1.1  v-6.4h-1.1c-0.4,0-0.8-0.4-0.8-0.8v-0.8c0-0.5,0.3-0.8,0.8-0.8h1.1v-1.5h1v-1l0.7,0.3v-0.3c0.6,0.2,0.5,0.4,1.7,0.3  c0.8,0,4.1-1.8,6.6-1c0.6,0.2,0.9,0.4,1.5,0.7c0.6-0.3,0.9-0.5,1.5-0.7c2.5-0.8,5.9,0.9,6.6,1c1.2,0.1,1.3-0.1,1.7-0.3v0.4l0.3-0.2  l0.4-0.2v0.9h1v1.5h1.1c0.4,0,0.8,0.4,0.8,0.8v0.8c0,0.4-0.3,0.8-0.8,0.8h-1.1v6.4h1.1c0.4,0,0.8,0.4,0.8,0.8v0.8  c0,0.5-0.3,0.8-0.8,0.8h-1.1v1.5h-10.5c-0.2,0.2-0.4,0.4-0.6,0.5h-0.3h-0.1c-0.4,0-0.6-0.2-0.9-0.5l-0.1-0.1H-234v-1.5h-1.1  c-0.4,0-0.8-0.4-0.8-0.8C-235.9,272.9-235.9,272.3-235.9,272.3z M-263.6,272.3c0-0.5,0.3-0.8,0.8-0.8h1.1V265h-1.1  c-0.4,0-0.8-0.4-0.8-0.8v-0.8c0-0.5,0.3-0.8,0.8-0.8h1.1v-1.5h1v-0.9l0.7,0.4v-0.4c0.6,0.2,0.5,0.4,1.7,0.3c0.8,0,4.1-1.8,6.6-1  c0.6,0.2,0.9,0.4,1.5,0.7c0.6-0.3,0.9-0.5,1.5-0.7c2.5-0.8,5.9,0.9,6.6,1c1.2,0.1,1.3-0.1,1.7-0.3v0.4l0.7-0.3v0.9h1v1.5h1.1  c0.4,0,0.8,0.4,0.8,0.8v0.8c0,0.4-0.3,0.8-0.8,0.8h-1.1v6.4h1.1c0.4,0,0.8,0.4,0.8,0.8v0.8c0,0.5-0.3,0.8-0.8,0.8h-1.1v1.5h-10.5  c-0.3,0.2-0.4,0.4-0.7,0.5h-0.3c-0.5,0-0.6-0.2-1-0.6h-10.5v-1.5h-1.1c-0.4,0-0.8-0.4-0.8-0.8C-263.6,273-263.6,272.3-263.6,272.3z  "/> <path fill="#FFD420" d="M-250.2,275.9c0.5,0,0.6-0.3,1-0.6h10.5v-1.5h1.1c0.4,0,0.8-0.4,0.8-0.8v-0.8c0-0.5-0.3-0.8-0.8-0.8h-1.1  V265h1.1c0.4,0,0.8-0.4,0.8-0.8v-0.8c0-0.5-0.3-0.8-0.8-0.8h-1.1v-1.5h-1v-0.9l-0.7,0.3v12.8c-0.6,0-1.1,0.2-2.1,0.1  c-1.3-0.1-3.5-1.6-6.1-1c-0.9,0.2-1.3,0.6-1.6,1c-0.2-0.4-0.9-0.8-1.7-1c-2.6-0.6-4.8,0.8-6.1,1c-1,0.1-1.5-0.1-2.1-0.1v-12.8  l-0.6-0.3v0.9h-1v1.5h-1.1c-0.4,0-0.8,0.4-0.8,0.8v0.8c0,0.4,0.3,0.8,0.8,0.8h1.1v6.4h-1.1c-0.4,0-0.8,0.4-0.8,0.8v0.8  c0,0.5,0.3,0.8,0.8,0.8h1.1v1.5h10.5C-250.8,275.7-250.7,275.9-250.2,275.9 M-194.8,275.9c0.5,0,0.6-0.3,1-0.6h10.5v-1.5h1.1  c0.4,0,0.8-0.4,0.8-0.8v-0.8c0-0.5-0.3-0.8-0.8-0.8h-1.1V265h1.1c0.4,0,0.8-0.4,0.8-0.8v-0.8c0-0.5-0.3-0.8-0.8-0.8h-1.1v-1.5h-1  v-0.9l-0.7,0.4v12.8c-0.6,0-1.1,0.2-2.1,0.1c-1.3-0.1-3.5-1.6-6.1-1c-0.9,0.2-1.4,0.6-1.6,1c-0.3-0.4-0.9-0.8-1.7-1  c-2.6-0.6-4.8,0.8-6.1,1c-1,0.1-1.5-0.1-2.1-0.1v-12.8l-0.6-0.4v0.9h-1v1.5h-1.1c-0.4,0-0.8,0.4-0.8,0.8v0.8c0,0.4,0.3,0.8,0.8,0.8  h1.1v6.4h-1.1c-0.4,0-0.8,0.4-0.8,0.8v0.8c0,0.5,0.3,0.8,0.8,0.8h1.1v1.5h10.5C-195.4,275.7-195.3,275.9-194.8,275.9 M-222.5,275.9  c0.5,0,0.6-0.3,1-0.6h10.5v-1.5h1.1c0.4,0,0.8-0.4,0.8-0.8v-0.8c0-0.5-0.3-0.8-0.8-0.8h-1.1V265h1.1c0.4,0,0.8-0.4,0.8-0.8v-0.8  c0-0.5-0.3-0.8-0.8-0.8h-1.1v-1.5h-1v-0.9l-0.7,0.3v12.8c-0.6,0-1.1,0.2-2.1,0.1c-1.3-0.1-3.5-1.6-6.1-1c-0.9,0.2-1.4,0.6-1.6,1  c-0.2-0.4-0.9-0.8-1.7-1c-2.6-0.6-4.8,0.8-6.1,1c-1,0.1-1.5-0.1-2.1-0.1v-12.8l-0.6-0.3v0.9h-1v1.5h-1.1c-0.4,0-0.8,0.4-0.8,0.8  v0.8c0,0.4,0.3,0.8,0.8,0.8h1.1v6.4h-1.1c-0.4,0-0.8,0.4-0.8,0.8v0.8c0,0.5,0.3,0.8,0.8,0.8h1.1v1.5h10.5  C-223.1,275.7-223,275.9-222.5,275.9 M-205.8,334.4c-1.2,0.5-4.4-0.1-4.4-0.1c-2-0.1-3.4,1.5-3.4,3.6c0,1.7,1.2,2.8,2.6,2.8  c1,0,1.9-0.7,1.9-1.9c0-1-0.5-1.7-1.1-1.7c-0.7,0-0.7,0.4-0.7,0.4c0.5,0.3,0.8,0.6,0.7,1.1c-0.1,0.4-0.4,0.6-0.7,0.7  c-0.7,0-1.1-0.4-1.2-1.1c-0.1-1.1,0.6-2.2,1.9-2.2c1.3,0,2.3,0.9,2.3,2.5c0,2.4-1.3,3.6-3.2,3.6c-0.9,0-1.9-0.5-1.9-0.5  c0-0.2,0.1-0.5,0.1-0.7c0-2.6-3-4.8-7.1-5.4c0-0.4-0.4-0.8-1-1.1v-0.7c0.8-0.3,1.4-0.8,1.4-1.5c0-0.8-0.6-1.5-1.5-1.8  c-0.1-0.2-0.3-0.4-0.6-0.5c0-0.4-0.3-1.6-0.6-1.7c-0.3,0.1-0.6,1.3-0.6,1.7c-0.4,0.2-0.5,0.4-0.5,0.5c-0.9,0.3-1.4,1-1.4,1.7  c0,0.8,0.5,1.3,1.4,1.5h0.1h-0.1v0.8c-0.6,0.3-1,0.8-1,1.1c-3.1,0.4-5.5,1.8-6.6,3.6c0,0-2.2-0.1-1.9-2.9v-0.1  c0-0.4-0.8-0.7-1.8-0.8c-0.3-0.1-0.6-0.1-1-0.1v-0.5h0.5c0.7-0.2,1.2-0.4,1.4-1.3c0.2-1-0.9-2.1-1.4-3c-0.5-0.8,0-2.3-0.7-2  c-0.3,0.8-0.2,1.2-0.7,2c-0.6,0.9-1.6,2-1.4,3c0.1,0.9,0.7,1.1,1.4,1.3c0.2,0.1,0.4,0,0.6,0v0.5c-0.3,0-0.7,0.1-0.9,0.2  c-1,0.1-1.7,0.4-1.7,0.8c0,0.8,1.3,1.5,1.3,1.5s0.7,0.2,2.3,2.7c2.9,4.6,7.4,5.4,8.5,5.6h0.2c0.6,0.2,1.3,0.3,2,0.4  c0,1.1-1.4,0.6-1.3,1.5l-1.2,1.1c-0.9,0.2-1.3,0.7-1.3,1.2c0,1,2.8,1.9,6.2,1.9c3.4,0,6.2-0.8,6.2-1.9c0-0.4-0.3-0.6-1.2-1  l-1.5-1.4c0-0.8-1.2-0.3-1.2-1.4c0.6-0.1,1.1-0.2,1.7-0.4c7.5-0.8,11.7-3,11.8-7.2c0,0,0.1-1.7-1-2.7c1.6,0,1.9-0.4,2.7-1.3  C-204.3,334.1-204.5,333.9-205.8,334.4 M-238.6,300.7c0.1-0.1,1.5-1.8,1.5-3.2c0-1-1.1-1.1-1.9-1.1c0.1-0.3,0-0.5-0.2-0.6  c0.4-0.1,1-1.5,0.5-1.7c0.4-0.1,1.2-1.8,0.2-1.7c-0.1,0-0.2,0-0.3,0.1c0,0,0.4-0.3,0.4-0.7c0-0.6-0.2-0.7-0.2-1.4  c-0.5,0.4-0.7,0.5-1,0.9c-0.2,0.3,0,0.8,0,0.8l-0.2-0.2c-0.7-0.8-1,1.2-0.7,1.5c-0.5-0.2-0.7,1.4-0.5,1.7c-0.5-0.2-0.8,1.3-0.6,1.6  c-0.6,0-1,1.5,0,2.3l-0.3,0.8c-0.7-0.1-1.6-0.2-2.5-0.3l0.4-2.1c1.1-0.2,1.5-1.8,1-2.1c0.3-0.2,0.7-1.7,0.1-1.7  c0.3-0.1,0.8-1.7,0.2-1.8c0.4-0.2,0.9-2.1-0.1-1.7c-0.1,0-0.2,0.1-0.3,0.1c0,0,0.4-0.4,0.3-0.7c-0.1-0.6-0.3-0.7-0.5-1.3  c-0.3,0.4-0.5,0.5-0.7,1c-0.2,0.3,0.1,0.8,0.1,0.8v0.1c-0.1-0.1-0.1-0.2-0.2-0.2c-0.9-0.6-0.9,1.4-0.5,1.6  c-0.6-0.1-0.5,1.5-0.2,1.7c-0.6-0.1-0.5,1.5-0.2,1.7c-0.6,0.2-0.7,1.7,0.4,2.2l-0.2,2.2c-1-0.1-2.1-0.1-3.2-0.1v-2.4  c1.3-0.4,1.4-2,0.7-2.2c0.4-0.2,0.6-1.8,0-1.8c0.3,0,0.6-1.6-0.1-1.6c0.4-0.2,0.7-2.2-0.3-1.7c-0.1,0.1-0.2,0.1-0.3,0.1  c0,0,0.4-0.4,0.3-0.8c-0.2-0.6-0.4-0.7-0.8-1.2c-0.3,0.6-0.5,0.7-0.7,1.2c-0.1,0.3,0.2,0.8,0.2,0.8c-0.1-0.1-0.2-0.1-0.3-0.2  c-1-0.5-0.7,1.5-0.3,1.7c-0.6,0-0.4,1.6,0,1.8c-0.6,0-0.4,1.5-0.1,1.7c-0.6,0.2-0.4,1.8,0.8,2.2h-0.1v2.4c-1.1,0-2.1,0-3,0.1  l-0.3-2.1h-0.1c1.4-0.4,1.3-2,0.6-2.1c0.3-0.3,0.3-1.8-0.3-1.7c0.3-0.2,0.3-1.8-0.2-1.7c0.3-0.3,0.4-2.2-0.5-1.6  c-0.1,0.1-0.2,0.1-0.2,0.2c0,0,0.3-0.5,0.1-0.8c-0.3-0.5-0.4-0.6-0.9-1.1c-0.2,0.6-0.4,0.7-0.5,1.3c-0.1,0.4,0.3,0.7,0.3,0.7v0.1  c-0.1,0-0.2-0.1-0.3-0.1c-0.9-0.4-0.5,1.6-0.1,1.7c-0.6,0.1-0.2,1.6,0.2,1.8c-0.6,0.1-0.2,1.5,0.1,1.7c-0.5,0.3-0.1,1.9,1,2.1h-0.1  l0.3,2.1h-0.1c-0.9,0.1-1.7,0.2-2.4,0.3l0.1-1.1h-0.1c1.1-0.7,0.7-2.3,0-2.3c0.2-0.3,0-1.8-0.5-1.6c0.2-0.3,0-1.9-0.5-1.7  c0.3-0.3-0.1-2.3-0.7-1.5c-0.1,0.1-0.2,0.2-0.2,0.3v-0.1c0,0,0.2-0.5,0-0.8c-0.3-0.5-0.5-0.5-1-0.9c-0.1,0.6-0.3,0.8-0.3,1.4  c0,0.4,0.4,0.7,0.4,0.7h-0.2c-1-0.3-0.2,1.5,0.2,1.6c-0.5,0.2,0.2,1.6,0.6,1.7c-0.2,0.1-0.2,0.4-0.1,0.7c-0.4-0.2-2.6-0.4-2.6,1  s1.5,3.2,1.5,3.2c-0.1,0.1-0.1,0.2-0.1,0.3c0.3,5.8,2,8.8,2.7,9.7c0.9,1.3,2,2.5,7.6,2.5c4.9,0,6.2-0.8,7.3-1.6  c1.2-0.9,2.5-4.7,3-10.6C-238.3,301-238.6,300.7-238.6,300.7z M-240.9,299.3c1.1,0,1.7-1.4,1.3-1.8c0,0,0.1,0,0.1-0.1  c0.7-0.2,1.2,0,1.4,0.2c0.4,0.5-1.3,2.9-1.3,2.9c-0.4-0.2-0.9-0.4-1.7-0.5L-240.9,299.3z M-259.2,297.5c0.6-0.2,0.7-0.3,1.9,0.1  c-0.1,0.5,0.5,1.8,1.6,1.6h-0.1l0.2,0.5c-1.1,0.3-1.8,0.5-2.2,0.7C-257.8,300.4-259.7,297.8-259.2,297.5 M-186.7,300.7  c0.1-0.1,1.5-1.8,1.5-3.2c0-1-1.1-1.1-1.9-1.1c0.1-0.3,0-0.5-0.2-0.6c0.4-0.1,1-1.5,0.5-1.7c0.4-0.1,1.2-1.8,0.2-1.7  c-0.1,0-0.2,0-0.3,0.1c0,0,0.4-0.3,0.4-0.7c0-0.6-0.2-0.7-0.2-1.4c-0.5,0.4-0.7,0.5-1,0.9c-0.2,0.3,0,0.8,0,0.8l-0.2-0.2  c-0.7-0.8-1,1.2-0.7,1.5c-0.4-0.2-0.7,1.4-0.4,1.7c-0.5-0.2-0.8,1.3-0.6,1.6c-0.6,0-1,1.5,0,2.3l-0.3,0.8c-0.7-0.1-1.6-0.2-2.5-0.3  l0.3-2.1c1.1-0.2,1.5-1.8,1-2.1c0.3-0.2,0.7-1.7,0.2-1.7c0.3-0.1,0.8-1.7,0.2-1.8c0.4-0.2,0.9-2.1-0.1-1.7c-0.1,0-0.2,0.1-0.3,0.1  c0,0,0.4-0.4,0.3-0.7c-0.1-0.6-0.3-0.7-0.5-1.3c-0.4,0.5-0.6,0.6-0.9,1.1c-0.1,0.3,0.2,0.7,0.2,0.7v0.1c-0.1-0.1-0.2-0.1-0.3-0.2  c-0.7-0.6-0.7,1.4-0.4,1.6c-0.6-0.1-0.5,1.5-0.2,1.7c-0.6-0.1-0.5,1.5-0.2,1.7c-0.6,0.2-0.7,1.7,0.4,2.2l-0.3,2.4  c-1-0.1-2.1-0.1-3.2-0.1V297c1.3-0.4,1.4-2,0.7-2.2c0.4-0.2,0.6-1.8,0-1.8c0.5-0.2,0.7-1.8,0.1-1.8c0.4-0.2,0.7-2.2-0.3-1.7  c-0.1,0.1-0.2,0.1-0.3,0.1c0,0,0.4-0.4,0.3-0.8c-0.2-0.6-0.4-0.7-0.8-1.2c-0.3,0.6-0.5,0.7-0.7,1.3c-0.2,0.3,0.2,0.8,0.2,0.8  c-0.1-0.1-0.2-0.1-0.3-0.2c-1-0.5-0.7,1.5-0.3,1.7c-0.6,0-0.4,1.6,0,1.8c-0.6,0-0.4,1.5-0.1,1.7c-0.6,0.2-0.4,1.8,0.8,2.2v2.4  c-1.1,0-2.1,0-3,0.1l-0.3-2.1h-0.1c1.2-0.5,1.1-2.1,0.5-2.3c0.3-0.3,0.3-1.8-0.3-1.7c0.3-0.2,0.3-1.8-0.2-1.7  c0.3-0.3,0.4-2.2-0.5-1.6c-0.1,0.1-0.2,0.1-0.2,0.2c0,0,0.3-0.5,0.1-0.8c-0.3-0.5-0.5-0.6-0.9-1.1c-0.2,0.6-0.4,0.7-0.5,1.3  c-0.1,0.4,0.3,0.7,0.3,0.7v0.1c-0.1,0-0.2-0.1-0.3-0.1c-0.9-0.4-0.5,1.6-0.1,1.7c-0.6,0.1-0.2,1.6,0.2,1.8  c-0.6,0.1-0.2,1.5,0.1,1.7c-0.5,0.3-0.1,1.9,1,2.1h-0.1l0.3,2.1h-0.1c-0.9,0.1-1.7,0.2-2.4,0.3l-0.2-0.7h-0.1  c1-0.7,0.7-2.3,0.1-2.3c0.2-0.3,0-1.8-0.5-1.6c0.2-0.3,0-1.9-0.5-1.7c0.3-0.3-0.1-2.3-0.7-1.5c-0.1,0.1-0.2,0.2-0.2,0.3v-0.1  c0,0,0.2-0.5,0-0.8c-0.3-0.5-0.5-0.5-1-0.9c-0.1,0.7-0.2,0.8-0.2,1.4c0,0.4,0.4,0.7,0.4,0.7h-0.2c-1-0.1-0.2,1.6,0.2,1.7  c-0.5,0.2,0.1,1.6,0.5,1.7c-0.2,0.1-0.2,0.4-0.1,0.7c-0.4-0.2-2.6-0.4-2.6,1s1.5,3.2,1.5,3.2h-0.1c0.1-0.3,0.1-0.2,0.1-0.2  c0.3,5.8,2,8.8,2.7,9.7c0.9,1.3,2,2.5,7.6,2.5c4.9,0,6.2-0.8,7.3-1.6c1.2-0.9,2.5-4.7,3-10.6C-186.5,300.9-186.5,300.8-186.7,300.7  z M-189,299.3c1.1,0,1.7-1.4,1.3-1.8c0,0,0.1,0,0.1-0.1c0.7-0.2,1.2,0,1.3,0.2c0.4,0.5-1.3,2.9-1.3,2.9c-0.4-0.2-0.9-0.4-1.7-0.5  C-189.3,300-189,299.3-189,299.3z M-207.2,297.5c0.5-0.2,0.7-0.3,1.9,0.1c-0.2,0.5,0.5,1.8,1.5,1.6h-0.1l0.2,0.5  c-0.9,0.2-1.7,0.4-2.1,0.6C-205.9,300.4-207.8,297.8-207.2,297.5"/> <path fill="#231F20" d="M-250.2,273.7c-0.1,0-0.2-0.1-0.2-0.2v-13.3c0-0.1,0.1-0.2,0.2-0.2c0.1,0,0.2,0.1,0.2,0.2v13.3  C-250,273.6-250.1,273.7-250.2,273.7z M-260.7,274.8L-260.7,274.8c-0.2-0.1-0.2-0.2-0.2-0.3l0.7-1.2c0.1-0.2,0.2-0.2,0.3-0.1  c0.1,0.1,0.1,0.2,0.1,0.3l-0.7,1.2C-260.5,274.7-260.6,274.8-260.7,274.8z M-261.7,274.1h-1.1c-0.6,0-1-0.5-1-1.1v-0.8  c0-0.6,0.5-1.1,1-1.1h1.1c0.1,0,0.2,0.1,0.2,0.2s-0.1,0.2-0.2,0.2h-1.1c-0.3,0-0.5,0.3-0.5,0.6v0.8c0,0.3,0.2,0.6,0.5,0.6h1.1  c0.1,0,0.2,0.1,0.2,0.2C-261.5,273.8-261.6,274.1-261.7,274.1z M-261.7,265.3h-1.1c-0.6,0-1-0.5-1-1.1v-0.8c0-0.6,0.5-1.1,1-1.1  h1.1c0.1,0,0.2,0.1,0.2,0.2s-0.1,0.2-0.2,0.2h-1.1c-0.3,0-0.5,0.3-0.5,0.6v0.8c0,0.3,0.2,0.6,0.5,0.6h1.1c0.1,0,0.2,0.1,0.2,0.2  S-261.6,265.3-261.7,265.3z"/> <path fill="#231F20" d="M-259.1,275c-0.5,0-1.1,0-1.6-0.2c-0.1,0-0.2-0.1-0.2-0.2v-13.4c0-0.1,0.1-0.2,0.2-0.2  c0.1,0,0.2,0.1,0.2,0.2v13.2c0.9,0.2,1.7,0.1,2.4,0.1h0.4c0.2,0,0.5-0.1,0.9-0.2c1-0.3,2.6-0.7,4.2-0.5c0.5,0.1,1.1,0.3,1.6,0.6  c0.1,0.1,0.2,0.2,0.1,0.3c-0.1,0.1-0.2,0.2-0.3,0.1c-0.5-0.3-1-0.4-1.5-0.5c-1.5-0.3-3,0.2-4,0.4c-0.4,0.1-0.8,0.2-1,0.2h-0.4  C-258.3,274.9-258.7,275-259.1,275z M-239.7,274.8c-0.1,0-0.2,0-0.2-0.1l-0.7-1.1c-0.1-0.1,0-0.3,0.1-0.3c0.1-0.1,0.3,0,0.3,0.1  l0.7,1.1C-239.4,274.6-239.5,274.8-239.7,274.8C-239.6,274.7-239.7,274.8-239.7,274.8z M-237.6,274.1h-1.1c-0.1,0-0.2-0.1-0.2-0.2  s0.1-0.2,0.2-0.2h1.1c0.3,0,0.5-0.3,0.5-0.6v-0.8c0-0.3-0.2-0.6-0.5-0.6h-1.1c-0.1,0-0.2-0.1-0.2-0.2s0.1-0.2,0.2-0.2h1.1  c0.6,0,1,0.5,1,1.1v0.8C-236.6,273.6-237,274.1-237.6,274.1z M-237.6,265.3h-1.1c-0.1,0-0.2-0.1-0.2-0.2c0-0.1,0.1-0.2,0.2-0.2h1.1  c0.3,0,0.5-0.3,0.5-0.6v-0.8c0-0.3-0.2-0.6-0.5-0.6h-1.1c-0.1,0-0.2-0.1-0.2-0.2c0-0.1,0.1-0.2,0.2-0.2h1.1c0.6,0,1,0.5,1,1.1v0.8  C-236.6,264.8-237,265.3-237.6,265.3z M-241.3,275c-0.4,0-0.8,0-1.1-0.1h-0.4c-0.2,0-0.6-0.1-1-0.2c-1-0.3-2.5-0.7-4-0.4  c-0.5,0.1-0.9,0.2-1.4,0.5c-0.1,0.1-0.3,0-0.3-0.1c-0.1-0.1,0-0.3,0.1-0.3c0.6-0.3,1.1-0.5,1.6-0.6c1.6-0.3,3.2,0.2,4.2,0.5  c0.4,0.1,0.7,0.2,0.9,0.2h0.4c0.7,0.1,1.6,0.1,2.4-0.1v-13.2c0-0.1,0.1-0.2,0.2-0.2c0.1,0,0.2,0.1,0.2,0.2v13.4  c0,0.1-0.1,0.2-0.2,0.2C-240.2,274.9-240.7,275-241.3,275z"/> <path fill="#231F20" d="M-250.2,275.6c-0.7-0.1-1.1-0.4-1.1-1c0-0.8,0.6-1.3,1-1.3h0.1c0.4,0,1.1,0.5,1.1,1.3  C-249.1,275.2-249.5,275.5-250.2,275.6z M-250.2,273.8c-0.2,0-0.6,0.2-0.6,0.8c0,0.3,0.2,0.5,0.6,0.5c0.4,0,0.6-0.2,0.6-0.5  C-249.6,274-250,273.8-250.2,273.8z"/> <path fill="#231F20" d="M-258.6,273.7c-0.4,0-0.7,0-1-0.1c-0.2,0-0.3,0-0.5-0.1c-0.1,0-0.2-0.1-0.2-0.2v-12.9  c0-0.1,0.1-0.2,0.2-0.2s0.2,0.1,0.2,0.2v12.8h0.3c0.4,0.1,0.8,0.1,1.5,0c0.4,0,0.8-0.2,1.4-0.4c1.2-0.4,2.9-1,4.8-0.6  c0.7,0.2,1.3,0.5,1.6,0.8c0.3-0.4,0.9-0.6,1.6-0.8c1.8-0.4,3.5,0.1,4.8,0.6c0.5,0.2,1,0.3,1.4,0.4c0.7,0.1,1.1,0,1.5,0h0.3v-12.7  c0-0.1,0.1-0.2,0.2-0.2s0.2,0.1,0.2,0.2v12.9c0,0.1-0.1,0.2-0.2,0.2c-0.2,0-0.3,0-0.5,0.1c-0.4,0.1-0.9,0.1-1.6,0  c-0.4,0-0.9-0.2-1.5-0.4c-1.3-0.4-2.8-1-4.5-0.6c-0.7,0.2-1.3,0.5-1.5,0.9c0,0.1-0.1,0.1-0.2,0.1c-0.1,0-0.2,0-0.2-0.1  c-0.2-0.4-0.8-0.7-1.5-0.9c-1.7-0.4-3.2,0.1-4.5,0.5c-0.6,0.2-1.1,0.4-1.5,0.4C-258.1,273.7-258.4,273.7-258.6,273.7z"/> <path fill="#231F20" d="M-250.2,276.1c-0.5,0-0.8-0.2-1.1-0.6h-10.4c-0.1,0-0.1,0-0.2-0.1c0,0-0.1-0.1-0.1-0.2V261  c0-0.1,0.1-0.2,0.2-0.2h0.7v-0.6c0-0.1,0-0.2,0.1-0.2h0.2l0.6,0.2c0-0.1,0-0.1,0.1-0.2c0.1,0,0.1-0.1,0.2,0  c0.2,0.1,0.4,0.1,0.5,0.2c0.2,0,0.3,0.1,1.1,0c0.2,0,0.6-0.1,1-0.3c1.1-0.4,2.6-0.9,4.2-0.9c0.6,0,1.1,0.1,1.5,0.2  c0.4,0.1,0.7,0.3,1,0.4c0.1,0.1,0.3,0.1,0.5,0.2c0.2-0.1,0.3-0.2,0.4-0.2c0.3-0.1,0.6-0.3,1-0.4c0.5-0.1,1-0.2,1.5-0.2  c1.5,0,3.1,0.5,4.2,0.9c0.5,0.2,0.9,0.3,1,0.3c0.9,0.1,1.1-0.1,1.4-0.2c0.1,0,0.1-0.1,0.2-0.1h0.2c0.1,0,0.1,0.1,0.1,0.2l0.3-0.2  h0.2c0.1,0,0.1,0.1,0.1,0.2v0.7h0.7c0.1,0,0.2,0.1,0.2,0.2v14.2c0,0.1,0,0.1-0.1,0.2c0,0-0.1,0.1-0.2,0.1h-10.2l-0.1,0.1  C-249.5,275.9-249.7,276.1-250.2,276.1z M-261.4,275.1h10.2c0.1,0,0.1,0,0.2,0.1c0.4,0.4,0.5,0.5,0.9,0.5c0.3,0,0.4-0.1,0.7-0.4  l0.1-0.1c0,0,0.1-0.1,0.2-0.1h10.3v-13.7h-0.7c-0.1,0-0.2-0.1-0.2-0.2v-0.5l-0.3,0.2h-0.2c0,0-0.1-0.1-0.1-0.2  c-0.3,0.1-0.6,0.2-1.5,0.2c-0.2,0-0.6-0.1-1.2-0.3c-1-0.3-2.6-0.9-4-0.9c-0.5,0-1,0.1-1.4,0.2c-0.4,0.1-0.6,0.2-0.9,0.4  c-0.2,0.1-0.3,0.2-0.6,0.3h-0.2l-0.6-0.3c-0.3-0.1-0.5-0.3-0.9-0.4c-0.4-0.1-0.9-0.2-1.4-0.2c-1.5,0-3,0.5-4,0.9  c-0.5,0.2-0.9,0.3-1.2,0.3c-0.9,0-1.1-0.1-1.3-0.2h-0.1v0.1c0,0.1,0,0.2-0.1,0.2h-0.2l-0.4-0.2v0.5c0,0.1-0.1,0.2-0.2,0.2h-0.9  C-261.4,261.5-261.4,275.1-261.4,275.1z M-222.5,273.7c-0.1,0-0.2-0.1-0.2-0.2v-13.3c0-0.1,0.1-0.2,0.2-0.2s0.2,0.1,0.2,0.2v13.3  C-222.3,273.6-222.4,273.7-222.5,273.7z M-233,274.8h-0.1c-0.1-0.1-0.1-0.2-0.1-0.3l0.7-1.2c0.1-0.1,0.2-0.1,0.3-0.1  c0.1,0.1,0.1,0.2,0.1,0.3l-0.7,1.2C-232.8,274.7-232.9,274.8-233,274.8z M-234,274.1h-1.1c-0.6,0-1-0.5-1-1.1v-0.8  c0-0.6,0.5-1.1,1-1.1h1.1c0.1,0,0.2,0.1,0.2,0.2s-0.1,0.2-0.2,0.2h-1.1c-0.3,0-0.5,0.3-0.5,0.6v0.8c0,0.3,0.2,0.6,0.5,0.6h1.1  c0.1,0,0.2,0.1,0.2,0.2C-233.8,273.8-233.8,274.1-234,274.1z M-234,265.3h-1.1c-0.6,0-1-0.5-1-1.1v-0.8c0-0.6,0.5-1.1,1-1.1h1.1  c0.1,0,0.2,0.1,0.2,0.2s-0.1,0.2-0.2,0.2h-1.1c-0.3,0-0.5,0.3-0.5,0.6v0.8c0,0.3,0.2,0.6,0.5,0.6h1.1c0.1,0,0.2,0.1,0.2,0.2  S-233.8,265.3-234,265.3z"/> <path fill="#231F20" d="M-231.4,275c-0.5,0-1.1,0-1.6-0.2c-0.1,0-0.2-0.1-0.2-0.2v-13.4c0-0.1,0.1-0.2,0.2-0.2  c0.1,0,0.2,0.1,0.2,0.2v13.2c0.9,0.2,1.7,0.1,2.4,0.1h0.4c0.2,0,0.5-0.1,0.9-0.2c1-0.3,2.6-0.7,4.2-0.5c0.5,0.1,1.1,0.3,1.6,0.6  c0.1,0.1,0.2,0.2,0.1,0.3c-0.1,0.1-0.2,0.2-0.3,0.1c-0.5-0.3-1-0.5-1.5-0.5c-1.5-0.3-3,0.2-4,0.4c-0.4,0.1-0.8,0.2-1,0.2h-0.4  C-230.6,274.9-231,275-231.4,275z M-212,274.8c-0.1,0-0.2,0-0.2-0.1l-0.6-1.1c-0.1-0.1,0-0.3,0.1-0.3c0.1-0.1,0.3,0,0.3,0.1  l0.6,1.1C-211.7,274.6-211.8,274.8-212,274.8C-211.9,274.7-212,274.8-212,274.8z M-209.9,274.1h-1.1c-0.1,0-0.2-0.1-0.2-0.2  s0.1-0.2,0.2-0.2h1.1c0.3,0,0.5-0.3,0.5-0.6v-0.8c0-0.3-0.2-0.6-0.5-0.6h-1.1c-0.1,0-0.2-0.1-0.2-0.2s0.1-0.3,0.2-0.3h1.1  c0.6,0,1,0.5,1,1.1v0.8C-208.9,273.6-209.3,274.1-209.9,274.1z M-209.9,265.3h-1.1c-0.1,0-0.2-0.1-0.2-0.2c0-0.1,0.1-0.2,0.2-0.2  h1.1c0.3,0,0.5-0.3,0.5-0.6v-0.8c0-0.3-0.2-0.6-0.5-0.6h-1.1c-0.1,0-0.2-0.1-0.2-0.2c0-0.1,0.1-0.2,0.2-0.2h1.1c0.6,0,1,0.5,1,1.1  v0.8C-208.9,264.8-209.3,265.3-209.9,265.3z M-213.6,275c-0.4,0-0.8,0-1.1-0.1h-0.4c-0.2,0-0.6-0.1-1-0.2c-1-0.3-2.5-0.7-4-0.4  c-0.5,0.1-0.9,0.2-1.4,0.5c-0.1,0.1-0.3,0-0.3-0.1c-0.1-0.1,0-0.3,0.1-0.3c0.6-0.3,1-0.5,1.6-0.6c1.6-0.3,3.2,0.2,4.2,0.5  c0.4,0.1,0.7,0.2,0.9,0.2h0.4c0.7,0.1,1.6,0.1,2.4-0.1v-13.2c0-0.1,0.1-0.2,0.2-0.2s0.2,0.1,0.2,0.2v13.4c0,0.1-0.1,0.2-0.2,0.2  C-212.5,274.9-213,275-213.6,275z"/> <path fill="#231F20" d="M-222.5,275.6c-0.7-0.1-1.1-0.4-1.1-1c0-0.8,0.6-1.3,1.1-1.3h0.1c0.4,0,1,0.5,1,1.3  C-221.4,275.2-221.8,275.5-222.5,275.6z M-222.5,273.8c-0.1,0-0.2,0.1-0.3,0.2c-0.1,0.1-0.2,0.3-0.2,0.6c0,0.1,0,0.5,0.6,0.5  c0.4,0,0.6-0.2,0.6-0.5C-221.9,274-222.3,273.8-222.5,273.8z"/> <path fill="#231F20" d="M-230.9,273.7c-0.4,0-0.7,0-1-0.1c-0.2,0-0.3,0-0.5-0.1c-0.1,0-0.2-0.1-0.2-0.2v-12.9  c0-0.1,0.1-0.2,0.2-0.2c0.1,0,0.2,0.1,0.2,0.2v12.8h0.3c0.4,0.1,0.8,0.1,1.5,0c0.4,0,0.8-0.2,1.4-0.4c1.2-0.4,2.9-1,4.8-0.6  c0.7,0.2,1.3,0.5,1.6,0.8c0.3-0.4,0.9-0.6,1.6-0.8c1.8-0.4,3.5,0.1,4.8,0.6c0.5,0.2,1,0.3,1.4,0.4c0.7,0.1,1.1,0,1.5,0h0.3v-12.7  c0-0.1,0.1-0.2,0.2-0.2s0.2,0.1,0.2,0.2v12.9c0,0.1-0.1,0.2-0.2,0.2c-0.2,0-0.3,0-0.5,0.1c-0.4,0.1-0.9,0.1-1.6,0  c-0.4,0-0.9-0.2-1.5-0.4c-1.3-0.4-2.8-1-4.5-0.6c-0.7,0.2-1.3,0.5-1.5,0.9c0,0.1-0.1,0.1-0.2,0.1s-0.2,0-0.2-0.1  c-0.2-0.4-0.8-0.7-1.5-0.9c-1.7-0.4-3.3,0.1-4.5,0.6c-0.6,0.2-1.1,0.4-1.5,0.4H-230.9z"/> <path fill="#231F20" d="M-222.5,276.1c-0.5,0-0.8-0.2-1.1-0.6H-234c-0.1,0-0.2-0.1-0.2-0.2v-14.2c0-0.1,0.1-0.2,0.2-0.2h0.7v-0.7  c0-0.1,0-0.2,0.1-0.2h0.2l0.3,0.2c0-0.1,0-0.1,0.1-0.2c0.1,0,0.1-0.1,0.2,0c0.2,0.1,0.4,0.1,0.5,0.2c0.2,0.1,0.4,0.2,1.1,0.1  c0.2,0,0.6-0.1,1-0.3c1.1-0.4,2.6-0.9,4.2-0.9c0.6,0,1.1,0.1,1.5,0.2c0.4,0.1,0.7,0.3,1,0.4c0.1,0.1,0.3,0.1,0.5,0.2  c0.2-0.1,0.3-0.2,0.5-0.2c0.3-0.1,0.6-0.3,1-0.4c0.5-0.1,1-0.2,1.5-0.2c1.5,0,3.1,0.5,4.2,0.9c0.5,0.2,0.9,0.3,1,0.3  c0.9,0.1,1.1-0.1,1.4-0.2c0.1,0,0.1-0.1,0.2-0.1h0.2c0.1,0,0.1,0.1,0.1,0.2l0.3-0.2h0.2c0.1,0,0.1,0.1,0.1,0.2v0.7h0.9  c0.1,0,0.2,0.1,0.2,0.2v14.2c0,0.1-0.1,0.2-0.2,0.2h-10.4l-0.1,0.1C-221.8,275.9-222,276.1-222.5,276.1z M-233.7,275.1h10.2  c0.1,0,0.1,0,0.2,0.1c0.3,0.3,0.5,0.5,0.8,0.5s0.4-0.1,0.7-0.4l0.1-0.1c0,0,0.1-0.1,0.2-0.1h10.3v-13.7h-0.8  c-0.1,0-0.2-0.1-0.2-0.2v-0.5l-0.3,0.2h-0.2c-0.1,0-0.1-0.1-0.1-0.2c-0.3,0.1-0.6,0.2-1.5,0.2c-0.2,0-0.6-0.1-1.2-0.3  c-1-0.3-2.6-0.9-4-0.9c-0.5,0-1,0.1-1.4,0.2c-0.4,0.1-0.6,0.2-0.9,0.4c-0.2,0.1-0.3,0.2-0.6,0.3h-0.2l-0.6-0.3  c-0.3-0.1-0.5-0.3-0.9-0.4c-0.4-0.1-0.9-0.2-1.4-0.2c-1.5,0-3,0.5-4,0.9c-0.5,0.2-0.9,0.3-1.2,0.3c-0.9,0-1.1-0.1-1.3-0.2h-0.1v0.1  c0,0.1,0,0.2-0.1,0.2h-0.2l-0.3-0.2v0.5c0,0.1-0.1,0.2-0.2,0.2h-0.7L-233.7,275.1L-233.7,275.1z M-194.8,273.7  c-0.1,0-0.2-0.1-0.2-0.2v-13.3c0-0.1,0.1-0.2,0.2-0.2c0.1,0,0.2,0.1,0.2,0.2v13.3C-194.6,273.6-194.7,273.7-194.8,273.7z   M-205.3,274.8L-205.3,274.8c-0.2-0.1-0.2-0.2-0.2-0.3l0.7-1.2c0.1-0.1,0.2-0.1,0.3-0.1c0.1,0.1,0.1,0.2,0.1,0.3l-0.7,1.2  C-205.1,274.7-205.2,274.8-205.3,274.8z M-206.3,274.1h-1.1c-0.6,0-1-0.5-1-1.1v-0.8c0-0.6,0.5-1.1,1-1.1h1.1  c0.1,0,0.2,0.1,0.2,0.2s-0.1,0.2-0.2,0.2h-1.1c-0.3,0-0.5,0.3-0.5,0.6v0.8c0,0.3,0.2,0.6,0.5,0.6h1.1c0.1,0,0.2,0.1,0.2,0.2  C-206.1,273.8-206.1,274.1-206.3,274.1z M-206.3,265.3h-1.1c-0.6,0-1-0.5-1-1.1v-0.8c0-0.6,0.5-1.1,1-1.1h1.1  c0.1,0,0.2,0.1,0.2,0.2s-0.1,0.2-0.2,0.2h-1.1c-0.3,0-0.5,0.3-0.5,0.6v0.8c0,0.3,0.2,0.6,0.5,0.6h1.1c0.1,0,0.2,0.1,0.2,0.2  S-206.1,265.3-206.3,265.3z"/> <path fill="#231F20" d="M-203.7,275c-0.5,0-1.1,0-1.6-0.2c-0.1,0-0.2-0.1-0.2-0.2v-13.4c0-0.1,0.1-0.2,0.2-0.2s0.2,0.1,0.2,0.2  v13.2c0.9,0.2,1.8,0.1,2.4,0.1h0.4c0.2,0,0.5-0.1,0.9-0.2c1-0.3,2.6-0.7,4.2-0.5c0.5,0.1,1.1,0.3,1.6,0.6c0.1,0.1,0.2,0.2,0.1,0.3  c-0.1,0.1-0.2,0.2-0.3,0.1c-0.5-0.3-1-0.5-1.5-0.5c-1.5-0.3-3,0.2-4,0.4c-0.4,0.1-0.8,0.2-1,0.2h-0.4  C-202.9,274.9-203.3,275-203.7,275z M-184.3,274.8c-0.1,0-0.2,0-0.2-0.1l-0.7-1.1c-0.1-0.1,0-0.3,0.1-0.3c0.1-0.1,0.3,0,0.3,0.1  l0.7,1.1c0.1,0.1,0,0.3-0.1,0.3C-184.2,274.7-184.3,274.8-184.3,274.8z M-182.2,274.1h-1.1c-0.1,0-0.2-0.1-0.2-0.2s0.1-0.2,0.2-0.2  h1.1c0.3,0,0.5-0.3,0.5-0.6v-0.8c0-0.3-0.2-0.6-0.5-0.6h-1.1c-0.1,0-0.2-0.1-0.2-0.2s0.1-0.2,0.2-0.2h1.1c0.6,0,1,0.5,1,1.1v0.8  C-181.2,273.6-181.6,274.1-182.2,274.1z M-182.2,265.3h-1.1c-0.1,0-0.2-0.1-0.2-0.2c0-0.1,0.1-0.2,0.2-0.2h1.1  c0.3,0,0.5-0.3,0.5-0.6v-0.8c0-0.3-0.2-0.6-0.5-0.6h-1.1c-0.1,0-0.2-0.1-0.2-0.2c0-0.1,0.1-0.2,0.2-0.2h1.1c0.6,0,1,0.5,1,1.1v0.8  C-181.2,264.8-181.6,265.3-182.2,265.3z M-185.9,275c-0.4,0-0.8,0-1.1-0.1h-0.4c-0.2,0-0.6-0.1-1-0.2c-1-0.3-2.5-0.7-4-0.4  c-0.5,0.1-0.9,0.2-1.4,0.5c-0.1,0.1-0.3,0-0.3-0.1c-0.1-0.1,0-0.3,0.1-0.3c0.6-0.3,1-0.5,1.6-0.6c1.6-0.3,3.2,0.2,4.2,0.5  c0.4,0.1,0.7,0.2,0.9,0.2h0.4c0.7,0,1.6,0.1,2.4-0.1v-13.2c0-0.1,0.1-0.2,0.2-0.2c0.1,0,0.2,0.1,0.2,0.2v13.4  c0,0.1-0.1,0.2-0.2,0.2C-184.8,274.9-185.3,275-185.9,275z"/> <path fill="#231F20" d="M-194.8,275.6c-0.7-0.1-1.1-0.4-1.1-1c0-0.8,0.6-1.3,1.1-1.3h0.1c0.4,0,1.1,0.5,1.1,1.3  C-193.7,275.2-194.1,275.5-194.8,275.6z M-194.8,273.8c-0.1,0-0.2,0.1-0.3,0.2s-0.2,0.3-0.2,0.6c0,0.3,0.2,0.5,0.6,0.5  c0.6-0.1,0.6-0.4,0.6-0.5C-194.2,274-194.6,273.8-194.8,273.8z"/> <path fill="#231F20" d="M-203.2,273.7c-0.4,0-0.7,0-1-0.1c-0.2,0-0.3,0-0.5-0.1c-0.1,0-0.2-0.1-0.2-0.2v-12.9  c0-0.1,0.1-0.2,0.2-0.2c0.1,0,0.2,0.1,0.2,0.2v12.8h0.3c0.4,0.1,0.8,0.1,1.5,0c0.4,0,0.8-0.2,1.4-0.4c1.2-0.4,2.9-1,4.8-0.6  c0.7,0.2,1.3,0.5,1.6,0.8c0.3-0.4,0.9-0.6,1.6-0.8c1.8-0.4,3.5,0.1,4.8,0.6c0.5,0.2,1,0.3,1.4,0.4c0.7,0.1,1.1,0,1.5,0h0.3v-12.7  c0-0.1,0.1-0.2,0.2-0.2c0.1,0,0.2,0.1,0.2,0.2v12.9c0,0.1-0.1,0.2-0.2,0.2c-0.2,0-0.3,0-0.5,0.1c-0.4,0.1-0.9,0.1-1.6,0  c-0.4,0-0.9-0.2-1.5-0.4c-1.2-0.4-2.8-1-4.5-0.6c-0.7,0.2-1.3,0.5-1.5,0.9c0,0.1-0.1,0.1-0.2,0.1c-0.1,0-0.2,0-0.2-0.1  c-0.2-0.4-0.8-0.7-1.5-0.9c-1.7-0.4-3.2,0.1-4.5,0.6c-0.6,0.2-1.1,0.4-1.5,0.4H-203.2L-203.2,273.7z"/> <path fill="#231F20" d="M-194.8,276.1c-0.5,0-0.8-0.2-1.1-0.6h-10.4c-0.1,0-0.2-0.1-0.2-0.2v-14.2c0-0.1,0.1-0.2,0.2-0.2h0.7v-0.7  c0-0.1,0-0.2,0.1-0.2h0.2l0.3,0.2c0-0.1,0-0.1,0.1-0.2c0.1,0,0.1-0.1,0.2,0c0.2,0.1,0.4,0.1,0.5,0.2c0.2,0.1,0.4,0.2,1.1,0.1  c0.2,0,0.6-0.1,1-0.3c1.1-0.4,2.6-0.9,4.2-0.9c0.6,0,1.1,0.1,1.5,0.2c0.4,0.1,0.7,0.3,1,0.4c0.1,0.1,0.3,0.1,0.4,0.2  c0.2-0.1,0.3-0.2,0.5-0.2c0.3-0.1,0.6-0.3,1-0.4c0.5-0.1,1-0.2,1.5-0.2c1.5,0,3.1,0.5,4.2,0.9c0.5,0.2,0.9,0.3,1,0.3  c0.9,0.1,1.1-0.1,1.4-0.2c0.1,0,0.1-0.1,0.2-0.1h0.2c0.1,0,0.1,0.1,0.1,0.2l0.4-0.2h0.2c0.1,0,0.1,0.1,0.1,0.2v0.7h0.7  c0.1,0,0.2,0.1,0.2,0.2v14.2c0,0.1-0.1,0.2-0.2,0.2h-10.2l-0.1,0.1C-194.1,275.9-194.3,276.1-194.8,276.1z M-206,275.1h10.2  c0.1,0,0.1,0,0.2,0.1c0.4,0.4,0.5,0.5,0.9,0.5c0.3,0,0.4-0.1,0.7-0.4l0.1-0.1c0,0,0.1-0.1,0.2-0.1h10.3v-13.7h-0.7  c-0.1,0-0.2-0.1-0.2-0.2v-0.5l-0.4,0.2h-0.2c-0.1,0-0.1-0.1-0.1-0.2c-0.3,0.1-0.6,0.2-1.4,0.2c-0.2,0-0.6-0.1-1.2-0.3  c-1-0.3-2.6-0.9-4-0.9c-0.5,0-1,0.1-1.4,0.2c-0.4,0.1-0.6,0.2-0.9,0.4l-0.6,0.3h-0.2l-0.6-0.3c-0.3-0.1-0.5-0.3-0.9-0.4  c-0.4-0.1-0.9-0.2-1.4-0.2c-1.5,0-3,0.5-4,0.9c-0.5,0.2-0.9,0.3-1.2,0.3c-0.9,0-1.1-0.1-1.3-0.2h-0.1v0.1c0,0.1,0,0.2-0.1,0.2  c-0.1,0-0.2,0.1-0.2,0l-0.3-0.2v0.5c0,0.1-0.1,0.2-0.2,0.2h-1C-206,261.5-206,275.1-206,275.1z"/> <path fill="#231F20" d="M-247.9,270.5h5c0.2-0.6,0.3-1.3,0.3-2h-0.1c-0.2,1.3-0.8,1.8-1.9,1.8c-1.5,0-1.4-0.8-1.4-1.4v-1.7h0.9  c0.7,0,1.2,0,1.3,0.9h0.1v-2.3h-0.1c-0.1,0.9-0.6,0.9-1.3,0.9h-0.9v-2.9h0.9c0.9,0,1.8,0,1.8,1.3h0.1l0.1-1.6h-4.8v0.2  c1.1,0.2,1.1,0.5,1.1,1.5v3.6c0,1.1,0,1.4-1.1,1.5C-247.9,270.3-247.9,270.5-247.9,270.5z M-254.3,263.6v0.2  c1.4,0.2,1.2,0.6,0.5,2.7l-1.1,2.9l-1.4-3.9c-0.2-0.6-0.7-1.5,0.6-1.6v-0.2h-2.8v0.2c0.8,0.1,1,0.8,1.3,1.5l2,5.5h0.1l1.7-4.7  c0.6-1.5,0.8-2.3,1.7-2.4v-0.2C-251.7,263.6-254.3,263.6-254.3,263.6z M-197.6,263.3c-0.2,0.2-0.3,0.2-0.6,0.2h-4.1  c-0.3,0-0.3,0-0.6-0.2h-0.1l-0.2,1.9h0.1c0.3-1.3,0.8-1.3,1.8-1.3h0.5v4.7c0,1.3-0.1,1.6-1.3,1.8v0.2h3.3v-0.2  c-1.2-0.2-1.3-0.5-1.3-1.8v-4.7h0.5c1,0,1.5,0.1,1.8,1.3h0.1l-0.1-1.9C-197.8,263.3-197.6,263.3-197.6,263.3z M-193.8,267.6  c0.2,0.7,0.6,1.7,0.6,2.1c0,0.5-0.4,0.6-0.7,0.7v0.2h2.6v-0.2c-0.7-0.2-0.8-0.5-1.1-1.2l-2-6c-0.2,0.3-0.4,0.4-0.7,0.5  c0.1,0.2,0,0.4-0.1,0.7l-0.5,1.7l-1,3c-0.3,0.8-0.4,1-1.2,1.3v0.2h2.5v-0.2c-0.4-0.1-1-0.1-1-0.7c0-0.5,0.4-1.6,0.6-2.1  C-195.8,267.6-193.8,267.6-193.8,267.6z M-193.9,267.1h-1.8l0.8-2.7L-193.9,267.1z M-187.1,263.8c-0.4-0.2-0.9-0.4-1.3-0.4  c-1,0-2,0.8-2,2c0,2.1,2.8,1.9,2.8,3.7c0,0.8-0.5,1.3-1.2,1.3c-1,0-1.6-1-1.8-2h-0.2l0.3,1.7c0.5,0.3,1,0.5,1.6,0.5  c1,0,2.2-0.7,2.2-2c0-2.1-2.8-2-2.8-3.8c0-0.7,0.5-1.1,1.1-1.1c0.9,0,1.1,0.8,1.3,1.6h0.1C-187,265.3-187.1,263.8-187.1,263.8z   M-217.1,265.2c0-1.1,0-1.4,1.1-1.5v-0.2h-3v0.2c1.1,0.2,1.1,0.5,1.1,1.5v3.6c0,1.1,0,1.4-1.1,1.5v0.2h3v-0.2  c-1.1-0.2-1.1-0.5-1.1-1.5V265.2z M-228.4,263.8c0.9,0,1.9,0.5,1.9,1.7c0,1.1-1,1.6-1.9,1.6C-228.4,267.1-228.4,263.8-228.4,263.8z   M-229.2,268.9c0,1.1,0,1.4-1.1,1.5v0.2h3.2v-0.2c-1.2-0.2-1.3-0.4-1.3-1.5v-1.7c0.6,0.1,1-0.1,1.3,0.7c0.2,0.4,0.7,1.3,1.3,2  c0.5,0.6,1.2,0.6,2.2,0.6v-0.1c-1.5-0.4-2.4-2.1-3-3.5v-0.1c0.6-0.3,1.1-0.8,1.1-1.7c0-0.5-0.2-1.7-2.5-1.7l-2.2,0.1v0.1  c1,0.1,1.1,0.3,1.1,1.9C-229.2,265.7-229.2,268.9-229.2,268.9z M-249.8,339c-0.1,0-0.2,0-0.3-0.1c-0.1-0.1-0.1-0.4,0-0.5l27.1-24.8  c0.1-0.1,0.3-0.1,0.5,0l27.2,24.8c0.1,0.1,0.2,0.4,0,0.5c-0.1,0.1-0.4,0.2-0.5,0l-26.9-24.6l-26.9,24.6  C-249.6,339-249.7,339-249.8,339z"/> <path fill="#231F20" d="M-188.6,329c-0.1,0-0.2,0-0.2-0.1l-33.9-30.1l-33.8,30.2c-0.1,0.1-0.4,0.1-0.5,0s-0.1-0.4,0-0.5l34.1-30.4  c0.1-0.1,0.3-0.1,0.5,0l34.1,30.4c0.1,0.1,0.2,0.4,0,0.5C-188.3,329-188.6,329-188.6,329z M-186.9,285.5c-3.3,0-6.1-1.4-7.2-3.4  c-1.1,2-3.9,3.4-7.1,3.4c-3.3,0-6.1-1.4-7.2-3.4c-1.1,2-3.9,3.4-7.1,3.4c-3.3,0-6.1-1.4-7.2-3.4c-1.1,2-3.9,3.4-7.1,3.4  c-3.3,0-6.1-1.4-7.2-3.4c-1.1,2-3.9,3.4-7.1,3.4c-3.3,0-6.1-1.4-7.1-3.3c-1.1,2-3.9,3.3-7.1,3.3c-3.8,0-6.9-1.8-7.5-4.3  c0-0.2,0.1-0.4,0.3-0.4c0.2-0.1,0.4,0.1,0.4,0.3c0.4,2.1,3.4,3.7,6.8,3.7c3.4,0,6.3-1.6,6.8-3.7c0-0.2,0.2-0.3,0.3-0.3  c0.2,0,0.3,0.1,0.3,0.3c0.5,2.1,3.3,3.7,6.8,3.7c3.3,0,6.3-1.6,6.8-3.8c0-0.2,0.2-0.3,0.3-0.3c0.2,0,0.3,0.1,0.3,0.3  c0.5,2.1,3.4,3.8,6.8,3.8c3.3,0,6.3-1.6,6.8-3.8c0-0.2,0.2-0.3,0.3-0.3c0.2,0,0.3,0.1,0.3,0.3c0.5,2.1,3.4,3.8,6.8,3.8  c3.3,0,6.3-1.6,6.8-3.8c0-0.2,0.2-0.3,0.3-0.3c0.2,0,0.3,0.1,0.3,0.3c0.5,2.1,3.4,3.8,6.8,3.8c3.3,0,6.3-1.6,6.8-3.8  c0-0.2,0.2-0.3,0.3-0.3c0.2,0,0.3,0.1,0.3,0.3c0.5,2.1,3.4,3.8,6.8,3.8c3.4,0,6.3-1.6,6.8-3.7c0-0.2,0.2-0.3,0.4-0.3  c0.2,0,0.3,0.2,0.3,0.4C-180,283.7-183.2,285.5-186.9,285.5z M-186.9,283.1c-3.2,0-6.1-1.9-7.2-4.6c-1.1,2.7-3.9,4.6-7.1,4.6  s-6.1-1.9-7.2-4.6c-1.1,2.7-3.9,4.6-7.1,4.6s-6.1-1.9-7.2-4.6c-1.1,2.7-3.9,4.6-7.1,4.6s-6.1-1.9-7.2-4.6c-1,2.7-3.9,4.6-7.1,4.6  c-3.3,0-6.1-1.8-7.1-4.5c-1.1,2.7-3.9,4.5-7.1,4.5c-3.7,0-7-2.5-7.5-5.9c0-0.2,0.1-0.4,0.3-0.4s0.4,0.1,0.4,0.3  c0.5,3,3.4,5.3,6.8,5.3c3.4,0,6.3-2.2,6.8-5.2c0-0.2,0.2-0.3,0.4-0.3s0.3,0.1,0.4,0.3c0.5,3,3.4,5.2,6.8,5.2c3.3,0,6.2-2.3,6.8-5.3  c0-0.2,0.2-0.3,0.4-0.3c0.2,0,0.3,0.1,0.4,0.3c0.5,3,3.4,5.3,6.8,5.3c3.3,0,6.2-2.3,6.8-5.3c0-0.2,0.1-0.3,0.4-0.3  c0.2,0,0.3,0.1,0.4,0.3c0.5,3,3.4,5.3,6.8,5.3c3.3,0,6.2-2.3,6.8-5.3c0-0.2,0.2-0.3,0.4-0.3c0.2,0,0.3,0.1,0.4,0.3  c0.5,3,3.4,5.3,6.8,5.3c3.3,0,6.2-2.3,6.8-5.3c0-0.2,0.2-0.3,0.4-0.3c0.2,0,0.3,0.1,0.3,0.3c0.5,3,3.4,5.3,6.8,5.3  c3.4,0,6.3-2.2,6.8-5.2c0-0.2,0.2-0.3,0.4-0.3c0.2,0,0.3,0.2,0.3,0.4C-180,280.7-183.2,283.1-186.9,283.1L-186.9,283.1z   M-222.2,349c0,0-3.8,0-3.8-1.4c0-0.1,0.1-0.2,0.2-0.2s0.2,0.1,0.2,0.2c0,0.5,1.8,0.9,3.3,0.9c2.2,0,2.9-0.3,3.1-0.6  c0.1-0.1,0.1-0.1,0.1-0.2c0-0.1,0.1-0.2,0.2-0.2c0.1,0,0.2,0.1,0.2,0.2c0,0.2-0.1,0.4-0.2,0.6C-219.2,348.8-220.4,349-222.2,349z"  /> <path fill="#231F20" d="M-222.2,348.3c-0.8,0-3.2-0.2-3.2-1c0-0.3,0.3-0.5,0.4-0.5c0.1-0.1,0.3,0,0.3,0.1c0.1,0.1,0,0.3-0.1,0.3  c-0.1,0.1-0.2,0.1-0.2,0.1c0.1,0.2,1.4,0.5,2.7,0.5c1.9,0,2.6-0.3,2.6-0.5l0.2-0.1h-0.2v0.1c-0.1-0.1-0.1-0.3,0-0.3  c0.1-0.1,0.2-0.1,0.3,0c0.1,0.1,0.1,0.3,0.1,0.3C-219.2,347.9-220.2,348.3-222.2,348.3z M-222.2,340.7c-4.9,0-8.7-0.9-8.7-2.1  c0-0.1,0.1-0.2,0.2-0.2c0.1,0,0.2,0.1,0.2,0.2c0,0.6,2.8,1.7,8.3,1.7c5.9,0,8.3-0.9,8.3-1.4c0-0.1,0.1-0.2,0.2-0.2  c0.1,0,0.2,0.1,0.2,0.2C-213.4,340.2-218.1,340.7-222.2,340.7z M-226.5,346.1C-226.6,346.1-226.6,346.1-226.5,346.1  c-0.1,0-5.7-0.4-9-5.7c-1.5-2.4-2.1-2.6-2.1-2.6c-0.2-0.1-1.4-0.9-1.4-1.7c0-0.1,0.1-0.2,0.2-0.2s0.2,0.1,0.2,0.2  c0,0.5,0.8,1.1,1.1,1.3c0.2,0.1,0.9,0.5,2.4,2.8c3.2,5.1,8.5,5.5,8.6,5.5c0.1,0,0.2,0.1,0.2,0.3  C-226.3,346-226.4,346.1-226.5,346.1z"/> <path fill="#231F20" d="M-222.4,342.4c-3.5,0-6.9-0.5-8.5-1.3c-0.3,0-1.6,0.1-2.8-0.8c-0.9-0.7-1.4-1.9-1.6-3.4  c0-0.1,0.1-0.2,0.2-0.3c0.1,0,0.2,0.1,0.3,0.2c0.1,1.4,0.6,2.4,1.4,3.1c1.1,0.9,2.5,0.7,2.5,0.7h0.1c1.2,0.6,4.3,1.3,8.3,1.3  c5.6,0,9.1-1.2,9.1-1.8c0-0.1,0.1-0.2,0.2-0.2c0.1,0,0.2,0.1,0.2,0.2C-212.8,341.4-217.8,342.4-222.4,342.4z"/> <path fill="#231F20" d="M-228.9,339.9C-228.9,339.9-229,339.9-228.9,339.9c-0.2-0.1-0.3-0.2-0.2-0.3c0.9-3.1,4.5-4,4.7-4  c0.1,0,0.3,0,0.3,0.2c0,0.1,0,0.3-0.2,0.3c0,0-3.5,0.9-4.4,3.7C-228.7,339.8-228.8,339.9-228.9,339.9z M-224.7,346.5  c-4.6-1.4-4.4-5-4.4-5c0-0.1,0.1-0.2,0.3-0.2c0.1,0,0.2,0.1,0.2,0.3c0,0.1-0.1,3.2,4,4.5c0.1,0,0.2,0.2,0.2,0.3  C-224.5,346.4-224.6,346.5-224.7,346.5z M-225,340.5c-0.1,0-0.2-0.1-0.2-0.2c-0.1-2.8,2-4,2.1-4.1c0.1-0.1,0.3,0,0.3,0.1  c0.1,0.1,0,0.3-0.1,0.3c-0.1,0-2,1.1-1.9,3.6C-224.8,340.4-224.9,340.5-225,340.5z M-219.5,340.5c-0.1,0-0.2-0.1-0.2-0.2  c0-2.8-1.7-3.6-1.8-3.6c-0.1-0.1-0.2-0.2-0.1-0.3c0.1-0.1,0.2-0.2,0.3-0.1c0.1,0,2.1,1,2.1,4.1  C-219.3,340.4-219.4,340.5-219.5,340.5z M-215.4,340c-0.1,0-0.2-0.1-0.2-0.2c-1.2-3.3-4.5-3.8-4.5-3.8c-0.1,0-0.2-0.1-0.2-0.3  c0-0.1,0.1-0.2,0.3-0.2c0.1,0,3.6,0.6,4.9,4.1C-215.2,339.8-215.2,340-215.4,340z M-220.9,346.7c-0.1,0-0.2-0.1-0.2-0.2  s0-0.3,0.1-0.3c4.9-1.7,5.3-4.8,5.3-4.9s0.1-0.2,0.3-0.2c0.1,0,0.2,0.1,0.2,0.3C-215.2,341.5-215.6,344.8-220.9,346.7z"/> <path fill="#231F20" d="M-222.3,346.7c-0.1,0-0.2-0.1-0.2-0.2s0.1-0.3,0.2-0.3c2.3-0.3,2.4-4.1,2.4-4.1c0-0.1,0.1-0.2,0.2-0.2  s0.2,0.1,0.2,0.2C-219.5,342.3-219.6,346.3-222.3,346.7z"/> <path fill="#231F20" d="M-222.2,346.7c-3.1-0.3-3.4-4.5-3.4-4.6c0-0.1,0.1-0.2,0.2-0.3c0.1,0,0.2,0.1,0.3,0.2c0,0,0.3,4,3,4.2  c0.1,0,0.2,0.1,0.2,0.3C-222,346.6-222.1,346.7-222.2,346.7z M-222.2,352.2c-3.1,0-6.4-0.7-6.4-2.1c0-0.5,0.5-1.2,1.5-1.4l1.1-1  c0-0.5,0.4-0.7,0.7-0.8c0.4-0.1,0.6-0.2,0.6-0.6c0-0.1,0.1-0.2,0.2-0.2c0.1,0,0.2,0.1,0.2,0.2c0,0.8-0.5,1-0.9,1.1  c-0.4,0.1-0.4,0.2-0.4,0.4c0,0.1,0,0.1-0.1,0.2l-1.2,1.1c0,0-0.1,0-0.1,0.1c-0.8,0.2-1.2,0.6-1.2,0.9c0,0.8,2.5,1.6,5.9,1.6  c3.4,0,5.9-0.9,5.9-1.6c0-0.3-0.1-0.4-1-0.7h-0.1l-1.5-1.4c0,0-0.1-0.1-0.1-0.2c0-0.2-0.1-0.3-0.4-0.4s-0.8-0.3-0.8-1.1  c0-0.1,0.1-0.2,0.2-0.2c0.1,0,0.2,0.1,0.2,0.2c0,0.5,0.2,0.5,0.5,0.6c0.3,0.1,0.6,0.2,0.7,0.7l1.4,1.3c0.8,0.3,1.3,0.5,1.3,1.2  C-215.8,351.5-219.1,352.2-222.2,352.2z M-222.2,351.1c-2.9,0-4.1-0.7-4.6-1.2s-0.5-0.9-0.5-1s0.1-0.2,0.2-0.2  c0.1,0,0.2,0.1,0.2,0.2c0,0,0,0.3,0.3,0.7c0.5,0.5,1.6,1,4.2,1c4.6,0,4.8-1.5,4.8-1.5c0-0.1,0.1-0.2,0.3-0.2c0.1,0,0.2,0.1,0.2,0.2  C-217,349.4-217.2,351.1-222.2,351.1z M-222.2,335.3c-0.9,0-1.5-0.4-1.5-1c0-0.1,0.1-0.2,0.2-0.2s0.2,0.1,0.2,0.2  c0,0.3,0.4,0.5,1,0.5c0.6,0,1-0.2,1-0.5c0-0.1,0.1-0.2,0.2-0.2c0.1,0,0.2,0.1,0.2,0.2C-220.7,334.9-221.4,335.3-222.2,335.3z   M-222.2,331.5c-0.8,0-1.4-0.6-1.4-1.2c0-0.1,0.1-0.2,0.2-0.2c0.1,0,0.2,0.1,0.2,0.2c0,0.3,0.4,0.8,0.9,0.8c0.6,0,0.9-0.3,0.9-0.8  c0-0.1,0.1-0.3,0.2-0.2c0.1,0,0.2,0.1,0.2,0.2C-220.9,331-221.4,331.5-222.2,331.5z"/> <path fill="#231F20" d="M-222.2,330.7c-0.5,0-0.9-0.3-0.9-0.8c0-0.1,0.1-0.2,0.2-0.2c0.1,0,0.2,0.1,0.2,0.2c0,0.3,0.2,0.4,0.4,0.4  s0.3-0.1,0.3-0.4c0-0.1,0.1-0.2,0.2-0.2s0.2,0.1,0.2,0.2C-221.4,330.3-221.7,330.7-222.2,330.7z M-218.2,346.1  c-0.1,0-0.2-0.1-0.2-0.2s0.1-0.2,0.2-0.3c7.8-0.9,11.5-3.1,11.6-7c0,0,0.1-1.6-0.9-2.6c-0.1-0.1-0.1-0.2-0.1-0.3  c0-0.1,0.1-0.1,0.2-0.1c1.5,0,1.7-0.3,2.5-1.3l0.1-0.1c-0.1,0-0.4,0.1-0.8,0.3c-1.3,0.5-4.4,0-4.5,0c-0.8-0.1-1.5,0.2-2,0.7  c-0.7,0.6-1,1.6-1,2.6c0,0.8,0.3,1.5,0.8,1.9c0.4,0.4,1,0.6,1.6,0.6c0.8,0,1.6-0.5,1.6-1.7c0-0.8-0.4-1.4-0.9-1.4  c-0.2,0-0.3,0-0.4,0.1c0.4,0.2,0.7,0.6,0.6,1.3c-0.1,0.5-0.6,0.8-0.9,0.8c-0.4,0-0.7-0.1-1-0.3c-0.3-0.2-0.4-0.6-0.4-1  c-0.1-0.7,0.2-1.4,0.6-1.8c0.4-0.4,0.9-0.6,1.6-0.6c1.5,0,2.6,1.1,2.6,2.8c0,2.4-1.3,3.8-3.4,3.8c-0.6,0-1.3-0.2-2-0.6l0.1-0.2  l-0.2-0.2c0.1-0.1,0.2-0.1,0.3-0.1c0.7,0.3,1.3,0.5,1.8,0.5c1.9,0,3-1.2,3-3.4c0-1.4-0.8-2.3-2.1-2.3c-0.5,0-0.9,0.2-1.2,0.5  c-0.3,0.4-0.5,0.9-0.5,1.5c0,0.3,0.1,0.5,0.3,0.7c0.2,0.2,0.4,0.2,0.6,0.2s0.4-0.2,0.5-0.5c0.1-0.4-0.1-0.6-0.5-0.9  c-0.1,0-0.1-0.1-0.1-0.2c0,0,0-0.2,0.1-0.4c0.2-0.2,0.4-0.3,0.8-0.3c0.8,0,1.4,0.8,1.4,1.9c0,1.5-1.1,2.2-2.1,2.2  c-0.7,0-1.4-0.2-1.9-0.8c-0.6-0.6-0.9-1.4-0.9-2.3c0-1.2,0.4-2.3,1.2-3c0.7-0.6,1.5-0.9,2.4-0.9c0.1,0,3.1,0.5,4.3,0.1  c0.9-0.4,1.3-0.4,1.5-0.2c0.2,0.3-0.1,0.6-0.2,0.8c-0.7,0.8-1.1,1.3-2.4,1.4c0.8,1.1,0.8,2.5,0.8,2.5  C-206.3,342.9-210.1,345.3-218.2,346.1L-218.2,346.1z"/> <path fill="#231F20" d="M-222.2,346.7c-0.8,0-1.7-0.1-2.3-0.2c-0.7-0.1-1.4-0.2-2.1-0.4c-1.3-0.4-2.4-1.1-3.5-2  c-0.1-0.1-1-0.9-1-4.3v-0.5c-0.1-0.1-0.2-0.2-0.1-0.3c0.1-0.1,0.2-0.2,0.3-0.1c0.3,0.1,0.3,0.7,0.3,0.9c0.1,3.2,0.9,4,0.9,4  c1,0.9,2,1.5,3.3,1.9c0.6,0.2,1.3,0.3,2,0.4c0.6,0.1,1.5,0.2,2.3,0.2c0.8,0,1.5-0.1,2.2-0.2c0.6-0.1,1-0.2,1.7-0.4  c2.8-0.8,4.7-2.4,5.1-4.2c0-0.2,0.1-0.4,0.1-0.6c0-2.4-2.8-4.6-6.8-5.2c-0.1,0-0.2-0.1-0.2-0.2c0-0.2-0.3-0.6-0.9-0.9  c-0.1,0-0.1-0.1-0.1-0.2v-0.7c0-0.1,0.1-0.2,0.2-0.2s0.2,0.1,0.2,0.2v0.6c0.5,0.3,0.9,0.7,1,1.1c4.2,0.7,7.1,3,7.1,5.6  c0,0.3,0,0.5-0.1,0.7c-0.4,2-2.4,3.6-5.4,4.5c-0.7,0.2-1.2,0.3-1.7,0.4C-220.7,346.6-221.4,346.7-222.2,346.7z M-222.2,336.8  c-1.4,0-2.5-0.6-2.5-1.3c0-0.1,0.1-0.2,0.2-0.2s0.2,0.1,0.2,0.2c0,0.4,0.9,0.8,2,0.8c1.1,0,2-0.4,2-0.8c0-0.1,0.1-0.2,0.2-0.2  c0.1,0,0.2,0.1,0.2,0.2C-219.7,336.2-220.8,336.8-222.2,336.8z"/> <path fill="#231F20" d="M-231,339.3c-0.1,0-1-0.1-1.6-0.8c-0.5-0.6-0.6-1.4-0.5-2.5c0-0.1,0.1-0.2,0.3-0.2c0.1,0,0.2,0.1,0.2,0.3  c-0.1,0.9,0,1.6,0.4,2.1c0.4,0.5,0.9,0.6,1.1,0.6c1.1-1.8,3.5-3.1,6.5-3.5c0.1-0.4,0.4-0.8,1-1.1v-0.6c0-0.1,0.1-0.2,0.3-0.2  c0.1,0,0.2,0.1,0.2,0.3v0.8c0,0.1-0.1,0.2-0.1,0.2c-0.6,0.3-0.8,0.7-0.8,0.9c0,0.1-0.1,0.2-0.2,0.2c-3,0.4-5.4,1.7-6.4,3.5  C-230.9,339.2-231,339.3-231,339.3z M-222.2,334c-0.4,0-0.9-0.1-1.3-0.2c-1.3-0.4-1.6-1.1-1.6-1.7c0-0.8,0.6-1.6,1.5-1.9  c0.1-0.1,0.2-0.3,0.5-0.4c0.1-0.5,0.4-1.7,0.8-1.8h0.2c0.4,0.2,0.7,1.3,0.7,1.8c0.2,0.1,0.4,0.3,0.5,0.4c1,0.4,1.6,1.1,1.6,2  c0,0.8-0.6,1.5-1.6,1.8C-221.4,333.9-221.8,334-222.2,334z M-222.2,328.4c-0.2,0.3-0.4,1.1-0.4,1.4c0,0.1-0.1,0.2-0.1,0.2  c-0.3,0.2-0.4,0.3-0.4,0.4s-0.1,0.1-0.1,0.1c-0.8,0.3-1.3,0.9-1.3,1.5s0.4,1.1,1.2,1.3c0.3,0.1,0.8,0.2,1.1,0.2  c0.4,0,0.8-0.1,1.1-0.2c0.8-0.2,1.3-0.7,1.3-1.3c0-0.7-0.5-1.3-1.3-1.6c-0.1,0-0.1-0.1-0.1-0.1c-0.1-0.2-0.2-0.3-0.4-0.3  c-0.1,0-0.2-0.1-0.2-0.2C-221.9,329.4-222.1,328.7-222.2,328.4z M-236.1,334.8h-0.5c-0.1,0-0.3,0-0.5-0.1c-0.7-0.2-1.4-0.5-1.5-1.5  c-0.1-0.9,0.5-1.8,1-2.6c0.2-0.2,0.3-0.4,0.4-0.6c0.3-0.5,0.4-0.9,0.5-1.3c0-0.2,0.1-0.4,0.2-0.6c0-0.1,0.1-0.1,0.1-0.2  c0.1,0,0.2-0.1,0.3-0.1c0.5,0,0.5,0.5,0.5,1c0,0.4,0,0.8,0.2,1.1c0.1,0.2,0.3,0.4,0.4,0.6c0.6,0.8,1.2,1.7,1,2.6  c-0.2,1-0.8,1.3-1.5,1.5c-0.2,0.1-0.3,0.1-0.4,0.1h-0.3C-235.9,334.8-236,334.8-236.1,334.8C-236,334.8-236,334.8-236.1,334.8z   M-235.9,328.4c0,0.2-0.1,0.3-0.1,0.5c-0.1,0.5-0.2,0.8-0.6,1.4c-0.1,0.2-0.3,0.4-0.4,0.7c-0.5,0.7-1.1,1.5-1,2.2  c0.1,0.8,0.5,0.9,1.2,1.1h1.6c0.7-0.2,1.1-0.4,1.2-1.1c0.1-0.7-0.4-1.5-1-2.2c-0.2-0.2-0.3-0.4-0.4-0.7c-0.2-0.4-0.3-0.9-0.3-1.3  C-235.8,328.8-235.8,328.5-235.9,328.4z"/> <path fill="#231F20" d="M-235.8,335.1v-1.3c0-0.3-0.5-0.3-0.5,0v1.3c-0.8,0-1.4,0.3-1.4,0.5c0,0.3,0.8,0.5,1.7,0.5  c1,0,1.7-0.2,1.7-0.5C-234.2,335.3-234.9,335.1-235.8,335.1"/> <path fill="#231F20" d="M-235.9,336.4c-0.7,0-2-0.2-2-0.8c0-0.4,0.7-0.7,1.4-0.8v-1.1c0-0.3,0.2-0.5,0.5-0.5s0.5,0.2,0.5,0.5v1.1  c0.8,0.1,1.6,0.3,1.6,0.8C-233.9,336.2-235.2,336.4-235.9,336.4z M-236,335.1c0,0.1-0.1,0.2-0.2,0.2c-0.8,0-1.1,0.2-1.2,0.3  c0.1,0.1,0.6,0.3,1.5,0.3c0.9,0,1.4-0.2,1.5-0.3c-0.1-0.1-0.5-0.3-1.4-0.3C-235.9,335.3-236,335.2-236,335.1z"/> <path fill="#231F20" d="M-235.9,337.1c-1.1,0-2.5-0.2-3-0.7c-0.1-0.1-0.2-0.2-0.2-0.4c0-0.8,1.7-1.1,3.2-1.1s3.2,0.4,3.2,1.1  c0,0.2,0,0.3-0.2,0.4C-233.3,336.8-234.6,337.1-235.9,337.1z M-235.9,335.4c-1.8,0-2.7,0.5-2.7,0.6c0,0,0,0.1,0.1,0.1  c0.3,0.3,1.3,0.6,2.7,0.6c1.3,0,2.4-0.3,2.7-0.6l0.2-0.1h-0.2C-233.1,335.8-234.1,335.4-235.9,335.4z M-238.6,300.9  c-0.1,0-0.1,0-0.2-0.1s-0.1-0.2,0-0.3c0,0,1.4-1.7,1.4-3.1c0-0.2-0.1-0.4-0.2-0.5c-0.3-0.2-0.8-0.3-1.4-0.3c-0.1,0-0.2-0.1-0.3-0.2  c0-0.1,0.1-0.2,0.2-0.3c0.4,0,1.3,0,1.8,0.4c0.2,0.2,0.4,0.5,0.4,0.9c0,1.5-1.5,3.3-1.5,3.4C-238.5,300.9-238.6,300.9-238.6,300.9z   M-255,300c-0.1,0-0.2-0.1-0.2-0.2s0.1-0.3,0.2-0.3c0.8-0.1,1.6-0.2,2.5-0.3c0.1,0,0.2,0.1,0.3,0.2c0,0.1-0.1,0.2-0.2,0.3  C-253.4,299.8-254.2,299.8-255,300z M-251.9,299.6c-0.1,0-0.2-0.1-0.2-0.2s0.1-0.2,0.2-0.2c1-0.1,2-0.1,3.1-0.1  c0.1,0,0.2,0.1,0.2,0.2s-0.1,0.2-0.2,0.2C-249.9,299.6-250.9,299.6-251.9,299.6z M-244.9,299.7c-1-0.1-2.1-0.1-3.2-0.1  c-0.1,0-0.2-0.1-0.2-0.2s0.1-0.2,0.2-0.2c1.1,0,2.2,0.1,3.2,0.1c0.1,0,0.2,0.1,0.2,0.3C-244.7,299.6-244.8,299.7-244.9,299.7z"/> <path fill="#231F20" d="M-248.7,302.9c-3.4,0-9.9-0.4-9.9-1.9c0-0.4,0.3-0.9,2.9-1.4c0.1,0,0.3,0.1,0.3,0.2s-0.1,0.3-0.2,0.3  c-2.5,0.4-2.6,0.9-2.6,0.9c0,0.5,3.2,1.4,9.4,1.4s9.4-0.9,9.4-1.4c0-0.1-0.3-0.5-1.9-0.8c-0.1,0-0.2-0.2-0.2-0.3s0.2-0.2,0.3-0.2  c2.2,0.5,2.4,0.9,2.4,1.3C-238.8,302.5-245.3,302.9-248.7,302.9z M-241.8,300.1c-0.6-0.1-1.5-0.2-2.5-0.3c-0.1,0-0.2-0.1-0.2-0.3  c0-0.1,0.1-0.2,0.3-0.2c1.1,0.1,2,0.2,2.5,0.3c0.1,0,0.2,0.1,0.2,0.3C-241.6,300-241.7,300.1-241.8,300.1z M-258.2,292.7  L-258.2,292.7c-0.2,0-0.7-0.4-0.7-0.9c0-0.4,0.1-0.6,0.1-0.8c0-0.2,0.1-0.3,0.1-0.6c0.1-0.1,0.2-0.2,0.3-0.2h0.2  c0.2,0.1,0.3,0.2,0.4,0.3c0.2,0.2,0.4,0.3,0.6,0.7c0.3,0.4,0.1,1,0.1,1c0,0.1-0.2,0.2-0.3,0.1c-0.1,0-0.2-0.2-0.1-0.3  s0.1-0.4,0-0.6c-0.2-0.2-0.4-0.3-0.6-0.5c0,0-0.1,0-0.1-0.1c0,0.1,0,0.2-0.1,0.3c0,0.2,0,0.4-0.1,0.7c0,0.2,0.3,0.4,0.4,0.4  c0.1,0.1,0.1,0.2,0,0.3C-258,292.6-258.1,292.7-258.2,292.7z"/> <path fill="#231F20" d="M-258.2,294.3c-0.5-0.1-1-1.2-0.9-1.7c0-0.3,0.3-0.5,0.7-0.5c0.3,0.1,0.5,0.1,0.7,0.2  c0.1-0.1,0.2-0.3,0.4-0.6c0.3-0.3,0.6-0.3,0.8-0.1c0.4,0.4,0.6,1.6,0.3,1.9c-0.1,0.1-0.2,0.1-0.3,0c-0.1,0-0.1-0.2-0.1-0.3  c0.1-0.1,0.1-0.6-0.1-1c0-0.2-0.1-0.3-0.1-0.3s-0.1,0-0.1,0.1c-0.4,0.5-0.4,0.7-0.4,0.7c0,0.1,0,0.2-0.2,0.3c-0.1,0-0.3,0-0.3-0.2  c0,0-0.1-0.1-0.6-0.2h-0.2c-0.1,0.4,0.3,1.2,0.5,1.2c0.1,0,0.2,0.1,0.2,0.3C-257.9,294.2-258,294.3-258.2,294.3z"/> <path fill="#231F20" d="M-257.6,296C-257.6,296-257.7,296-257.6,296c-0.5-0.1-1-1.2-0.9-1.7c0-0.3,0.3-0.5,0.7-0.5  c0.3,0,0.5,0.1,0.7,0.2c0-0.1,0.1-0.3,0.3-0.6c0.3-0.3,0.7-0.3,0.8-0.1c0.5,0.4,0.6,1.6,0.3,1.9c-0.1,0.1-0.2,0.2-0.3,0.1  c-0.1-0.1-0.1-0.3,0-0.4c0-0.1,0-0.6-0.1-1c-0.1-0.2-0.2-0.3-0.2-0.3s-0.1,0-0.1,0.1c-0.4,0.5-0.4,0.7-0.4,0.7c0,0.1,0,0.2-0.2,0.3  c-0.1,0-0.3,0-0.3-0.2c0,0-0.1-0.1-0.6-0.2h-0.2c-0.1,0.4,0.3,1.2,0.5,1.2c0.1,0,0.2,0.1,0.2,0.3C-257.4,295.9-257.5,296-257.6,296  z"/> <path fill="#231F20" d="M-257.1,297.7c-0.5-0.1-1-1.2-0.9-1.7c0-0.3,0.3-0.5,0.7-0.5c0.3,0,0.5,0.1,0.7,0.2  c0.1-0.2,0.2-0.3,0.4-0.6c0.3-0.3,0.6-0.3,0.8-0.1c0.4,0.4,0.6,1.6,0.3,1.9c-0.1,0.1-0.2,0.1-0.3,0c-0.1-0.1-0.1-0.2,0-0.3  c0.1-0.1,0.1-0.6-0.1-1l-0.3-0.3c0,0-0.1,0-0.1,0.1c-0.4,0.5-0.4,0.7-0.4,0.7c0,0.1,0,0.2-0.2,0.3c-0.1,0-0.3,0-0.3-0.2  c0,0-0.1-0.1-0.6-0.2h-0.2c0,0.4,0.4,1.2,0.5,1.2s0.2,0.1,0.2,0.3C-256.9,297.6-257,297.7-257.1,297.7z"/> <path fill="#231F20" d="M-255.9,299.5c-1,0-1.6-1-1.6-1.7c0-0.4,0.3-0.7,0.6-0.7c0.3,0,0.5,0.1,0.7,0.1c0.1-0.1,0.2-0.3,0.5-0.5  c0.5-0.3,1,0,1.2,0.7s0,1.6-0.9,2.1H-255.9z M-256.9,297.6c0,0-0.1,0-0.1,0.2c0,0.6,0.6,1.4,1.4,1.2c0.6-0.3,0.8-1,0.6-1.5  c-0.1-0.3-0.2-0.5-0.3-0.5h-0.1c-0.5,0.4-0.4,0.6-0.4,0.6c0,0.1,0,0.3-0.1,0.3c-0.1,0-0.2,0-0.3-0.1  C-256.3,297.8-256.3,297.6-256.9,297.6z"/> <path fill="#231F20" d="M-254.2,302.6c-0.1,0-0.2-0.1-0.2-0.2l-1.1-3.3c0-0.1,0-0.3,0.1-0.3c0.1,0,0.3,0,0.3,0.1l1.1,3.3  C-253.9,302.4-254,302.5-254.2,302.6C-254.1,302.6-254.1,302.6-254.2,302.6z M-254.9,302.5c-0.1,0-0.2-0.1-0.2-0.2l-1-2.9  c0-0.1,0-0.3,0.2-0.3c0.1,0,0.3,0,0.3,0.2l0.9,2.9C-254.7,302.3-254.8,302.4-254.9,302.5z M-253.8,290.4c-0.1,0-0.1,0-0.2-0.1  c-0.1,0-0.5-0.5-0.4-1c0.1-0.4,0.2-0.6,0.3-0.8c0.1-0.1,0.1-0.3,0.2-0.6c0-0.1,0.1-0.1,0.2-0.2c0.1,0,0.2,0,0.2,0.1  c0.1,0.2,0.2,0.3,0.3,0.4c0.2,0.2,0.4,0.4,0.5,0.8c0.2,0.4-0.1,1-0.1,1c0,0.3-0.1,0.3-0.2,0.2c-0.1-0.1-0.1-0.2-0.1-0.3  c0.1-0.1,0.2-0.4,0.1-0.6c-0.2-0.3-0.3-0.5-0.5-0.7l-0.1-0.1c0,0.1-0.1,0.2-0.1,0.2c-0.1,0.2-0.2,0.4-0.2,0.7  c0,0.2,0.2,0.4,0.2,0.5c0.1,0.1,0.1,0.2,0,0.3C-253.7,290.4-253.7,290.4-253.8,290.4z"/> <path fill="#231F20" d="M-254.1,292C-254.2,292-254.2,292-254.1,292c-0.5-0.2-0.9-1.3-0.6-1.9c0.1-0.3,0.4-0.5,0.8-0.3  c0.3,0.1,0.5,0.2,0.6,0.3l0.5-0.5c0.4-0.3,0.7-0.1,0.9,0.1c0.3,0.5,0.3,1.7-0.1,2c-0.1,0.1-0.3,0.1-0.3,0c-0.1-0.1-0.1-0.3,0-0.3  c0.1-0.1,0.2-1.1,0-1.3c0,0,0-0.1-0.2,0c-0.5,0.3-0.5,0.5-0.5,0.5c0,0.1-0.1,0.2-0.2,0.2c-0.1,0-0.2-0.1-0.3-0.2  c0,0-0.1-0.1-0.6-0.3c-0.1-0.1-0.2,0-0.2,0c-0.2,0.3,0.1,1.2,0.3,1.3c0.1,0,0.2,0.2,0.1,0.3C-254,291.9-254.1,292-254.1,292z"/> <path fill="#231F20" d="M-253.9,293.8C-254,293.8-254,293.8-253.9,293.8c-0.5-0.2-0.9-1.3-0.6-1.9c0.1-0.3,0.4-0.5,0.8-0.3  c0.3,0.1,0.5,0.2,0.6,0.3l0.5-0.5c0.4-0.3,0.7-0.1,0.9,0.1c0.3,0.5,0.3,1.7-0.1,2c-0.1,0.1-0.3,0.1-0.3-0.1c-0.1-0.1-0.1-0.3,0-0.3  c0.1-0.2,0.2-1.1,0-1.3c0,0,0-0.1-0.2,0c-0.5,0.3-0.5,0.5-0.5,0.5c0,0.1-0.1,0.2-0.2,0.2c-0.1,0-0.2-0.1-0.3-0.2  c0,0-0.1-0.1-0.6-0.3c-0.2-0.1-0.2,0-0.2,0c-0.2,0.4,0.1,1.2,0.3,1.3c0.1,0.1,0.2,0.2,0.1,0.3  C-253.8,293.7-253.8,293.8-253.9,293.8z"/> <path fill="#231F20" d="M-253.7,295.6C-253.8,295.6-253.8,295.6-253.7,295.6c-0.5-0.2-0.9-1.3-0.6-1.9c0-0.3,0.3-0.5,0.7-0.3  c0.3,0.1,0.5,0.2,0.6,0.3l0.5-0.5c0.4-0.3,0.7-0.1,0.9,0.1c0.3,0.5,0.3,1.7-0.1,1.9c0,0.1-0.2,0.1-0.3,0c-0.1-0.1-0.1-0.3,0-0.3  c0.1-0.2,0.2-1.1,0-1.3c0,0,0-0.1-0.2,0c-0.4,0.4-0.4,0.6-0.4,0.6c0,0.1-0.1,0.2-0.2,0.2s-0.2-0.1-0.3-0.2c0,0-0.1-0.1-0.6-0.3  c-0.2-0.1-0.2,0-0.2,0c-0.2,0.3,0.1,1.2,0.3,1.3c0.1,0,0.2,0.2,0.1,0.3C-253.5,295.5-253.6,295.6-253.7,295.6z"/> <path fill="#231F20" d="M-252.5,297.6c-1.1,0-1.7-1.1-1.7-1.8c0-0.2,0-0.4,0.1-0.5c0.1-0.2,0.4-0.3,0.7-0.3  c0.3,0.1,0.5,0.2,0.7,0.3c0.1-0.1,0.3-0.3,0.6-0.4c0.5-0.2,1,0.2,1.1,0.8c0.1,0.7-0.3,1.7-1.3,1.9  C-252.3,297.6-252.5,297.6-252.5,297.6z M-253.6,295.5c-0.1,0-0.1,0-0.1,0.1c0,0.1-0.1,0.2-0.1,0.3c0,0.5,0.4,1.3,1.2,1.3h0.1  c0.7-0.2,1-0.9,0.9-1.4c0-0.3-0.2-0.5-0.4-0.5c-0.4,0.2-0.5,0.4-0.5,0.5s-0.1,0.2-0.2,0.3c-0.1,0-0.2-0.1-0.3-0.2  C-252.9,295.8-253,295.6-253.6,295.5C-253.5,295.5-253.6,295.5-253.6,295.5z M-251.5,302.8c-0.1,0-0.2-0.1-0.2-0.2l-0.6-5.2  c0-0.1,0.1-0.2,0.2-0.3c0.1,0,0.2,0.1,0.3,0.2l0.6,5.2C-251.3,302.7-251.4,302.8-251.5,302.8z M-252.2,302.7  c-0.1,0-0.2-0.1-0.2-0.2l-0.6-5.1c0-0.1,0.1-0.2,0.2-0.3c0.1,0,0.2,0.1,0.3,0.2l0.6,5.1C-252,302.6-252.1,302.7-252.2,302.7z   M-248.9,289.9c-0.1,0-0.1,0-0.2-0.1c-0.1-0.1-0.5-0.5-0.3-1c0.1-0.3,0.3-0.5,0.4-0.7c0.1-0.1,0.2-0.3,0.3-0.5  c0-0.1,0.1-0.1,0.2-0.1c0.1,0,0.2,0,0.2,0.1c0.1,0.2,0.2,0.3,0.3,0.4c0.2,0.2,0.3,0.4,0.5,0.9s-0.3,1-0.3,1c-0.1,0.1-0.2,0.1-0.3,0  c-0.1-0.1-0.1-0.2,0-0.3c0.1-0.1,0.3-0.4,0.2-0.5c-0.1-0.5-0.2-0.6-0.4-0.9l-0.1-0.1c-0.1,0.1-0.1,0.2-0.2,0.2  c-0.1,0.2-0.2,0.3-0.4,0.6c-0.1,0.2,0.1,0.4,0.2,0.5c0.1,0.1,0.1,0.2,0,0.3C-248.8,289.9-248.9,289.9-248.9,289.9z"/> <path fill="#231F20" d="M-249.5,291.4h-0.1c-0.4-0.2-0.7-1.3-0.4-1.9c0.1-0.3,0.4-0.5,0.9-0.2c0.3,0.2,0.5,0.3,0.7,0.4  c0.1-0.1,0.3-0.3,0.7-0.4c0.5-0.2,0.8,0,0.9,0.2c0.3,0.5,0,1.7-0.4,1.9c-0.1,0.1-0.3,0-0.3-0.1c-0.1-0.1,0-0.3,0.1-0.3  c0.2-0.1,0.4-0.9,0.2-1.3c0,0-0.1-0.1-0.3,0c-0.6,0.3-0.7,0.5-0.7,0.5c0,0.1-0.1,0.2-0.2,0.2c-0.1,0-0.2-0.1-0.2-0.2  c0,0-0.1-0.1-0.6-0.4c-0.2-0.1-0.2,0-0.3,0c-0.2,0.3,0,1.2,0.2,1.3c0.1,0.1,0.2,0.2,0.1,0.3C-249.2,291.4-249.5,291.4-249.5,291.4z  "/> <path fill="#231F20" d="M-249.5,293.2h-0.1c-0.4-0.2-0.7-1.3-0.4-1.9c0.1-0.3,0.4-0.5,0.9-0.2c0.3,0.2,0.5,0.3,0.7,0.4  c0.1-0.1,0.3-0.3,0.7-0.4c0.3-0.2,0.6-0.1,0.7,0c0.2,0.2,0.3,0.5,0.3,1c0,0.3-0.1,1-0.5,1.2c-0.1,0.1-0.3,0-0.3-0.1  c-0.1-0.1,0-0.3,0.1-0.3c0.2-0.1,0.4-0.9,0.2-1.3c0,0-0.1-0.1-0.3,0c-0.6,0.3-0.7,0.5-0.7,0.5c0,0.1-0.1,0.2-0.2,0.2  c-0.1,0-0.2-0.1-0.2-0.2c0,0-0.1-0.1-0.6-0.4c-0.2-0.1-0.2,0-0.3,0c-0.2,0.3,0,1.2,0.2,1.3c0.1,0.1,0.2,0.2,0.1,0.3  C-249.3,293.2-249.4,293.2-249.5,293.2z"/> <path fill="#231F20" d="M-249.5,295h-0.1c-0.4-0.2-0.7-1.4-0.4-1.9c0.1-0.3,0.4-0.5,0.9-0.2c0.3,0.2,0.5,0.3,0.7,0.4  c0.1-0.1,0.3-0.3,0.7-0.4c0.5-0.2,0.8,0,0.9,0.2c0.3,0.5,0,1.7-0.4,1.9c-0.1,0.1-0.3,0-0.3-0.1c-0.1-0.1,0-0.3,0.1-0.3  c0.2-0.1,0.4-0.9,0.2-1.3c0,0-0.1-0.1-0.3,0c-0.6,0.3-0.7,0.5-0.7,0.5c0,0.1-0.1,0.2-0.2,0.2c-0.1,0-0.2-0.1-0.2-0.3  c0,0-0.1-0.2-0.6-0.4c-0.2-0.1-0.2,0-0.3,0c-0.2,0.3,0,1.2,0.2,1.3c0.1,0.1,0.2,0.2,0.1,0.3C-249.4,295-249.4,295-249.5,295z"/> <path fill="#231F20" d="M-248.4,297.3c-1.2-0.1-1.7-1.2-1.7-1.9c0-0.6,0.4-1,1-0.8c0.3,0.1,0.6,0.2,0.7,0.4  c0.1-0.1,0.4-0.3,0.7-0.4c0.5-0.1,1,0.2,1,0.9C-246.7,296.2-247.2,297.1-248.4,297.3z M-249.4,295c-0.2,0-0.2,0.3-0.2,0.4  c0,0.5,0.4,1.3,1.2,1.4c1-0.1,1.3-0.9,1.2-1.3c0-0.2-0.1-0.5-0.4-0.4c-0.5,0.1-0.6,0.3-0.6,0.4s-0.1,0.2-0.2,0.2  c-0.1,0-0.2-0.1-0.2-0.2v-0.1c0,0-0.1-0.2-0.6-0.4C-249.2,295-249.4,295-249.4,295z"/> <path fill="#231F20" d="M-248.1,302.8c-0.1,0-0.2-0.1-0.2-0.2V297c0-0.1,0.1-0.2,0.2-0.2c0.1,0,0.2,0.1,0.2,0.2v5.6  C-247.8,302.7-248,302.8-248.1,302.8z M-248.8,302.8c-0.1,0-0.2-0.1-0.2-0.2v-5.7c0-0.1,0.1-0.2,0.2-0.2s0.2,0.1,0.2,0.2v5.7  C-248.6,302.7-248.7,302.8-248.8,302.8z M-238.7,292.7c-0.1,0-0.2,0-0.2-0.1c-0.1-0.1,0-0.3,0.1-0.3c0.1-0.1,0.3-0.3,0.3-0.4  c0-0.3-0.1-0.5-0.1-0.7c0-0.1,0-0.2-0.1-0.3l-0.1,0.1c-0.2,0.2-0.4,0.3-0.6,0.6c-0.1,0.1,0,0.4,0,0.6c0,0.1,0,0.3-0.1,0.3  c-0.1,0-0.3,0-0.3-0.1s-0.2-0.6,0.1-1c0.3-0.3,0.4-0.5,0.7-0.7c0.1-0.1,0.2-0.2,0.4-0.3c0.1-0.1,0.2-0.1,0.2,0  c0.1,0,0.1,0.1,0.2,0.2c0,0.3,0.1,0.5,0.1,0.6c0,0,0.1,0.2,0.1,0.6c0,0.5-0.5,0.8-0.5,0.9C-238.6,292.6-238.6,292.7-238.7,292.7z   M-238.6,294.3c-0.1,0-0.2-0.1-0.2-0.2c0-0.1,0.1-0.3,0.2-0.3c0.2-0.1,0.6-0.8,0.5-1.2c0,0,0-0.1-0.2,0c-0.6,0.1-0.7,0.2-0.7,0.2  c0,0.1-0.2,0.2-0.3,0.1c-0.1,0-0.2-0.2-0.1-0.3c0,0,0-0.2-0.4-0.6c-0.1,0-0.2-0.1-0.2-0.1l-0.2,0.2c-0.2,0.4-0.2,0.9-0.1,1  c0.1,0.1,0.1,0.2,0,0.3c-0.1,0.1-0.3,0.1-0.3,0c-0.3-0.3-0.1-1.6,0.3-1.9c0.2-0.2,0.5-0.2,0.8,0.1c0.2,0.2,0.3,0.4,0.4,0.6  c0.2,0,0.4,0,0.7-0.1c0.4-0.1,0.7,0.1,0.7,0.5C-237.6,293.1-238.1,294.2-238.6,294.3z M-239.2,296c-0.1,0-0.2-0.1-0.2-0.2  s0.1-0.3,0.2-0.3c0.2-0.1,0.6-0.8,0.5-1.2c0,0,0-0.1-0.2,0c-0.5,0.1-0.7,0.2-0.7,0.2c0,0.1-0.2,0.2-0.3,0.1c-0.1,0-0.1-0.1-0.1-0.3  c0,0,0-0.2-0.4-0.6l-0.1-0.1c0,0-0.1,0.1-0.2,0.3c-0.2,0.4-0.2,0.9-0.1,1c0.1,0.1,0.1,0.2,0,0.3c-0.1,0.1-0.3,0.1-0.3,0  c-0.3-0.4-0.1-1.6,0.3-1.9c0.2-0.2,0.5-0.2,0.8,0.1c0.2,0.2,0.3,0.4,0.4,0.6c0.1-0.1,0.4-0.1,0.7-0.2c0.5-0.1,0.7,0.2,0.7,0.5  C-238.2,294.8-238.7,295.9-239.2,296C-239.1,296-239.2,296-239.2,296z M-239.7,297.7c-0.1,0-0.2-0.1-0.2-0.2s0.1-0.3,0.2-0.3  c0.2-0.1,0.6-0.9,0.5-1.2c0,0,0-0.1-0.2,0c-0.6,0.1-0.7,0.2-0.7,0.2c0,0.1-0.2,0.2-0.3,0.1c-0.1,0-0.2-0.2-0.2-0.3  c0,0,0-0.2-0.4-0.6v-0.1c0,0-0.1,0.1-0.2,0.3c-0.2,0.4-0.2,0.9-0.1,1c0.1,0.1,0.1,0.2,0,0.3c-0.1,0.1-0.3,0.1-0.3,0  c-0.3-0.4-0.1-1.6,0.3-1.9c0.2-0.2,0.5-0.2,0.8,0.1c0.2,0.2,0.3,0.4,0.4,0.6c0.1-0.1,0.4-0.1,0.7-0.2c0.4-0.1,0.7,0.2,0.7,0.5  C-238.7,296.5-239.2,297.6-239.7,297.7z"/> <path fill="#231F20" d="M-240.9,299.5c-0.1,0-0.3,0-0.4-0.1c-0.9-0.5-1.1-1.4-1-2.1c0.2-0.7,0.8-1,1.2-0.7c0.3,0.2,0.4,0.4,0.5,0.5  c0.2-0.1,0.4-0.1,0.7-0.1c0.3,0,0.4,0.1,0.5,0.2c0.1,0.1,0.2,0.3,0.2,0.5C-239.3,298.5-239.9,299.5-240.9,299.5z M-241.5,297  c-0.1,0-0.3,0.2-0.3,0.5c-0.1,0.5,0,1.2,0.7,1.5h0.2c0.6,0,1.1-0.7,1.1-1.2v-0.2h-0.1c-0.4,0-0.6,0.1-0.6,0.2s-0.2,0.2-0.3,0.1  c-0.1,0-0.2-0.1-0.2-0.3v-0.1c0,0,0-0.2-0.4-0.5C-241.4,297-241.5,297-241.5,297z"/> <path fill="#231F20" d="M-242.5,302.5C-242.6,302.5-242.6,302.5-242.5,302.5c-0.2-0.1-0.3-0.2-0.2-0.3l1-3.2c0-0.1,0.2-0.2,0.3-0.2  c0.1,0,0.2,0.2,0.2,0.3l-1,3.2C-242.4,302.4-242.4,302.5-242.5,302.5z M-241.8,302.4C-241.9,302.4-241.9,302.4-241.8,302.4  c-0.2,0-0.3-0.2-0.2-0.3l0.8-2.9c0-0.1,0.2-0.2,0.3-0.2c0.1,0,0.2,0.2,0.2,0.3l-0.9,2.9C-241.6,302.3-241.7,302.4-241.8,302.4z   M-243,290.4c-0.1,0-0.1,0-0.2-0.1c-0.1-0.1-0.1-0.2,0-0.3c0.1-0.1,0.3-0.3,0.2-0.5c0-0.3-0.1-0.5-0.1-0.7c0-0.1-0.1-0.1-0.1-0.2  l-0.1,0.1c-0.2,0.2-0.3,0.4-0.5,0.7c-0.1,0.2,0.1,0.4,0.1,0.5c0.1,0.1,0,0.3-0.1,0.3c-0.1,0.1-0.3,0-0.3-0.1c0-0.1-0.4-0.6-0.2-1  c0.2-0.4,0.3-0.6,0.6-0.8c0.1-0.1,0.2-0.2,0.3-0.4c0.1-0.1,0.1-0.1,0.2-0.1c0.1,0,0.2,0.1,0.2,0.2c0.1,0.3,0.2,0.4,0.2,0.6  c0.1,0.2,0.2,0.4,0.3,0.8C-242.4,289.9-242.8,290.3-243,290.4C-242.9,290.4-243,290.4-243,290.4z"/> <path fill="#231F20" d="M-242.7,292c-0.1,0-0.2-0.1-0.2-0.2s0-0.3,0.1-0.3c0.2-0.1,0.4-0.9,0.3-1.3c0,0,0-0.1-0.2,0  c-0.5,0.2-0.6,0.4-0.6,0.4c0,0.1-0.1,0.2-0.3,0.2c-0.1,0-0.2-0.1-0.2-0.3c0,0-0.1-0.2-0.5-0.5c-0.1-0.1-0.2-0.1-0.2,0  c-0.2,0.2-0.2,1.2,0,1.3c0.1,0.1,0.1,0.2,0,0.3c-0.1,0.1-0.2,0.1-0.3,0c-0.4-0.3-0.4-1.5-0.1-2c0.2-0.2,0.5-0.4,0.8-0.1  c0.3,0.2,0.4,0.3,0.5,0.5c0.1-0.1,0.3-0.2,0.6-0.3c0.4-0.2,0.7,0,0.8,0.3C-241.8,290.7-242.1,291.8-242.7,292  C-242.6,292-242.6,292-242.7,292z"/> <path fill="#231F20" d="M-242.9,293.8c-0.1,0-0.2-0.1-0.2-0.1c-0.1-0.1,0-0.3,0.1-0.3c0.2-0.1,0.4-1,0.3-1.3c0,0,0-0.1-0.2,0  c-0.5,0.2-0.6,0.4-0.6,0.4c0,0.1-0.1,0.2-0.3,0.2c-0.1,0-0.2-0.1-0.2-0.3c0,0-0.1-0.2-0.5-0.5c-0.1-0.1-0.2-0.1-0.2,0  c-0.2,0.2-0.2,1.2,0,1.3c0.1,0.1,0.1,0.2,0,0.3c-0.1,0.1-0.2,0.1-0.3,0.1c-0.4-0.3-0.4-1.5-0.1-2c0.2-0.2,0.5-0.4,0.9-0.1  c0.3,0.2,0.4,0.3,0.5,0.5c0.1-0.1,0.3-0.2,0.6-0.3c0.4-0.2,0.7,0,0.8,0.3C-242,292.4-242.3,293.6-242.9,293.8  C-242.8,293.8-242.8,293.8-242.9,293.8z M-243.1,295.6c-0.1,0-0.2-0.1-0.2-0.2s0-0.3,0.1-0.3c0.2-0.1,0.4-1,0.3-1.3  c0,0,0-0.1-0.2,0c-0.5,0.2-0.6,0.4-0.6,0.4c0,0.1-0.1,0.2-0.3,0.2c-0.1,0-0.2-0.1-0.2-0.3c0,0-0.1-0.2-0.5-0.5  c-0.1-0.1-0.2-0.1-0.2,0c-0.2,0.2-0.2,1.2,0,1.3c0.1,0.1,0.1,0.2,0.1,0.3c-0.1,0.1-0.2,0.1-0.3,0.1c-0.4-0.3-0.4-1.5-0.1-1.9  c0.2-0.2,0.5-0.4,0.9-0.1c0.3,0.2,0.4,0.3,0.5,0.5c0.1-0.1,0.3-0.2,0.6-0.3c0.4-0.2,0.7,0,0.8,0.3  C-242.2,294.2-242.6,295.4-243.1,295.6C-243,295.6-243,295.6-243.1,295.6z"/> <path fill="#231F20" d="M-244.3,297.6h-0.1c-1.1-0.3-1.5-1.2-1.4-1.9c0.1-0.7,0.6-1,1.1-0.8c0.3,0.1,0.5,0.3,0.6,0.4  c0.1-0.1,0.3-0.2,0.7-0.3c0.5-0.1,0.8,0.2,0.8,0.8C-242.6,296.6-243.2,297.6-244.3,297.6z M-245,295.3c-0.1,0-0.3,0.2-0.3,0.5  c-0.1,0.5,0.2,1.2,1,1.4c0.8,0,1.2-0.9,1.2-1.3c0-0.1,0-0.4-0.2-0.3c-0.5,0.1-0.6,0.3-0.6,0.3c0,0.1-0.2,0.2-0.3,0.2  c-0.1,0-0.2-0.1-0.2-0.2s-0.1-0.3-0.5-0.5C-244.9,295.3-244.9,295.3-245,295.3z M-245.3,302.8c-0.2,0-0.3-0.1-0.2-0.3l0.6-5.2  c0-0.1,0.1-0.2,0.3-0.2c0.1,0,0.2,0.1,0.2,0.3l-0.6,5.1C-245,302.7-245.1,302.8-245.3,302.8z M-244.6,302.7c-0.2,0-0.3-0.1-0.2-0.3  l0.6-5.1c0-0.1,0.1-0.2,0.3-0.2c0.1,0,0.2,0.1,0.2,0.3l-0.6,5.1C-244.4,302.6-244.5,302.7-244.6,302.7z"/> <path fill="#231F20" d="M-248.7,305c-5.4,0-10.4-1.5-10.4-2.7c0-0.1,0.1-0.2,0.2-0.2s0.2,0.1,0.2,0.2c0,0.5,4.1,2.2,9.9,2.2  s9.9-1.7,9.9-2.3c0-0.1,0.1-0.2,0.2-0.2c0.1,0,0.2,0.1,0.2,0.2C-238.3,303.5-243.3,305-248.7,305z M-248.7,307.2  c-5.3,0-10.1-1.5-10.1-2.7c0-0.1,0.1-0.2,0.2-0.2s0.2,0.1,0.2,0.2c0,0.6,3.9,2.3,9.6,2.3c5.2,0,9-1.4,9.6-2.2  c0.1-0.1,0.2-0.1,0.3-0.1c0.1,0.1,0.1,0.2,0.1,0.3C-239.4,305.8-243.6,307.2-248.7,307.2z M-248.7,309.4c-5.3,0-9.6-1.5-9.6-2.7  c0-0.1,0.1-0.2,0.2-0.2s0.2,0.1,0.2,0.2c0,0.5,3.2,2.2,9.1,2.2c5,0,8.5-1.1,9.1-1.9c0.1-0.1,0.2-0.1,0.3-0.1  c0.1,0.1,0.1,0.2,0.1,0.3C-239.9,308.3-243.7,309.4-248.7,309.4z M-248.7,311.6c-4.7,0-7.7-1.1-8.5-2.1c-0.1-0.1-0.1-0.3,0-0.3  c0.1-0.1,0.2-0.1,0.3,0c0.6,0.7,3.4,1.9,8.1,1.9c4.8,0,7.9-1.2,8.4-2.1c0.1-0.1,0.2-0.1,0.3-0.1c0.1,0.1,0.1,0.2,0.1,0.3  C-240.4,310.3-243.6,311.6-248.7,311.6z"/> <path fill="#231F20" d="M-249.2,313.4c-1,0-1.8-0.7-2-8.7c0-0.1,0.1-0.2,0.2-0.2c0.1,0,0.2,0.1,0.2,0.2c0.2,7.2,0.9,8.2,1.6,8.2  c0.1,0,0.2,0.1,0.2,0.2C-249,313.3-249.1,313.4-249.2,313.4z M-251.3,313.3c-1.9-0.6-2.8-1.9-3.3-9.1c0-0.1,0.1-0.2,0.2-0.3  c0.1,0,0.2,0.1,0.3,0.2c0.5,6.8,1.3,8.1,2.9,8.6c0.1,0,0.2,0.2,0.2,0.3C-251.1,313.2-251.2,313.3-251.3,313.3z M-253.9,312.7  L-253.9,312.7c-2-1.3-2.7-5-3.2-8.2l-0.2-0.9c0-0.1,0.1-0.3,0.2-0.3s0.3,0.1,0.3,0.2l0.2,0.9c0.6,3.2,1.2,6.7,2.9,7.9  c0.1,0.1,0.1,0.2,0.1,0.3C-253.8,312.7-253.9,312.7-253.9,312.7z M-248.2,313.4c-0.1,0-0.2-0.1-0.2-0.2c0-0.1,0.1-0.2,0.2-0.3  c0.6,0,1.4-0.1,1.3-8.2c0-0.1,0.1-0.2,0.2-0.2c0.1,0,0.2,0.1,0.2,0.2C-246.3,312.7-247.1,313.3-248.2,313.4z M-246.3,313.3  c-0.1,0-0.2-0.1-0.2-0.2c0-0.1,0-0.3,0.2-0.3c2.2-0.6,2.8-1.5,3.3-8.7c0-0.1,0.1-0.3,0.3-0.2c0.1,0,0.2,0.1,0.2,0.3  C-243.1,311.3-243.6,312.6-246.3,313.3z"/> <path fill="#231F20" d="M-243.6,312.9c-0.1,0-0.2-0.1-0.2-0.2c0-0.1,0-0.3,0.1-0.3c1.8-0.7,2.9-3.6,3.5-9.1c0-0.1,0.1-0.2,0.3-0.2  c0.1,0,0.2,0.1,0.2,0.3C-240.3,309.2-241.5,312.1-243.6,312.9z M-258.8,300.9c-0.1,0-0.1,0-0.2-0.1s-1.5-1.9-1.5-3.4  c0-0.5,0.2-0.8,0.6-1.1c0.8-0.4,2.1-0.2,2.3-0.1c0.1,0.1,0.1,0.2,0.1,0.3c-0.1,0.2-0.2,0.3-0.3,0.2c-0.2-0.1-1.3-0.2-1.9,0.1  c-0.2,0.1-0.4,0.4-0.4,0.6c0,1.3,1.4,3.1,1.4,3.1c0.1,0.1,0.1,0.3,0,0.3C-258.7,300.9-258.8,300.9-258.8,300.9z"/> <path fill="#231F20" d="M-257.8,300.6c-0.1,0-0.2,0-0.2-0.1c-0.5-0.7-1.6-2.3-1.5-2.9c0-0.1,0.1-0.2,0.2-0.3h0.1  c0.5-0.2,0.8-0.3,2,0.1c0.1,0,0.2,0.2,0.2,0.3c0,0.1-0.2,0.2-0.3,0.2c-1.1-0.4-1.2-0.3-1.7-0.2c0,0.3,0.6,1.5,1.4,2.6  C-257.5,300.4-257.5,300.6-257.8,300.6C-257.7,300.6-257.8,300.6-257.8,300.6z M-239.5,300.7h-0.1c-0.1-0.1-0.1-0.2-0.1-0.3  c0.8-1.2,1.4-2.4,1.3-2.6c-0.1-0.1-0.5-0.3-1.1-0.1c-0.1,0-0.3,0-0.3-0.2c0-0.1,0-0.3,0.2-0.3c0.7-0.2,1.3-0.1,1.6,0.3  c0.4,0.5-0.6,2.2-1.3,3.2H-239.5z"/> <path fill="#231F20" d="M-248.7,313.4c-5.4,0-6.7-1.2-7.8-2.6c-0.4-0.5-2.4-3.5-2.7-9.9c0-0.2,0-0.3,0.1-0.4s0.2-0.1,0.3,0  c0.1,0.1,0.1,0.2,0,0.3v0.1c0.3,6.2,2.2,9.1,2.6,9.6c0.8,1.1,1.8,2.4,7.4,2.4c4.7,0,6-0.7,7.1-1.6c1-0.8,2.4-4.4,2.9-10.4l-0.1-0.1  c-0.1-0.1-0.1-0.2,0-0.3c0.1-0.1,0.2-0.1,0.3,0c0.1,0.1,0.3,0.3,0.3,0.5c-0.5,5.4-1.7,9.7-3.1,10.8  C-242.4,312.6-243.8,313.4-248.7,313.4z M-258.6,292.1c-0.1,0-0.2,0-0.2-0.1c-0.2-0.5-0.6-1-1.2-1c-0.1,0-0.2-0.1-0.3-0.2  c0-0.1,0.1-0.2,0.2-0.3c0.5-0.1,1.2,0.1,1.7,1.2c0.1,0.1,0,0.3-0.1,0.3C-258.5,292.1-258.6,292.1-258.6,292.1z M-258.4,290.9  c-0.1,0-0.2-0.1-0.2-0.2c0,0-0.3-1.1-1-1.2c-0.1,0-0.2-0.1-0.2-0.3c0-0.1,0.1-0.2,0.3-0.2c1,0.1,1.4,1.5,1.5,1.5  C-258.1,290.7-258.2,290.9-258.4,290.9C-258.3,290.9-258.3,290.9-258.4,290.9z M-258.3,290.6c-0.1,0-0.2,0-0.2-0.1  c0,0-0.5-0.8-0.1-1.7c0.1-0.1,0.2-0.2,0.3-0.1c0.1,0.1,0.2,0.2,0.1,0.3c-0.3,0.7,0,1.2,0,1.2c0.1,0.1,0,0.3-0.1,0.3  C-258.3,290.5-258.3,290.6-258.3,290.6z M-258.6,292.6c-0.1,0-0.2-0.1-0.2-0.2c0,0-0.1-0.2-0.7-0.4c-0.1,0-0.2-0.2-0.2-0.3  c0-0.1,0.2-0.2,0.3-0.2c1,0.3,1.1,0.7,1.1,0.8S-258.4,292.6-258.6,292.6C-258.5,292.6-258.5,292.6-258.6,292.6z M-257.4,291.5  c-0.1,0-0.2-0.1-0.2-0.2c0,0-0.3-0.9,0.4-1.7c0.1-0.1,0.2-0.1,0.3,0c0.1,0.1,0.1,0.2,0,0.3c-0.4,0.7-0.3,1.3-0.2,1.3  C-257.1,291.3-257.2,291.5-257.4,291.5C-257.3,291.5-257.3,291.5-257.4,291.5z M-254.1,289.8c-0.1,0-0.2-0.1-0.2-0.2  c0,0-0.4-1.1-1.1-1.1c-0.1,0-0.2-0.1-0.2-0.2s0.1-0.2,0.2-0.2c1,0,1.5,1.3,1.6,1.4C-253.8,289.6-253.9,289.7-254.1,289.8  C-254,289.8-254,289.8-254.1,289.8z M-253.6,288.5c-0.1,0-0.2-0.1-0.2-0.2c0,0-0.2-1.1-0.9-1.3c-0.1,0-0.2-0.1-0.2-0.3  c0-0.1,0.1-0.2,0.3-0.2c1,0.2,1.3,1.6,1.3,1.6C-253.4,288.4-253.5,288.5-253.6,288.5z"/> <path fill="#231F20" d="M-253.6,288.3c-0.1,0-0.2,0-0.2-0.1c0,0-0.4-0.8,0.1-1.7c0.1-0.1,0.2-0.1,0.3-0.1c0.1,0.1,0.1,0.2,0.1,0.3  c-0.4,0.6-0.1,1.2-0.1,1.2c0.1,0.1,0,0.3-0.1,0.3C-253.5,288.3-253.6,288.3-253.6,288.3z M-254.1,290.3c-0.1,0-0.2-0.1-0.2-0.2  c0,0-0.1-0.2-0.7-0.5c-0.1,0-0.2-0.2-0.1-0.3c0.1-0.1,0.1-0.2,0.2-0.1c0.9,0.3,1,0.7,1,0.9C-253.9,290.2-254,290.3-254.1,290.3z   M-252.8,289.3c-0.1,0-0.2-0.1-0.2-0.2c0,0-0.2-0.9,0.6-1.6c0.1-0.1,0.2-0.1,0.3,0c0.1,0.1,0.1,0.2,0,0.3c-0.6,0.5-0.4,1.2-0.4,1.2  C-252.6,289.2-252.7,289.3-252.8,289.3z M-249.1,289.2c-0.1,0-0.2-0.1-0.2-0.2c0,0-0.2-1.1-0.9-1.3c-0.1,0-0.2-0.1-0.2-0.3  c0-0.1,0.1-0.2,0.3-0.2c1,0.2,1.3,1.6,1.3,1.7C-248.9,289-249,289.2-249.1,289.2z M-248.5,288.1c-0.1,0-0.2-0.1-0.2-0.2  c0,0,0-1.2-0.7-1.4c-0.1-0.1-0.2-0.2-0.1-0.3c0-0.1,0.2-0.2,0.3-0.1c1,0.4,1,1.8,1,1.9C-248.3,288-248.4,288.1-248.5,288.1z"/> <path fill="#231F20" d="M-248.4,287.8c-0.1,0-0.2-0.1-0.2-0.2c0,0-0.3-0.9,0.4-1.6c0.1-0.1,0.2-0.1,0.3,0c0.1,0.1,0.1,0.2,0,0.3  c-0.5,0.6-0.3,1.2-0.3,1.2C-248.1,287.6-248.2,287.8-248.4,287.8z M-249.3,289.6c-0.2,0-0.2-0.1-0.2-0.3c0,0,0-0.3-0.6-0.6  c-0.1-0.1-0.1-0.2-0.1-0.3c0.1-0.1,0.2-0.1,0.3-0.1c0.9,0.5,0.8,1,0.8,1.1S-249.2,289.6-249.3,289.6z M-247.8,288.9  c-0.1,0-0.2-0.1-0.2-0.2c0,0,0-0.9,0.9-1.5c0.1-0.1,0.3,0,0.3,0.1c0.1,0.1,0,0.3-0.1,0.3c-0.7,0.4-0.7,1-0.7,1  C-247.6,288.8-247.7,288.9-247.8,288.9z M-238.3,292.2h-0.1c-0.1-0.1-0.2-0.2-0.1-0.3c0-0.1,0.7-1.2,1.8-1c0.1,0,0.2,0.1,0.2,0.3  c0,0.1-0.1,0.2-0.3,0.2c-0.7-0.1-1.3,0.8-1.3,0.8C-238.1,292.1-238.2,292.2-238.3,292.2z M-238.5,290.9  C-238.5,290.9-238.5,290.8-238.5,290.9c-0.2-0.1-0.3-0.2-0.2-0.3c0-0.1,0.5-1.4,1.6-1.4c0.1,0,0.2,0.1,0.2,0.2s-0.1,0.2-0.2,0.2  c-0.7,0-1.1,1.1-1.1,1.1C-238.3,290.8-238.4,290.9-238.5,290.9z"/> <path fill="#231F20" d="M-238.5,290.6c-0.1,0-0.1,0-0.1-0.1c-0.1-0.1-0.1-0.2,0-0.3c0,0,0.4-0.5,0.1-1.2c0-0.1,0-0.3,0.1-0.3  c0.1,0,0.3,0,0.3,0.1c0.4,1-0.2,1.7-0.2,1.7C-238.3,290.6-238.4,290.6-238.5,290.6z M-238.3,292.7c-0.2,0-0.3-0.2-0.2-0.3  c0-0.1,0.2-0.5,1.1-0.7c0.1,0,0.3,0.1,0.3,0.2s-0.1,0.3-0.2,0.3c-0.7,0.1-0.8,0.3-0.8,0.3C-238.1,292.6-238.2,292.7-238.3,292.7z   M-239.4,291.5C-239.5,291.5-239.5,291.5-239.4,291.5c-0.2-0.1-0.3-0.2-0.2-0.3c0,0,0.2-0.6-0.3-1.2c-0.1-0.1-0.1-0.3,0-0.3  c0.1-0.1,0.3-0.1,0.3,0c0.7,0.8,0.3,1.7,0.3,1.7C-239.3,291.5-239.3,291.5-239.4,291.5z M-242.7,289.8c-0.2,0-0.3-0.2-0.2-0.3  c0-0.1,0.4-1.4,1.4-1.5c0.1,0,0.2,0.1,0.3,0.2c0,0.1-0.1,0.2-0.2,0.3c-0.7,0.1-1,1.2-1,1.2C-242.5,289.7-242.6,289.8-242.7,289.8z   M-243.1,288.6c-0.1,0-0.2-0.1-0.2-0.3c0-0.1,0.1-1.5,1.1-1.8c0.1,0,0.3,0,0.3,0.2c0,0.1,0,0.3-0.2,0.3c-0.7,0.2-0.8,1.4-0.8,1.4  C-242.9,288.5-243,288.6-243.1,288.6z"/> <path fill="#231F20" d="M-243.2,288.4c-0.2-0.1-0.3-0.2-0.2-0.3c0,0,0.2-0.6-0.2-1.2c-0.1-0.1-0.1-0.3,0-0.3c0.1-0.1,0.3-0.1,0.3,0  c0.7,0.8,0.4,1.6,0.4,1.6C-243,288.3-243.1,288.4-243.2,288.4z M-242.5,290.3c-0.1,0-0.2-0.1-0.2-0.2c0-0.1,0-0.5,0.9-1  c0.1-0.1,0.3,0,0.3,0.1c0.1,0.1,0,0.3-0.1,0.3c-0.6,0.3-0.6,0.5-0.6,0.5S-242.5,290.3-242.5,290.3z M-244,289.4  c-0.2,0-0.3-0.1-0.2-0.2c0-0.2,0.1-0.6-0.6-1.1c-0.1-0.1-0.1-0.2-0.1-0.3c0.1-0.1,0.2-0.1,0.3-0.1c0.9,0.6,0.8,1.3,0.8,1.5  C-243.8,289.3-243.9,289.4-244,289.4z M-186.7,300.9c-0.1,0-0.1,0-0.2-0.1c-0.1-0.1-0.1-0.2,0-0.3c0,0,1.4-1.7,1.4-3.1  c0-0.2-0.1-0.4-0.2-0.5c-0.4-0.3-1.1-0.3-1.4-0.3c-0.1,0-0.2-0.1-0.3-0.2c0-0.1,0.1-0.2,0.2-0.3c0.4,0,1.3,0,1.8,0.4  c0.3,0.3,0.4,0.6,0.4,0.9c0,1.5-1.5,3.3-1.5,3.4C-186.6,300.9-186.6,300.9-186.7,300.9z M-203.1,300c-0.1,0-0.2-0.1-0.2-0.2  s0.1-0.3,0.2-0.3c0.8-0.1,1.6-0.2,2.5-0.3c0.1,0,0.2,0.1,0.3,0.2c0,0.1-0.1,0.2-0.2,0.3C-201.5,299.8-202.3,299.8-203.1,300z   M-199.9,299.6c-0.1,0-0.2-0.1-0.2-0.2c-0.1-0.1,0-0.2,0.1-0.2c1-0.1,2-0.1,3.1-0.1c0.1,0,0.2,0.1,0.2,0.2s-0.1,0.2-0.2,0.2  C-197.9,299.6-198.9,299.6-199.9,299.6z M-193,299.7c-1-0.1-2.1-0.1-3.2-0.1c-0.1,0-0.2-0.1-0.2-0.2s0.1-0.2,0.2-0.2  c1.1,0,2.2,0.1,3.2,0.1c0.1,0,0.2,0.1,0.2,0.3C-192.7,299.6-192.8,299.7-193,299.7z"/> <path fill="#231F20" d="M-196.8,302.9c-3.4,0-9.9-0.4-9.9-1.9c0-0.4,0.3-0.9,2.9-1.4c0.1,0,0.3,0.1,0.3,0.2s-0.1,0.3-0.2,0.3  c-2.5,0.4-2.5,0.9-2.5,0.9c0,0.5,3.2,1.4,9.4,1.4s9.4-0.9,9.4-1.4c0-0.1-0.3-0.5-1.9-0.8c-0.1,0-0.2-0.2-0.2-0.3s0.2-0.2,0.3-0.2  c2.1,0.4,2.3,0.9,2.3,1.3C-186.9,302.5-193.4,302.9-196.8,302.9z M-189.8,300.1C-189.9,300.1-189.9,300.1-189.8,300.1  c-0.6-0.1-1.5-0.2-2.5-0.3c-0.1,0-0.2-0.1-0.2-0.3c0-0.2,0.1-0.2,0.3-0.2c1.1,0.1,1.9,0.2,2.5,0.3c0.1,0,0.2,0.1,0.2,0.3  C-189.6,300-189.7,300.1-189.8,300.1z M-206.2,292.7h-0.1c-0.1,0-0.6-0.4-0.5-0.9c0-0.4,0.1-0.6,0.1-0.8c0-0.2,0.1-0.3,0.1-0.6  c0-0.1,0.1-0.2,0.2-0.2h0.2c0.2,0.1,0.3,0.2,0.4,0.3c0.2,0.2,0.4,0.3,0.7,0.6c0.3,0.4,0.1,1,0,1c0,0.1-0.2,0.2-0.3,0.1  c-0.1,0-0.2-0.2-0.1-0.3c0-0.1,0.1-0.4,0-0.6c-0.2-0.3-0.3-0.4-0.6-0.6c0,0-0.1,0-0.1-0.1c0,0.1,0,0.2-0.1,0.3  c-0.1,0.2-0.1,0.4-0.1,0.7c0,0.2,0.2,0.4,0.3,0.4c0.1,0.3,0.2,0.4,0.1,0.5C-206.1,292.6-206.1,292.7-206.2,292.7z"/> <path fill="#231F20" d="M-206.2,294.3c-0.5-0.1-1-1.2-0.9-1.7c0-0.3,0.3-0.5,0.7-0.5c0.3,0,0.5,0.1,0.7,0.2  c0.1-0.2,0.2-0.3,0.4-0.6c0.3-0.3,0.6-0.3,0.8-0.1c0.4,0.4,0.6,1.6,0.3,1.9c-0.1,0.1-0.2,0.1-0.3,0c-0.1-0.1-0.1-0.2,0-0.3  c0.1-0.1,0.1-0.7-0.1-1.1c-0.1-0.2-0.1-0.2-0.2-0.2c0,0-0.1,0-0.1,0.1c-0.4,0.4-0.4,0.6-0.4,0.6c0,0.1,0,0.2-0.2,0.3  c-0.1,0-0.3,0-0.3-0.2c0,0-0.1-0.1-0.6-0.2h-0.2c-0.1,0.3,0.3,1.1,0.5,1.2c0.1,0.1,0.1,0.3,0.1,0.4  C-206,294.2-206.1,294.3-206.2,294.3z"/> <path fill="#231F20" d="M-205.7,296c-0.5-0.1-1-1.2-0.9-1.7c0-0.3,0.2-0.5,0.7-0.5c0.3,0,0.5,0.1,0.7,0.2c0.1-0.2,0.2-0.3,0.4-0.6  c0.3-0.3,0.6-0.3,0.8-0.1c0.4,0.4,0.6,1.6,0.3,1.9c-0.1,0.1-0.2,0.1-0.3,0c-0.1-0.1-0.1-0.2,0-0.3c0.1-0.1,0.1-0.6-0.1-1  c-0.1-0.2-0.1-0.2-0.2-0.2c0,0-0.1,0-0.1,0.1c-0.4,0.4-0.4,0.6-0.4,0.6c0,0.1,0,0.2-0.2,0.3c-0.1,0-0.3,0-0.3-0.2  c0,0-0.1-0.1-0.6-0.2h-0.2c-0.1,0.3,0.3,1.1,0.5,1.2c0.1,0,0.2,0.1,0.2,0.3C-205.5,295.9-205.6,296-205.7,296z"/> <path fill="#231F20" d="M-205.2,297.7c-0.5-0.1-1-1.2-0.9-1.7c0-0.3,0.3-0.5,0.7-0.5c0.3,0,0.5,0.1,0.7,0.2  c0.1-0.2,0.2-0.3,0.4-0.6c0.3-0.3,0.6-0.3,0.8-0.1c0.4,0.4,0.6,1.6,0.3,1.9c-0.1,0.1-0.2,0.1-0.3,0c-0.1-0.1-0.1-0.2,0-0.3  c0.1-0.1,0.1-0.6-0.1-1c-0.1-0.2-0.1-0.2-0.2-0.3c0,0-0.1,0-0.1,0.1c-0.4,0.5-0.4,0.6-0.4,0.6c0,0.1,0,0.2-0.2,0.3  c-0.1,0-0.3,0-0.3-0.2c0,0-0.1-0.1-0.6-0.2h-0.2c-0.1,0.5,0.3,1.3,0.5,1.3c0.1,0,0.2,0.1,0.2,0.3  C-205,297.6-205.1,297.7-205.2,297.7z"/> <path fill="#231F20" d="M-204,299.5c-1,0-1.6-1-1.6-1.7c0-0.4,0.3-0.7,0.6-0.7s0.5,0.1,0.7,0.1c0.1-0.2,0.2-0.4,0.5-0.5  c0.4-0.3,1,0,1.2,0.7c0.2,0.7,0,1.6-0.9,2.1H-204z M-204.9,297.6c-0.1,0-0.2,0-0.2,0.2c0,0.5,0.5,1.2,1.1,1.2h0.3  c0.6-0.3,0.8-1,0.6-1.5c-0.1-0.3-0.2-0.5-0.3-0.5h-0.1c-0.4,0.3-0.4,0.5-0.4,0.6c0,0.1,0,0.3-0.1,0.3c-0.1,0-0.2,0-0.3-0.1  C-204.3,297.7-204.5,297.6-204.9,297.6z"/> <path fill="#231F20" d="M-202.2,302.6c-0.1,0-0.2-0.1-0.2-0.2l-1.1-3.3c0-0.1,0-0.3,0.2-0.3c0.1,0,0.3,0,0.3,0.2l1.1,3.3  C-201.9,302.4-202,302.5-202.2,302.6z M-203,302.5c-0.1,0-0.2-0.1-0.2-0.2l-0.9-2.9c0-0.1,0-0.3,0.2-0.3c0.1,0,0.3,0,0.3,0.2  l0.9,2.9C-202.7,302.3-202.8,302.4-203,302.5z M-201.8,290.4c-0.1,0-0.1,0-0.2-0.1c-0.1,0-0.5-0.5-0.4-1c0.1-0.4,0.2-0.6,0.3-0.8  c0.1-0.1,0.1-0.2,0.2-0.5c0-0.1,0.1-0.1,0.2-0.2c0.1,0,0.2,0,0.2,0.1c0.1,0.2,0.2,0.3,0.3,0.4c0.2,0.2,0.4,0.4,0.5,0.8  c0.2,0.4-0.1,1-0.2,1c0.1,0.2-0.1,0.2-0.2,0.1c-0.1-0.1-0.1-0.2-0.1-0.3c0.1-0.1,0.2-0.4,0.1-0.6c-0.2-0.3-0.3-0.5-0.5-0.7  l-0.1-0.1c0,0.1-0.1,0.2-0.1,0.2c-0.1,0.2-0.2,0.4-0.2,0.7c0,0.2,0.2,0.4,0.2,0.5c0.1,0.1,0.1,0.2,0,0.3  C-201.7,290.4-201.8,290.4-201.8,290.4z"/> <path fill="#231F20" d="M-202.2,292C-202.2,292-202.3,292-202.2,292c-0.5-0.2-0.9-1.3-0.6-1.9c0.1-0.3,0.4-0.5,0.8-0.3  c0.3,0.1,0.5,0.2,0.6,0.3l0.5-0.5c0.4-0.3,0.7-0.1,0.9,0.1c0.3,0.5,0.3,1.7-0.1,2c-0.1,0.1-0.3,0.1-0.3,0c-0.1-0.1-0.1-0.3,0-0.3  c0.1-0.2,0.2-1.1,0-1.3c0,0,0-0.1-0.2,0c-0.5,0.3-0.5,0.5-0.5,0.5c0,0.1-0.1,0.2-0.2,0.2s-0.2-0.1-0.3-0.2c0,0-0.1-0.2-0.6-0.3  c-0.2-0.1-0.2,0-0.2,0c-0.2,0.3,0.1,1.2,0.3,1.3c0.1,0,0.2,0.2,0.1,0.3C-202,291.9-202.1,292-202.2,292z"/> <path fill="#231F20" d="M-202,293.8C-202,293.8-202.1,293.8-202,293.8c-0.5-0.2-0.9-1.3-0.6-1.9c0.1-0.3,0.4-0.5,0.8-0.3  c0.3,0.1,0.5,0.2,0.6,0.3l0.5-0.5c0.4-0.2,0.7-0.1,0.9,0.1c0.3,0.5,0.3,1.7-0.1,1.9c-0.1,0.1-0.3,0.1-0.3-0.1  c-0.1-0.1-0.1-0.3,0-0.3c0.1-0.1,0.2-1.1,0-1.3c0,0,0-0.1-0.2,0c-0.5,0.3-0.5,0.5-0.5,0.5c0,0.1-0.1,0.2-0.2,0.2  c-0.1,0-0.2-0.1-0.3-0.2c0,0-0.1-0.1-0.6-0.3c-0.1-0.1-0.2,0-0.2,0c-0.2,0.3,0.1,1.2,0.3,1.3c0.1,0.1,0.2,0.2,0.1,0.3  C-201.8,293.7-201.9,293.8-202,293.8z"/> <path fill="#231F20" d="M-201.8,295.6c-0.5-0.2-0.9-1.3-0.6-1.9c0.1-0.3,0.4-0.5,0.8-0.3c0.3,0.1,0.5,0.2,0.6,0.3l0.5-0.5  c0.4-0.3,0.7-0.1,0.9,0.1c0.3,0.5,0.3,1.7-0.1,1.9c-0.1,0.1-0.2,0.1-0.3,0c-0.1-0.1-0.1-0.3,0-0.3c0.1-0.1,0.2-1.1,0-1.3  c0,0,0-0.1-0.2,0c-0.4,0.4-0.5,0.6-0.5,0.6c0,0.1-0.1,0.2-0.2,0.2c-0.1,0-0.2-0.1-0.3-0.2c0,0-0.1-0.1-0.6-0.3  c-0.1-0.1-0.2,0-0.2,0c-0.2,0.3,0.1,1.2,0.3,1.3c0.1,0,0.2,0.2,0.1,0.3C-201.6,295.5-201.7,295.6-201.8,295.6z"/> <path fill="#231F20" d="M-200.6,297.6c-1.1,0-1.7-1.1-1.7-1.8c0-0.2,0-0.4,0.1-0.5c0.1-0.2,0.4-0.3,0.7-0.3  c0.3,0.1,0.5,0.2,0.7,0.3c0.1-0.1,0.3-0.3,0.6-0.4c0.5-0.2,1,0.2,1.1,0.8c0.1,0.7-0.3,1.7-1.3,1.9  C-200.4,297.6-200.6,297.6-200.6,297.6z M-201.6,295.5c0,0-0.1,0-0.1,0.1c0,0.1-0.1,0.2-0.1,0.3c0,0.5,0.4,1.3,1.2,1.3h0.1  c0.7-0.2,1-0.9,0.9-1.4c0-0.3-0.2-0.5-0.4-0.5c-0.4,0.2-0.5,0.4-0.5,0.5s-0.1,0.2-0.2,0.3c-0.1,0-0.2-0.1-0.3-0.2  C-201,295.8-201,295.6-201.6,295.5z M-199.6,302.8c-0.1,0-0.2-0.1-0.2-0.2l-0.6-5.2c0-0.1,0.1-0.2,0.2-0.3c0.1,0,0.2,0.1,0.3,0.2  l0.6,5.2C-199.3,302.7-199.4,302.8-199.6,302.8z M-200.3,302.7c-0.1,0-0.2-0.1-0.2-0.2l-0.6-5.1c0-0.1,0.1-0.2,0.2-0.3  c0.1,0,0.2,0.1,0.3,0.2l0.6,5.1C-200,302.6-200.1,302.7-200.3,302.7z M-197,289.9c-0.1,0-0.1,0-0.2-0.1c-0.1-0.1-0.5-0.5-0.3-1  c0.1-0.3,0.3-0.5,0.4-0.7c0.1-0.1,0.2-0.3,0.3-0.5c0-0.1,0.1-0.1,0.2-0.1c0.1,0,0.2,0,0.2,0.1c0.1,0.2,0.2,0.3,0.3,0.4  c0.2,0.2,0.3,0.4,0.5,0.9s-0.3,1-0.3,1c-0.1,0.1-0.2,0.1-0.3,0c-0.1-0.1-0.1-0.2,0-0.3c0.1-0.1,0.3-0.4,0.2-0.5  c-0.1-0.3-0.3-0.5-0.4-0.7l-0.1-0.1c-0.1,0.1-0.1,0.2-0.2,0.2c-0.1,0.2-0.2,0.3-0.4,0.6c-0.1,0.2,0.1,0.4,0.2,0.5  C-196.8,289.7-196.8,289.8-197,289.9L-197,289.9z"/> <path fill="#231F20" d="M-197.6,291.4L-197.6,291.4c-0.5-0.2-0.7-1.4-0.5-1.9c0.1-0.3,0.4-0.5,0.9-0.2c0.3,0.2,0.5,0.3,0.7,0.4  c0.1-0.1,0.3-0.3,0.7-0.4c0.5-0.2,0.8,0,0.9,0.2c0.3,0.5,0,1.7-0.4,1.9c-0.1,0.1-0.3,0-0.3-0.1c-0.1-0.1,0-0.3,0.1-0.3  c0.2-0.1,0.4-0.9,0.2-1.3c0,0-0.1-0.1-0.3,0c-0.6,0.3-0.7,0.5-0.7,0.5c0,0.1-0.1,0.2-0.2,0.2c-0.1,0-0.2-0.1-0.2-0.2  c0,0-0.1-0.2-0.6-0.4c-0.2-0.1-0.2,0-0.3,0c-0.2,0.3,0,1.2,0.2,1.3c0.1,0.1,0.2,0.2,0.1,0.3H-197.6L-197.6,291.4z"/> <path fill="#231F20" d="M-197.6,293.2L-197.6,293.2c-0.5-0.2-0.7-1.4-0.5-1.9c0.1-0.3,0.4-0.5,0.9-0.2c0.3,0.2,0.5,0.3,0.7,0.4  c0.1-0.1,0.3-0.3,0.7-0.4c0.3-0.2,0.6-0.1,0.7,0c0.2,0.2,0.3,0.5,0.3,1c0,0.3-0.1,1-0.5,1.2c-0.1,0.1-0.3,0-0.3-0.1  c-0.1-0.1,0-0.3,0.1-0.3c0.2-0.1,0.4-0.9,0.2-1.3c0,0-0.1-0.1-0.2,0c-0.6,0.3-0.7,0.5-0.7,0.5c0,0.1-0.1,0.2-0.2,0.2  c-0.1,0-0.2-0.1-0.2-0.3c0,0-0.1-0.2-0.6-0.4c-0.2-0.1-0.2,0-0.3,0c-0.2,0.3,0,1.2,0.2,1.3c0.1,0.1,0.2,0.2,0.1,0.3  C-197.2,293.2-197.6,293.2-197.6,293.2z"/> <path fill="#231F20" d="M-197.6,295L-197.6,295c-0.5-0.2-0.7-1.4-0.5-1.9c0.1-0.3,0.4-0.5,0.9-0.2c0.3,0.2,0.5,0.3,0.7,0.4  c0.1-0.1,0.3-0.3,0.7-0.4c0.5-0.2,0.8,0,0.9,0.2c0.3,0.5,0,1.7-0.4,1.9c-0.1,0.1-0.3,0-0.3-0.1c-0.1-0.1,0-0.3,0.1-0.3  c0.2-0.1,0.4-0.9,0.2-1.3c0,0-0.1-0.1-0.3,0c-0.6,0.3-0.7,0.5-0.7,0.5c0,0.1-0.1,0.2-0.2,0.2c-0.1,0-0.2-0.1-0.2-0.3  c0,0-0.1-0.2-0.6-0.4c-0.2-0.1-0.2,0-0.3,0c-0.2,0.3,0,1.2,0.2,1.3c0.1,0.1,0.2,0.2,0.1,0.3C-197.4,295-197.5,295-197.6,295  L-197.6,295z"/> <path fill="#231F20" d="M-196.5,297.3c-1.2-0.1-1.7-1.2-1.7-1.9c0-0.6,0.4-1,1-0.8c0.3,0.1,0.6,0.2,0.7,0.4  c0.1-0.1,0.4-0.3,0.7-0.4c0.5-0.1,1,0.2,1,0.9C-194.7,296.2-195.3,297.1-196.5,297.3C-196.4,297.3-196.5,297.3-196.5,297.3z   M-197.5,295c-0.2,0-0.2,0.3-0.2,0.4c0,0.5,0.4,1.3,1.2,1.4c0.9-0.1,1.3-0.9,1.2-1.3c0-0.2-0.1-0.5-0.4-0.4  c-0.5,0.1-0.6,0.3-0.6,0.4s-0.1,0.2-0.2,0.2c-0.1,0-0.2-0.1-0.2-0.2s-0.1-0.3-0.6-0.4C-197.4,295-197.4,295-197.5,295z   M-196.1,302.8c-0.1,0-0.2-0.1-0.2-0.2V297c0-0.1,0.1-0.2,0.2-0.2c0.1,0,0.2,0.1,0.2,0.2v5.6C-195.9,302.7-196,302.8-196.1,302.8z   M-196.9,302.8c-0.1,0-0.2-0.1-0.2-0.2v-5.7c0-0.1,0.1-0.2,0.2-0.2c0.1,0,0.2,0.1,0.2,0.2v5.7  C-196.6,302.7-196.8,302.8-196.9,302.8z M-186.7,292.7c-0.1,0-0.2,0-0.2-0.1c-0.1-0.2-0.1-0.3,0-0.4c0.1-0.1,0.3-0.2,0.3-0.4  c0-0.3-0.1-0.5-0.1-0.7c0-0.1,0-0.2-0.1-0.3h-0.1c-0.1,0.2-0.2,0.4-0.4,0.6c-0.1,0.1,0,0.4,0,0.6c0,0.1,0,0.3-0.1,0.3  c-0.1,0-0.3,0-0.3-0.1c0-0.1-0.2-0.7,0.1-1c0.3-0.3,0.4-0.5,0.7-0.7c0.1-0.1,0.2-0.2,0.4-0.3c0.1-0.1,0.2-0.1,0.2,0  c0.1,0,0.1,0.1,0.2,0.2c0,0.3,0.1,0.5,0.1,0.6c0.1,0.2,0.1,0.4,0.1,0.8c0,0.5-0.5,0.8-0.5,0.9  C-186.6,292.6-186.7,292.7-186.7,292.7z M-186.7,294.3c-0.1,0-0.2-0.1-0.2-0.2c0-0.1,0.1-0.3,0.2-0.3c0.2-0.1,0.6-0.8,0.5-1.2  c0,0,0-0.1-0.2-0.1c-0.5,0.1-0.7,0.2-0.7,0.2c0,0.1-0.2,0.2-0.3,0.1c-0.1,0-0.2-0.2-0.2-0.3c0,0,0-0.2-0.4-0.6c0,0.1,0,0,0,0  l-0.2,0.2c-0.2,0.4-0.2,0.9-0.1,1c0.1,0.1,0.1,0.2,0,0.3c-0.1,0.1-0.3,0.1-0.3,0c-0.4-0.2-0.2-1.4,0.2-1.8c0.2-0.2,0.5-0.2,0.8,0.1  c0.2,0.2,0.3,0.4,0.4,0.6c0.2-0.1,0.4-0.1,0.7-0.2c0.4-0.1,0.7,0.1,0.7,0.5C-185.7,293.1-186.2,294.2-186.7,294.3z"/> <path fill="#231F20" d="M-187.2,296c-0.1,0-0.2-0.1-0.2-0.2s0.1-0.3,0.2-0.3c0.2-0.1,0.6-0.9,0.5-1.2c0,0,0-0.1-0.2,0  c-0.5,0.1-0.7,0.2-0.7,0.2c0,0.1-0.2,0.2-0.3,0.1c-0.1,0-0.2-0.2-0.2-0.3c0,0,0-0.2-0.4-0.6l-0.1-0.1l-0.2,0.2  c-0.2,0.4-0.2,0.9-0.1,1c0.1,0.1,0.1,0.2,0,0.3c-0.1,0.1-0.3,0.1-0.3,0c-0.3-0.3-0.1-1.6,0.3-1.9c0.2-0.2,0.5-0.2,0.8,0.1  c0.2,0.2,0.3,0.4,0.4,0.6c0.1-0.1,0.4-0.1,0.7-0.2c0.5-0.1,0.7,0.2,0.7,0.5C-186.2,294.8-186.7,295.9-187.2,296z"/> <path fill="#231F20" d="M-187.7,297.7c-0.1,0-0.2-0.1-0.2-0.2s0.1-0.3,0.2-0.3c0.2-0.1,0.6-0.9,0.5-1.2c0,0,0-0.1-0.2,0  c-0.6,0.1-0.7,0.2-0.7,0.2c0,0.1-0.2,0.2-0.3,0.1c-0.1,0-0.2-0.2-0.1-0.3c0,0,0-0.2-0.4-0.6l-0.1-0.1l-0.2,0.2  c-0.2,0.4-0.2,0.9-0.1,1c0.1,0.1,0.1,0.2,0,0.3c-0.1,0.1-0.3,0.1-0.3,0c-0.3-0.4-0.1-1.6,0.3-1.9c0.2-0.2,0.5-0.2,0.8,0.1  c0.2,0.2,0.3,0.4,0.4,0.6c0.1-0.1,0.4-0.1,0.7-0.2c0.5-0.1,0.7,0.2,0.7,0.5C-186.7,296.5-187.2,297.6-187.7,297.7z"/> <path fill="#231F20" d="M-189,299.5c-0.1,0-0.3,0-0.4-0.1c-0.9-0.5-1.1-1.4-1-2.1c0.2-0.7,0.8-1,1.2-0.7c0.3,0.2,0.4,0.4,0.5,0.5  c0.2,0.1,0.4,0,0.7,0c0.3,0,0.4,0.1,0.5,0.2c0.1,0.1,0.1,0.3,0.1,0.5C-187.3,298.5-188,299.5-189,299.5z M-189.5,297  c-0.1,0-0.3,0.2-0.3,0.5c-0.1,0.5,0,1.2,0.7,1.5h0.2c0.7,0,1.1-0.7,1.1-1.2v-0.2h-0.1c-0.4,0-0.6,0.1-0.6,0.2s-0.2,0.2-0.3,0.1  c-0.1,0-0.2-0.1-0.2-0.3C-189,297.5-189,297.3-189.5,297C-189.4,297-189.5,297-189.5,297z"/> <path fill="#231F20" d="M-190.6,302.5C-190.6,302.5-190.7,302.5-190.6,302.5c-0.2-0.1-0.3-0.2-0.2-0.3l1-3.2c0-0.1,0.2-0.2,0.3-0.2  s0.2,0.2,0.2,0.3l-1,3.2C-190.4,302.4-190.5,302.5-190.6,302.5z M-189.9,302.4c-0.2,0-0.3-0.2-0.2-0.3l0.8-2.9  c0-0.1,0.2-0.2,0.3-0.2s0.2,0.2,0.2,0.3l-0.9,2.9C-189.7,302.3-189.8,302.4-189.9,302.4z M-191,290.4c-0.1,0-0.1,0-0.2-0.1  c-0.1-0.1-0.1-0.2,0-0.3c0.1-0.1,0.3-0.3,0.2-0.5c0-0.3-0.1-0.5-0.2-0.7c0-0.1-0.1-0.1-0.1-0.2l-0.1,0.1c-0.2,0.2-0.3,0.4-0.5,0.7  c-0.1,0.2,0.1,0.4,0.1,0.5c0.1,0.1,0,0.3-0.1,0.3c-0.1,0.1-0.3,0-0.3-0.1c0-0.1-0.4-0.6-0.2-1c0.2-0.4,0.3-0.6,0.6-0.8  c0.1-0.1,0.2-0.2,0.3-0.4c0.1-0.1,0.1-0.1,0.2-0.1c0.1,0,0.2,0.1,0.2,0.2c0.1,0.3,0.2,0.4,0.2,0.6c0.1,0.2,0.2,0.4,0.3,0.8  C-190.5,289.9-190.9,290.3-191,290.4C-190.9,290.4-191,290.4-191,290.4z"/> <path fill="#231F20" d="M-190.7,292c-0.1,0-0.2-0.1-0.2-0.2s0-0.3,0.1-0.3c0.2-0.1,0.4-1,0.3-1.3c0,0,0-0.1-0.2,0  c-0.5,0.2-0.6,0.4-0.6,0.4c0,0.1-0.1,0.2-0.3,0.2c-0.1,0-0.2-0.1-0.2-0.3c0,0-0.1-0.2-0.5-0.5c-0.1-0.1-0.2-0.1-0.2,0  c-0.2,0.2-0.2,1.2,0,1.3c0.1,0.1,0.1,0.2,0,0.3c-0.1,0.1-0.2,0.1-0.3,0c-0.4-0.3-0.4-1.5-0.1-2c0.2-0.2,0.5-0.3,0.8-0.1  c0.3,0.2,0.4,0.3,0.5,0.5c0.1-0.1,0.3-0.2,0.6-0.3c0.4-0.2,0.7,0,0.8,0.3C-189.9,290.7-190.2,291.8-190.7,292L-190.7,292z"/> <path fill="#231F20" d="M-190.9,293.8c-0.1,0-0.2-0.1-0.2-0.1c-0.1-0.1,0-0.3,0.1-0.3c0.2-0.1,0.4-1,0.3-1.3c0,0,0-0.1-0.2,0  c-0.5,0.2-0.6,0.4-0.6,0.4c0,0.1-0.1,0.2-0.3,0.2c-0.1,0-0.2-0.1-0.2-0.3c0,0-0.1-0.2-0.5-0.5c-0.1-0.1-0.2-0.1-0.2,0  c-0.2,0.2-0.2,1.2,0,1.3c0.1,0.1,0.1,0.2,0,0.3c-0.1,0.1-0.2,0.1-0.3,0c-0.4-0.3-0.4-1.5-0.1-2c0.1-0.2,0.4-0.3,0.8,0  c0.3,0.2,0.4,0.3,0.5,0.5c0.1-0.1,0.3-0.2,0.6-0.3c0.4-0.2,0.7,0,0.8,0.3C-190.1,292.4-190.4,293.6-190.9,293.8L-190.9,293.8z"/> <path fill="#231F20" d="M-191.1,295.6c-0.1,0-0.2-0.1-0.2-0.2s0-0.3,0.1-0.3c0.2-0.1,0.4-1,0.3-1.3c0,0,0-0.1-0.2,0  c-0.6,0.2-0.7,0.4-0.7,0.4c0,0.1-0.1,0.2-0.3,0.2c-0.1,0-0.2-0.1-0.2-0.3c0,0-0.1-0.2-0.5-0.5c-0.1-0.1-0.2-0.1-0.2,0  c-0.2,0.2-0.2,1.2,0,1.3c0.1,0.1,0.1,0.2,0,0.3c-0.1,0.1-0.2,0.1-0.3,0c-0.4-0.3-0.4-1.5-0.1-1.9c0.2-0.2,0.5-0.4,0.9-0.1  c0.3,0.2,0.4,0.3,0.5,0.5c0.1-0.1,0.3-0.2,0.6-0.3c0.4-0.2,0.7,0,0.8,0.3C-190.3,294.2-190.6,295.4-191.1,295.6L-191.1,295.6z"/> <path fill="#231F20" d="M-192.3,297.6h-0.1c-1.1-0.3-1.5-1.2-1.4-1.9c0.1-0.7,0.6-1,1.1-0.8c0.3,0.1,0.5,0.3,0.6,0.4  c0.1-0.1,0.3-0.2,0.6-0.3c0.5-0.1,0.8,0.2,0.8,0.8C-190.6,296.6-191.2,297.6-192.3,297.6z M-193,295.3c-0.1,0-0.3,0.2-0.3,0.5  c-0.1,0.5,0.2,1.2,1,1.4c0.8,0,1.2-0.9,1.2-1.3c0-0.1,0-0.4-0.2-0.3c-0.5,0.1-0.6,0.3-0.6,0.3c0,0.1-0.2,0.2-0.3,0.2  c-0.1,0-0.2-0.1-0.2-0.2v-0.1c0-0.1-0.1-0.2-0.5-0.4L-193,295.3z M-193.3,302.8c-0.2,0-0.3-0.1-0.2-0.3l0.5-5.2  c0-0.1,0.1-0.2,0.3-0.2c0.1,0,0.2,0.1,0.2,0.3l-0.6,5.2C-193.1,302.7-193.2,302.8-193.3,302.8z M-192.7,302.7  c-0.2,0-0.3-0.1-0.2-0.3l0.6-5.1c0-0.1,0.1-0.2,0.3-0.2c0.1,0,0.2,0.1,0.2,0.3l-0.6,5.1C-192.4,302.6-192.5,302.7-192.7,302.7z"/> <path fill="#231F20" d="M-196.7,305c-5.4,0-10.4-1.5-10.4-2.7c0-0.1,0.1-0.2,0.2-0.2c0.1,0,0.2,0.1,0.2,0.2c0,0.5,4.1,2.2,9.9,2.2  s9.9-1.7,9.9-2.3c0-0.1,0.1-0.2,0.2-0.2c0.1,0,0.2,0.1,0.2,0.2C-186.4,303.5-191.4,305-196.7,305z M-196.7,307.2  c-5.3,0-10.1-1.5-10.1-2.7c0-0.1,0.1-0.2,0.2-0.2c0.1,0,0.2,0.1,0.2,0.2c0,0.6,3.9,2.3,9.6,2.3c5.2,0,9-1.4,9.6-2.2  c0.1-0.1,0.2-0.1,0.3-0.1c0.1,0.1,0.1,0.2,0.1,0.3C-187.5,305.8-191.6,307.2-196.7,307.2z M-196.7,309.4c-5.3,0-9.6-1.5-9.6-2.7  c0-0.1,0.1-0.2,0.2-0.2c0.1,0,0.2,0.1,0.2,0.2c0,0.5,3.2,2.2,9.1,2.2c5,0,8.5-1.1,9.1-1.9c0.1-0.1,0.2-0.1,0.3-0.1  c0.1,0.1,0.1,0.2,0.1,0.3C-187.9,308.3-191.7,309.4-196.7,309.4z M-196.7,311.6c-4.7,0-7.7-1.1-8.5-2.1c-0.1-0.1-0.1-0.3,0-0.3  c0.1-0.1,0.2-0.1,0.3,0c0.6,0.8,3.3,1.9,8.1,1.9s7.9-1.2,8.4-2.1c0.1-0.1,0.2-0.1,0.3-0.1c0.1,0.1,0.1,0.2,0.1,0.3  C-188.5,310.3-191.7,311.6-196.7,311.6z"/> <path fill="#231F20" d="M-197.3,313.4c-1,0-1.8-0.7-2-8.7c0-0.1,0.1-0.2,0.2-0.2c0.1,0,0.2,0.1,0.2,0.2c0.2,7.2,0.9,8.2,1.6,8.2  c0.1,0,0.2,0.1,0.2,0.2C-197,313.3-197.1,313.4-197.3,313.4z M-199.3,313.3C-199.4,313.3-199.4,313.3-199.3,313.3  c-1.9-0.6-2.8-1.9-3.3-9.1c0-0.1,0.1-0.2,0.2-0.3c0.1,0,0.2,0.1,0.3,0.2c0.5,6.8,1.3,8.1,2.9,8.6c0.1,0,0.2,0.2,0.2,0.3  C-199.2,313.2-199.2,313.3-199.3,313.3z M-202,312.7h-0.1c-1.9-1.3-2.6-5-3.1-8.2l-0.2-0.9c0-0.1,0.1-0.3,0.2-0.3s0.3,0.1,0.3,0.2  l0.2,0.9c0.6,3.2,1.2,6.7,2.9,7.9c0.1,0.1,0.1,0.2,0.1,0.3C-201.8,312.7-201.9,312.7-202,312.7z M-196.2,313.4  c-0.1,0-0.2-0.1-0.2-0.2c0-0.1,0.1-0.2,0.2-0.3c0.6,0,1.4-0.1,1.3-8.2c0-0.1,0.1-0.2,0.2-0.2c0.1,0,0.2,0.1,0.2,0.2  C-194.4,312.7-195.1,313.3-196.2,313.4z M-194.4,313.3c-0.1,0-0.2-0.1-0.2-0.2c0-0.1,0-0.3,0.2-0.3c2.2-0.6,2.8-1.5,3.3-8.7  c0-0.1,0.1-0.3,0.3-0.2c0.1,0,0.2,0.1,0.2,0.3C-191.2,311.3-191.7,312.6-194.4,313.3C-194.3,313.3-194.3,313.3-194.4,313.3z"/> <path fill="#231F20" d="M-191.7,312.9c-0.1,0-0.2-0.1-0.2-0.2c0-0.1,0-0.3,0.1-0.3c1.8-0.7,2.9-3.6,3.5-9.1c0-0.1,0.1-0.2,0.3-0.2  c0.1,0,0.2,0.1,0.2,0.3C-188.4,309.2-189.6,312.1-191.7,312.9C-191.6,312.9-191.6,312.9-191.7,312.9z M-206.9,300.9  c-0.1,0-0.1,0-0.2-0.1s-1.5-1.9-1.5-3.4c0-0.5,0.2-0.8,0.6-1.1c0.8-0.4,2.1-0.2,2.3-0.1c0.1,0.1,0.1,0.2,0.1,0.3  c-0.1,0.1-0.2,0.1-0.3,0.1c-0.2-0.1-1.3-0.3-1.9,0.1c-0.2,0.2-0.3,0.5-0.3,0.7c0,1.3,1.4,3.1,1.4,3.1c0.1,0.1,0.1,0.3,0,0.3  C-206.8,300.9-206.8,300.9-206.9,300.9z"/> <path fill="#231F20" d="M-205.9,300.6c-0.1,0-0.1,0-0.2-0.1c-0.5-0.7-1.6-2.4-1.4-2.9c0-0.1,0.1-0.2,0.2-0.3h0.1  c0.6-0.2,0.8-0.3,2,0.1c0.1,0,0.2,0.2,0.2,0.3c0,0.1-0.2,0.2-0.3,0.2c-1.1-0.3-1.2-0.3-1.7-0.1c0,0.3,0.6,1.4,1.4,2.5  c0.1,0.1,0.1,0.3-0.1,0.3C-205.7,300.6-205.9,300.6-205.9,300.6z M-187.6,300.7L-187.6,300.7c-0.2-0.1-0.2-0.2-0.2-0.3  c0.8-1.2,1.4-2.4,1.3-2.6c-0.1-0.1-0.5-0.3-1.1-0.1c-0.1,0-0.3,0-0.3-0.2c0-0.1,0-0.3,0.2-0.3c0.8-0.2,1.4,0,1.6,0.3  c0.4,0.5-0.6,2.2-1.3,3.2H-187.6z"/> <path fill="#231F20" d="M-196.7,313.4c-5.4,0-6.7-1.2-7.8-2.6c-0.4-0.5-2.4-3.6-2.7-9.9c0-0.1,0-0.3,0.1-0.4  c0.1-0.1,0.2-0.1,0.3-0.1c0.1,0.1,0.1,0.2,0.1,0.3v0.1c0.3,6.2,2.2,9.1,2.6,9.6c0.8,1.1,1.8,2.4,7.4,2.4c4.7,0,6-0.7,7.1-1.6  c1-0.8,2.4-4.4,2.9-10.4l-0.1-0.1c-0.1-0.1-0.1-0.2,0-0.3c0.1-0.1,0.2-0.1,0.3,0c0.1,0.1,0.3,0.3,0.3,0.5  c-0.5,5.4-1.7,9.7-3.1,10.8C-190.5,312.7-191.9,313.4-196.7,313.4z M-206.7,292.1c-0.1,0-0.2,0-0.2-0.1c-0.2-0.4-0.6-1-1.2-0.9  c-0.1,0-0.2-0.1-0.3-0.2c0-0.1,0.1-0.2,0.2-0.3c0.7-0.1,1.3,0.3,1.7,1.2C-206.4,291.9-206.5,292.1-206.7,292.1  C-206.6,292.1-206.7,292.1-206.7,292.1z M-206.4,290.9c-0.1,0-0.2-0.1-0.2-0.2c0,0-0.3-1.1-1-1.2c-0.1,0-0.2-0.1-0.2-0.3  c0-0.1,0.1-0.2,0.3-0.2c1,0.1,1.4,1.5,1.5,1.5C-206.2,290.7-206.2,290.9-206.4,290.9z M-206.4,290.6c-0.1,0-0.2,0-0.2-0.1  c0,0-0.5-0.8-0.1-1.7c0.1-0.1,0.2-0.2,0.3-0.1c0.1,0.1,0.2,0.2,0.1,0.3c-0.3,0.7,0,1.2,0,1.2c0.1,0.1,0,0.3-0.1,0.3  C-206.3,290.6-206.4,290.6-206.4,290.6z M-206.6,292.6c-0.1,0-0.2-0.1-0.2-0.2c0,0-0.1-0.2-0.7-0.4c-0.1,0-0.2-0.2-0.2-0.3  c0-0.1,0.2-0.2,0.3-0.2c1,0.3,1.1,0.7,1.1,0.8C-206.4,292.4-206.5,292.6-206.6,292.6z M-205.4,291.5c-0.1,0-0.2-0.1-0.2-0.2  c0,0-0.3-0.9,0.4-1.7c0.1-0.1,0.2-0.1,0.3,0c0.1,0.1,0.1,0.2,0,0.3c-0.5,0.7-0.3,1.3-0.3,1.3C-205.2,291.3-205.2,291.5-205.4,291.5  z M-202.1,289.8c-0.1,0-0.2-0.1-0.2-0.2c0,0-0.4-1-1.1-1.1c-0.1,0-0.2-0.1-0.2-0.2s0.1-0.2,0.2-0.2c1,0,1.5,1.3,1.6,1.4  C-201.9,289.6-201.9,289.7-202.1,289.8z M-201.7,288.5c-0.1,0-0.2-0.1-0.2-0.2c0,0-0.2-1.1-0.9-1.3c-0.1,0-0.2-0.1-0.2-0.3  c0-0.1,0.1-0.2,0.3-0.2c1,0.2,1.3,1.6,1.3,1.6C-201.4,288.4-201.5,288.5-201.7,288.5z"/> <path fill="#231F20" d="M-201.6,288.3c-0.1,0-0.2,0-0.2-0.1c0,0-0.4-0.8,0.1-1.7c0.1-0.1,0.2-0.2,0.3-0.1c0.1,0.1,0.2,0.2,0.1,0.3  c-0.4,0.7-0.1,1.2-0.1,1.2c0.1,0.1,0,0.3-0.1,0.3C-201.5,288.2-201.6,288.3-201.6,288.3z M-202.2,290.3c-0.1,0-0.2-0.1-0.2-0.2  c0,0-0.1-0.2-0.7-0.5c-0.1,0-0.2-0.2-0.1-0.3c0-0.1,0.1-0.2,0.2-0.1c0.9,0.3,1,0.7,1,0.9C-202,290.2-202.1,290.3-202.2,290.3z   M-200.9,289.3c-0.1,0-0.2-0.1-0.2-0.2c0,0-0.2-0.9,0.6-1.6c0.1-0.1,0.2-0.1,0.3,0c0.1,0.1,0.1,0.2,0,0.3c-0.6,0.5-0.4,1.2-0.4,1.2  C-200.6,289.2-200.7,289.3-200.9,289.3z M-197.2,289.2c-0.1,0-0.2-0.1-0.2-0.2c0,0-0.2-1.1-0.9-1.3c-0.1,0-0.2-0.1-0.2-0.3  c0-0.1,0.2-0.2,0.3-0.2c1,0.2,1.3,1.6,1.3,1.7S-197,289.2-197.2,289.2z M-196.6,288.1c-0.1,0-0.2-0.1-0.2-0.2c0,0,0-1.2-0.7-1.4  c-0.1-0.1-0.2-0.2-0.1-0.3c0.1-0.1,0.2-0.2,0.3-0.1c1,0.4,1,1.8,1,1.9C-196.3,288-196.4,288.1-196.6,288.1z"/> <path fill="#231F20" d="M-196.5,287.8c-0.1,0-0.2-0.1-0.2-0.2c0,0-0.3-0.9,0.4-1.6c0.1-0.1,0.2-0.1,0.3,0s0.1,0.2,0,0.3  c-0.5,0.5-0.3,1.2-0.3,1.2C-196.2,287.6-196.3,287.8-196.5,287.8C-196.4,287.8-196.4,287.8-196.5,287.8z M-197.4,289.6  c-0.2,0-0.2-0.1-0.2-0.3c0,0,0-0.3-0.6-0.6c-0.1-0.1-0.1-0.2-0.1-0.3c0.1-0.1,0.2-0.1,0.3-0.1c0.9,0.5,0.8,1,0.8,1.1  C-197.1,289.5-197.2,289.6-197.4,289.6L-197.4,289.6z M-195.9,288.9c-0.1,0-0.2-0.1-0.2-0.2c0,0,0-0.9,0.9-1.5  c0.1-0.1,0.3,0,0.3,0.1c0.1,0.1,0,0.3-0.1,0.3c-0.7,0.4-0.7,1-0.7,1C-195.6,288.8-195.7,288.9-195.9,288.9L-195.9,288.9z   M-186.4,292.2L-186.4,292.2c-0.2-0.1-0.3-0.2-0.2-0.3c0-0.1,0.7-1.2,1.8-1c0.1,0,0.2,0.1,0.2,0.3c0,0.1-0.1,0.2-0.3,0.2  c-0.7-0.1-1.3,0.8-1.3,0.8C-186.2,292.1-186.3,292.2-186.4,292.2z M-186.5,290.9C-186.6,290.9-186.6,290.8-186.5,290.9  c-0.2-0.1-0.3-0.2-0.2-0.3c0-0.1,0.5-1.4,1.6-1.4c0.1,0,0.2,0.1,0.2,0.2s-0.1,0.2-0.2,0.2c-0.7,0-1.1,1.1-1.1,1.1  C-186.3,290.8-186.4,290.9-186.5,290.9z"/> <path fill="#231F20" d="M-186.5,290.6c-0.1,0-0.1,0-0.1-0.1c-0.1-0.1-0.1-0.2,0-0.3c0,0,0.4-0.5,0.1-1.2c0-0.1,0-0.3,0.1-0.3  c0.1,0,0.3,0,0.3,0.1c0.4,1-0.1,1.7-0.2,1.7C-186.4,290.6-186.5,290.6-186.5,290.6z M-186.3,292.7  C-186.4,292.7-186.4,292.7-186.3,292.7c-0.2,0-0.3-0.2-0.2-0.3c0-0.1,0.2-0.5,1.1-0.7c0.1,0,0.3,0.1,0.3,0.2s-0.1,0.3-0.2,0.3  c-0.7,0.1-0.8,0.3-0.8,0.3C-186.1,292.6-186.2,292.7-186.3,292.7z M-187.5,291.5C-187.5,291.5-187.6,291.5-187.5,291.5  c-0.2-0.1-0.3-0.2-0.2-0.3c0,0,0.2-0.6-0.3-1.2c-0.1-0.1-0.1-0.3,0-0.3c0.1-0.1,0.2-0.1,0.3,0c0.7,0.8,0.3,1.7,0.3,1.7  C-187.3,291.5-187.4,291.5-187.5,291.5z M-190.7,289.8C-190.8,289.8-190.8,289.8-190.7,289.8c-0.2,0-0.3-0.2-0.2-0.3  c0-0.1,0.4-1.4,1.4-1.5c0.1,0,0.2,0.1,0.3,0.2c0,0.1-0.1,0.2-0.2,0.3c-0.7,0.1-1,1.2-1,1.2C-190.5,289.7-190.6,289.8-190.7,289.8z   M-191.1,288.6C-191.2,288.6-191.2,288.6-191.1,288.6c-0.1,0-0.2-0.1-0.2-0.3c0-0.1,0.1-1.5,1.1-1.8c0.1,0,0.3,0,0.3,0.2  c0,0.1,0,0.3-0.2,0.3c-0.7,0.2-0.8,1.4-0.8,1.4C-190.9,288.5-191,288.6-191.1,288.6z"/> <path fill="#231F20" d="M-191.2,288.4C-191.2,288.4-191.3,288.4-191.2,288.4c-0.2-0.1-0.3-0.2-0.2-0.3c0,0,0.2-0.6-0.2-1.2  c-0.1-0.1-0.1-0.3,0-0.3c0.1-0.1,0.3-0.1,0.3,0c0.6,0.8,0.3,1.6,0.3,1.6C-191,288.3-191.1,288.4-191.2,288.4L-191.2,288.4z   M-190.6,290.3c-0.1,0-0.2-0.1-0.2-0.2c0-0.1,0-0.5,0.9-1c0.1-0.1,0.3,0,0.3,0.1c0.1,0.1,0,0.3-0.1,0.3c-0.6,0.3-0.6,0.5-0.6,0.5  S-190.6,290.3-190.6,290.3z M-192.1,289.4c-0.2,0-0.3-0.1-0.2-0.3c0-0.2,0.1-0.6-0.6-1.1c-0.1,0-0.1-0.1,0-0.2  c0.1-0.1,0.2-0.1,0.3-0.1c0.9,0.6,0.8,1.3,0.8,1.5C-191.8,289.3-191.9,289.4-192.1,289.4z"/> <path fill="#231F20" d="M-222.6,357.9c-37.6-14.6-43.3-46.8-43.4-64.8v-36.8c0-0.1,0.1-0.2,0.1-0.3c0.1-0.1,0.2-0.1,0.3-0.1h85.8  c0.1,0,0.2,0.1,0.3,0.1c0.1,0.1,0.1,0.2,0.1,0.3v36.8C-179.4,311.1-184.7,343.1-222.6,357.9z M-265,256.8v36.3  c0,17.7,5.5,49.6,42.4,63.7c36.8-14.2,42.4-46,42.4-63.7v-36.3H-265z"/> <path fill="#FFFFFF" d="M-179.8,255.9c0.1,0,0.2,0.1,0.3,0.1c0.1,0.1,0.1,0.2,0.1,0.3v36.8c0,18-5.3,50-43.2,64.8  c-37.6-14.6-43.3-46.8-43.4-64.8v-36.8c0-0.1,0.1-0.2,0.1-0.3c0.1-0.1,0.2-0.1,0.3-0.1H-179.8 M-179.8,253.9h-85.8  c-0.7,0-1.3,0.2-1.7,0.7l-0.6,0.6v0.5c-0.1,0.2-0.1,0.4-0.1,0.7v36.8c0.1,18.5,6,51.7,44.7,66.7l0.7,0.3l0.7-0.3  c17.1-6.7,29.5-17.5,36.9-32.2c5-10.1,7.6-21.7,7.6-34.5v-36.8c0-0.7-0.2-1.3-0.7-1.7l-0.6-0.6h-0.5  C-179.3,254-179.5,253.9-179.8,253.9L-179.8,253.9z"/></g></svg>