<?xml version="1.0" encoding="utf-8"?>
<!-- Generator: Adobe Illustrator 19.2.1, SVG Export Plug-In . SVG Version: 6.00 Build 0)  -->
<svg version="1.1" id="Layer_1" xmlns="http://www.w3.org/2000/svg" xmlns:xlink="http://www.w3.org/1999/xlink" x="0px" y="0px"
	 viewBox="0 0 258 106.1" style="enable-background:new 0 0 258 106.1;" xml:space="preserve">
<style type="text/css">
	.st0{fill:#010101;}
	.st1{fill:#FFFFFF;}
	.st2{fill:#00498F;}
	.st3{fill:#A80533;}
	.st4{fill:#B30838;}
	.st5{fill:#FFD420;}
	.st6{fill:#231F20;}
</style>
<g>
	<path class="st0" d="M174.3,25.6c-0.5-0.9-1.1-1.6-2.2-1.9v-0.6c0.7,0,3,0.1,3.5,0.1s2.7-0.1,3.4-0.1v0.5c-0.7,0.1-1.3,0.5-1.3,1.1
		c0,0.5,0.3,1.1,0.8,2.2l5,11.4l4.7-11.4c0.4-0.9,0.7-1.7,0.7-2.1c0-0.7-0.6-1-1.4-1.2V23c0.7,0,2.1,0.1,2.6,0.1s2.2-0.1,3-0.1v0.6
		c-1.2,0.3-1.9,1-2.6,2.5l-7,16.5H182L174.3,25.6z M106.6,42.1c0.9-0.2,1.6-0.7,1.6-1.7V25.2c0-1-0.6-1.4-1.6-1.7v-0.6
		c0.5,0,2.5,0.1,3.1,0.1s2.7-0.1,3.3-0.1v0.6c-0.9,0.2-1.6,0.7-1.6,1.7v6.3h11.3v-6.3c0-1-0.6-1.5-1.6-1.7v-0.6
		c0.5,0,2.6,0.1,3.2,0.1c0.5,0,2.6-0.1,3.1-0.1v0.6c-0.9,0.2-1.6,0.7-1.6,1.7v15.2c0,1,0.7,1.4,1.6,1.7v0.5h-6.3v-0.5
		c0.9-0.2,1.6-0.7,1.6-1.7v-7.2h-11.3v7.2c0,1,0.7,1.4,1.6,1.7v0.5h-6.4C106.6,42.6,106.6,42.1,106.6,42.1z M236.8,42.1
		c1.2-0.2,1.8-0.7,1.8-1.8v-15c0-1-0.7-1.5-1.8-1.7V23c0.7,0,2.8,0.1,3.3,0.1c0.9,0,3.6-0.2,5.7-0.2c6.9,0,11.2,3.9,11.2,9.8
		c0,5.7-4.4,10-11.5,10c-2,0-4.5-0.2-5.5-0.2c-0.6,0-2.5,0.1-3.2,0.1C236.8,42.6,236.8,42.1,236.8,42.1z M241.7,41.1
		c0.7,0.1,2,0.2,3.1,0.2c5.9,0,8.8-3.5,8.8-8.4c0-5-3.2-8.7-8.7-8.7c-1.1,0-2.5,0.1-3.3,0.2L241.7,41.1L241.7,41.1z M158.5,40.3
		c0,1,0.7,1.6,1.8,1.8v0.6c-0.7,0-2.8-0.1-3.3-0.1s-2.6,0.1-3.3,0.1v-0.6c1.1-0.2,1.8-0.7,1.8-1.8V25.4c0-0.9-0.5-1.5-1.8-1.7v-0.6
		c0.7,0,2.7,0.1,3.3,0.1c0.9,0,3.6-0.2,4.7-0.2c4.7,0,7.3,2,7.3,5.2c0,2.6-2,4.4-4.9,5c0,0,0.7,0.4,1.3,1.2c0.8,0.9,3.1,4.2,4,5.3
		c0.9,1.1,2,2.3,3.3,2.4v0.5c-0.6,0.1-1.6,0.3-2.3,0.3c-1.6,0-2.9-0.6-4.1-2c-1-1.3-2.9-4-4-5.4c-0.7-0.8-1.5-1.5-3-1.8
		c-0.3-0.1-0.6-0.1-0.9-0.1L158.5,40.3L158.5,40.3z M158.5,32.4c0.7,0.1,1.5,0.1,2.4,0.1c3.6,0,4.7-2.1,4.7-3.9
		c0-2.6-1.8-4.3-4.9-4.3c-0.7,0-1.6,0.1-2.2,0.2C158.5,24.5,158.5,32.4,158.5,32.4z M219.9,40.3c0,1,0.7,1.6,1.8,1.8v0.6
		c-0.7,0-2.8-0.1-3.3-0.1c-0.6,0-2.6,0.1-3.3,0.1v-0.6c1.1-0.2,1.8-0.7,1.8-1.8V25.4c0-0.9-0.5-1.5-1.7-1.7v-0.6
		c0.7,0,2.7,0.1,3.3,0.1c0.9,0,3.6-0.2,4.7-0.2c4.7,0,7.3,2,7.3,5.2c0,2.6-2,4.4-4.9,5c0,0,0.7,0.4,1.3,1.2c0.8,0.9,3.1,4.2,4,5.3
		c0.9,1.1,2.1,2.3,3.3,2.4v0.5c-0.6,0.1-1.6,0.3-2.3,0.3c-1.6,0-2.9-0.6-4.1-2c-1-1.3-2.9-4-4-5.4c-0.7-0.8-1.5-1.5-3-1.8
		c-0.3-0.1-0.6-0.1-0.9-0.1L219.9,40.3L219.9,40.3z M219.9,32.4c0.7,0.1,1.5,0.1,2.4,0.1c3.6,0,4.7-2.1,4.7-3.9
		c0-2.6-1.8-4.3-4.9-4.3c-0.7,0-1.6,0.1-2.3,0.2C219.8,24.5,219.9,32.4,219.9,32.4z M130.3,42.1c1.2-0.3,1.9-1.1,2.3-2.1l6.2-15
		c0.3-0.7,0.6-1.9,0.6-1.9h1.8c0,0,0.3,1.3,0.6,1.9l6.6,15.1c0.5,1,1,1.8,2.3,2.1v0.5H144v-0.5c0.9-0.3,1.3-0.7,1.3-1.2
		c0-0.4-0.2-0.8-0.4-1.3l-1.4-3.3h-7.3l-1.3,3.3c-0.2,0.4-0.3,0.9-0.3,1.2c0,0.6,0.3,0.9,1.4,1.3v0.5h-5.5L130.3,42.1z M142.6,34.8
		l-3.1-7.3l-2.9,7.3H142.6 M192,42.1c1.2-0.3,2-1.1,2.3-2.1l6.2-15c0.3-0.7,0.6-1.9,0.6-1.9h1.8c0,0,0.3,1.3,0.6,1.9l6.6,15.1
		c0.5,1,0.9,1.8,2.3,2.1v0.5h-6.7v-0.5c0.9-0.3,1.3-0.7,1.3-1.2c0-0.4-0.2-0.8-0.4-1.3l-1.4-3.3h-7.3l-1.3,3.3
		c-0.2,0.4-0.3,0.9-0.3,1.2c0,0.6,0.3,0.9,1.4,1.3v0.5h-5.6L192,42.1L192,42.1z M204.4,34.8l-3.1-7.3l-2.9,7.3H204.4 M108.5,63.6
		c0.7-0.1,0.9-0.7,0.9-1v-9.8c0-0.4-0.3-0.8-0.9-0.9v-0.5h7.7c0.2,0,0.6,0,0.7-0.2h0.5l-0.1,2.5h-0.5c-0.3-0.8-0.8-1.2-1.9-1.2h-3.5
		V57h3.1c0.5,0,0.8-0.3,1.1-0.7h0.6v2.5h-0.5c-0.3-0.5-0.7-0.7-1.1-0.7h-3.1v5h3.4c1.2,0,1.8-0.5,2.2-1.2l0.6,0.1l-0.3,2.2
		c-1.2-0.1-1.9-0.1-3.2-0.1h-5.9L108.5,63.6L108.5,63.6z M119.6,63.6c0.7-0.2,1.2-0.7,1.7-1.3l2-2.2l-1.8-2.5
		c-0.5-0.7-0.9-1-1.5-1.2v-0.5h3.7v0.5c-0.3,0.1-0.4,0.3-0.4,0.4s0.1,0.3,0.2,0.5l1,1.4l1.2-1.4c0.2-0.2,0.2-0.4,0.2-0.6
		c0-0.1-0.2-0.3-0.5-0.3v-0.5h3.2v0.5c-0.6,0.2-1.3,0.7-1.9,1.4l-1.6,1.9l2,2.8c0.4,0.5,0.8,0.9,1.5,1.2v0.5h-3.8v-0.5
		c0.6-0.3,0.4-0.6,0.1-0.9l-1.2-1.7l-1.4,1.7c-0.2,0.2-0.3,0.4-0.3,0.5c0,0.2,0.2,0.4,0.5,0.5v0.5h-3.1L119.6,63.6 M131.3,56.8h-1.2
		v-0.7l1.2-0.4c0.5-0.5,0.8-1.2,1-2.2h1v2.4h2.3v0.9h-2.3v5c0,0.9,0.4,1.2,0.7,1.2c0.6,0,0.8-0.2,1.2-0.7l0.5,0.4
		c-0.3,0.6-1.1,1.5-2.3,1.5c-1,0-2.1-0.6-2.1-2.4L131.3,56.8L131.3,56.8z M144.8,62.8c-0.6,0.7-1.5,1.4-3.2,1.4
		c-2.9,0-4.5-1.8-4.5-4.3c0-2.6,1.9-4.3,4.2-4.3c2.2,0,3.7,1.4,3.5,3.2c0,0.2,0,0.4-0.1,0.6h-5.5c-0.2,2,0.8,3.6,2.6,3.6
		c0.8,0,1.8-0.2,2.3-0.7C144.1,62.3,144.8,62.8,144.8,62.8z M142.7,58.6c0-0.8-0.3-2-1.4-2c-1.2,0-1.7,1-1.9,2H142.7L142.7,58.6z
		 M146.7,63.6c0.5-0.2,0.8-0.4,0.8-0.7V58c0-0.5-0.2-0.7-0.9-0.9v-0.5l2.5-0.9h0.4l0.1,0.9c0.7-0.6,1.6-0.9,2.6-0.9c2,0,3,1.2,3,2.6
		V63c0,0.3,0.3,0.5,0.8,0.7v0.5h-3.7v-0.5c0.5-0.2,0.8-0.4,0.8-0.7v-4c0-1.4-0.5-2-1.7-2c-0.7,0-1.4,0.3-1.8,1v5
		c0,0.3,0.3,0.5,0.8,0.7v0.5h-3.7L146.7,63.6L146.7,63.6z M157.9,61.9h0.5c0.7,0.9,1.2,1.5,2.2,1.5c1.1,0,1.6-0.5,1.6-1
		c0-0.4-0.2-0.7-0.6-0.8l-2.5-1.1c-0.8-0.4-1.4-1.1-1.4-2.1c0-1.7,1.6-2.5,3.3-2.5c0.8,0,1.9,0.2,2.7,0.5v1.9h-0.5
		c-0.5-0.8-1.2-1.4-2.1-1.4c-0.9,0-1.4,0.6-1.4,1.1s0.2,0.8,0.7,1.1l2.5,1.1c0.5,0.3,1.1,0.9,1.1,1.9c0,1.5-1.4,2.4-3.3,2.4
		c-0.8,0-1.9-0.2-2.7-0.5L157.9,61.9 M166,63.6c0.5-0.2,0.8-0.4,0.8-0.7V58c0-0.5-0.2-0.7-0.9-0.9v-0.5l2.5-0.9h0.5V63
		c0,0.3,0.3,0.5,0.8,0.7v0.5H166C166,64.2,166,63.6,166,63.6z M166.7,53.3c0-0.6,0.5-1,1-1c0.6,0,1,0.5,1,1s-0.5,1-1,1
		C167.2,54.4,166.7,53.9,166.7,53.3 M175.7,55.8c2.6,0,4.5,1.9,4.5,4.3c0,2.5-1.8,4.3-4.5,4.3c-2.6,0-4.5-1.8-4.5-4.3
		S173.1,55.8,175.7,55.8 M178,60.1c0-1.7-0.7-3.3-2.3-3.3c-1.7,0-2.3,1.8-2.3,3.3c0,1.7,0.7,3.4,2.3,3.4
		C177.3,63.3,178,61.6,178,60.1 M181.9,63.6c0.5-0.2,0.8-0.4,0.8-0.7V58c0-0.5-0.2-0.7-0.9-0.9v-0.5l2.5-0.9h0.4l0.1,0.9
		c0.7-0.6,1.6-0.9,2.6-0.9c2,0,3,1.2,3,2.6V63c0,0.3,0.3,0.5,0.8,0.7v0.5h-3.7v-0.5c0.5-0.2,0.8-0.4,0.8-0.7v-4c0-1.4-0.5-2-1.7-2
		c-0.7,0-1.4,0.3-1.8,1v5c0,0.3,0.3,0.5,0.8,0.7v0.5h-3.7L181.9,63.6 M199.9,61.3h0.6c0.2,0.7,0.7,1.2,1,1.4
		c0.6,0.4,1.5,0.6,2.1,0.6c1.5,0,2.6-0.6,2.6-2c0-0.7-0.2-1.2-0.7-1.6c-1.1-0.7-2.5-1.2-3.7-1.8c-1.1-0.6-2-1.5-2-3.2
		c0-2.6,2.2-3.6,4.7-3.6c1,0,2.1,0.3,3.3,0.2l0.1,2.6h-0.5c-0.5-1.2-1.8-1.9-3.1-1.9c-1.5,0-2.5,0.8-2.5,2c0,0.9,0.5,1.5,1.1,2
		c1.1,0.7,2.7,1.2,3.8,1.9c0.8,0.6,1.5,1.4,1.5,2.7c0,2.4-1.9,3.8-4.5,3.8c-1.2,0-2.3-0.3-3.6-0.7L199.9,61.3L199.9,61.3z M218,62.8
		c-0.6,0.7-1.7,1.6-3.3,1.6c-2.9,0-4.5-1.8-4.5-4.3c0-2.7,2-4.3,4.5-4.3c0.8,0,2,0.2,3,0.4v1.9h-0.5c-0.4-0.8-1.2-1.4-2.2-1.4
		c-1.5,0-2.5,1.3-2.5,3.2c0,2,1.2,3.3,2.8,3.3c0.8,0,1.8-0.3,2.4-0.9C217.7,62.3,218,62.8,218,62.8z M219.5,63.6
		c0.5-0.2,0.8-0.4,0.8-0.7V52.8c0-0.5-0.2-0.7-0.9-0.9v-0.5l2.5-0.9h0.5v6.1c0.7-0.6,1.6-0.9,2.6-0.9c2,0,3,1.2,3,2.6V63
		c0,0.3,0.3,0.5,0.8,0.7v0.5h-3.7v-0.5c0.5-0.2,0.8-0.4,0.8-0.7v-4c0-1.4-0.5-2-1.7-2c-0.7,0-1.4,0.3-1.8,1v5c0,0.3,0.3,0.5,0.8,0.7
		v0.5h-3.7V63.6L219.5,63.6z M234.7,55.8c2.6,0,4.5,1.9,4.5,4.3c0,2.5-1.8,4.3-4.5,4.3c-2.6,0-4.5-1.8-4.5-4.3
		S232.1,55.8,234.7,55.8 M237,60.1c0-1.7-0.7-3.3-2.3-3.3c-1.6,0-2.3,1.8-2.3,3.3c0,1.7,0.7,3.4,2.3,3.4
		C236.2,63.3,237,61.6,237,60.1 M245.3,55.8c2.6,0,4.5,1.9,4.5,4.3c0,2.5-1.8,4.3-4.5,4.3c-2.6,0-4.5-1.8-4.5-4.3
		S242.7,55.8,245.3,55.8 M247.6,60.1c0-1.7-0.7-3.3-2.3-3.3c-1.7,0-2.3,1.8-2.3,3.3c0,1.7,0.7,3.4,2.3,3.4
		C247,63.4,247.6,61.6,247.6,60.1 M251.5,63.6c0.5-0.2,0.8-0.4,0.8-0.7V52.8c0-0.5-0.2-0.7-0.9-0.9v-0.5l2.5-0.9h0.5V63
		c0,0.3,0.3,0.5,0.8,0.7v0.5h-3.7V63.6L251.5,63.6z"/>
	<path class="st1" d="M87.3,2.3v36.8c0,19.2-6.5,50.4-42.9,64.3C8.1,89.5,1.5,58.3,1.5,39.1V2.3H87.3z"/>
	<path class="st2" d="M79.4,43.4l-0.1,0.1c0.4,0.4-0.2,1.9-1.3,1.8L77.8,46c0.7,0.2,1.3,0.3,1.7,0.5c0,0,1.7-2.5,1.3-2.9
		C80.6,43.3,80.1,43.2,79.4,43.4 M63.2,45.2c-1,0.1-1.7-1.1-1.5-1.6c-1.2-0.4-1.4-0.3-1.9-0.1c-0.5,0.2,1.3,2.8,1.3,2.8
		c0.5-0.2,1.2-0.4,2.1-0.6L63,45.2L63.2,45.2L63.2,45.2z"/>
	<path class="st2" d="M63.2,45.8c-0.9,0.2-1.7,0.4-2.1,0.6c0,0-1.9-2.6-1.3-2.8c0.5-0.2,0.7-0.3,1.9,0.1c-0.2,0.5,0.5,1.8,1.5,1.6
		h-0.1L63.2,45.8C63.3,45.8,63.2,45.8,63.2,45.8z M79.4,46.5c-0.3-0.2-0.9-0.4-1.6-0.5l0.2-0.7c1.1,0,1.7-1.4,1.3-1.8
		c0,0,0.1,0,0.1-0.1c0.7-0.2,1.2,0,1.3,0.2C81.1,44,79.4,46.5,79.4,46.5z M44.3,59.8L17.2,84.6v0.2c0.2,0.3,0.5,0.6,0.8,0.9
		c2.8,3.1,6.1,6.1,9.9,8.8c4.7,3.4,10.2,6.4,16.6,8.8c6.4-2.4,11.8-5.5,16.4-8.8c3.7-2.7,7-5.7,9.8-8.8c0.3-0.4,0.6-0.7,0.9-1.1
		L44.3,59.8z M62.2,80.6c-0.8,0.9-1.1,1.3-2.7,1.3c1.1,1.1,1,2.7,1,2.7c-0.1,4.2-4.3,6.4-11.8,7.2c-0.6,0.2-1.1,0.3-1.7,0.4
		c0,1.1,1.2,0.6,1.2,1.4l1.5,1.4c0.8,0.3,1.2,0.5,1.2,1c0,1-2.8,1.9-6.2,1.9s-6.2-0.8-6.2-1.9c0-0.4,0.5-1,1.3-1.2l1.2-1.1
		c-0.1-0.9,1.3-0.4,1.3-1.5c-0.7-0.1-1.4-0.2-2-0.4h-0.2c-1.1-0.1-5.7-1-8.5-5.6c-1.6-2.6-2.3-2.7-2.3-2.7S28,82.8,28,82
		c0-0.4,0.7-0.7,1.7-0.8c0.2-0.1,0.5-0.1,0.9-0.2v-0.5H30c-0.7-0.2-1.2-0.4-1.4-1.3c-0.2-1,0.9-2.1,1.4-3c0.5-0.8,0.5-1.2,0.7-2
		c0.8-0.3,0.2,1.2,0.7,2c0.6,0.9,1.6,2,1.4,3c-0.1,0.9-0.7,1.1-1.4,1.3c-0.2,0.1-0.4,0-0.5,0V81c0.4,0,0.8,0.1,1,0.1
		c1.1,0.1,1.8,0.4,1.8,0.8V82c-0.4,2.8,1.9,2.9,1.9,2.9c1-1.8,3.5-3.1,6.6-3.6c0-0.4,0.4-0.8,1-1.1v-0.8c-0.9-0.2-1.4-0.7-1.4-1.5
		s0.6-1.4,1.4-1.7c0.1-0.1,0.2-0.3,0.5-0.5c0-0.4,0.4-1.6,0.6-1.7c0.3,0.1,0.6,1.3,0.6,1.7c0.3,0.1,0.4,0.2,0.6,0.5
		c0.9,0.3,1.5,1,1.5,1.8c0,0.7-0.6,1.3-1.4,1.5v0.7c0.6,0.3,1,0.8,1,1.1c4.1,0.6,7.1,2.8,7.1,5.4c0,0.2,0,0.5-0.1,0.7
		c0,0,1,0.5,1.9,0.5c1.9,0,3.2-1.2,3.2-3.6c0-1.6-1-2.5-2.3-2.5c-1.4,0-2,1.1-1.9,2.2c0,0.7,0.5,1.2,1.2,1.1c0.3,0,0.6-0.3,0.7-0.7
		c0.1-0.5-0.1-0.8-0.7-1.1c0,0,0-0.4,0.7-0.4c0.6,0,1.1,0.6,1.1,1.7c0,1.3-0.9,1.9-1.9,1.9c-1.4,0-2.6-1.1-2.6-2.8
		c0-2.1,1.4-3.7,3.4-3.6c0,0,3.2,0.6,4.4,0.1C62.5,79.9,62.7,80.1,62.2,80.6 M11.3,45.2c-1,0.1-1.7-1.1-1.5-1.6
		c-1.3-0.4-1.4-0.3-2-0.1c-0.5,0.3,1.4,2.9,1.4,2.9c0.4-0.2,1.2-0.4,2.1-0.6l-0.1-0.5L11.3,45.2z M27.5,43.4l-0.1,0.1
		c0.4,0.4-0.2,1.9-1.3,1.8L25.9,46c0.7,0.2,1.3,0.3,1.7,0.5c0,0,1.7-2.5,1.3-2.9C28.6,43.3,28.1,43.2,27.5,43.4"/>
	<path class="st2" d="M87.2,27.1c-0.4,1.5-1.7,2.7-3.6,3.4c-1,0.4-2.2,0.6-3.5,0.6s-2.5-0.2-3.5-0.6c-1.9-0.7-3.3-2-3.6-3.4
		c-0.4,1.5-1.7,2.7-3.7,3.4c-1,0.4-2.2,0.6-3.5,0.6s-2.5-0.2-3.5-0.6c-1.9-0.7-3.3-2-3.6-3.4c-0.4,1.5-1.7,2.7-3.7,3.4
		c-1,0.4-2.2,0.6-3.5,0.6S49,30.9,48,30.5c-1.9-0.7-3.3-2-3.6-3.4c-0.4,1.5-1.7,2.7-3.7,3.4c-1,0.4-2.2,0.6-3.5,0.6
		s-2.5-0.2-3.5-0.6c-1.9-0.7-3.3-2-3.6-3.4c-0.4,1.5-1.7,2.7-3.7,3.4c-1,0.4-2.2,0.6-3.5,0.6s-2.5-0.2-3.5-0.6
		c-1.9-0.7-3.3-1.9-3.6-3.4c-0.4,1.5-1.7,2.7-3.6,3.4c-1,0.4-2.2,0.6-3.5,0.6c-1.3,0-2.5-0.2-3.5-0.6c-1.9-0.7-3.3-2-3.6-3.4v16.1
		c0,0.4,0,0.9,0.1,1.3c0,0.4,0,0.7,0.1,1.1c0,0.4,0.1,0.7,0.1,1.1c0.2,2.3,0.5,4.6,1,7.1c1.3,6.8,3.6,14.1,7.5,21.2L34,53.5l8-7.1
		l1.2-1.1l1.1-1l1.1,1l1.2,1.1l8,7.1l23.9,21.2c3.9-7,6.1-14.3,7.3-21.2c0.4-2.4,0.7-4.8,0.9-7.1c0-0.4,0.1-0.7,0.1-1.1
		c0.2-0.4,0.2-0.7,0.3-1.1c0-0.4,0-0.9,0.1-1.3V42v-0.9v-0.9C87.2,40.2,87.2,27.1,87.2,27.1z M28.4,46.7c0.1,0.1,0.2,0.2,0.2,0.3
		c-0.5,5.9-1.8,9.7-3,10.6c-1.1,0.8-2.4,1.6-7.3,1.6c-5.5,0-6.6-1.2-7.6-2.5C10,55.8,8.3,52.7,8,47c0-0.1,0-0.2,0.1-0.3h0.1
		c0,0-1.5-1.8-1.5-3.2s2.2-1.1,2.6-1c-0.1-0.3-0.1-0.6,0.1-0.7c-0.4-0.1-1.1-1.5-0.5-1.7c-0.5-0.1-1.3-1.9-0.3-1.7h0.2
		c0,0-0.4-0.3-0.4-0.7c0-0.6,0.2-0.7,0.2-1.4c0.5,0.4,0.7,0.5,1,0.9c0.2,0.3,0,0.8,0,0.8v0.1c0.1-0.1,0.1-0.2,0.2-0.3
		c0.7-0.8,1,1.2,0.7,1.5c0.6-0.1,0.9,1.5,0.7,1.8c0.5-0.2,0.8,1.3,0.5,1.6c0.6,0,1,1.6,0,2.3h0.1l0.2,0.7c0.7-0.1,1.5-0.2,2.4-0.3
		h0.1l-0.3-2.1h0.1c-1.1-0.2-1.5-1.8-1-2.1c-0.3-0.2-0.7-1.7-0.1-1.7c-0.4-0.1-0.8-1.7-0.2-1.8c-0.4-0.2-0.9-2.1,0.1-1.7
		c0.1,0,0.2,0.1,0.3,0.1V36c0,0-0.4-0.4-0.3-0.7c0.1-0.6,0.3-0.7,0.5-1.3c0.2,0.6,0.4,0.7,0.6,1.2c0.2,0.3-0.1,0.8-0.1,0.8l0.2-0.2
		c0.8-0.6,0.8,1.4,0.5,1.6c0.6-0.1,0.5,1.5,0.2,1.7c0.6-0.1,0.5,1.5,0.3,1.7c0.6,0.4,0.7,2-0.6,2.5h0.1l0.3,2.1c0.9-0.1,2-0.1,3-0.1
		V43c-1.2-0.4-1.4-2-0.8-2.2c-0.3-0.3-0.6-1.7,0.1-1.7c-0.4-0.2-0.6-1.8,0-1.8c-0.4-0.2-0.7-2.2,0.3-1.7c0.1,0.1,0.2,0.1,0.3,0.2
		c0,0-0.4-0.4-0.2-0.8c0.2-0.6,0.4-0.7,0.7-1.2c0.4,0.5,0.6,0.7,0.8,1.2c0.1,0.4-0.3,0.8-0.3,0.8c0.1,0,0.2-0.1,0.3-0.1
		c1-0.5,0.7,1.5,0.3,1.7c0.6,0,0.4,1.6,0,1.8c0.6,0,0.4,1.5,0,1.8c0.6,0.2,0.6,1.8-0.7,2.2v2.4c1.1,0,2.2,0.1,3.2,0.1l0.2-2.2
		c-1.1-0.5-1-2.1-0.4-2.2c-0.3-0.3-0.3-1.8,0.2-1.7c-0.3-0.2-0.3-1.8,0.2-1.7c-0.3-0.6-0.3-2.6,0.6-2c0.1,0,0.1,0.1,0.2,0.2V36
		c0,0-0.3-0.5-0.1-0.8c0.3-0.5,0.4-0.6,0.9-1.1c0.2,0.6,0.4,0.7,0.5,1.3c0,0.4-0.4,0.7-0.4,0.7c0.1,0,0.2-0.1,0.3-0.1
		c0.9-0.4,0.5,1.6,0.1,1.7c0.6,0.1,0.2,1.6-0.2,1.8c0.6,0.1,0.2,1.5-0.1,1.7c0.5,0.3,0.1,1.8-1,2.1l-0.2,2.1
		c0.9,0.1,1.8,0.2,2.5,0.3l0.3-0.8c-1-0.8-0.6-2.3,0-2.3c-0.2-0.3,0-1.8,0.6-1.6c-0.2-0.3,0-1.9,0.5-1.7c-0.3-0.3,0.1-2.3,0.7-1.5
		c0.1,0.1,0.1,0.2,0.2,0.2c0,0-0.2-0.5,0-0.8c0.3-0.5,0.5-0.5,1-0.9c0.1,0.7,0.2,0.8,0.2,1.4c0,0.4-0.4,0.7-0.4,0.7
		c0.1,0,0.2,0,0.3-0.1c1-0.1,0.2,1.6-0.2,1.7c0.5,0.2-0.1,1.6-0.5,1.7C28,41.9,28,42.1,28,42.4c0.8-0.1,1.9,0.1,1.9,1.1
		C29.9,44.8,28.4,46.6,28.4,46.7z M80.3,46.7c0.1,0.1,0.2,0.2,0.2,0.3c-0.5,5.9-1.8,9.7-3,10.6c-1.1,0.8-2.4,1.6-7.3,1.6
		c-5.5,0-6.6-1.2-7.6-2.5c-0.7-0.9-2.4-4-2.7-9.7c0-0.1,0-0.2,0.1-0.3h0.1c0,0-1.5-1.8-1.5-3.2s2.2-1.1,2.6-1
		c-0.1-0.3-0.1-0.6,0.1-0.7c-0.3-0.1-1-1.5-0.5-1.7c-0.4-0.1-1.2-1.8-0.2-1.7h0.2c0,0-0.4-0.3-0.4-0.7c0-0.6,0.2-0.7,0.2-1.4
		c0.5,0.4,0.7,0.5,1,0.9c0.2,0.3,0,0.8,0,0.8v0.1c0.1-0.1,0.1-0.2,0.2-0.3c0.7-0.8,1,1.2,0.7,1.5c0.5-0.2,0.8,1.4,0.5,1.7
		c0.5-0.2,0.8,1.3,0.5,1.6c0.6,0,1,1.6-0.1,2.3h0.1l0.2,0.7c0.7-0.1,1.5-0.2,2.4-0.3h0.1l-0.3-2.1H66c-1.1-0.2-1.5-1.8-1-2.1
		c-0.3-0.2-0.7-1.7-0.1-1.7c-0.3-0.1-0.8-1.7-0.2-1.8c-0.4-0.2-0.9-2.1,0.1-1.7c0.1,0,0.2,0.1,0.3,0.1v-0.1c0,0-0.4-0.4-0.3-0.7
		c0.1-0.6,0.3-0.7,0.5-1.3c0.4,0.5,0.6,0.6,0.9,1.1c0.2,0.3-0.1,0.8-0.1,0.8l0.2-0.2c0.8-0.6,0.8,1.4,0.5,1.6
		c0.6-0.1,0.5,1.5,0.2,1.7c0.6-0.1,0.5,1.5,0.3,1.7c0.6,0.2,0.7,1.8-0.5,2.3h0.1l0.3,2.1c0.9-0.1,2-0.1,3-0.1v-2.4
		c-1.2-0.4-1.4-2-0.8-2.2c-0.3-0.3-0.6-1.7,0.1-1.7c-0.4-0.2-0.6-1.8,0-1.8c-0.4-0.2-0.7-2.2,0.3-1.7c0.1,0.1,0.2,0.1,0.3,0.2
		c0,0-0.4-0.4-0.2-0.8c0.1-0.2,0.3-0.3,0.6-0.8c0.4,0.5,0.6,0.7,0.8,1.2c0.1,0.3-0.3,0.7-0.3,0.7c0.1,0,0.2-0.1,0.3-0.1
		c1-0.5,0.7,1.5,0.3,1.7c0.6,0,0.4,1.6,0,1.8c0.6,0,0.4,1.5,0,1.8c0.6,0.2,0.6,1.8-0.7,2.2v2.4c1.1,0,2.2,0.1,3.2,0.1l0.2-2.2
		c-1.1-0.5-1-2.1-0.4-2.2c-0.3-0.3-0.3-1.8,0.2-1.7c-0.3-0.2-0.3-1.8,0.2-1.7c-0.3-0.4-0.3-2.4,0.5-1.8c0.1,0.1,0.2,0.1,0.3,0.2V36
		c0,0-0.3-0.5-0.1-0.8c0.3-0.5,0.4-0.6,0.9-1.1c0.2,0.6,0.4,0.7,0.5,1.3c0,0.4-0.4,0.7-0.4,0.7c0.1,0,0.2-0.1,0.3-0.1
		c0.9-0.4,0.5,1.6,0.1,1.7c0.6,0.1,0.2,1.6-0.2,1.8c0.6,0.1,0.2,1.5-0.2,1.7c0.5,0.3,0.1,1.8-1,2.1l-0.3,2.1
		c0.9,0.1,1.8,0.2,2.5,0.3l0.3-0.8c-1-0.8-0.6-2.3,0-2.3c-0.2-0.3,0-1.8,0.6-1.6c-0.2-0.3,0-1.9,0.5-1.7c-0.3-0.3,0.1-2.3,0.7-1.5
		c0.1,0.1,0.1,0.2,0.2,0.2c0,0-0.2-0.5,0-0.8c0.3-0.5,0.5-0.5,1-0.9c0.1,0.7,0.2,0.8,0.2,1.4c0,0.4-0.4,0.7-0.4,0.7
		c0.1,0,0.2,0,0.3-0.1c1-0.1,0.2,1.6-0.2,1.7c0.5,0.2-0.1,1.6-0.5,1.7c0.2,0.1,0.2,0.3,0.2,0.6c0.8-0.1,1.9,0.1,1.9,1.1
		C81.8,44.8,80.4,46.6,80.3,46.7z"/>
	<path class="st3" d="M16.9,6.2C16.8,6.2,16.8,6.2,16.9,6.2L16.9,6.2L16.9,6.2z M72.2,6.2C72.2,6.2,72.1,6.2,72.2,6.2h-0.1H72.2z
		 M44.6,6.2C44.5,6.2,44.5,6.2,44.6,6.2L44.6,6.2L44.6,6.2z"/>
	<path class="st4" d="M1.5,23.2C2,26.3,5,28.8,8.7,28.8c3.6,0,6.6-2.4,7.1-5.5c0.5,3.2,3.5,5.5,7.1,5.5s6.6-2.5,7.1-5.6
		c0.5,3.2,3.5,5.6,7.2,5.6c3.6,0,6.6-2.5,7.1-5.6c0.5,3.2,3.5,5.6,7.2,5.6c3.6,0,6.6-2.5,7.1-5.6c0.5,3.2,3.5,5.6,7.2,5.6
		c3.6,0,6.6-2.5,7.1-5.6c0.5,3.2,3.5,5.6,7.2,5.6c3.6,0,6.6-2.4,7.1-5.5V2.4H1.5L1.5,23.2L1.5,23.2z M58.8,18.3
		c0-0.5,0.3-0.8,0.8-0.8h1.1v-6.4h-1.1c-0.4,0-0.8-0.4-0.8-0.8V9.5c0-0.5,0.3-0.8,0.8-0.8h1.1V7.2h1v-1l0.7,0.3V6.2
		c0.6,0.2,0.5,0.4,1.7,0.3c0.8,0,4.1-1.8,6.6-1c0.6,0.2,0.9,0.4,1.5,0.7c0.6-0.3,0.9-0.5,1.5-0.7c2.5-0.8,5.9,0.9,6.6,1
		c1.2,0.1,1.3-0.1,1.7-0.3v0.4l0.7-0.3v0.9h1v1.5h1.1c0.4,0,0.8,0.4,0.8,0.8v0.8c0,0.4-0.3,0.8-0.8,0.8h-1.1v6.4h1.1
		c0.4,0,0.8,0.4,0.8,0.8v0.8c0,0.5-0.3,0.8-0.8,0.8h-1.1v1.5H73.2c-0.3,0.2-0.4,0.4-0.7,0.5h-0.3h-0.1c-0.4,0-0.6-0.2-0.9-0.5
		l-0.1-0.1H60.7v-1.5h-1.1c-0.4,0-0.8-0.4-0.8-0.8C58.8,19,58.8,18.3,58.8,18.3z M31.1,18.3c0-0.5,0.3-0.8,0.8-0.8H33v-6.4h-1.1
		c-0.4,0-0.8-0.4-0.8-0.8V9.5c0-0.5,0.3-0.8,0.8-0.8H33V7.2h1v-1l0.7,0.3V6.2c0.6,0.2,0.5,0.4,1.7,0.3c0.8,0,4.1-1.8,6.6-1
		c0.6,0.2,0.9,0.4,1.5,0.7c0.6-0.3,0.9-0.5,1.5-0.7c2.5-0.8,5.9,0.9,6.6,1c1.2,0.1,1.3-0.1,1.7-0.3v0.4l0.3-0.2L55,6.2v0.9h1v1.5
		h1.1c0.4,0,0.8,0.4,0.8,0.8v0.8c0,0.4-0.3,0.8-0.8,0.8H56v6.4h1.1c0.4,0,0.8,0.4,0.8,0.8V19c0,0.5-0.3,0.8-0.8,0.8H56v1.5H45.5
		c-0.2,0.2-0.4,0.4-0.6,0.5h-0.3h-0.1c-0.4,0-0.6-0.2-0.9-0.5l-0.1-0.1H33v-1.5h-1.1c-0.4,0-0.8-0.4-0.8-0.8
		C31.1,18.9,31.1,18.3,31.1,18.3z M3.4,18.3c0-0.5,0.3-0.8,0.8-0.8h1.1V11H4.2c-0.4,0-0.8-0.4-0.8-0.8V9.4c0-0.5,0.3-0.8,0.8-0.8
		h1.1V7.1h1V6.2L7,6.6V6.2c0.6,0.2,0.5,0.4,1.7,0.3c0.8,0,4.1-1.8,6.6-1c0.6,0.2,0.9,0.4,1.5,0.7c0.6-0.3,0.9-0.5,1.5-0.7
		c2.5-0.8,5.9,0.9,6.6,1c1.2,0.1,1.3-0.1,1.7-0.3v0.4l0.7-0.3v0.9h1v1.5h1.1c0.4,0,0.8,0.4,0.8,0.8v0.8c0,0.4-0.3,0.8-0.8,0.8h-1.1
		v6.4h1.1c0.4,0,0.8,0.4,0.8,0.8v0.8c0,0.5-0.3,0.8-0.8,0.8h-1.1v1.5H17.8c-0.3,0.2-0.4,0.4-0.7,0.5h-0.3c-0.5,0-0.6-0.2-1-0.6H5.3
		v-1.5H4.2c-0.4,0-0.8-0.4-0.8-0.8C3.4,19,3.4,18.3,3.4,18.3z"/>
	<path class="st5" d="M16.8,21.9c0.5,0,0.6-0.3,1-0.6h10.5v-1.5h1.1c0.4,0,0.8-0.4,0.8-0.8v-0.8c0-0.5-0.3-0.8-0.8-0.8h-1.1V11h1.1
		c0.4,0,0.8-0.4,0.8-0.8V9.4c0-0.5-0.3-0.8-0.8-0.8h-1.1V7.1h-1V6.2l-0.7,0.3v12.8c-0.6,0-1.1,0.2-2.1,0.1c-1.3-0.1-3.5-1.6-6.1-1
		c-0.9,0.2-1.3,0.6-1.6,1c-0.2-0.4-0.9-0.8-1.7-1c-2.6-0.6-4.8,0.8-6.1,1c-1,0.1-1.5-0.1-2.1-0.1V6.5L6.3,6.2v0.9h-1v1.5H4.2
		C3.8,8.6,3.4,9,3.4,9.4v0.8c0,0.4,0.3,0.8,0.8,0.8h1.1v6.4H4.2c-0.4,0-0.8,0.4-0.8,0.8V19c0,0.5,0.3,0.8,0.8,0.8h1.1v1.5h10.5
		C16.2,21.7,16.3,21.9,16.8,21.9 M72.2,21.9c0.5,0,0.6-0.3,1-0.6h10.5v-1.5h1.1c0.4,0,0.8-0.4,0.8-0.8v-0.8c0-0.5-0.3-0.8-0.8-0.8
		h-1.1V11h1.1c0.4,0,0.8-0.4,0.8-0.8V9.4c0-0.5-0.3-0.8-0.8-0.8h-1.1V7.1h-1V6.2L82,6.6v12.8c-0.6,0-1.1,0.2-2.1,0.1
		c-1.3-0.1-3.5-1.6-6.1-1c-0.9,0.2-1.4,0.6-1.6,1c-0.3-0.4-0.9-0.8-1.7-1c-2.6-0.6-4.8,0.8-6.1,1c-1,0.1-1.5-0.1-2.1-0.1V6.6
		l-0.6-0.4v0.9h-1v1.5h-1.1c-0.4,0-0.8,0.4-0.8,0.8v0.8c0,0.4,0.3,0.8,0.8,0.8h1.1v6.4h-1.1c-0.4,0-0.8,0.4-0.8,0.8V19
		c0,0.5,0.3,0.8,0.8,0.8h1.1v1.5h10.5C71.6,21.7,71.7,21.9,72.2,21.9 M44.5,21.9c0.5,0,0.6-0.3,1-0.6H56v-1.5h1.1
		c0.4,0,0.8-0.4,0.8-0.8v-0.8c0-0.5-0.3-0.8-0.8-0.8H56V11h1.1c0.4,0,0.8-0.4,0.8-0.8V9.4c0-0.5-0.3-0.8-0.8-0.8H56V7.1h-1V6.2
		l-0.7,0.3v12.8c-0.6,0-1.1,0.2-2.1,0.1c-1.3-0.1-3.5-1.6-6.1-1c-0.9,0.2-1.4,0.6-1.6,1c-0.2-0.4-0.9-0.8-1.7-1
		c-2.6-0.6-4.8,0.8-6.1,1c-1,0.1-1.5-0.1-2.1-0.1V6.5L34,6.2v0.9h-1v1.5h-1.1c-0.4,0-0.8,0.4-0.8,0.8v0.8c0,0.4,0.3,0.8,0.8,0.8H33
		v6.4h-1.1c-0.4,0-0.8,0.4-0.8,0.8V19c0,0.5,0.3,0.8,0.8,0.8H33v1.5h10.5C43.9,21.7,44,21.9,44.5,21.9 M61.2,80.4
		c-1.2,0.5-4.4-0.1-4.4-0.1c-2-0.1-3.4,1.5-3.4,3.6c0,1.7,1.2,2.8,2.6,2.8c1,0,1.9-0.7,1.9-1.9c0-1-0.5-1.7-1.1-1.7
		c-0.7,0-0.7,0.4-0.7,0.4c0.5,0.3,0.8,0.6,0.7,1.1c-0.1,0.4-0.4,0.6-0.7,0.7c-0.7,0-1.1-0.4-1.2-1.1c-0.1-1.1,0.6-2.2,1.9-2.2
		c1.3,0,2.3,0.9,2.3,2.5c0,2.4-1.3,3.6-3.2,3.6c-0.9,0-1.9-0.5-1.9-0.5c0-0.2,0.1-0.5,0.1-0.7c0-2.6-3-4.8-7.1-5.4
		c0-0.4-0.4-0.8-1-1.1v-0.7c0.8-0.3,1.4-0.8,1.4-1.5c0-0.8-0.6-1.5-1.5-1.8c-0.1-0.2-0.3-0.4-0.6-0.5c0-0.4-0.3-1.6-0.6-1.7
		c-0.3,0.1-0.6,1.3-0.6,1.7c-0.4,0.2-0.5,0.4-0.5,0.5c-0.9,0.3-1.4,1-1.4,1.7c0,0.8,0.5,1.3,1.4,1.5h0.1h-0.1v0.8
		c-0.6,0.3-1,0.8-1,1.1c-3.1,0.4-5.5,1.8-6.6,3.6c0,0-2.2-0.1-1.9-2.9v-0.1c0-0.4-0.8-0.7-1.8-0.8c-0.3-0.1-0.6-0.1-1-0.1v-0.5h0.5
		c0.7-0.2,1.2-0.4,1.4-1.3c0.2-1-0.9-2.1-1.4-3c-0.5-0.8,0-2.3-0.7-2c-0.3,0.8-0.2,1.2-0.7,2c-0.6,0.9-1.6,2-1.4,3
		c0.1,0.9,0.7,1.1,1.4,1.3c0.2,0.1,0.4,0,0.6,0v0.5c-0.3,0-0.7,0.1-0.9,0.2c-1,0.1-1.7,0.4-1.7,0.8c0,0.8,1.3,1.5,1.3,1.5
		s0.7,0.2,2.3,2.7c2.9,4.6,7.4,5.4,8.5,5.6h0.2c0.6,0.2,1.3,0.3,2,0.4c0,1.1-1.4,0.6-1.3,1.5L40.2,95c-0.9,0.2-1.3,0.7-1.3,1.2
		c0,1,2.8,1.9,6.2,1.9s6.2-0.8,6.2-1.9c0-0.4-0.3-0.6-1.2-1l-1.5-1.4c0-0.8-1.2-0.3-1.2-1.4c0.6-0.1,1.1-0.2,1.7-0.4
		c7.5-0.8,11.7-3,11.8-7.2c0,0,0.1-1.7-1-2.7c1.6,0,1.9-0.4,2.7-1.3C62.7,80.1,62.5,79.9,61.2,80.4 M28.4,46.7
		c0.1-0.1,1.5-1.8,1.5-3.2c0-1-1.1-1.1-1.9-1.1c0.1-0.3,0-0.5-0.2-0.6c0.4-0.1,1-1.5,0.5-1.7c0.4-0.1,1.2-1.8,0.2-1.7
		c-0.1,0-0.2,0-0.3,0.1c0,0,0.4-0.3,0.4-0.7c0-0.6-0.2-0.7-0.2-1.4c-0.5,0.4-0.7,0.5-1,0.9c-0.2,0.3,0,0.8,0,0.8l-0.2-0.2
		c-0.7-0.8-1,1.2-0.7,1.5c-0.5-0.2-0.7,1.4-0.5,1.7c-0.5-0.2-0.8,1.3-0.6,1.6c-0.6,0-1,1.5,0,2.3l-0.3,0.8c-0.7-0.1-1.6-0.2-2.5-0.3
		l0.4-2.1c1.1-0.2,1.5-1.8,1-2.1c0.3-0.2,0.7-1.7,0.1-1.7c0.3-0.1,0.8-1.7,0.2-1.8c0.4-0.2,0.9-2.1-0.1-1.7c-0.1,0-0.2,0.1-0.3,0.1
		c0,0,0.4-0.4,0.3-0.7c-0.1-0.6-0.3-0.7-0.5-1.3c-0.3,0.4-0.5,0.5-0.7,1c-0.2,0.3,0.1,0.8,0.1,0.8v0.1C23,36,23,35.9,22.9,35.9
		c-0.9-0.6-0.9,1.4-0.5,1.6c-0.6-0.1-0.5,1.5-0.2,1.7c-0.6-0.1-0.5,1.5-0.2,1.7c-0.6,0.2-0.7,1.7,0.4,2.2l-0.2,2.2
		c-1-0.1-2.1-0.1-3.2-0.1v-2.4c1.3-0.4,1.4-2,0.7-2.2c0.4-0.2,0.6-1.8,0-1.8c0.3,0,0.6-1.6-0.1-1.6c0.4-0.2,0.7-2.2-0.3-1.7
		c-0.1,0.1-0.2,0.1-0.3,0.1c0,0,0.4-0.4,0.3-0.8c-0.2-0.6-0.4-0.7-0.8-1.2c-0.3,0.6-0.5,0.7-0.7,1.2c-0.1,0.3,0.2,0.8,0.2,0.8
		c-0.1-0.1-0.2-0.1-0.3-0.2c-1-0.5-0.7,1.5-0.3,1.7c-0.6,0-0.4,1.6,0,1.8c-0.6,0-0.4,1.5-0.1,1.7c-0.6,0.2-0.4,1.8,0.8,2.2H18v2.4
		c-1.1,0-2.1,0-3,0.1l-0.3-2.1h-0.1c1.4-0.4,1.3-2,0.6-2.1c0.3-0.3,0.3-1.8-0.3-1.7c0.3-0.2,0.3-1.8-0.2-1.7
		c0.3-0.3,0.4-2.2-0.5-1.6c-0.1,0.1-0.2,0.1-0.2,0.2c0,0,0.3-0.5,0.1-0.8c-0.3-0.5-0.4-0.6-0.9-1.1c-0.2,0.6-0.4,0.7-0.5,1.3
		c-0.1,0.4,0.3,0.7,0.3,0.7v0.1c-0.1,0-0.2-0.1-0.3-0.1c-0.9-0.4-0.5,1.6-0.1,1.7c-0.6,0.1-0.2,1.6,0.2,1.8
		c-0.6,0.1-0.2,1.5,0.1,1.7c-0.5,0.3-0.1,1.9,1,2.1h-0.1l0.3,2.1H14c-0.9,0.1-1.7,0.2-2.4,0.3l0.1-1.1h-0.1c1.1-0.7,0.7-2.3,0-2.3
		c0.2-0.3,0-1.8-0.5-1.6c0.2-0.3,0-1.9-0.5-1.7c0.3-0.3-0.1-2.3-0.7-1.5c-0.1,0.1-0.2,0.2-0.2,0.3v-0.1c0,0,0.2-0.5,0-0.8
		c-0.3-0.5-0.5-0.5-1-0.9c-0.1,0.6-0.3,0.8-0.3,1.4c0,0.4,0.4,0.7,0.4,0.7H8.6c-1-0.3-0.2,1.5,0.2,1.6c-0.5,0.2,0.2,1.6,0.6,1.7
		c-0.2,0.1-0.2,0.4-0.1,0.7c-0.4-0.2-2.6-0.4-2.6,1s1.5,3.2,1.5,3.2c-0.1,0.1-0.1,0.2-0.1,0.3c0.3,5.8,2,8.8,2.7,9.7
		c0.9,1.3,2,2.5,7.6,2.5c4.9,0,6.2-0.8,7.3-1.6c1.2-0.9,2.5-4.7,3-10.6C28.7,47,28.4,46.7,28.4,46.7z M26.1,45.3
		c1.1,0,1.7-1.4,1.3-1.8c0,0,0.1,0,0.1-0.1c0.7-0.2,1.2,0,1.4,0.2c0.4,0.5-1.3,2.9-1.3,2.9c-0.4-0.2-0.9-0.4-1.7-0.5L26.1,45.3z
		 M7.8,43.5c0.6-0.2,0.7-0.3,1.9,0.1c-0.1,0.5,0.5,1.8,1.6,1.6h-0.1l0.2,0.5c-1.1,0.3-1.8,0.5-2.2,0.7C9.2,46.4,7.3,43.8,7.8,43.5
		 M80.3,46.7c0.1-0.1,1.5-1.8,1.5-3.2c0-1-1.1-1.1-1.9-1.1c0.1-0.3,0-0.5-0.2-0.6c0.4-0.1,1-1.5,0.5-1.7c0.4-0.1,1.2-1.8,0.2-1.7
		c-0.1,0-0.2,0-0.3,0.1c0,0,0.4-0.3,0.4-0.7c0-0.6-0.2-0.7-0.2-1.4c-0.5,0.4-0.7,0.5-1,0.9c-0.2,0.3,0,0.8,0,0.8l-0.2-0.2
		c-0.7-0.8-1,1.2-0.7,1.5c-0.4-0.2-0.7,1.4-0.4,1.7c-0.5-0.2-0.8,1.3-0.6,1.6c-0.6,0-1,1.5,0,2.3l-0.3,0.8c-0.7-0.1-1.6-0.2-2.5-0.3
		l0.3-2.1c1.1-0.2,1.5-1.8,1-2.1c0.3-0.2,0.7-1.7,0.2-1.7c0.3-0.1,0.8-1.7,0.2-1.8c0.4-0.2,0.9-2.1-0.1-1.7c-0.1,0-0.2,0.1-0.3,0.1
		c0,0,0.4-0.4,0.3-0.7c-0.1-0.6-0.3-0.7-0.5-1.3c-0.4,0.5-0.6,0.6-0.9,1.1C74.7,35.6,75,36,75,36v0.1c-0.1-0.1-0.2-0.1-0.3-0.2
		c-0.7-0.6-0.7,1.4-0.4,1.6c-0.6-0.1-0.5,1.5-0.2,1.7c-0.6-0.1-0.5,1.5-0.2,1.7c-0.6,0.2-0.7,1.7,0.4,2.2L74,45.5
		c-1-0.1-2.1-0.1-3.2-0.1V43c1.3-0.4,1.4-2,0.7-2.2c0.4-0.2,0.6-1.8,0-1.8c0.5-0.2,0.7-1.8,0.1-1.8c0.4-0.2,0.7-2.2-0.3-1.7
		c-0.1,0.1-0.2,0.1-0.3,0.1c0,0,0.4-0.4,0.3-0.8c-0.2-0.6-0.4-0.7-0.8-1.2c-0.3,0.6-0.5,0.7-0.7,1.3c-0.2,0.3,0.2,0.8,0.2,0.8
		c-0.1-0.1-0.2-0.1-0.3-0.2c-1-0.5-0.7,1.5-0.3,1.7c-0.6,0-0.4,1.6,0,1.8c-0.6,0-0.4,1.5-0.1,1.7c-0.6,0.2-0.4,1.8,0.8,2.2v2.4
		c-1.1,0-2.1,0-3,0.1l-0.3-2.1h-0.1c1.2-0.5,1.1-2.1,0.5-2.3c0.3-0.3,0.3-1.8-0.3-1.7c0.3-0.2,0.3-1.8-0.2-1.7
		c0.3-0.3,0.4-2.2-0.5-1.6c-0.1,0.1-0.2,0.1-0.2,0.2c0,0,0.3-0.5,0.1-0.8c-0.3-0.5-0.5-0.6-0.9-1.1c-0.2,0.6-0.4,0.7-0.5,1.3
		C64.6,36,65,36.3,65,36.3v0.1c-0.1,0-0.2-0.1-0.3-0.1c-0.9-0.4-0.5,1.6-0.1,1.7c-0.6,0.1-0.2,1.6,0.2,1.8c-0.6,0.1-0.2,1.5,0.1,1.7
		c-0.5,0.3-0.1,1.9,1,2.1h-0.1l0.3,2.1H66c-0.9,0.1-1.7,0.2-2.4,0.3l-0.2-0.7h-0.1c1-0.7,0.7-2.3,0.1-2.3c0.2-0.3,0-1.8-0.5-1.6
		c0.2-0.3,0-1.9-0.5-1.7c0.3-0.3-0.1-2.3-0.7-1.5c-0.1,0.1-0.2,0.2-0.2,0.3v-0.1c0,0,0.2-0.5,0-0.8c-0.3-0.5-0.5-0.5-1-0.9
		c-0.1,0.7-0.2,0.8-0.2,1.4c0,0.4,0.4,0.7,0.4,0.7h-0.2c-1-0.1-0.2,1.6,0.2,1.7c-0.5,0.2,0.1,1.6,0.5,1.7c-0.2,0.1-0.2,0.4-0.1,0.7
		c-0.4-0.2-2.6-0.4-2.6,1s1.5,3.2,1.5,3.2h-0.1c0.1-0.3,0.1-0.2,0.1-0.2c0.3,5.8,2,8.8,2.7,9.7c0.9,1.3,2,2.5,7.6,2.5
		c4.9,0,6.2-0.8,7.3-1.6c1.2-0.9,2.5-4.7,3-10.6C80.5,46.9,80.5,46.8,80.3,46.7z M78,45.3c1.1,0,1.7-1.4,1.3-1.8c0,0,0.1,0,0.1-0.1
		c0.7-0.2,1.2,0,1.3,0.2c0.4,0.5-1.3,2.9-1.3,2.9c-0.4-0.2-0.9-0.4-1.7-0.5C77.7,46,78,45.3,78,45.3z M59.8,43.5
		c0.5-0.2,0.7-0.3,1.9,0.1c-0.2,0.5,0.5,1.8,1.5,1.6h-0.1l0.2,0.5c-0.9,0.2-1.7,0.4-2.1,0.6C61.1,46.4,59.2,43.8,59.8,43.5"/>
	<path class="st6" d="M16.8,19.7c-0.1,0-0.2-0.1-0.2-0.2V6.2c0-0.1,0.1-0.2,0.2-0.2C16.9,6,17,6.1,17,6.2v13.3
		C17,19.6,16.9,19.7,16.8,19.7z M6.3,20.8L6.3,20.8c-0.2-0.1-0.2-0.2-0.2-0.3l0.7-1.2c0.1-0.2,0.2-0.2,0.3-0.1
		c0.1,0.1,0.1,0.2,0.1,0.3l-0.7,1.2C6.5,20.7,6.4,20.8,6.3,20.8z M5.3,20.1H4.2c-0.6,0-1-0.5-1-1.1v-0.8c0-0.6,0.5-1.1,1-1.1h1.1
		c0.1,0,0.2,0.1,0.2,0.2s-0.1,0.2-0.2,0.2H4.2c-0.3,0-0.5,0.3-0.5,0.6v0.8c0,0.3,0.2,0.6,0.5,0.6h1.1c0.1,0,0.2,0.1,0.2,0.2
		C5.5,19.8,5.4,20.1,5.3,20.1z M5.3,11.3H4.2c-0.6,0-1-0.5-1-1.1V9.4c0-0.6,0.5-1.1,1-1.1h1.1c0.1,0,0.2,0.1,0.2,0.2
		S5.4,8.7,5.3,8.7H4.2C3.9,8.7,3.7,9,3.7,9.3v0.8c0,0.3,0.2,0.6,0.5,0.6h1.1c0.1,0,0.2,0.1,0.2,0.2S5.4,11.3,5.3,11.3z"/>
	<path class="st6" d="M7.9,21c-0.5,0-1.1,0-1.6-0.2c-0.1,0-0.2-0.1-0.2-0.2V7.2C6.1,7.1,6.2,7,6.3,7s0.2,0.1,0.2,0.2v13.2
		c0.9,0.2,1.7,0.1,2.4,0.1h0.4c0.2,0,0.5-0.1,0.9-0.2c1-0.3,2.6-0.7,4.2-0.5c0.5,0.1,1.1,0.3,1.6,0.6c0.1,0.1,0.2,0.2,0.1,0.3
		c-0.1,0.1-0.2,0.2-0.3,0.1c-0.5-0.3-1-0.4-1.5-0.5c-1.5-0.3-3,0.2-4,0.4c-0.4,0.1-0.8,0.2-1,0.2H8.9C8.7,20.9,8.3,21,7.9,21z
		 M27.3,20.8c-0.1,0-0.2,0-0.2-0.1l-0.7-1.1c-0.1-0.1,0-0.3,0.1-0.3c0.1-0.1,0.3,0,0.3,0.1l0.7,1.1C27.6,20.6,27.5,20.8,27.3,20.8
		C27.4,20.7,27.3,20.8,27.3,20.8z M29.4,20.1h-1.1c-0.1,0-0.2-0.1-0.2-0.2s0.1-0.2,0.2-0.2h1.1c0.3,0,0.5-0.3,0.5-0.6v-0.8
		c0-0.3-0.2-0.6-0.5-0.6h-1.1c-0.1,0-0.2-0.1-0.2-0.2s0.1-0.2,0.2-0.2h1.1c0.6,0,1,0.5,1,1.1v0.8C30.4,19.6,30,20.1,29.4,20.1z
		 M29.4,11.3h-1.1c-0.1,0-0.2-0.1-0.2-0.2s0.1-0.2,0.2-0.2h1.1c0.3,0,0.5-0.3,0.5-0.6V9.5c0-0.3-0.2-0.6-0.5-0.6h-1.1
		c-0.1,0-0.2-0.1-0.2-0.2s0.1-0.2,0.2-0.2h1.1c0.6,0,1,0.5,1,1.1v0.8C30.4,10.8,30,11.3,29.4,11.3z M25.7,21c-0.4,0-0.8,0-1.1-0.1
		h-0.4c-0.2,0-0.6-0.1-1-0.2c-1-0.3-2.5-0.7-4-0.4c-0.5,0.1-0.9,0.2-1.4,0.5c-0.1,0.1-0.3,0-0.3-0.1c-0.1-0.1,0-0.3,0.1-0.3
		c0.6-0.3,1.1-0.5,1.6-0.6c1.6-0.3,3.2,0.2,4.2,0.5c0.4,0.1,0.7,0.2,0.9,0.2h0.4c0.7,0.1,1.6,0.1,2.4-0.1V7.2c0-0.1,0.1-0.2,0.2-0.2
		c0.1,0,0.2,0.1,0.2,0.2v13.4c0,0.1-0.1,0.2-0.2,0.2C26.8,20.9,26.3,21,25.7,21z"/>
	<path class="st6" d="M16.8,21.6c-0.7-0.1-1.1-0.4-1.1-1c0-0.8,0.6-1.3,1-1.3h0.1c0.4,0,1.1,0.5,1.1,1.3
		C17.9,21.2,17.5,21.5,16.8,21.6z M16.8,19.8c-0.2,0-0.6,0.2-0.6,0.8c0,0.3,0.2,0.5,0.6,0.5c0.4,0,0.6-0.2,0.6-0.5
		C17.4,20,17,19.8,16.8,19.8z"/>
	<path class="st6" d="M8.4,19.7c-0.4,0-0.7,0-1-0.1c-0.2,0-0.3,0-0.5-0.1c-0.1,0-0.2-0.1-0.2-0.2V6.4c0-0.1,0.1-0.2,0.2-0.2
		s0.2,0.1,0.2,0.2v12.8h0.3c0.4,0.1,0.8,0.1,1.5,0c0.4,0,0.8-0.2,1.4-0.4c1.2-0.4,2.9-1,4.8-0.6c0.7,0.2,1.3,0.5,1.6,0.8
		c0.3-0.4,0.9-0.6,1.6-0.8c1.8-0.4,3.5,0.1,4.8,0.6c0.5,0.2,1,0.3,1.4,0.4c0.7,0.1,1.1,0,1.5,0h0.3V6.5c0-0.1,0.1-0.2,0.2-0.2
		s0.2,0.1,0.2,0.2v12.9c0,0.1-0.1,0.2-0.2,0.2c-0.2,0-0.3,0-0.5,0.1c-0.4,0.1-0.9,0.1-1.6,0c-0.4,0-0.9-0.2-1.5-0.4
		c-1.3-0.4-2.8-1-4.5-0.6c-0.7,0.2-1.3,0.5-1.5,0.9c0,0.1-0.1,0.1-0.2,0.1c-0.1,0-0.2,0-0.2-0.1c-0.2-0.4-0.8-0.7-1.5-0.9
		c-1.7-0.4-3.2,0.1-4.5,0.5c-0.6,0.2-1.1,0.4-1.5,0.4C8.9,19.7,8.6,19.7,8.4,19.7z"/>
	<path class="st6" d="M16.8,22.1c-0.5,0-0.8-0.2-1.1-0.6H5.3c-0.1,0-0.1,0-0.2-0.1c0,0-0.1-0.1-0.1-0.2V7c0-0.1,0.1-0.2,0.2-0.2h0.7
		V6.2C5.9,6.1,5.9,6,6,6h0.2l0.6,0.2c0-0.1,0-0.1,0.1-0.2C7,6,7,5.9,7.1,6c0.2,0.1,0.4,0.1,0.5,0.2c0.2,0,0.3,0.1,1.1,0
		c0.2,0,0.6-0.1,1-0.3C10.8,5.5,12.3,5,13.9,5c0.6,0,1.1,0.1,1.5,0.2s0.7,0.3,1,0.4c0.1,0.1,0.3,0.1,0.5,0.2
		c0.2-0.1,0.3-0.2,0.4-0.2c0.3-0.1,0.6-0.3,1-0.4c0.5-0.1,1-0.2,1.5-0.2c1.5,0,3.1,0.5,4.2,0.9c0.5,0.2,0.9,0.3,1,0.3
		c0.9,0.1,1.1-0.1,1.4-0.2c0.1,0,0.1-0.1,0.2-0.1h0.2c0.1,0,0.1,0.1,0.1,0.2l0.3-0.2h0.2c0.1,0,0.1,0.1,0.1,0.2v0.7h0.7
		c0.1,0,0.2,0.1,0.2,0.2v14.2c0,0.1,0,0.1-0.1,0.2c0,0-0.1,0.1-0.2,0.1H17.9l-0.1,0.1C17.5,21.9,17.3,22.1,16.8,22.1z M5.6,21.1
		h10.2c0.1,0,0.1,0,0.2,0.1c0.4,0.4,0.5,0.5,0.9,0.5c0.3,0,0.4-0.1,0.7-0.4l0.1-0.1c0,0,0.1-0.1,0.2-0.1h10.3V7.4h-0.7
		c-0.1,0-0.2-0.1-0.2-0.2V6.7L27,6.9h-0.2c0,0-0.1-0.1-0.1-0.2c-0.3,0.1-0.6,0.2-1.5,0.2c-0.2,0-0.6-0.1-1.2-0.3
		c-1-0.3-2.6-0.9-4-0.9c-0.5,0-1,0.1-1.4,0.2S18,6.1,17.7,6.3c-0.2,0.1-0.3,0.2-0.6,0.3h-0.2l-0.6-0.3C16,6.2,15.8,6,15.4,5.9
		S14.5,5.7,14,5.7c-1.5,0-3,0.5-4,0.9C9.5,6.8,9.1,6.9,8.8,6.9c-0.9,0-1.1-0.1-1.3-0.2H7.4v0.1c0,0.1,0,0.2-0.1,0.2H7.1L6.7,6.8v0.5
		c0,0.1-0.1,0.2-0.2,0.2H5.6C5.6,7.5,5.6,21.1,5.6,21.1z M44.5,19.7c-0.1,0-0.2-0.1-0.2-0.2V6.2c0-0.1,0.1-0.2,0.2-0.2
		s0.2,0.1,0.2,0.2v13.3C44.7,19.6,44.6,19.7,44.5,19.7z M34,20.8h-0.1c-0.1-0.1-0.1-0.2-0.1-0.3l0.7-1.2c0.1-0.1,0.2-0.1,0.3-0.1
		c0.1,0.1,0.1,0.2,0.1,0.3l-0.7,1.2C34.2,20.7,34.1,20.8,34,20.8z M33,20.1h-1.1c-0.6,0-1-0.5-1-1.1v-0.8c0-0.6,0.5-1.1,1-1.1H33
		c0.1,0,0.2,0.1,0.2,0.2s-0.1,0.2-0.2,0.2h-1.1c-0.3,0-0.5,0.3-0.5,0.6v0.8c0,0.3,0.2,0.6,0.5,0.6H33c0.1,0,0.2,0.1,0.2,0.2
		C33.2,19.8,33.2,20.1,33,20.1z M33,11.3h-1.1c-0.6,0-1-0.5-1-1.1V9.4c0-0.6,0.5-1.1,1-1.1H33c0.1,0,0.2,0.1,0.2,0.2
		S33.1,8.7,33,8.7h-1.1c-0.3,0-0.5,0.3-0.5,0.6v0.8c0,0.3,0.2,0.6,0.5,0.6H33c0.1,0,0.2,0.1,0.2,0.2S33.2,11.3,33,11.3z"/>
	<path class="st6" d="M35.6,21c-0.5,0-1.1,0-1.6-0.2c-0.1,0-0.2-0.1-0.2-0.2V7.2C33.8,7.1,33.9,7,34,7c0.1,0,0.2,0.1,0.2,0.2v13.2
		c0.9,0.2,1.7,0.1,2.4,0.1H37c0.2,0,0.5-0.1,0.9-0.2c1-0.3,2.6-0.7,4.2-0.5c0.5,0.1,1.1,0.3,1.6,0.6c0.1,0.1,0.2,0.2,0.1,0.3
		c-0.1,0.1-0.2,0.2-0.3,0.1c-0.5-0.3-1-0.5-1.5-0.5c-1.5-0.3-3,0.2-4,0.4c-0.4,0.1-0.8,0.2-1,0.2h-0.4C36.4,20.9,36,21,35.6,21z
		 M55,20.8c-0.1,0-0.2,0-0.2-0.1l-0.6-1.1c-0.1-0.1,0-0.3,0.1-0.3c0.1-0.1,0.3,0,0.3,0.1l0.6,1.1C55.3,20.6,55.2,20.8,55,20.8
		C55.1,20.7,55,20.8,55,20.8z M57.1,20.1H56c-0.1,0-0.2-0.1-0.2-0.2s0.1-0.2,0.2-0.2h1.1c0.3,0,0.5-0.3,0.5-0.6v-0.8
		c0-0.3-0.2-0.6-0.5-0.6H56c-0.1,0-0.2-0.1-0.2-0.2s0.1-0.3,0.2-0.3h1.1c0.6,0,1,0.5,1,1.1v0.8C58.1,19.6,57.7,20.1,57.1,20.1z
		 M57.1,11.3H56c-0.1,0-0.2-0.1-0.2-0.2s0.1-0.2,0.2-0.2h1.1c0.3,0,0.5-0.3,0.5-0.6V9.5c0-0.3-0.2-0.6-0.5-0.6H56
		c-0.1,0-0.2-0.1-0.2-0.2s0.1-0.2,0.2-0.2h1.1c0.6,0,1,0.5,1,1.1v0.8C58.1,10.8,57.7,11.3,57.1,11.3z M53.4,21c-0.4,0-0.8,0-1.1-0.1
		h-0.4c-0.2,0-0.6-0.1-1-0.2c-1-0.3-2.5-0.7-4-0.4c-0.5,0.1-0.9,0.2-1.4,0.5c-0.1,0.1-0.3,0-0.3-0.1c-0.1-0.1,0-0.3,0.1-0.3
		c0.6-0.3,1-0.5,1.6-0.6c1.6-0.3,3.2,0.2,4.2,0.5c0.4,0.1,0.7,0.2,0.9,0.2h0.4c0.7,0.1,1.6,0.1,2.4-0.1V7.2C54.8,7.1,54.9,7,55,7
		s0.2,0.1,0.2,0.2v13.4c0,0.1-0.1,0.2-0.2,0.2C54.5,20.9,54,21,53.4,21z"/>
	<path class="st6" d="M44.5,21.6c-0.7-0.1-1.1-0.4-1.1-1c0-0.8,0.6-1.3,1.1-1.3h0.1c0.4,0,1,0.5,1,1.3
		C45.6,21.2,45.2,21.5,44.5,21.6z M44.5,19.8c-0.1,0-0.2,0.1-0.3,0.2S44,20.3,44,20.6c0,0.1,0,0.5,0.6,0.5c0.4,0,0.6-0.2,0.6-0.5
		C45.1,20,44.7,19.8,44.5,19.8z"/>
	<path class="st6" d="M36.1,19.7c-0.4,0-0.7,0-1-0.1c-0.2,0-0.3,0-0.5-0.1c-0.1,0-0.2-0.1-0.2-0.2V6.4c0-0.1,0.1-0.2,0.2-0.2
		c0.1,0,0.2,0.1,0.2,0.2v12.8h0.3c0.4,0.1,0.8,0.1,1.5,0c0.4,0,0.8-0.2,1.4-0.4c1.2-0.4,2.9-1,4.8-0.6c0.7,0.2,1.3,0.5,1.6,0.8
		c0.3-0.4,0.9-0.6,1.6-0.8c1.8-0.4,3.5,0.1,4.8,0.6c0.5,0.2,1,0.3,1.4,0.4c0.7,0.1,1.1,0,1.5,0H54V6.5c0-0.1,0.1-0.2,0.2-0.2
		s0.2,0.1,0.2,0.2v12.9c0,0.1-0.1,0.2-0.2,0.2c-0.2,0-0.3,0-0.5,0.1c-0.4,0.1-0.9,0.1-1.6,0c-0.4,0-0.9-0.2-1.5-0.4
		c-1.3-0.4-2.8-1-4.5-0.6c-0.7,0.2-1.3,0.5-1.5,0.9c0,0.1-0.1,0.1-0.2,0.1s-0.2,0-0.2-0.1c-0.2-0.4-0.8-0.7-1.5-0.9
		c-1.7-0.4-3.3,0.1-4.5,0.6c-0.6,0.2-1.1,0.4-1.5,0.4L36.1,19.7L36.1,19.7z"/>
	<path class="st6" d="M44.5,22.1c-0.5,0-0.8-0.2-1.1-0.6H33c-0.1,0-0.2-0.1-0.2-0.2V7.1c0-0.1,0.1-0.2,0.2-0.2h0.7V6.2
		c0-0.1,0-0.2,0.1-0.2H34l0.3,0.2c0-0.1,0-0.1,0.1-0.2c0.1,0,0.1-0.1,0.2,0c0.2,0.1,0.4,0.1,0.5,0.2c0.2,0.1,0.4,0.2,1.1,0.1
		c0.2,0,0.6-0.1,1-0.3c1.1-0.4,2.6-0.9,4.2-0.9c0.6,0,1.1,0.1,1.5,0.2s0.7,0.3,1,0.4c0.1,0.1,0.3,0.1,0.5,0.2
		c0.2-0.1,0.3-0.2,0.5-0.2c0.3-0.1,0.6-0.3,1-0.4c0.5-0.1,1-0.2,1.5-0.2c1.5,0,3.1,0.5,4.2,0.9c0.5,0.2,0.9,0.3,1,0.3
		c0.9,0.1,1.1-0.1,1.4-0.2c0.1,0,0.1-0.1,0.2-0.1h0.2c0.1,0,0.1,0.1,0.1,0.2L54.8,6H55c0.1,0,0.1,0.1,0.1,0.2v0.7H56
		c0.1,0,0.2,0.1,0.2,0.2v14.2c0,0.1-0.1,0.2-0.2,0.2H45.6l-0.1,0.1C45.2,21.9,45,22.1,44.5,22.1z M33.3,21.1h10.2
		c0.1,0,0.1,0,0.2,0.1c0.3,0.3,0.5,0.5,0.8,0.5s0.4-0.1,0.7-0.4l0.1-0.1c0,0,0.1-0.1,0.2-0.1h10.3V7.4H55c-0.1,0-0.2-0.1-0.2-0.2
		V6.7l-0.3,0.2h-0.2c-0.1,0-0.1-0.1-0.1-0.2c-0.3,0.1-0.6,0.2-1.5,0.2c-0.2,0-0.6-0.1-1.2-0.3c-1-0.3-2.6-0.9-4-0.9
		c-0.5,0-1,0.1-1.4,0.2s-0.6,0.2-0.9,0.4c-0.2,0.1-0.3,0.2-0.6,0.3h-0.2l-0.6-0.3c-0.3-0.1-0.5-0.3-0.9-0.4S42,5.7,41.5,5.7
		c-1.5,0-3,0.5-4,0.9c-0.5,0.2-0.9,0.3-1.2,0.3c-0.9,0-1.1-0.1-1.3-0.2h-0.1v0.1c0,0.1,0,0.2-0.1,0.2h-0.2l-0.3-0.2v0.5
		c0,0.1-0.1,0.2-0.2,0.2h-0.7L33.3,21.1L33.3,21.1z M72.2,19.7c-0.1,0-0.2-0.1-0.2-0.2V6.2C72,6.1,72.1,6,72.2,6
		c0.1,0,0.2,0.1,0.2,0.2v13.3C72.4,19.6,72.3,19.7,72.2,19.7z M61.7,20.8L61.7,20.8c-0.2-0.1-0.2-0.2-0.2-0.3l0.7-1.2
		c0.1-0.1,0.2-0.1,0.3-0.1c0.1,0.1,0.1,0.2,0.1,0.3l-0.7,1.2C61.9,20.7,61.8,20.8,61.7,20.8z M60.7,20.1h-1.1c-0.6,0-1-0.5-1-1.1
		v-0.8c0-0.6,0.5-1.1,1-1.1h1.1c0.1,0,0.2,0.1,0.2,0.2s-0.1,0.2-0.2,0.2h-1.1c-0.3,0-0.5,0.3-0.5,0.6v0.8c0,0.3,0.2,0.6,0.5,0.6h1.1
		c0.1,0,0.2,0.1,0.2,0.2C60.9,19.8,60.9,20.1,60.7,20.1z M60.7,11.3h-1.1c-0.6,0-1-0.5-1-1.1V9.4c0-0.6,0.5-1.1,1-1.1h1.1
		c0.1,0,0.2,0.1,0.2,0.2s-0.1,0.2-0.2,0.2h-1.1c-0.3,0-0.5,0.3-0.5,0.6v0.8c0,0.3,0.2,0.6,0.5,0.6h1.1c0.1,0,0.2,0.1,0.2,0.2
		S60.9,11.3,60.7,11.3z"/>
	<path class="st6" d="M63.3,21c-0.5,0-1.1,0-1.6-0.2c-0.1,0-0.2-0.1-0.2-0.2V7.2c0-0.1,0.1-0.2,0.2-0.2s0.2,0.1,0.2,0.2v13.2
		c0.9,0.2,1.8,0.1,2.4,0.1h0.4c0.2,0,0.5-0.1,0.9-0.2c1-0.3,2.6-0.7,4.2-0.5c0.5,0.1,1.1,0.3,1.6,0.6c0.1,0.1,0.2,0.2,0.1,0.3
		c-0.1,0.1-0.2,0.2-0.3,0.1c-0.5-0.3-1-0.5-1.5-0.5c-1.5-0.3-3,0.2-4,0.4c-0.4,0.1-0.8,0.2-1,0.2h-0.4C64.1,20.9,63.7,21,63.3,21z
		 M82.7,20.8c-0.1,0-0.2,0-0.2-0.1l-0.7-1.1c-0.1-0.1,0-0.3,0.1-0.3c0.1-0.1,0.3,0,0.3,0.1l0.7,1.1c0.1,0.1,0,0.3-0.1,0.3
		C82.8,20.7,82.7,20.8,82.7,20.8z M84.8,20.1h-1.1c-0.1,0-0.2-0.1-0.2-0.2s0.1-0.2,0.2-0.2h1.1c0.3,0,0.5-0.3,0.5-0.6v-0.8
		c0-0.3-0.2-0.6-0.5-0.6h-1.1c-0.1,0-0.2-0.1-0.2-0.2s0.1-0.2,0.2-0.2h1.1c0.6,0,1,0.5,1,1.1v0.8C85.8,19.6,85.4,20.1,84.8,20.1z
		 M84.8,11.3h-1.1c-0.1,0-0.2-0.1-0.2-0.2s0.1-0.2,0.2-0.2h1.1c0.3,0,0.5-0.3,0.5-0.6V9.5c0-0.3-0.2-0.6-0.5-0.6h-1.1
		c-0.1,0-0.2-0.1-0.2-0.2s0.1-0.2,0.2-0.2h1.1c0.6,0,1,0.5,1,1.1v0.8C85.8,10.8,85.4,11.3,84.8,11.3z M81.1,21c-0.4,0-0.8,0-1.1-0.1
		h-0.4c-0.2,0-0.6-0.1-1-0.2c-1-0.3-2.5-0.7-4-0.4c-0.5,0.1-0.9,0.2-1.4,0.5c-0.1,0.1-0.3,0-0.3-0.1c-0.1-0.1,0-0.3,0.1-0.3
		c0.6-0.3,1-0.5,1.6-0.6c1.6-0.3,3.2,0.2,4.2,0.5c0.4,0.1,0.7,0.2,0.9,0.2h0.4c0.7,0,1.6,0.1,2.4-0.1V7.2c0-0.1,0.1-0.2,0.2-0.2
		c0.1,0,0.2,0.1,0.2,0.2v13.4c0,0.1-0.1,0.2-0.2,0.2C82.2,20.9,81.7,21,81.1,21z"/>
	<path class="st6" d="M72.2,21.6c-0.7-0.1-1.1-0.4-1.1-1c0-0.8,0.6-1.3,1.1-1.3h0.1c0.4,0,1.1,0.5,1.1,1.3
		C73.3,21.2,72.9,21.5,72.2,21.6z M72.2,19.8c-0.1,0-0.2,0.1-0.3,0.2s-0.2,0.3-0.2,0.6c0,0.3,0.2,0.5,0.6,0.5
		c0.6-0.1,0.6-0.4,0.6-0.5C72.8,20,72.4,19.8,72.2,19.8z"/>
	<path class="st6" d="M63.8,19.7c-0.4,0-0.7,0-1-0.1c-0.2,0-0.3,0-0.5-0.1c-0.1,0-0.2-0.1-0.2-0.2V6.4c0-0.1,0.1-0.2,0.2-0.2
		c0.1,0,0.2,0.1,0.2,0.2v12.8h0.3c0.4,0.1,0.8,0.1,1.5,0c0.4,0,0.8-0.2,1.4-0.4c1.2-0.4,2.9-1,4.8-0.6c0.7,0.2,1.3,0.5,1.6,0.8
		c0.3-0.4,0.9-0.6,1.6-0.8c1.8-0.4,3.5,0.1,4.8,0.6c0.5,0.2,1,0.3,1.4,0.4c0.7,0.1,1.1,0,1.5,0h0.3V6.5c0-0.1,0.1-0.2,0.2-0.2
		c0.1,0,0.2,0.1,0.2,0.2v12.9c0,0.1-0.1,0.2-0.2,0.2c-0.2,0-0.3,0-0.5,0.1c-0.4,0.1-0.9,0.1-1.6,0c-0.4,0-0.9-0.2-1.5-0.4
		c-1.2-0.4-2.8-1-4.5-0.6c-0.7,0.2-1.3,0.5-1.5,0.9c0,0.1-0.1,0.1-0.2,0.1c-0.1,0-0.2,0-0.2-0.1c-0.2-0.4-0.8-0.7-1.5-0.9
		c-1.7-0.4-3.2,0.1-4.5,0.6c-0.6,0.2-1.1,0.4-1.5,0.4L63.8,19.7L63.8,19.7z"/>
	<path class="st6" d="M72.2,22.1c-0.5,0-0.8-0.2-1.1-0.6H60.7c-0.1,0-0.2-0.1-0.2-0.2V7.1c0-0.1,0.1-0.2,0.2-0.2h0.7V6.2
		c0-0.1,0-0.2,0.1-0.2h0.2L62,6.2c0-0.1,0-0.1,0.1-0.2c0.1,0,0.1-0.1,0.2,0c0.2,0.1,0.4,0.1,0.5,0.2c0.2,0.1,0.4,0.2,1.1,0.1
		c0.2,0,0.6-0.1,1-0.3c1.1-0.4,2.6-0.9,4.2-0.9c0.6,0,1.1,0.1,1.5,0.2s0.7,0.3,1,0.4c0.1,0.1,0.3,0.1,0.4,0.2
		c0.2-0.1,0.3-0.2,0.5-0.2c0.3-0.1,0.6-0.3,1-0.4c0.5-0.1,1-0.2,1.5-0.2c1.5,0,3.1,0.5,4.2,0.9c0.5,0.2,0.9,0.3,1,0.3
		c0.9,0.1,1.1-0.1,1.4-0.2c0.1,0,0.1-0.1,0.2-0.1H82c0.1,0,0.1,0.1,0.1,0.2L82.5,6h0.2c0.1,0,0.1,0.1,0.1,0.2v0.7h0.7
		c0.1,0,0.2,0.1,0.2,0.2v14.2c0,0.1-0.1,0.2-0.2,0.2H73.3l-0.1,0.1C72.9,21.9,72.7,22.1,72.2,22.1z M61,21.1h10.2
		c0.1,0,0.1,0,0.2,0.1c0.4,0.4,0.5,0.5,0.9,0.5c0.3,0,0.4-0.1,0.7-0.4l0.1-0.1c0,0,0.1-0.1,0.2-0.1h10.3V7.4h-0.7
		c-0.1,0-0.2-0.1-0.2-0.2V6.7l-0.4,0.2h-0.2C82,6.9,82,6.8,82,6.7c-0.3,0.1-0.6,0.2-1.4,0.2c-0.2,0-0.6-0.1-1.2-0.3
		c-1-0.3-2.6-0.9-4-0.9c-0.5,0-1,0.1-1.4,0.2s-0.6,0.2-0.9,0.4l-0.6,0.3h-0.2l-0.6-0.3c-0.3-0.1-0.5-0.3-0.9-0.4s-0.9-0.2-1.4-0.2
		c-1.5,0-3,0.5-4,0.9c-0.5,0.2-0.9,0.3-1.2,0.3c-0.9,0-1.1-0.1-1.3-0.2h-0.1v0.1c0,0.1,0,0.2-0.1,0.2s-0.2,0.1-0.2,0l-0.3-0.2v0.5
		c0,0.1-0.1,0.2-0.2,0.2h-1C61,7.5,61,21.1,61,21.1z"/>
	<path class="st6" d="M19.1,16.5h5c0.2-0.6,0.3-1.3,0.3-2h-0.1c-0.2,1.3-0.8,1.8-1.9,1.8c-1.5,0-1.4-0.8-1.4-1.4v-1.7h0.9
		c0.7,0,1.2,0,1.3,0.9h0.1v-2.3h-0.1c-0.1,0.9-0.6,0.9-1.3,0.9H21V9.8h0.9c0.9,0,1.8,0,1.8,1.3h0.1l0.1-1.6h-4.8v0.2
		c1.1,0.2,1.1,0.5,1.1,1.5v3.6c0,1.1,0,1.4-1.1,1.5C19.1,16.3,19.1,16.5,19.1,16.5z M12.7,9.6v0.2c1.4,0.2,1.2,0.6,0.5,2.7l-1.1,2.9
		l-1.4-3.9c-0.2-0.6-0.7-1.5,0.6-1.6V9.7H8.5v0.2c0.8,0.1,1,0.8,1.3,1.5l2,5.5h0.1l1.7-4.7c0.6-1.5,0.8-2.3,1.7-2.4V9.6
		C15.3,9.6,12.7,9.6,12.7,9.6z M69.4,9.3c-0.2,0.2-0.3,0.2-0.6,0.2h-4.1c-0.3,0-0.3,0-0.6-0.2H64l-0.2,1.9h0.1
		c0.3-1.3,0.8-1.3,1.8-1.3h0.5v4.7c0,1.3-0.1,1.6-1.3,1.8v0.2h3.3v-0.2c-1.2-0.2-1.3-0.5-1.3-1.8V9.9h0.5c1,0,1.5,0.1,1.8,1.3h0.1
		l-0.1-1.9C69.2,9.3,69.4,9.3,69.4,9.3z M73.2,13.6c0.2,0.7,0.6,1.7,0.6,2.1c0,0.5-0.4,0.6-0.7,0.7v0.2h2.6v-0.2
		c-0.7-0.2-0.8-0.5-1.1-1.2l-2-6c-0.2,0.3-0.4,0.4-0.7,0.5c0.1,0.2,0,0.4-0.1,0.7l-0.5,1.7l-1,3c-0.3,0.8-0.4,1-1.2,1.3v0.2h2.5
		v-0.2c-0.4-0.1-1-0.1-1-0.7c0-0.5,0.4-1.6,0.6-2.1C71.2,13.6,73.2,13.6,73.2,13.6z M73.1,13.1h-1.8l0.8-2.7L73.1,13.1z M79.9,9.8
		c-0.4-0.2-0.9-0.4-1.3-0.4c-1,0-2,0.8-2,2c0,2.1,2.8,1.9,2.8,3.7c0,0.8-0.5,1.3-1.2,1.3c-1,0-1.6-1-1.8-2h-0.2l0.3,1.7
		c0.5,0.3,1,0.5,1.6,0.5c1,0,2.2-0.7,2.2-2c0-2.1-2.8-2-2.8-3.8c0-0.7,0.5-1.1,1.1-1.1c0.9,0,1.1,0.8,1.3,1.6H80
		C80,11.3,79.9,9.8,79.9,9.8z M49.9,11.2c0-1.1,0-1.4,1.1-1.5V9.5h-3v0.2c1.1,0.2,1.1,0.5,1.1,1.5v3.6c0,1.1,0,1.4-1.1,1.5v0.2h3
		v-0.2c-1.1-0.2-1.1-0.5-1.1-1.5V11.2z M38.6,9.8c0.9,0,1.9,0.5,1.9,1.7c0,1.1-1,1.6-1.9,1.6V9.8z M37.8,14.9c0,1.1,0,1.4-1.1,1.5
		v0.2h3.2v-0.2c-1.2-0.2-1.3-0.4-1.3-1.5v-1.7c0.6,0.1,1-0.1,1.3,0.7c0.2,0.4,0.7,1.3,1.3,2c0.5,0.6,1.2,0.6,2.2,0.6v-0.1
		c-1.5-0.4-2.4-2.1-3-3.5v-0.1c0.6-0.3,1.1-0.8,1.1-1.7c0-0.5-0.2-1.7-2.5-1.7l-2.2,0.1v0.1c1,0.1,1.1,0.3,1.1,1.9
		C37.8,11.7,37.8,14.9,37.8,14.9z M17.2,85c-0.1,0-0.2,0-0.3-0.1s-0.1-0.4,0-0.5L44,59.6c0.1-0.1,0.3-0.1,0.5,0l27.2,24.8
		c0.1,0.1,0.2,0.4,0,0.5c-0.1,0.1-0.4,0.2-0.5,0L44.3,60.3L17.4,84.9C17.4,85,17.3,85,17.2,85z"/>
	<path class="st6" d="M78.4,75c-0.1,0-0.2,0-0.2-0.1L44.3,44.8L10.5,75c-0.1,0.1-0.4,0.1-0.5,0s-0.1-0.4,0-0.5l34.1-30.4
		c0.1-0.1,0.3-0.1,0.5,0l34.1,30.4c0.1,0.1,0.2,0.4,0,0.5C78.7,75,78.4,75,78.4,75z M80.1,31.5c-3.3,0-6.1-1.4-7.2-3.4
		c-1.1,2-3.9,3.4-7.1,3.4c-3.3,0-6.1-1.4-7.2-3.4c-1.1,2-3.9,3.4-7.1,3.4c-3.3,0-6.1-1.4-7.2-3.4c-1.1,2-3.9,3.4-7.1,3.4
		c-3.3,0-6.1-1.4-7.2-3.4c-1.1,2-3.9,3.4-7.1,3.4c-3.3,0-6.1-1.4-7.1-3.3c-1.1,2-3.9,3.3-7.1,3.3c-3.8,0-6.9-1.8-7.5-4.3
		c0-0.2,0.1-0.4,0.3-0.4c0.2-0.1,0.4,0.1,0.4,0.3c0.4,2.1,3.4,3.7,6.8,3.7s6.3-1.6,6.8-3.7c0-0.2,0.2-0.3,0.3-0.3
		c0.2,0,0.3,0.1,0.3,0.3c0.5,2.1,3.3,3.7,6.8,3.7c3.3,0,6.3-1.6,6.8-3.8c0-0.2,0.2-0.3,0.3-0.3c0.2,0,0.3,0.1,0.3,0.3
		c0.5,2.1,3.4,3.8,6.8,3.8c3.3,0,6.3-1.6,6.8-3.8c0-0.2,0.2-0.3,0.3-0.3c0.2,0,0.3,0.1,0.3,0.3c0.5,2.1,3.4,3.8,6.8,3.8
		c3.3,0,6.3-1.6,6.8-3.8c0-0.2,0.2-0.3,0.3-0.3c0.2,0,0.3,0.1,0.3,0.3c0.5,2.1,3.4,3.8,6.8,3.8c3.3,0,6.3-1.6,6.8-3.8
		c0-0.2,0.2-0.3,0.3-0.3c0.2,0,0.3,0.1,0.3,0.3c0.5,2.1,3.4,3.8,6.8,3.8c3.4,0,6.3-1.6,6.8-3.7c0-0.2,0.2-0.3,0.4-0.3
		s0.3,0.2,0.3,0.4C87,29.7,83.8,31.5,80.1,31.5z M80.1,29.1c-3.2,0-6.1-1.9-7.2-4.6c-1.1,2.7-3.9,4.6-7.1,4.6s-6.1-1.9-7.2-4.6
		c-1.1,2.7-3.9,4.6-7.1,4.6s-6.1-1.9-7.2-4.6c-1.1,2.7-3.9,4.6-7.1,4.6s-6.1-1.9-7.2-4.6c-1,2.7-3.9,4.6-7.1,4.6
		c-3.3,0-6.1-1.8-7.1-4.5c-1.1,2.7-3.9,4.5-7.1,4.5c-3.7,0-7-2.5-7.5-5.9c0-0.2,0.1-0.4,0.3-0.4s0.4,0.1,0.4,0.3
		c0.5,3,3.4,5.3,6.8,5.3s6.3-2.2,6.8-5.2c0-0.2,0.2-0.3,0.4-0.3s0.3,0.1,0.4,0.3c0.5,3,3.4,5.2,6.8,5.2c3.3,0,6.2-2.3,6.8-5.3
		c0-0.2,0.2-0.3,0.4-0.3s0.3,0.1,0.4,0.3c0.5,3,3.4,5.3,6.8,5.3c3.3,0,6.2-2.3,6.8-5.3c0-0.2,0.1-0.3,0.4-0.3c0.2,0,0.3,0.1,0.4,0.3
		c0.5,3,3.4,5.3,6.8,5.3c3.3,0,6.2-2.3,6.8-5.3c0-0.2,0.2-0.3,0.4-0.3s0.3,0.1,0.4,0.3c0.5,3,3.4,5.3,6.8,5.3c3.3,0,6.2-2.3,6.8-5.3
		c0-0.2,0.2-0.3,0.4-0.3s0.3,0.1,0.3,0.3c0.5,3,3.4,5.3,6.8,5.3c3.4,0,6.3-2.2,6.8-5.2c0-0.2,0.2-0.3,0.4-0.3s0.3,0.2,0.3,0.4
		C87,26.7,83.8,29.1,80.1,29.1L80.1,29.1z M44.8,95c0,0-3.8,0-3.8-1.4c0-0.1,0.1-0.2,0.2-0.2s0.2,0.1,0.2,0.2c0,0.5,1.8,0.9,3.3,0.9
		c2.2,0,2.9-0.3,3.1-0.6c0.1-0.1,0.1-0.1,0.1-0.2s0.1-0.2,0.2-0.2c0.1,0,0.2,0.1,0.2,0.2c0,0.2-0.1,0.4-0.2,0.6
		C47.8,94.8,46.6,95,44.8,95z"/>
	<path class="st6" d="M44.8,94.3c-0.8,0-3.2-0.2-3.2-1c0-0.3,0.3-0.5,0.4-0.5c0.1-0.1,0.3,0,0.3,0.1c0.1,0.1,0,0.3-0.1,0.3
		c-0.1,0.1-0.2,0.1-0.2,0.1c0.1,0.2,1.4,0.5,2.7,0.5c1.9,0,2.6-0.3,2.6-0.5l0.2-0.1h-0.2v0.1c-0.1-0.1-0.1-0.3,0-0.3
		c0.1-0.1,0.2-0.1,0.3,0s0.1,0.3,0.1,0.3C47.8,93.9,46.8,94.3,44.8,94.3z M44.8,86.7c-4.9,0-8.7-0.9-8.7-2.1c0-0.1,0.1-0.2,0.2-0.2
		c0.1,0,0.2,0.1,0.2,0.2c0,0.6,2.8,1.7,8.3,1.7c5.9,0,8.3-0.9,8.3-1.4c0-0.1,0.1-0.2,0.2-0.2c0.1,0,0.2,0.1,0.2,0.2
		C53.6,86.2,48.9,86.7,44.8,86.7z M40.5,92.1C40.4,92.1,40.4,92.1,40.5,92.1c-0.1,0-5.7-0.4-9-5.7c-1.5-2.4-2.1-2.6-2.1-2.6
		c-0.2-0.1-1.4-0.9-1.4-1.7c0-0.1,0.1-0.2,0.2-0.2s0.2,0.1,0.2,0.2c0,0.5,0.8,1.1,1.1,1.3c0.2,0.1,0.9,0.5,2.4,2.8
		c3.2,5.1,8.5,5.5,8.6,5.5s0.2,0.1,0.2,0.3C40.7,92,40.6,92.1,40.5,92.1z"/>
	<path class="st6" d="M44.6,88.4c-3.5,0-6.9-0.5-8.5-1.3c-0.3,0-1.6,0.1-2.8-0.8c-0.9-0.7-1.4-1.9-1.6-3.4c0-0.1,0.1-0.2,0.2-0.3
		c0.1,0,0.2,0.1,0.3,0.2c0.1,1.4,0.6,2.4,1.4,3.1c1.1,0.9,2.5,0.7,2.5,0.7h0.1c1.2,0.6,4.3,1.3,8.3,1.3c5.6,0,9.1-1.2,9.1-1.8
		c0-0.1,0.1-0.2,0.2-0.2c0.1,0,0.2,0.1,0.2,0.2C54.2,87.4,49.2,88.4,44.6,88.4z"/>
	<path class="st6" d="M38.1,85.9C38.1,85.9,38,85.9,38.1,85.9c-0.2-0.1-0.3-0.2-0.2-0.3c0.9-3.1,4.5-4,4.7-4c0.1,0,0.3,0,0.3,0.2
		c0,0.1,0,0.3-0.2,0.3c0,0-3.5,0.9-4.4,3.7C38.3,85.8,38.2,85.9,38.1,85.9z M42.3,92.5c-4.6-1.4-4.4-5-4.4-5c0-0.1,0.1-0.2,0.3-0.2
		c0.1,0,0.2,0.1,0.2,0.3c0,0.1-0.1,3.2,4,4.5c0.1,0,0.2,0.2,0.2,0.3C42.5,92.4,42.4,92.5,42.3,92.5z M42,86.5
		c-0.1,0-0.2-0.1-0.2-0.2c-0.1-2.8,2-4,2.1-4.1s0.3,0,0.3,0.1c0.1,0.1,0,0.3-0.1,0.3s-2,1.1-1.9,3.6C42.2,86.4,42.1,86.5,42,86.5z
		 M47.5,86.5c-0.1,0-0.2-0.1-0.2-0.2c0-2.8-1.7-3.6-1.8-3.6c-0.1-0.1-0.2-0.2-0.1-0.3c0.1-0.1,0.2-0.2,0.3-0.1c0.1,0,2.1,1,2.1,4.1
		C47.7,86.4,47.6,86.5,47.5,86.5z M51.6,86c-0.1,0-0.2-0.1-0.2-0.2c-1.2-3.3-4.5-3.8-4.5-3.8c-0.1,0-0.2-0.1-0.2-0.3
		c0-0.1,0.1-0.2,0.3-0.2c0.1,0,3.6,0.6,4.9,4.1C51.8,85.8,51.8,86,51.6,86z M46.1,92.7c-0.1,0-0.2-0.1-0.2-0.2s0-0.3,0.1-0.3
		c4.9-1.7,5.3-4.8,5.3-4.9s0.1-0.2,0.3-0.2c0.1,0,0.2,0.1,0.2,0.3C51.8,87.5,51.4,90.8,46.1,92.7z"/>
	<path class="st6" d="M44.7,92.7c-0.1,0-0.2-0.1-0.2-0.2s0.1-0.3,0.2-0.3c2.3-0.3,2.4-4.1,2.4-4.1c0-0.1,0.1-0.2,0.2-0.2
		s0.2,0.1,0.2,0.2C47.5,88.3,47.4,92.3,44.7,92.7z"/>
	<path class="st6" d="M44.8,92.7c-3.1-0.3-3.4-4.5-3.4-4.6s0.1-0.2,0.2-0.3c0.1,0,0.2,0.1,0.3,0.2c0,0,0.3,4,3,4.2
		c0.1,0,0.2,0.1,0.2,0.3C45,92.6,44.9,92.7,44.8,92.7z M44.8,98.2c-3.1,0-6.4-0.7-6.4-2.1c0-0.5,0.5-1.2,1.5-1.4l1.1-1
		c0-0.5,0.4-0.7,0.7-0.8c0.4-0.1,0.6-0.2,0.6-0.6c0-0.1,0.1-0.2,0.2-0.2c0.1,0,0.2,0.1,0.2,0.2c0,0.8-0.5,1-0.9,1.1
		s-0.4,0.2-0.4,0.4c0,0.1,0,0.1-0.1,0.2l-1.2,1.1c0,0-0.1,0-0.1,0.1c-0.8,0.2-1.2,0.6-1.2,0.9c0,0.8,2.5,1.6,5.9,1.6
		s5.9-0.9,5.9-1.6c0-0.3-0.1-0.4-1-0.7h-0.1L48,94c0,0-0.1-0.1-0.1-0.2c0-0.2-0.1-0.3-0.4-0.4s-0.8-0.3-0.8-1.1
		c0-0.1,0.1-0.2,0.2-0.2c0.1,0,0.2,0.1,0.2,0.2c0,0.5,0.2,0.5,0.5,0.6s0.6,0.2,0.7,0.7l1.4,1.3c0.8,0.3,1.3,0.5,1.3,1.2
		C51.2,97.5,47.9,98.2,44.8,98.2z M44.8,97.1c-2.9,0-4.1-0.7-4.6-1.2s-0.5-0.9-0.5-1s0.1-0.2,0.2-0.2c0.1,0,0.2,0.1,0.2,0.2
		c0,0,0,0.3,0.3,0.7c0.5,0.5,1.6,1,4.2,1c4.6,0,4.8-1.5,4.8-1.5c0-0.1,0.1-0.2,0.3-0.2c0.1,0,0.2,0.1,0.2,0.2
		C50,95.4,49.8,97.1,44.8,97.1z M44.8,81.3c-0.9,0-1.5-0.4-1.5-1c0-0.1,0.1-0.2,0.2-0.2s0.2,0.1,0.2,0.2c0,0.3,0.4,0.5,1,0.5
		s1-0.2,1-0.5c0-0.1,0.1-0.2,0.2-0.2c0.1,0,0.2,0.1,0.2,0.2C46.3,80.9,45.6,81.3,44.8,81.3z M44.8,77.5c-0.8,0-1.4-0.6-1.4-1.2
		c0-0.1,0.1-0.2,0.2-0.2c0.1,0,0.2,0.1,0.2,0.2c0,0.3,0.4,0.8,0.9,0.8c0.6,0,0.9-0.3,0.9-0.8c0-0.1,0.1-0.3,0.2-0.2
		c0.1,0,0.2,0.1,0.2,0.2C46.1,77,45.6,77.5,44.8,77.5z"/>
	<path class="st6" d="M44.8,76.7c-0.5,0-0.9-0.3-0.9-0.8c0-0.1,0.1-0.2,0.2-0.2c0.1,0,0.2,0.1,0.2,0.2c0,0.3,0.2,0.4,0.4,0.4
		s0.3-0.1,0.3-0.4c0-0.1,0.1-0.2,0.2-0.2s0.2,0.1,0.2,0.2C45.6,76.3,45.3,76.7,44.8,76.7z M48.8,92.1c-0.1,0-0.2-0.1-0.2-0.2
		s0.1-0.2,0.2-0.3c7.8-0.9,11.5-3.1,11.6-7c0,0,0.1-1.6-0.9-2.6c-0.1-0.1-0.1-0.2-0.1-0.3c0-0.1,0.1-0.1,0.2-0.1
		c1.5,0,1.7-0.3,2.5-1.3l0.1-0.1c-0.1,0-0.4,0.1-0.8,0.3c-1.3,0.5-4.4,0-4.5,0c-0.8-0.1-1.5,0.2-2,0.7c-0.7,0.6-1,1.6-1,2.6
		c0,0.8,0.3,1.5,0.8,1.9c0.4,0.4,1,0.6,1.6,0.6c0.8,0,1.6-0.5,1.6-1.7c0-0.8-0.4-1.4-0.9-1.4c-0.2,0-0.3,0-0.4,0.1
		c0.4,0.2,0.7,0.6,0.6,1.3c-0.1,0.5-0.6,0.8-0.9,0.8c-0.4,0-0.7-0.1-1-0.3c-0.3-0.2-0.4-0.6-0.4-1c-0.1-0.7,0.2-1.4,0.6-1.8
		c0.4-0.4,0.9-0.6,1.6-0.6c1.5,0,2.6,1.1,2.6,2.8c0,2.4-1.3,3.8-3.4,3.8c-0.6,0-1.3-0.2-2-0.6l0.1-0.2l-0.2-0.2
		c0.1-0.1,0.2-0.1,0.3-0.1c0.7,0.3,1.3,0.5,1.8,0.5c1.9,0,3-1.2,3-3.4c0-1.4-0.8-2.3-2.1-2.3c-0.5,0-0.9,0.2-1.2,0.5
		c-0.3,0.4-0.5,0.9-0.5,1.5c0,0.3,0.1,0.5,0.3,0.7s0.4,0.2,0.6,0.2s0.4-0.2,0.5-0.5c0.1-0.4-0.1-0.6-0.5-0.9c-0.1,0-0.1-0.1-0.1-0.2
		c0,0,0-0.2,0.1-0.4c0.2-0.2,0.4-0.3,0.8-0.3c0.8,0,1.4,0.8,1.4,1.9c0,1.5-1.1,2.2-2.1,2.2c-0.7,0-1.4-0.2-1.9-0.8
		c-0.6-0.6-0.9-1.4-0.9-2.3c0-1.2,0.4-2.3,1.2-3c0.7-0.6,1.5-0.9,2.4-0.9c0.1,0,3.1,0.5,4.3,0.1c0.9-0.4,1.3-0.4,1.5-0.2
		c0.2,0.3-0.1,0.6-0.2,0.8c-0.7,0.8-1.1,1.3-2.4,1.4c0.8,1.1,0.8,2.5,0.8,2.5C60.7,88.9,56.9,91.3,48.8,92.1L48.8,92.1z"/>
	<path class="st6" d="M44.8,92.7c-0.8,0-1.7-0.1-2.3-0.2c-0.7-0.1-1.4-0.2-2.1-0.4c-1.3-0.4-2.4-1.1-3.5-2c-0.1-0.1-1-0.9-1-4.3
		v-0.5c-0.1-0.1-0.2-0.2-0.1-0.3c0.1-0.1,0.2-0.2,0.3-0.1c0.3,0.1,0.3,0.7,0.3,0.9c0.1,3.2,0.9,4,0.9,4c1,0.9,2,1.5,3.3,1.9
		c0.6,0.2,1.3,0.3,2,0.4c0.6,0.1,1.5,0.2,2.3,0.2s1.5-0.1,2.2-0.2c0.6-0.1,1-0.2,1.7-0.4c2.8-0.8,4.7-2.4,5.1-4.2
		c0-0.2,0.1-0.4,0.1-0.6c0-2.4-2.8-4.6-6.8-5.2c-0.1,0-0.2-0.1-0.2-0.2c0-0.2-0.3-0.6-0.9-0.9c-0.1,0-0.1-0.1-0.1-0.2v-0.7
		c0-0.1,0.1-0.2,0.2-0.2s0.2,0.1,0.2,0.2v0.6c0.5,0.3,0.9,0.7,1,1.1c4.2,0.7,7.1,3,7.1,5.6c0,0.3,0,0.5-0.1,0.7
		c-0.4,2-2.4,3.6-5.4,4.5c-0.7,0.2-1.2,0.3-1.7,0.4C46.3,92.6,45.6,92.7,44.8,92.7z M44.8,82.8c-1.4,0-2.5-0.6-2.5-1.3
		c0-0.1,0.1-0.2,0.2-0.2s0.2,0.1,0.2,0.2c0,0.4,0.9,0.8,2,0.8s2-0.4,2-0.8c0-0.1,0.1-0.2,0.2-0.2c0.1,0,0.2,0.1,0.2,0.2
		C47.3,82.2,46.2,82.8,44.8,82.8z"/>
	<path class="st6" d="M36,85.3c-0.1,0-1-0.1-1.6-0.8c-0.5-0.6-0.6-1.4-0.5-2.5c0-0.1,0.1-0.2,0.3-0.2c0.1,0,0.2,0.1,0.2,0.3
		c-0.1,0.9,0,1.6,0.4,2.1s0.9,0.6,1.1,0.6c1.1-1.8,3.5-3.1,6.5-3.5c0.1-0.4,0.4-0.8,1-1.1v-0.6c0-0.1,0.1-0.2,0.3-0.2
		c0.1,0,0.2,0.1,0.2,0.3v0.8c0,0.1-0.1,0.2-0.1,0.2C43.2,81,43,81.4,43,81.6c0,0.1-0.1,0.2-0.2,0.2c-3,0.4-5.4,1.7-6.4,3.5
		C36.1,85.2,36,85.3,36,85.3z M44.8,80c-0.4,0-0.9-0.1-1.3-0.2c-1.3-0.4-1.6-1.1-1.6-1.7c0-0.8,0.6-1.6,1.5-1.9
		c0.1-0.1,0.2-0.3,0.5-0.4c0.1-0.5,0.4-1.7,0.8-1.8h0.2c0.4,0.2,0.7,1.3,0.7,1.8c0.2,0.1,0.4,0.3,0.5,0.4c1,0.4,1.6,1.1,1.6,2
		c0,0.8-0.6,1.5-1.6,1.8C45.6,79.9,45.2,80,44.8,80z M44.8,74.4c-0.2,0.3-0.4,1.1-0.4,1.4c0,0.1-0.1,0.2-0.1,0.2
		c-0.3,0.2-0.4,0.3-0.4,0.4s-0.1,0.1-0.1,0.1c-0.8,0.3-1.3,0.9-1.3,1.5s0.4,1.1,1.2,1.3c0.3,0.1,0.8,0.2,1.1,0.2
		c0.4,0,0.8-0.1,1.1-0.2c0.8-0.2,1.3-0.7,1.3-1.3c0-0.7-0.5-1.3-1.3-1.6c-0.1,0-0.1-0.1-0.1-0.1c-0.1-0.2-0.2-0.3-0.4-0.3
		c-0.1,0-0.2-0.1-0.2-0.2C45.1,75.4,44.9,74.7,44.8,74.4z M30.9,80.8h-0.5c-0.1,0-0.3,0-0.5-0.1c-0.7-0.2-1.4-0.5-1.5-1.5
		c-0.1-0.9,0.5-1.8,1-2.6c0.2-0.2,0.3-0.4,0.4-0.6c0.3-0.5,0.4-0.9,0.5-1.3c0-0.2,0.1-0.4,0.2-0.6c0-0.1,0.1-0.1,0.1-0.2
		c0.1,0,0.2-0.1,0.3-0.1c0.5,0,0.5,0.5,0.5,1c0,0.4,0,0.8,0.2,1.1c0.1,0.2,0.3,0.4,0.4,0.6c0.6,0.8,1.2,1.7,1,2.6
		c-0.2,1-0.8,1.3-1.5,1.5c-0.2,0.1-0.3,0.1-0.4,0.1h-0.3C31.1,80.8,31,80.8,30.9,80.8C31,80.8,31,80.8,30.9,80.8z M31.1,74.4
		c0,0.2-0.1,0.3-0.1,0.5c-0.1,0.5-0.2,0.8-0.6,1.4c-0.1,0.2-0.3,0.4-0.4,0.7c-0.5,0.7-1.1,1.5-1,2.2c0.1,0.8,0.5,0.9,1.2,1.1h1.6
		c0.7-0.2,1.1-0.4,1.2-1.1c0.1-0.7-0.4-1.5-1-2.2c-0.2-0.2-0.3-0.4-0.4-0.7c-0.2-0.4-0.3-0.9-0.3-1.3C31.2,74.8,31.2,74.5,31.1,74.4
		z"/>
	<path class="st6" d="M31.2,81.1v-1.3c0-0.3-0.5-0.3-0.5,0v1.3c-0.8,0-1.4,0.3-1.4,0.5c0,0.3,0.8,0.5,1.7,0.5c1,0,1.7-0.2,1.7-0.5
		C32.8,81.3,32.1,81.1,31.2,81.1"/>
	<path class="st6" d="M31.1,82.4c-0.7,0-2-0.2-2-0.8c0-0.4,0.7-0.7,1.4-0.8v-1.1c0-0.3,0.2-0.5,0.5-0.5s0.5,0.2,0.5,0.5v1.1
		c0.8,0.1,1.6,0.3,1.6,0.8C33.1,82.2,31.8,82.4,31.1,82.4z M31,81.1c0,0.1-0.1,0.2-0.2,0.2c-0.8,0-1.1,0.2-1.2,0.3
		c0.1,0.1,0.6,0.3,1.5,0.3s1.4-0.2,1.5-0.3c-0.1-0.1-0.5-0.3-1.4-0.3C31.1,81.3,31,81.2,31,81.1z"/>
	<path class="st6" d="M31.1,83.1c-1.1,0-2.5-0.2-3-0.7c-0.1-0.1-0.2-0.2-0.2-0.4c0-0.8,1.7-1.1,3.2-1.1s3.2,0.4,3.2,1.1
		c0,0.2,0,0.3-0.2,0.4C33.7,82.8,32.4,83.1,31.1,83.1z M31.1,81.4c-1.8,0-2.7,0.5-2.7,0.6c0,0,0,0.1,0.1,0.1
		c0.3,0.3,1.3,0.6,2.7,0.6c1.3,0,2.4-0.3,2.7-0.6l0.2-0.1h-0.2C33.9,81.8,32.9,81.4,31.1,81.4z M28.4,46.9c-0.1,0-0.1,0-0.2-0.1
		s-0.1-0.2,0-0.3c0,0,1.4-1.7,1.4-3.1c0-0.2-0.1-0.4-0.2-0.5c-0.3-0.2-0.8-0.3-1.4-0.3c-0.1,0-0.2-0.1-0.3-0.2
		c0-0.1,0.1-0.2,0.2-0.3c0.4,0,1.3,0,1.8,0.4c0.2,0.2,0.4,0.5,0.4,0.9c0,1.5-1.5,3.3-1.5,3.4C28.5,46.9,28.4,46.9,28.4,46.9z M12,46
		c-0.1,0-0.2-0.1-0.2-0.2s0.1-0.3,0.2-0.3c0.8-0.1,1.6-0.2,2.5-0.3c0.1,0,0.2,0.1,0.3,0.2c0,0.1-0.1,0.2-0.2,0.3
		C13.6,45.8,12.8,45.8,12,46z M15.1,45.6c-0.1,0-0.2-0.1-0.2-0.2s0.1-0.2,0.2-0.2c1-0.1,2-0.1,3.1-0.1c0.1,0,0.2,0.1,0.2,0.2
		s-0.1,0.2-0.2,0.2C17.1,45.6,16.1,45.6,15.1,45.6z M22.1,45.7c-1-0.1-2.1-0.1-3.2-0.1c-0.1,0-0.2-0.1-0.2-0.2s0.1-0.2,0.2-0.2
		c1.1,0,2.2,0.1,3.2,0.1c0.1,0,0.2,0.1,0.2,0.3C22.3,45.6,22.2,45.7,22.1,45.7z"/>
	<path class="st6" d="M18.3,48.9c-3.4,0-9.9-0.4-9.9-1.9c0-0.4,0.3-0.9,2.9-1.4c0.1,0,0.3,0.1,0.3,0.2s-0.1,0.3-0.2,0.3
		C8.9,46.5,8.8,47,8.8,47c0,0.5,3.2,1.4,9.4,1.4s9.4-0.9,9.4-1.4c0-0.1-0.3-0.5-1.9-0.8c-0.1,0-0.2-0.2-0.2-0.3s0.2-0.2,0.3-0.2
		c2.2,0.5,2.4,0.9,2.4,1.3C28.2,48.5,21.7,48.9,18.3,48.9z M25.2,46.1c-0.6-0.1-1.5-0.2-2.5-0.3c-0.1,0-0.2-0.1-0.2-0.3
		c0-0.1,0.1-0.2,0.3-0.2c1.1,0.1,2,0.2,2.5,0.3c0.1,0,0.2,0.1,0.2,0.3C25.4,46,25.3,46.1,25.2,46.1z M8.8,38.7L8.8,38.7
		c-0.2,0-0.7-0.4-0.7-0.9c0-0.4,0.1-0.6,0.1-0.8c0-0.2,0.1-0.3,0.1-0.6c0.1-0.1,0.2-0.2,0.3-0.2h0.2c0.2,0.1,0.3,0.2,0.4,0.3
		c0.2,0.2,0.4,0.3,0.6,0.7c0.3,0.4,0.1,1,0.1,1c0,0.1-0.2,0.2-0.3,0.1c-0.1,0-0.2-0.2-0.1-0.3s0.1-0.4,0-0.6
		c-0.2-0.2-0.4-0.3-0.6-0.5c0,0-0.1,0-0.1-0.1c0,0.1,0,0.2-0.1,0.3c0,0.2,0,0.4-0.1,0.7c0,0.2,0.3,0.4,0.4,0.4
		c0.1,0.1,0.1,0.2,0,0.3C9,38.6,8.9,38.7,8.8,38.7z"/>
	<path class="st6" d="M8.8,40.3c-0.5-0.1-1-1.2-0.9-1.7c0-0.3,0.3-0.5,0.7-0.5c0.3,0.1,0.5,0.1,0.7,0.2c0.1-0.1,0.2-0.3,0.4-0.6
		c0.3-0.3,0.6-0.3,0.8-0.1c0.4,0.4,0.6,1.6,0.3,1.9c-0.1,0.1-0.2,0.1-0.3,0c-0.1,0-0.1-0.2-0.1-0.3c0.1-0.1,0.1-0.6-0.1-1
		c0-0.2-0.1-0.3-0.1-0.3s-0.1,0-0.1,0.1c-0.4,0.5-0.4,0.7-0.4,0.7c0,0.1,0,0.2-0.2,0.3c-0.1,0-0.3,0-0.3-0.2c0,0-0.1-0.1-0.6-0.2
		H8.4c-0.1,0.4,0.3,1.2,0.5,1.2c0.1,0,0.2,0.1,0.2,0.3C9.1,40.2,9,40.3,8.8,40.3z"/>
	<path class="st6" d="M9.4,42C9.4,42,9.3,42,9.4,42c-0.5-0.1-1-1.2-0.9-1.7c0-0.3,0.3-0.5,0.7-0.5c0.3,0,0.5,0.1,0.7,0.2
		c0-0.1,0.1-0.3,0.3-0.6c0.3-0.3,0.7-0.3,0.8-0.1c0.5,0.4,0.6,1.6,0.3,1.9c-0.1,0.1-0.2,0.2-0.3,0.1c-0.1-0.1-0.1-0.3,0-0.4
		c0-0.1,0-0.6-0.1-1c-0.1-0.2-0.2-0.3-0.2-0.3s-0.1,0-0.1,0.1c-0.4,0.5-0.4,0.7-0.4,0.7c0,0.1,0,0.2-0.2,0.3c-0.1,0-0.3,0-0.3-0.2
		c0,0-0.1-0.1-0.6-0.2H8.9c-0.1,0.4,0.3,1.2,0.5,1.2c0.1,0,0.2,0.1,0.2,0.3C9.6,41.9,9.5,42,9.4,42z"/>
	<path class="st6" d="M9.9,43.7c-0.5-0.1-1-1.2-0.9-1.7c0-0.3,0.3-0.5,0.7-0.5c0.3,0,0.5,0.1,0.7,0.2c0.1-0.2,0.2-0.3,0.4-0.6
		c0.3-0.3,0.6-0.3,0.8-0.1c0.4,0.4,0.6,1.6,0.3,1.9c-0.1,0.1-0.2,0.1-0.3,0s-0.1-0.2,0-0.3c0.1-0.1,0.1-0.6-0.1-1l-0.3-0.3
		c0,0-0.1,0-0.1,0.1c-0.4,0.5-0.4,0.7-0.4,0.7c0,0.1,0,0.2-0.2,0.3c-0.1,0-0.3,0-0.3-0.2c0,0-0.1-0.1-0.6-0.2H9.4
		c0,0.4,0.4,1.2,0.5,1.2s0.2,0.1,0.2,0.3C10.1,43.6,10,43.7,9.9,43.7z"/>
	<path class="st6" d="M11.1,45.5c-1,0-1.6-1-1.6-1.7c0-0.4,0.3-0.7,0.6-0.7c0.3,0,0.5,0.1,0.7,0.1c0.1-0.1,0.2-0.3,0.5-0.5
		c0.5-0.3,1,0,1.2,0.7s0,1.6-0.9,2.1H11.1z M10.1,43.6c0,0-0.1,0-0.1,0.2c0,0.6,0.6,1.4,1.4,1.2c0.6-0.3,0.8-1,0.6-1.5
		c-0.1-0.3-0.2-0.5-0.3-0.5h-0.1c-0.5,0.4-0.4,0.6-0.4,0.6c0,0.1,0,0.3-0.1,0.3c-0.1,0-0.2,0-0.3-0.1C10.7,43.8,10.7,43.6,10.1,43.6
		z"/>
	<path class="st6" d="M12.8,48.6c-0.1,0-0.2-0.1-0.2-0.2l-1.1-3.3c0-0.1,0-0.3,0.1-0.3s0.3,0,0.3,0.1l1.1,3.3
		C13.1,48.4,13,48.5,12.8,48.6C12.9,48.6,12.9,48.6,12.8,48.6z M12.1,48.5c-0.1,0-0.2-0.1-0.2-0.2l-1-2.9c0-0.1,0-0.3,0.2-0.3
		c0.1,0,0.3,0,0.3,0.2l0.9,2.9C12.3,48.3,12.2,48.4,12.1,48.5z M13.2,36.4c-0.1,0-0.1,0-0.2-0.1c-0.1,0-0.5-0.5-0.4-1
		c0.1-0.4,0.2-0.6,0.3-0.8c0.1-0.1,0.1-0.3,0.2-0.6c0-0.1,0.1-0.1,0.2-0.2c0.1,0,0.2,0,0.2,0.1c0.1,0.2,0.2,0.3,0.3,0.4
		c0.2,0.2,0.4,0.4,0.5,0.8c0.2,0.4-0.1,1-0.1,1c0,0.3-0.1,0.3-0.2,0.2c-0.1-0.1-0.1-0.2-0.1-0.3c0.1-0.1,0.2-0.4,0.1-0.6
		c-0.2-0.3-0.3-0.5-0.5-0.7l-0.1-0.1c0,0.1-0.1,0.2-0.1,0.2c-0.1,0.2-0.2,0.4-0.2,0.7c0,0.2,0.2,0.4,0.2,0.5c0.1,0.1,0.1,0.2,0,0.3
		C13.3,36.4,13.3,36.4,13.2,36.4z"/>
	<path class="st6" d="M12.9,38C12.8,38,12.8,38,12.9,38c-0.5-0.2-0.9-1.3-0.6-1.9c0.1-0.3,0.4-0.5,0.8-0.3c0.3,0.1,0.5,0.2,0.6,0.3
		l0.5-0.5c0.4-0.3,0.7-0.1,0.9,0.1c0.3,0.5,0.3,1.7-0.1,2c-0.1,0.1-0.3,0.1-0.3,0c-0.1-0.1-0.1-0.3,0-0.3c0.1-0.1,0.2-1.1,0-1.3
		c0,0,0-0.1-0.2,0C14,36.4,14,36.6,14,36.6c0,0.1-0.1,0.2-0.2,0.2c-0.1,0-0.2-0.1-0.3-0.2c0,0-0.1-0.1-0.6-0.3c-0.1-0.1-0.2,0-0.2,0
		c-0.2,0.3,0.1,1.2,0.3,1.3c0.1,0,0.2,0.2,0.1,0.3C13,37.9,12.9,38,12.9,38z"/>
	<path class="st6" d="M13.1,39.8C13,39.8,13,39.8,13.1,39.8c-0.5-0.2-0.9-1.3-0.6-1.9c0.1-0.3,0.4-0.5,0.8-0.3
		c0.3,0.1,0.5,0.2,0.6,0.3l0.5-0.5c0.4-0.3,0.7-0.1,0.9,0.1c0.3,0.5,0.3,1.7-0.1,2c-0.1,0.1-0.3,0.1-0.3-0.1c-0.1-0.1-0.1-0.3,0-0.3
		c0.1-0.2,0.2-1.1,0-1.3c0,0,0-0.1-0.2,0c-0.5,0.3-0.5,0.5-0.5,0.5c0,0.1-0.1,0.2-0.2,0.2c-0.1,0-0.2-0.1-0.3-0.2
		c0,0-0.1-0.1-0.6-0.3c-0.2-0.1-0.2,0-0.2,0c-0.2,0.4,0.1,1.2,0.3,1.3c0.1,0.1,0.2,0.2,0.1,0.3C13.2,39.7,13.2,39.8,13.1,39.8z"/>
	<path class="st6" d="M13.3,41.6C13.2,41.6,13.2,41.6,13.3,41.6c-0.5-0.2-0.9-1.3-0.6-1.9c0-0.3,0.3-0.5,0.7-0.3
		c0.3,0.1,0.5,0.2,0.6,0.3l0.5-0.5c0.4-0.3,0.7-0.1,0.9,0.1c0.3,0.5,0.3,1.7-0.1,1.9c0,0.1-0.2,0.1-0.3,0s-0.1-0.3,0-0.3
		c0.1-0.2,0.2-1.1,0-1.3c0,0,0-0.1-0.2,0c-0.4,0.4-0.4,0.6-0.4,0.6c0,0.1-0.1,0.2-0.2,0.2s-0.2-0.1-0.3-0.2c0,0-0.1-0.1-0.6-0.3
		c-0.2-0.1-0.2,0-0.2,0c-0.2,0.3,0.1,1.2,0.3,1.3c0.1,0,0.2,0.2,0.1,0.3C13.5,41.5,13.4,41.6,13.3,41.6z"/>
	<path class="st6" d="M14.5,43.6c-1.1,0-1.7-1.1-1.7-1.8c0-0.2,0-0.4,0.1-0.5c0.1-0.2,0.4-0.3,0.7-0.3c0.3,0.1,0.5,0.2,0.7,0.3
		c0.1-0.1,0.3-0.3,0.6-0.4c0.5-0.2,1,0.2,1.1,0.8c0.1,0.7-0.3,1.7-1.3,1.9C14.7,43.6,14.5,43.6,14.5,43.6z M13.4,41.5
		c-0.1,0-0.1,0-0.1,0.1s-0.1,0.2-0.1,0.3c0,0.5,0.4,1.3,1.2,1.3h0.1c0.7-0.2,1-0.9,0.9-1.4c0-0.3-0.2-0.5-0.4-0.5
		c-0.4,0.2-0.5,0.4-0.5,0.5s-0.1,0.2-0.2,0.3c-0.1,0-0.2-0.1-0.3-0.2C14.1,41.8,14,41.6,13.4,41.5C13.5,41.5,13.4,41.5,13.4,41.5z
		 M15.5,48.8c-0.1,0-0.2-0.1-0.2-0.2l-0.6-5.2c0-0.1,0.1-0.2,0.2-0.3c0.1,0,0.2,0.1,0.3,0.2l0.6,5.2C15.7,48.7,15.6,48.8,15.5,48.8z
		 M14.8,48.7c-0.1,0-0.2-0.1-0.2-0.2L14,43.4c0-0.1,0.1-0.2,0.2-0.3c0.1,0,0.2,0.1,0.3,0.2l0.6,5.1C15,48.6,14.9,48.7,14.8,48.7z
		 M18.1,35.9c-0.1,0-0.1,0-0.2-0.1c-0.1-0.1-0.5-0.5-0.3-1c0.1-0.3,0.3-0.5,0.4-0.7c0.1-0.1,0.2-0.3,0.3-0.5c0-0.1,0.1-0.1,0.2-0.1
		c0.1,0,0.2,0,0.2,0.1c0.1,0.2,0.2,0.3,0.3,0.4c0.2,0.2,0.3,0.4,0.5,0.9s-0.3,1-0.3,1c-0.1,0.1-0.2,0.1-0.3,0s-0.1-0.2,0-0.3
		c0.1-0.1,0.3-0.4,0.2-0.5c-0.1-0.5-0.2-0.6-0.4-0.9l-0.1-0.1c-0.1,0.1-0.1,0.2-0.2,0.2c-0.1,0.2-0.2,0.3-0.4,0.6
		c-0.1,0.2,0.1,0.4,0.2,0.5c0.1,0.1,0.1,0.2,0,0.3C18.2,35.9,18.1,35.9,18.1,35.9z"/>
	<path class="st6" d="M17.5,37.4h-0.1c-0.4-0.2-0.7-1.3-0.4-1.9c0.1-0.3,0.4-0.5,0.9-0.2c0.3,0.2,0.5,0.3,0.7,0.4
		c0.1-0.1,0.3-0.3,0.7-0.4c0.5-0.2,0.8,0,0.9,0.2c0.3,0.5,0,1.7-0.4,1.9c-0.1,0.1-0.3,0-0.3-0.1c-0.1-0.1,0-0.3,0.1-0.3
		c0.2-0.1,0.4-0.9,0.2-1.3c0,0-0.1-0.1-0.3,0c-0.6,0.3-0.7,0.5-0.7,0.5c0,0.1-0.1,0.2-0.2,0.2c-0.1,0-0.2-0.1-0.2-0.2
		c0,0-0.1-0.1-0.6-0.4c-0.2-0.1-0.2,0-0.3,0c-0.2,0.3,0,1.2,0.2,1.3c0.1,0.1,0.2,0.2,0.1,0.3C17.8,37.4,17.5,37.4,17.5,37.4z"/>
	<path class="st6" d="M17.5,39.2h-0.1C17,39,16.7,37.9,17,37.3c0.1-0.3,0.4-0.5,0.9-0.2c0.3,0.2,0.5,0.3,0.7,0.4
		c0.1-0.1,0.3-0.3,0.7-0.4c0.3-0.2,0.6-0.1,0.7,0c0.2,0.2,0.3,0.5,0.3,1c0,0.3-0.1,1-0.5,1.2c-0.1,0.1-0.3,0-0.3-0.1
		c-0.1-0.1,0-0.3,0.1-0.3c0.2-0.1,0.4-0.9,0.2-1.3c0,0-0.1-0.1-0.3,0c-0.6,0.3-0.7,0.5-0.7,0.5c0,0.1-0.1,0.2-0.2,0.2
		c-0.1,0-0.2-0.1-0.2-0.2c0,0-0.1-0.1-0.6-0.4c-0.2-0.1-0.2,0-0.3,0c-0.2,0.3,0,1.2,0.2,1.3c0.1,0.1,0.2,0.2,0.1,0.3
		C17.7,39.2,17.6,39.2,17.5,39.2z"/>
	<path class="st6" d="M17.5,41h-0.1c-0.4-0.2-0.7-1.4-0.4-1.9c0.1-0.3,0.4-0.5,0.9-0.2c0.3,0.2,0.5,0.3,0.7,0.4
		c0.1-0.1,0.3-0.3,0.7-0.4c0.5-0.2,0.8,0,0.9,0.2c0.3,0.5,0,1.7-0.4,1.9c-0.1,0.1-0.3,0-0.3-0.1c-0.1-0.1,0-0.3,0.1-0.3
		c0.2-0.1,0.4-0.9,0.2-1.3c0,0-0.1-0.1-0.3,0c-0.6,0.3-0.7,0.5-0.7,0.5c0,0.1-0.1,0.2-0.2,0.2c-0.1,0-0.2-0.1-0.2-0.3
		c0,0-0.1-0.2-0.6-0.4c-0.2-0.1-0.2,0-0.3,0c-0.2,0.3,0,1.2,0.2,1.3c0.1,0.1,0.2,0.2,0.1,0.3C17.6,41,17.6,41,17.5,41z"/>
	<path class="st6" d="M18.6,43.3c-1.2-0.1-1.7-1.2-1.7-1.9c0-0.6,0.4-1,1-0.8c0.3,0.1,0.6,0.2,0.7,0.4c0.1-0.1,0.4-0.3,0.7-0.4
		c0.5-0.1,1,0.2,1,0.9C20.3,42.2,19.8,43.1,18.6,43.3z M17.6,41c-0.2,0-0.2,0.3-0.2,0.4c0,0.5,0.4,1.3,1.2,1.4
		c1-0.1,1.3-0.9,1.2-1.3c0-0.2-0.1-0.5-0.4-0.4c-0.5,0.1-0.6,0.3-0.6,0.4s-0.1,0.2-0.2,0.2c-0.1,0-0.2-0.1-0.2-0.2v-0.1
		c0,0-0.1-0.2-0.6-0.4H17.6z"/>
	<path class="st6" d="M18.9,48.8c-0.1,0-0.2-0.1-0.2-0.2V43c0-0.1,0.1-0.2,0.2-0.2c0.1,0,0.2,0.1,0.2,0.2v5.6
		C19.2,48.7,19,48.8,18.9,48.8z M18.2,48.8c-0.1,0-0.2-0.1-0.2-0.2v-5.7c0-0.1,0.1-0.2,0.2-0.2s0.2,0.1,0.2,0.2v5.7
		C18.4,48.7,18.3,48.8,18.2,48.8z M28.3,38.7c-0.1,0-0.2,0-0.2-0.1c-0.1-0.1,0-0.3,0.1-0.3c0.1-0.1,0.3-0.3,0.3-0.4
		c0-0.3-0.1-0.5-0.1-0.7c0-0.1,0-0.2-0.1-0.3L28.2,37c-0.2,0.2-0.4,0.3-0.6,0.6c-0.1,0.1,0,0.4,0,0.6c0,0.1,0,0.3-0.1,0.3
		s-0.3,0-0.3-0.1s-0.2-0.6,0.1-1c0.3-0.3,0.4-0.5,0.7-0.7c0.1-0.1,0.2-0.2,0.4-0.3c0.1-0.1,0.2-0.1,0.2,0c0.1,0,0.1,0.1,0.2,0.2
		c0,0.3,0.1,0.5,0.1,0.6c0,0,0.1,0.2,0.1,0.6c0,0.5-0.5,0.8-0.5,0.9C28.4,38.6,28.4,38.7,28.3,38.7z M28.4,40.3
		c-0.1,0-0.2-0.1-0.2-0.2s0.1-0.3,0.2-0.3c0.2-0.1,0.6-0.8,0.5-1.2c0,0,0-0.1-0.2,0c-0.6,0.1-0.7,0.2-0.7,0.2c0,0.1-0.2,0.2-0.3,0.1
		c-0.1,0-0.2-0.2-0.1-0.3c0,0,0-0.2-0.4-0.6c-0.1,0-0.2-0.1-0.2-0.1l-0.2,0.2c-0.2,0.4-0.2,0.9-0.1,1c0.1,0.1,0.1,0.2,0,0.3
		c-0.1,0.1-0.3,0.1-0.3,0c-0.3-0.3-0.1-1.6,0.3-1.9c0.2-0.2,0.5-0.2,0.8,0.1c0.2,0.2,0.3,0.4,0.4,0.6c0.2,0,0.4,0,0.7-0.1
		c0.4-0.1,0.7,0.1,0.7,0.5C29.4,39.1,28.9,40.2,28.4,40.3z M27.8,42c-0.1,0-0.2-0.1-0.2-0.2s0.1-0.3,0.2-0.3
		c0.2-0.1,0.6-0.8,0.5-1.2c0,0,0-0.1-0.2,0c-0.5,0.1-0.7,0.2-0.7,0.2c0,0.1-0.2,0.2-0.3,0.1c-0.1,0-0.1-0.1-0.1-0.3
		c0,0,0-0.2-0.4-0.6l-0.1-0.1c0,0-0.1,0.1-0.2,0.3c-0.2,0.4-0.2,0.9-0.1,1c0.1,0.1,0.1,0.2,0,0.3c-0.1,0.1-0.3,0.1-0.3,0
		c-0.3-0.4-0.1-1.6,0.3-1.9c0.2-0.2,0.5-0.2,0.8,0.1c0.2,0.2,0.3,0.4,0.4,0.6c0.1-0.1,0.4-0.1,0.7-0.2c0.5-0.1,0.7,0.2,0.7,0.5
		C28.8,40.8,28.3,41.9,27.8,42C27.9,42,27.8,42,27.8,42z M27.3,43.7c-0.1,0-0.2-0.1-0.2-0.2s0.1-0.3,0.2-0.3
		c0.2-0.1,0.6-0.9,0.5-1.2c0,0,0-0.1-0.2,0c-0.6,0.1-0.7,0.2-0.7,0.2c0,0.1-0.2,0.2-0.3,0.1c-0.1,0-0.2-0.2-0.2-0.3
		c0,0,0-0.2-0.4-0.6v-0.1c0,0-0.1,0.1-0.2,0.3c-0.2,0.4-0.2,0.9-0.1,1c0.1,0.1,0.1,0.2,0,0.3c-0.1,0.1-0.3,0.1-0.3,0
		c-0.3-0.4-0.1-1.6,0.3-1.9c0.2-0.2,0.5-0.2,0.8,0.1c0.2,0.2,0.3,0.4,0.4,0.6c0.1-0.1,0.4-0.1,0.7-0.2c0.4-0.1,0.7,0.2,0.7,0.5
		C28.3,42.5,27.8,43.6,27.3,43.7z"/>
	<path class="st6" d="M26.1,45.5c-0.1,0-0.3,0-0.4-0.1c-0.9-0.5-1.1-1.4-1-2.1c0.2-0.7,0.8-1,1.2-0.7c0.3,0.2,0.4,0.4,0.5,0.5
		c0.2-0.1,0.4-0.1,0.7-0.1s0.4,0.1,0.5,0.2s0.2,0.3,0.2,0.5C27.7,44.5,27.1,45.5,26.1,45.5z M25.5,43c-0.1,0-0.3,0.2-0.3,0.5
		c-0.1,0.5,0,1.2,0.7,1.5h0.2c0.6,0,1.1-0.7,1.1-1.2v-0.2h-0.1c-0.4,0-0.6,0.1-0.6,0.2s-0.2,0.2-0.3,0.1c-0.1,0-0.2-0.1-0.2-0.3
		v-0.1C26,43.5,26,43.3,25.5,43C25.6,43,25.5,43,25.5,43z"/>
	<path class="st6" d="M24.5,48.5C24.4,48.5,24.4,48.5,24.5,48.5c-0.2-0.1-0.3-0.2-0.2-0.3l1-3.2c0-0.1,0.2-0.2,0.3-0.2
		s0.2,0.2,0.2,0.3l-1,3.2C24.6,48.4,24.6,48.5,24.5,48.5z M25.2,48.4C25.1,48.4,25.1,48.4,25.2,48.4c-0.2,0-0.3-0.2-0.2-0.3l0.8-2.9
		c0-0.1,0.2-0.2,0.3-0.2s0.2,0.2,0.2,0.3l-0.9,2.9C25.4,48.3,25.3,48.4,25.2,48.4z M24,36.4c-0.1,0-0.1,0-0.2-0.1
		c-0.1-0.1-0.1-0.2,0-0.3c0.1-0.1,0.3-0.3,0.2-0.5c0-0.3-0.1-0.5-0.1-0.7c0-0.1-0.1-0.1-0.1-0.2l-0.1,0.1c-0.2,0.2-0.3,0.4-0.5,0.7
		c-0.1,0.2,0.1,0.4,0.1,0.5c0.1,0.1,0,0.3-0.1,0.3c-0.1,0.1-0.3,0-0.3-0.1s-0.4-0.6-0.2-1s0.3-0.6,0.6-0.8c0.1-0.1,0.2-0.2,0.3-0.4
		c0.1-0.1,0.1-0.1,0.2-0.1c0.1,0,0.2,0.1,0.2,0.2c0.1,0.3,0.2,0.4,0.2,0.6c0.1,0.2,0.2,0.4,0.3,0.8C24.6,35.9,24.2,36.3,24,36.4
		C24.1,36.4,24,36.4,24,36.4z"/>
	<path class="st6" d="M24.3,38c-0.1,0-0.2-0.1-0.2-0.2s0-0.3,0.1-0.3c0.2-0.1,0.4-0.9,0.3-1.3c0,0,0-0.1-0.2,0
		c-0.5,0.2-0.6,0.4-0.6,0.4c0,0.1-0.1,0.2-0.3,0.2c-0.1,0-0.2-0.1-0.2-0.3c0,0-0.1-0.2-0.5-0.5c-0.1-0.1-0.2-0.1-0.2,0
		c-0.2,0.2-0.2,1.2,0,1.3c0.1,0.1,0.1,0.2,0,0.3c-0.1,0.1-0.2,0.1-0.3,0c-0.4-0.3-0.4-1.5-0.1-2c0.2-0.2,0.5-0.4,0.8-0.1
		c0.3,0.2,0.4,0.3,0.5,0.5c0.1-0.1,0.3-0.2,0.6-0.3c0.4-0.2,0.7,0,0.8,0.3C25.2,36.7,24.9,37.8,24.3,38C24.4,38,24.4,38,24.3,38z"/>
	<path class="st6" d="M24.1,39.8c-0.1,0-0.2-0.1-0.2-0.1c-0.1-0.1,0-0.3,0.1-0.3c0.2-0.1,0.4-1,0.3-1.3c0,0,0-0.1-0.2,0
		c-0.5,0.2-0.6,0.4-0.6,0.4c0,0.1-0.1,0.2-0.3,0.2c-0.1,0-0.2-0.1-0.2-0.3c0,0-0.1-0.2-0.5-0.5c-0.1-0.1-0.2-0.1-0.2,0
		c-0.2,0.2-0.2,1.2,0,1.3c0.1,0.1,0.1,0.2,0,0.3c-0.1,0.1-0.2,0.1-0.3,0.1c-0.4-0.3-0.4-1.5-0.1-2c0.2-0.2,0.5-0.4,0.9-0.1
		c0.3,0.2,0.4,0.3,0.5,0.5c0.1-0.1,0.3-0.2,0.6-0.3c0.4-0.2,0.7,0,0.8,0.3C25,38.4,24.7,39.6,24.1,39.8
		C24.2,39.8,24.2,39.8,24.1,39.8z M23.9,41.6c-0.1,0-0.2-0.1-0.2-0.2s0-0.3,0.1-0.3c0.2-0.1,0.4-1,0.3-1.3c0,0,0-0.1-0.2,0
		c-0.5,0.2-0.6,0.4-0.6,0.4c0,0.1-0.1,0.2-0.3,0.2c-0.1,0-0.2-0.1-0.2-0.3c0,0-0.1-0.2-0.5-0.5c-0.1-0.1-0.2-0.1-0.2,0
		c-0.2,0.2-0.2,1.2,0,1.3c0.1,0.1,0.1,0.2,0.1,0.3c-0.1,0.1-0.2,0.1-0.3,0.1c-0.4-0.3-0.4-1.5-0.1-1.9c0.2-0.2,0.5-0.4,0.9-0.1
		c0.3,0.2,0.4,0.3,0.5,0.5c0.1-0.1,0.3-0.2,0.6-0.3c0.4-0.2,0.7,0,0.8,0.3C24.8,40.2,24.4,41.4,23.9,41.6C24,41.6,24,41.6,23.9,41.6
		z"/>
	<path class="st6" d="M22.7,43.6h-0.1c-1.1-0.3-1.5-1.2-1.4-1.9c0.1-0.7,0.6-1,1.1-0.8c0.3,0.1,0.5,0.3,0.6,0.4
		c0.1-0.1,0.3-0.2,0.7-0.3c0.5-0.1,0.8,0.2,0.8,0.8C24.4,42.6,23.8,43.6,22.7,43.6z M22,41.3c-0.1,0-0.3,0.2-0.3,0.5
		c-0.1,0.5,0.2,1.2,1,1.4c0.8,0,1.2-0.9,1.2-1.3c0-0.1,0-0.4-0.2-0.3c-0.5,0.1-0.6,0.3-0.6,0.3c0,0.1-0.2,0.2-0.3,0.2
		s-0.2-0.1-0.2-0.2s-0.1-0.3-0.5-0.5C22.1,41.3,22.1,41.3,22,41.3z M21.7,48.8c-0.2,0-0.3-0.1-0.2-0.3l0.6-5.2
		c0-0.1,0.1-0.2,0.3-0.2c0.1,0,0.2,0.1,0.2,0.3L22,48.5C22,48.7,21.9,48.8,21.7,48.8z M22.4,48.7c-0.2,0-0.3-0.1-0.2-0.3l0.6-5.1
		c0-0.1,0.1-0.2,0.3-0.2c0.1,0,0.2,0.1,0.2,0.3l-0.6,5.1C22.6,48.6,22.5,48.7,22.4,48.7z"/>
	<path class="st6" d="M18.3,51c-5.4,0-10.4-1.5-10.4-2.7c0-0.1,0.1-0.2,0.2-0.2s0.2,0.1,0.2,0.2c0,0.5,4.1,2.2,9.9,2.2
		s9.9-1.7,9.9-2.3c0-0.1,0.1-0.2,0.2-0.2c0.1,0,0.2,0.1,0.2,0.2C28.7,49.5,23.7,51,18.3,51z M18.3,53.2c-5.3,0-10.1-1.5-10.1-2.7
		c0-0.1,0.1-0.2,0.2-0.2s0.2,0.1,0.2,0.2c0,0.6,3.9,2.3,9.6,2.3c5.2,0,9-1.4,9.6-2.2c0.1-0.1,0.2-0.1,0.3-0.1
		c0.1,0.1,0.1,0.2,0.1,0.3C27.6,51.8,23.4,53.2,18.3,53.2z M18.3,55.4c-5.3,0-9.6-1.5-9.6-2.7c0-0.1,0.1-0.2,0.2-0.2
		s0.2,0.1,0.2,0.2c0,0.5,3.2,2.2,9.1,2.2c5,0,8.5-1.1,9.1-1.9c0.1-0.1,0.2-0.1,0.3-0.1c0.1,0.1,0.1,0.2,0.1,0.3
		C27.1,54.3,23.3,55.4,18.3,55.4z M18.3,57.6c-4.7,0-7.7-1.1-8.5-2.1c-0.1-0.1-0.1-0.3,0-0.3c0.1-0.1,0.2-0.1,0.3,0
		c0.6,0.7,3.4,1.9,8.1,1.9c4.8,0,7.9-1.2,8.4-2.1c0.1-0.1,0.2-0.1,0.3-0.1C27,55,27,55.1,27,55.2C26.6,56.3,23.4,57.6,18.3,57.6z"/>
	<path class="st6" d="M17.8,59.4c-1,0-1.8-0.7-2-8.7c0-0.1,0.1-0.2,0.2-0.2c0.1,0,0.2,0.1,0.2,0.2c0.2,7.2,0.9,8.2,1.6,8.2
		c0.1,0,0.2,0.1,0.2,0.2C18,59.3,17.9,59.4,17.8,59.4z M15.7,59.3c-1.9-0.6-2.8-1.9-3.3-9.1c0-0.1,0.1-0.2,0.2-0.3
		c0.1,0,0.2,0.1,0.3,0.2c0.5,6.8,1.3,8.1,2.9,8.6c0.1,0,0.2,0.2,0.2,0.3C15.9,59.2,15.8,59.3,15.7,59.3z M13.1,58.7L13.1,58.7
		c-2-1.3-2.7-5-3.2-8.2l-0.2-0.9c0-0.1,0.1-0.3,0.2-0.3s0.3,0.1,0.3,0.2l0.2,0.9c0.6,3.2,1.2,6.7,2.9,7.9c0.1,0.1,0.1,0.2,0.1,0.3
		C13.2,58.7,13.1,58.7,13.1,58.7z M18.8,59.4c-0.1,0-0.2-0.1-0.2-0.2s0.1-0.2,0.2-0.3c0.6,0,1.4-0.1,1.3-8.2c0-0.1,0.1-0.2,0.2-0.2
		c0.1,0,0.2,0.1,0.2,0.2C20.7,58.7,19.9,59.3,18.8,59.4z M20.7,59.3c-0.1,0-0.2-0.1-0.2-0.2s0-0.3,0.2-0.3c2.2-0.6,2.8-1.5,3.3-8.7
		c0-0.1,0.1-0.3,0.3-0.2c0.1,0,0.2,0.1,0.2,0.3C23.9,57.3,23.4,58.6,20.7,59.3z"/>
	<path class="st6" d="M23.4,58.9c-0.1,0-0.2-0.1-0.2-0.2s0-0.3,0.1-0.3c1.8-0.7,2.9-3.6,3.5-9.1c0-0.1,0.1-0.2,0.3-0.2
		c0.1,0,0.2,0.1,0.2,0.3C26.7,55.2,25.5,58.1,23.4,58.9z M8.2,46.9c-0.1,0-0.1,0-0.2-0.1c-0.1-0.1-1.5-1.9-1.5-3.4
		c0-0.5,0.2-0.8,0.6-1.1c0.8-0.4,2.1-0.2,2.3-0.1c0.1,0.1,0.1,0.2,0.1,0.3c-0.1,0.2-0.2,0.3-0.3,0.2c-0.2-0.1-1.3-0.2-1.9,0.1
		c-0.2,0.1-0.4,0.4-0.4,0.6c0,1.3,1.4,3.1,1.4,3.1c0.1,0.1,0.1,0.3,0,0.3C8.3,46.9,8.2,46.9,8.2,46.9z"/>
	<path class="st6" d="M9.2,46.6c-0.1,0-0.2,0-0.2-0.1c-0.5-0.7-1.6-2.3-1.5-2.9c0-0.1,0.1-0.2,0.2-0.3h0.1c0.5-0.2,0.8-0.3,2,0.1
		c0.1,0,0.2,0.2,0.2,0.3c0,0.1-0.2,0.2-0.3,0.2c-1.1-0.4-1.2-0.3-1.7-0.2c0,0.3,0.6,1.5,1.4,2.6C9.5,46.4,9.5,46.6,9.2,46.6
		C9.3,46.6,9.2,46.6,9.2,46.6z M27.5,46.7h-0.1c-0.1-0.1-0.1-0.2-0.1-0.3c0.8-1.2,1.4-2.4,1.3-2.6c-0.1-0.1-0.5-0.3-1.1-0.1
		c-0.1,0-0.3,0-0.3-0.2c0-0.1,0-0.3,0.2-0.3c0.7-0.2,1.3-0.1,1.6,0.3c0.4,0.5-0.6,2.2-1.3,3.2H27.5z"/>
	<path class="st6" d="M18.3,59.4c-5.4,0-6.7-1.2-7.8-2.6c-0.4-0.5-2.4-3.5-2.7-9.9c0-0.2,0-0.3,0.1-0.4c0.1-0.1,0.2-0.1,0.3,0
		c0.1,0.1,0.1,0.2,0,0.3v0.1c0.3,6.2,2.2,9.1,2.6,9.6c0.8,1.1,1.8,2.4,7.4,2.4c4.7,0,6-0.7,7.1-1.6c1-0.8,2.4-4.4,2.9-10.4l-0.1-0.1
		c-0.1-0.1-0.1-0.2,0-0.3c0.1-0.1,0.2-0.1,0.3,0s0.3,0.3,0.3,0.5c-0.5,5.4-1.7,9.7-3.1,10.8C24.6,58.6,23.2,59.4,18.3,59.4z
		 M8.4,38.1c-0.1,0-0.2,0-0.2-0.1C8,37.5,7.6,37,7,37c-0.1,0-0.2-0.1-0.3-0.2c0-0.1,0.1-0.2,0.2-0.3c0.5-0.1,1.2,0.1,1.7,1.2
		c0.1,0.1,0,0.3-0.1,0.3C8.5,38.1,8.4,38.1,8.4,38.1z M8.6,36.9c-0.1,0-0.2-0.1-0.2-0.2c0,0-0.3-1.1-1-1.2c-0.1,0-0.2-0.1-0.2-0.3
		c0-0.1,0.1-0.2,0.3-0.2c1,0.1,1.4,1.5,1.5,1.5C8.9,36.7,8.8,36.9,8.6,36.9C8.7,36.9,8.7,36.9,8.6,36.9z M8.7,36.6
		c-0.1,0-0.2,0-0.2-0.1c0,0-0.5-0.8-0.1-1.7c0.1-0.1,0.2-0.2,0.3-0.1c0.1,0.1,0.2,0.2,0.1,0.3c-0.3,0.7,0,1.2,0,1.2
		c0.1,0.1,0,0.3-0.1,0.3C8.7,36.5,8.7,36.6,8.7,36.6z M8.4,38.6c-0.1,0-0.2-0.1-0.2-0.2c0,0-0.1-0.2-0.7-0.4c-0.1,0-0.2-0.2-0.2-0.3
		c0-0.1,0.2-0.2,0.3-0.2c1,0.3,1.1,0.7,1.1,0.8S8.6,38.6,8.4,38.6C8.5,38.6,8.5,38.6,8.4,38.6z M9.6,37.5c-0.1,0-0.2-0.1-0.2-0.2
		c0,0-0.3-0.9,0.4-1.7c0.1-0.1,0.2-0.1,0.3,0c0.1,0.1,0.1,0.2,0,0.3c-0.4,0.7-0.3,1.3-0.2,1.3C9.9,37.3,9.8,37.5,9.6,37.5
		C9.7,37.5,9.7,37.5,9.6,37.5z M12.9,35.8c-0.1,0-0.2-0.1-0.2-0.2c0,0-0.4-1.1-1.1-1.1c-0.1,0-0.2-0.1-0.2-0.2s0.1-0.2,0.2-0.2
		c1,0,1.5,1.3,1.6,1.4C13.2,35.6,13.1,35.7,12.9,35.8C13,35.8,13,35.8,12.9,35.8z M13.4,34.5c-0.1,0-0.2-0.1-0.2-0.2
		c0,0-0.2-1.1-0.9-1.3c-0.1,0-0.2-0.1-0.2-0.3c0-0.1,0.1-0.2,0.3-0.2c1,0.2,1.3,1.6,1.3,1.6C13.6,34.4,13.5,34.5,13.4,34.5z"/>
	<path class="st6" d="M13.4,34.3c-0.1,0-0.2,0-0.2-0.1c0,0-0.4-0.8,0.1-1.7c0.1-0.1,0.2-0.1,0.3-0.1c0.1,0.1,0.1,0.2,0.1,0.3
		c-0.4,0.6-0.1,1.2-0.1,1.2c0.1,0.1,0,0.3-0.1,0.3C13.5,34.3,13.4,34.3,13.4,34.3z M12.9,36.3c-0.1,0-0.2-0.1-0.2-0.2
		c0,0-0.1-0.2-0.7-0.5c-0.1,0-0.2-0.2-0.1-0.3c0.1-0.1,0.1-0.2,0.2-0.1c0.9,0.3,1,0.7,1,0.9C13.1,36.2,13,36.3,12.9,36.3z
		 M14.2,35.3c-0.1,0-0.2-0.1-0.2-0.2c0,0-0.2-0.9,0.6-1.6c0.1-0.1,0.2-0.1,0.3,0s0.1,0.2,0,0.3c-0.6,0.5-0.4,1.2-0.4,1.2
		C14.4,35.2,14.3,35.3,14.2,35.3z M17.9,35.2c-0.1,0-0.2-0.1-0.2-0.2c0,0-0.2-1.1-0.9-1.3c-0.1,0-0.2-0.1-0.2-0.3
		c0-0.1,0.1-0.2,0.3-0.2c1,0.2,1.3,1.6,1.3,1.7C18.1,35,18,35.2,17.9,35.2z M18.5,34.1c-0.1,0-0.2-0.1-0.2-0.2c0,0,0-1.2-0.7-1.4
		c-0.1-0.1-0.2-0.2-0.1-0.3c0-0.1,0.2-0.2,0.3-0.1c1,0.4,1,1.8,1,1.9C18.7,34,18.6,34.1,18.5,34.1z"/>
	<path class="st6" d="M18.6,33.8c-0.1,0-0.2-0.1-0.2-0.2c0,0-0.3-0.9,0.4-1.6c0.1-0.1,0.2-0.1,0.3,0s0.1,0.2,0,0.3
		c-0.5,0.6-0.3,1.2-0.3,1.2C18.9,33.6,18.8,33.8,18.6,33.8z M17.7,35.6c-0.2,0-0.2-0.1-0.2-0.3c0,0,0-0.3-0.6-0.6
		c-0.1-0.1-0.1-0.2-0.1-0.3c0.1-0.1,0.2-0.1,0.3-0.1c0.9,0.5,0.8,1,0.8,1.1S17.8,35.6,17.7,35.6z M19.2,34.9c-0.1,0-0.2-0.1-0.2-0.2
		c0,0,0-0.9,0.9-1.5c0.1-0.1,0.3,0,0.3,0.1c0.1,0.1,0,0.3-0.1,0.3c-0.7,0.4-0.7,1-0.7,1C19.4,34.8,19.3,34.9,19.2,34.9z M28.7,38.2
		h-0.1c-0.1-0.1-0.2-0.2-0.1-0.3c0-0.1,0.7-1.2,1.8-1c0.1,0,0.2,0.1,0.2,0.3c0,0.1-0.1,0.2-0.3,0.2c-0.7-0.1-1.3,0.8-1.3,0.8
		C28.9,38.1,28.8,38.2,28.7,38.2z M28.5,36.9C28.5,36.9,28.5,36.8,28.5,36.9c-0.2-0.1-0.3-0.2-0.2-0.3c0-0.1,0.5-1.4,1.6-1.4
		c0.1,0,0.2,0.1,0.2,0.2s-0.1,0.2-0.2,0.2c-0.7,0-1.1,1.1-1.1,1.1C28.7,36.8,28.6,36.9,28.5,36.9z"/>
	<path class="st6" d="M28.5,36.6c-0.1,0-0.1,0-0.1-0.1c-0.1-0.1-0.1-0.2,0-0.3c0,0,0.4-0.5,0.1-1.2c0-0.1,0-0.3,0.1-0.3
		s0.3,0,0.3,0.1c0.4,1-0.2,1.7-0.2,1.7C28.7,36.6,28.6,36.6,28.5,36.6z M28.7,38.7c-0.2,0-0.3-0.2-0.2-0.3c0-0.1,0.2-0.5,1.1-0.7
		c0.1,0,0.3,0.1,0.3,0.2s-0.1,0.3-0.2,0.3c-0.7,0.1-0.8,0.3-0.8,0.3C28.9,38.6,28.8,38.7,28.7,38.7z M27.6,37.5
		C27.5,37.5,27.5,37.5,27.6,37.5c-0.2-0.1-0.3-0.2-0.2-0.3c0,0,0.2-0.6-0.3-1.2c-0.1-0.1-0.1-0.3,0-0.3c0.1-0.1,0.3-0.1,0.3,0
		c0.7,0.8,0.3,1.7,0.3,1.7C27.7,37.5,27.7,37.5,27.6,37.5z M24.3,35.8c-0.2,0-0.3-0.2-0.2-0.3c0-0.1,0.4-1.4,1.4-1.5
		c0.1,0,0.2,0.1,0.3,0.2c0,0.1-0.1,0.2-0.2,0.3c-0.7,0.1-1,1.2-1,1.2C24.5,35.7,24.4,35.8,24.3,35.8z M23.9,34.6
		c-0.1,0-0.2-0.1-0.2-0.3c0-0.1,0.1-1.5,1.1-1.8c0.1,0,0.3,0,0.3,0.2c0,0.1,0,0.3-0.2,0.3c-0.7,0.2-0.8,1.4-0.8,1.4
		C24.1,34.5,24,34.6,23.9,34.6z"/>
	<path class="st6" d="M23.8,34.4c-0.2-0.1-0.3-0.2-0.2-0.3c0,0,0.2-0.6-0.2-1.2c-0.1-0.1-0.1-0.3,0-0.3c0.1-0.1,0.3-0.1,0.3,0
		c0.7,0.8,0.4,1.6,0.4,1.6C24,34.3,23.9,34.4,23.8,34.4z M24.5,36.3c-0.1,0-0.2-0.1-0.2-0.2s0-0.5,0.9-1c0.1-0.1,0.3,0,0.3,0.1
		c0.1,0.1,0,0.3-0.1,0.3c-0.6,0.3-0.6,0.5-0.6,0.5L24.5,36.3z M23,35.4c-0.2,0-0.3-0.1-0.2-0.2c0-0.2,0.1-0.6-0.6-1.1
		c-0.1-0.1-0.1-0.2-0.1-0.3c0.1-0.1,0.2-0.1,0.3-0.1c0.9,0.6,0.8,1.3,0.8,1.5C23.2,35.3,23.1,35.4,23,35.4z M80.3,46.9
		c-0.1,0-0.1,0-0.2-0.1c-0.1-0.1-0.1-0.2,0-0.3c0,0,1.4-1.7,1.4-3.1c0-0.2-0.1-0.4-0.2-0.5c-0.4-0.3-1.1-0.3-1.4-0.3
		c-0.1,0-0.2-0.1-0.3-0.2c0-0.1,0.1-0.2,0.2-0.3c0.4,0,1.3,0,1.8,0.4c0.3,0.3,0.4,0.6,0.4,0.9c0,1.5-1.5,3.3-1.5,3.4
		C80.4,46.9,80.4,46.9,80.3,46.9z M63.9,46c-0.1,0-0.2-0.1-0.2-0.2s0.1-0.3,0.2-0.3c0.8-0.1,1.6-0.2,2.5-0.3c0.1,0,0.2,0.1,0.3,0.2
		c0,0.1-0.1,0.2-0.2,0.3C65.5,45.8,64.7,45.8,63.9,46z M67.1,45.6c-0.1,0-0.2-0.1-0.2-0.2c-0.1-0.1,0-0.2,0.1-0.2
		c1-0.1,2-0.1,3.1-0.1c0.1,0,0.2,0.1,0.2,0.2s-0.1,0.2-0.2,0.2C69.1,45.6,68.1,45.6,67.1,45.6z M74,45.7c-1-0.1-2.1-0.1-3.2-0.1
		c-0.1,0-0.2-0.1-0.2-0.2s0.1-0.2,0.2-0.2c1.1,0,2.2,0.1,3.2,0.1c0.1,0,0.2,0.1,0.2,0.3C74.3,45.6,74.2,45.7,74,45.7z"/>
	<path class="st6" d="M70.2,48.9c-3.4,0-9.9-0.4-9.9-1.9c0-0.4,0.3-0.9,2.9-1.4c0.1,0,0.3,0.1,0.3,0.2s-0.1,0.3-0.2,0.3
		c-2.5,0.4-2.5,0.9-2.5,0.9c0,0.5,3.2,1.4,9.4,1.4s9.4-0.9,9.4-1.4c0-0.1-0.3-0.5-1.9-0.8c-0.1,0-0.2-0.2-0.2-0.3s0.2-0.2,0.3-0.2
		c2.1,0.4,2.3,0.9,2.3,1.3C80.1,48.5,73.6,48.9,70.2,48.9z M77.2,46.1C77.1,46.1,77.1,46.1,77.2,46.1c-0.6-0.1-1.5-0.2-2.5-0.3
		c-0.1,0-0.2-0.1-0.2-0.3c0-0.2,0.1-0.2,0.3-0.2c1.1,0.1,1.9,0.2,2.5,0.3c0.1,0,0.2,0.1,0.2,0.3C77.4,46,77.3,46.1,77.2,46.1z
		 M60.8,38.7h-0.1c-0.1,0-0.6-0.4-0.5-0.9c0-0.4,0.1-0.6,0.1-0.8c0-0.2,0.1-0.3,0.1-0.6c0-0.1,0.1-0.2,0.2-0.2h0.2
		c0.2,0.1,0.3,0.2,0.4,0.3c0.2,0.2,0.4,0.3,0.7,0.6c0.3,0.4,0.1,1,0,1c0,0.1-0.2,0.2-0.3,0.1c-0.1,0-0.2-0.2-0.1-0.3
		c0-0.1,0.1-0.4,0-0.6c-0.2-0.3-0.3-0.4-0.6-0.6c0,0-0.1,0-0.1-0.1c0,0.1,0,0.2-0.1,0.3c-0.1,0.2-0.1,0.4-0.1,0.7
		c0,0.2,0.2,0.4,0.3,0.4c0.1,0.3,0.2,0.4,0.1,0.5C60.9,38.6,60.9,38.7,60.8,38.7z"/>
	<path class="st6" d="M60.8,40.3c-0.5-0.1-1-1.2-0.9-1.7c0-0.3,0.3-0.5,0.7-0.5c0.3,0,0.5,0.1,0.7,0.2c0.1-0.2,0.2-0.3,0.4-0.6
		c0.3-0.3,0.6-0.3,0.8-0.1c0.4,0.4,0.6,1.6,0.3,1.9c-0.1,0.1-0.2,0.1-0.3,0s-0.1-0.2,0-0.3c0.1-0.1,0.1-0.7-0.1-1.1
		c-0.1-0.2-0.1-0.2-0.2-0.2c0,0-0.1,0-0.1,0.1c-0.4,0.4-0.4,0.6-0.4,0.6c0,0.1,0,0.2-0.2,0.3c-0.1,0-0.3,0-0.3-0.2
		c0,0-0.1-0.1-0.6-0.2h-0.2c-0.1,0.3,0.3,1.1,0.5,1.2C61,39.8,61,40,61,40.1C61,40.2,60.9,40.3,60.8,40.3z"/>
	<path class="st6" d="M61.3,42c-0.5-0.1-1-1.2-0.9-1.7c0-0.3,0.2-0.5,0.7-0.5c0.3,0,0.5,0.1,0.7,0.2c0.1-0.2,0.2-0.3,0.4-0.6
		c0.3-0.3,0.6-0.3,0.8-0.1c0.4,0.4,0.6,1.6,0.3,1.9c-0.1,0.1-0.2,0.1-0.3,0s-0.1-0.2,0-0.3c0.1-0.1,0.1-0.6-0.1-1
		c-0.1-0.2-0.1-0.2-0.2-0.2c0,0-0.1,0-0.1,0.1c-0.4,0.4-0.4,0.6-0.4,0.6c0,0.1,0,0.2-0.2,0.3c-0.1,0-0.3,0-0.3-0.2
		c0,0-0.1-0.1-0.6-0.2h-0.2c-0.1,0.3,0.3,1.1,0.5,1.2c0.1,0,0.2,0.1,0.2,0.3C61.5,41.9,61.4,42,61.3,42z"/>
	<path class="st6" d="M61.8,43.7c-0.5-0.1-1-1.2-0.9-1.7c0-0.3,0.3-0.5,0.7-0.5c0.3,0,0.5,0.1,0.7,0.2c0.1-0.2,0.2-0.3,0.4-0.6
		c0.3-0.3,0.6-0.3,0.8-0.1c0.4,0.4,0.6,1.6,0.3,1.9c-0.1,0.1-0.2,0.1-0.3,0s-0.1-0.2,0-0.3c0.1-0.1,0.1-0.6-0.1-1
		c-0.1-0.2-0.1-0.2-0.2-0.3c0,0-0.1,0-0.1,0.1c-0.4,0.5-0.4,0.6-0.4,0.6c0,0.1,0,0.2-0.2,0.3c-0.1,0-0.3,0-0.3-0.2
		c0,0-0.1-0.1-0.6-0.2h-0.2c-0.1,0.5,0.3,1.3,0.5,1.3c0.1,0,0.2,0.1,0.2,0.3C62,43.6,61.9,43.7,61.8,43.7z"/>
	<path class="st6" d="M63,45.5c-1,0-1.6-1-1.6-1.7c0-0.4,0.3-0.7,0.6-0.7s0.5,0.1,0.7,0.1c0.1-0.2,0.2-0.4,0.5-0.5
		c0.4-0.3,1,0,1.2,0.7s0,1.6-0.9,2.1H63z M62.1,43.6c-0.1,0-0.2,0-0.2,0.2c0,0.5,0.5,1.2,1.1,1.2h0.3c0.6-0.3,0.8-1,0.6-1.5
		c-0.1-0.3-0.2-0.5-0.3-0.5h-0.1c-0.4,0.3-0.4,0.5-0.4,0.6s0,0.3-0.1,0.3s-0.2,0-0.3-0.1C62.7,43.7,62.5,43.6,62.1,43.6z"/>
	<path class="st6" d="M64.8,48.6c-0.1,0-0.2-0.1-0.2-0.2l-1.1-3.3c0-0.1,0-0.3,0.2-0.3c0.1,0,0.3,0,0.3,0.2l1.1,3.3
		C65.1,48.4,65,48.5,64.8,48.6z M64,48.5c-0.1,0-0.2-0.1-0.2-0.2l-0.9-2.9c0-0.1,0-0.3,0.2-0.3c0.1,0,0.3,0,0.3,0.2l0.9,2.9
		C64.3,48.3,64.2,48.4,64,48.5z M65.2,36.4c-0.1,0-0.1,0-0.2-0.1c-0.1,0-0.5-0.5-0.4-1c0.1-0.4,0.2-0.6,0.3-0.8
		c0.1-0.1,0.1-0.2,0.2-0.5c0-0.1,0.1-0.1,0.2-0.2c0.1,0,0.2,0,0.2,0.1c0.1,0.2,0.2,0.3,0.3,0.4c0.2,0.2,0.4,0.4,0.5,0.8
		c0.2,0.4-0.1,1-0.2,1c0.1,0.2-0.1,0.2-0.2,0.1c-0.1-0.1-0.1-0.2-0.1-0.3c0.1-0.1,0.2-0.4,0.1-0.6c-0.2-0.3-0.3-0.5-0.5-0.7
		l-0.1-0.1c0,0.1-0.1,0.2-0.1,0.2c-0.1,0.2-0.2,0.4-0.2,0.7c0,0.2,0.2,0.4,0.2,0.5c0.1,0.1,0.1,0.2,0,0.3
		C65.3,36.4,65.2,36.4,65.2,36.4z"/>
	<path class="st6" d="M64.8,38C64.8,38,64.7,38,64.8,38c-0.5-0.2-0.9-1.3-0.6-1.9c0.1-0.3,0.4-0.5,0.8-0.3c0.3,0.1,0.5,0.2,0.6,0.3
		l0.5-0.5c0.4-0.3,0.7-0.1,0.9,0.1c0.3,0.5,0.3,1.7-0.1,2c-0.1,0.1-0.3,0.1-0.3,0c-0.1-0.1-0.1-0.3,0-0.3c0.1-0.2,0.2-1.1,0-1.3
		c0,0,0-0.1-0.2,0c-0.5,0.3-0.5,0.5-0.5,0.5c0,0.1-0.1,0.2-0.2,0.2s-0.2-0.1-0.3-0.2c0,0-0.1-0.2-0.6-0.3c-0.2-0.1-0.2,0-0.2,0
		c-0.2,0.3,0.1,1.2,0.3,1.3c0.1,0,0.2,0.2,0.1,0.3C65,37.9,64.9,38,64.8,38z"/>
	<path class="st6" d="M65,39.8C65,39.8,64.9,39.8,65,39.8c-0.5-0.2-0.9-1.3-0.6-1.9c0.1-0.3,0.4-0.5,0.8-0.3
		c0.3,0.1,0.5,0.2,0.6,0.3l0.5-0.5c0.4-0.2,0.7-0.1,0.9,0.1c0.3,0.5,0.3,1.7-0.1,1.9c-0.1,0.1-0.3,0.1-0.3-0.1
		c-0.1-0.1-0.1-0.3,0-0.3c0.1-0.1,0.2-1.1,0-1.3c0,0,0-0.1-0.2,0c-0.5,0.3-0.5,0.5-0.5,0.5c0,0.1-0.1,0.2-0.2,0.2
		c-0.1,0-0.2-0.1-0.3-0.2c0,0-0.1-0.1-0.6-0.3c-0.1-0.1-0.2,0-0.2,0c-0.2,0.3,0.1,1.2,0.3,1.3c0.1,0.1,0.2,0.2,0.1,0.3
		C65.2,39.7,65.1,39.8,65,39.8z"/>
	<path class="st6" d="M65.2,41.6c-0.5-0.2-0.9-1.3-0.6-1.9c0.1-0.3,0.4-0.5,0.8-0.3c0.3,0.1,0.5,0.2,0.6,0.3l0.5-0.5
		c0.4-0.3,0.7-0.1,0.9,0.1c0.3,0.5,0.3,1.7-0.1,1.9c-0.1,0.1-0.2,0.1-0.3,0s-0.1-0.3,0-0.3c0.1-0.1,0.2-1.1,0-1.3c0,0,0-0.1-0.2,0
		c-0.4,0.4-0.5,0.6-0.5,0.6c0,0.1-0.1,0.2-0.2,0.2c-0.1,0-0.2-0.1-0.3-0.2c0,0-0.1-0.1-0.6-0.3c-0.1-0.1-0.2,0-0.2,0
		c-0.2,0.3,0.1,1.2,0.3,1.3c0.1,0,0.2,0.2,0.1,0.3C65.4,41.5,65.3,41.6,65.2,41.6z"/>
	<path class="st6" d="M66.4,43.6c-1.1,0-1.7-1.1-1.7-1.8c0-0.2,0-0.4,0.1-0.5c0.1-0.2,0.4-0.3,0.7-0.3c0.3,0.1,0.5,0.2,0.7,0.3
		c0.1-0.1,0.3-0.3,0.6-0.4c0.5-0.2,1,0.2,1.1,0.8c0.1,0.7-0.3,1.7-1.3,1.9H66.4z M65.4,41.5c0,0-0.1,0-0.1,0.1s-0.1,0.2-0.1,0.3
		c0,0.5,0.4,1.3,1.2,1.3h0.1c0.7-0.2,1-0.9,0.9-1.4c0-0.3-0.2-0.5-0.4-0.5c-0.4,0.2-0.5,0.4-0.5,0.5s-0.1,0.2-0.2,0.3
		c-0.1,0-0.2-0.1-0.3-0.2C66,41.8,66,41.6,65.4,41.5z M67.4,48.8c-0.1,0-0.2-0.1-0.2-0.2l-0.6-5.2c0-0.1,0.1-0.2,0.2-0.3
		c0.1,0,0.2,0.1,0.3,0.2l0.6,5.2C67.7,48.7,67.6,48.8,67.4,48.8z M66.7,48.7c-0.1,0-0.2-0.1-0.2-0.2l-0.6-5.1c0-0.1,0.1-0.2,0.2-0.3
		c0.1,0,0.2,0.1,0.3,0.2l0.6,5.1C67,48.6,66.9,48.7,66.7,48.7z M70,35.9c-0.1,0-0.1,0-0.2-0.1c-0.1-0.1-0.5-0.5-0.3-1
		c0.1-0.3,0.3-0.5,0.4-0.7c0.1-0.1,0.2-0.3,0.3-0.5c0-0.1,0.1-0.1,0.2-0.1c0.1,0,0.2,0,0.2,0.1c0.1,0.2,0.2,0.3,0.3,0.4
		c0.2,0.2,0.3,0.4,0.5,0.9s-0.3,1-0.3,1c-0.1,0.1-0.2,0.1-0.3,0s-0.1-0.2,0-0.3c0.1-0.1,0.3-0.4,0.2-0.5c-0.1-0.3-0.3-0.5-0.4-0.7
		l-0.1-0.1c-0.1,0.1-0.1,0.2-0.2,0.2c-0.1,0.2-0.2,0.3-0.4,0.6c-0.1,0.2,0.1,0.4,0.2,0.5C70.2,35.7,70.2,35.8,70,35.9L70,35.9z"/>
	<path class="st6" d="M69.4,37.4L69.4,37.4c-0.5-0.2-0.7-1.4-0.5-1.9c0.1-0.3,0.4-0.5,0.9-0.2c0.3,0.2,0.5,0.3,0.7,0.4
		c0.1-0.1,0.3-0.3,0.7-0.4c0.5-0.2,0.8,0,0.9,0.2c0.3,0.5,0,1.7-0.4,1.9c-0.1,0.1-0.3,0-0.3-0.1c-0.1-0.1,0-0.3,0.1-0.3
		c0.2-0.1,0.4-0.9,0.2-1.3c0,0-0.1-0.1-0.3,0c-0.6,0.3-0.7,0.5-0.7,0.5c0,0.1-0.1,0.2-0.2,0.2c-0.1,0-0.2-0.1-0.2-0.2
		c0,0-0.1-0.2-0.6-0.4c-0.2-0.1-0.2,0-0.3,0c-0.2,0.3,0,1.2,0.2,1.3c0.1,0.1,0.2,0.2,0.1,0.3H69.4L69.4,37.4z"/>
	<path class="st6" d="M69.4,39.2L69.4,39.2c-0.5-0.2-0.7-1.4-0.5-1.9c0.1-0.3,0.4-0.5,0.9-0.2c0.3,0.2,0.5,0.3,0.7,0.4
		c0.1-0.1,0.3-0.3,0.7-0.4c0.3-0.2,0.6-0.1,0.7,0c0.2,0.2,0.3,0.5,0.3,1c0,0.3-0.1,1-0.5,1.2c-0.1,0.1-0.3,0-0.3-0.1
		c-0.1-0.1,0-0.3,0.1-0.3c0.2-0.1,0.4-0.9,0.2-1.3c0,0-0.1-0.1-0.2,0c-0.6,0.3-0.7,0.5-0.7,0.5c0,0.1-0.1,0.2-0.2,0.2
		c-0.1,0-0.2-0.1-0.2-0.3c0,0-0.1-0.2-0.6-0.4c-0.2-0.1-0.2,0-0.3,0c-0.2,0.3,0,1.2,0.2,1.3c0.1,0.1,0.2,0.2,0.1,0.3
		C69.8,39.2,69.4,39.2,69.4,39.2z"/>
	<path class="st6" d="M69.4,41L69.4,41c-0.5-0.2-0.7-1.4-0.5-1.9c0.1-0.3,0.4-0.5,0.9-0.2c0.3,0.2,0.5,0.3,0.7,0.4
		c0.1-0.1,0.3-0.3,0.7-0.4c0.5-0.2,0.8,0,0.9,0.2c0.3,0.5,0,1.7-0.4,1.9c-0.1,0.1-0.3,0-0.3-0.1c-0.1-0.1,0-0.3,0.1-0.3
		c0.2-0.1,0.4-0.9,0.2-1.3c0,0-0.1-0.1-0.3,0c-0.6,0.3-0.7,0.5-0.7,0.5c0,0.1-0.1,0.2-0.2,0.2c-0.1,0-0.2-0.1-0.2-0.3
		c0,0-0.1-0.2-0.6-0.4c-0.2-0.1-0.2,0-0.3,0c-0.2,0.3,0,1.2,0.2,1.3c0.1,0.1,0.2,0.2,0.1,0.3C69.6,41,69.5,41,69.4,41L69.4,41z"/>
	<path class="st6" d="M70.5,43.3c-1.2-0.1-1.7-1.2-1.7-1.9c0-0.6,0.4-1,1-0.8c0.3,0.1,0.6,0.2,0.7,0.4c0.1-0.1,0.4-0.3,0.7-0.4
		c0.5-0.1,1,0.2,1,0.9C72.3,42.2,71.7,43.1,70.5,43.3C70.6,43.3,70.5,43.3,70.5,43.3z M69.5,41c-0.2,0-0.2,0.3-0.2,0.4
		c0,0.5,0.4,1.3,1.2,1.4c0.9-0.1,1.3-0.9,1.2-1.3c0-0.2-0.1-0.5-0.4-0.4c-0.5,0.1-0.6,0.3-0.6,0.4s-0.1,0.2-0.2,0.2
		c-0.1,0-0.2-0.1-0.2-0.2s-0.1-0.3-0.6-0.4C69.6,41,69.6,41,69.5,41z M70.9,48.8c-0.1,0-0.2-0.1-0.2-0.2V43c0-0.1,0.1-0.2,0.2-0.2
		c0.1,0,0.2,0.1,0.2,0.2v5.6C71.1,48.7,71,48.8,70.9,48.8z M70.1,48.8c-0.1,0-0.2-0.1-0.2-0.2v-5.7c0-0.1,0.1-0.2,0.2-0.2
		c0.1,0,0.2,0.1,0.2,0.2v5.7C70.4,48.7,70.2,48.8,70.1,48.8z M80.3,38.7c-0.1,0-0.2,0-0.2-0.1c-0.1-0.2-0.1-0.3,0-0.4
		s0.3-0.2,0.3-0.4c0-0.3-0.1-0.5-0.1-0.7c0-0.1,0-0.2-0.1-0.3h-0.1c-0.1,0.2-0.2,0.4-0.4,0.6c-0.1,0.1,0,0.4,0,0.6
		c0,0.1,0,0.3-0.1,0.3s-0.3,0-0.3-0.1s-0.2-0.7,0.1-1s0.4-0.5,0.7-0.7c0.1-0.1,0.2-0.2,0.4-0.3c0.1-0.1,0.2-0.1,0.2,0
		c0.1,0,0.1,0.1,0.2,0.2c0,0.3,0.1,0.5,0.1,0.6c0.1,0.2,0.1,0.4,0.1,0.8c0,0.5-0.5,0.8-0.5,0.9C80.4,38.6,80.3,38.7,80.3,38.7z
		 M80.3,40.3c-0.1,0-0.2-0.1-0.2-0.2s0.1-0.3,0.2-0.3c0.2-0.1,0.6-0.8,0.5-1.2c0,0,0-0.1-0.2-0.1c-0.5,0.1-0.7,0.2-0.7,0.2
		c0,0.1-0.2,0.2-0.3,0.1c-0.1,0-0.2-0.2-0.2-0.3c0,0,0-0.2-0.4-0.6c0,0.1,0,0,0,0l-0.2,0.2c-0.2,0.4-0.2,0.9-0.1,1
		c0.1,0.1,0.1,0.2,0,0.3c-0.1,0.1-0.3,0.1-0.3,0c-0.4-0.2-0.2-1.4,0.2-1.8c0.2-0.2,0.5-0.2,0.8,0.1c0.2,0.2,0.3,0.4,0.4,0.6
		c0.2-0.1,0.4-0.1,0.7-0.2c0.4-0.1,0.7,0.1,0.7,0.5C81.3,39.1,80.8,40.2,80.3,40.3z"/>
	<path class="st6" d="M79.8,42c-0.1,0-0.2-0.1-0.2-0.2s0.1-0.3,0.2-0.3c0.2-0.1,0.6-0.9,0.5-1.2c0,0,0-0.1-0.2,0
		c-0.5,0.1-0.7,0.2-0.7,0.2c0,0.1-0.2,0.2-0.3,0.1c-0.1,0-0.2-0.2-0.2-0.3c0,0,0-0.2-0.4-0.6l-0.1-0.1l-0.2,0.2
		c-0.2,0.4-0.2,0.9-0.1,1c0.1,0.1,0.1,0.2,0,0.3c-0.1,0.1-0.3,0.1-0.3,0c-0.3-0.3-0.1-1.6,0.3-1.9c0.2-0.2,0.5-0.2,0.8,0.1
		c0.2,0.2,0.3,0.4,0.4,0.6c0.1-0.1,0.4-0.1,0.7-0.2c0.5-0.1,0.7,0.2,0.7,0.5C80.8,40.8,80.3,41.9,79.8,42z"/>
	<path class="st6" d="M79.3,43.7c-0.1,0-0.2-0.1-0.2-0.2s0.1-0.3,0.2-0.3c0.2-0.1,0.6-0.9,0.5-1.2c0,0,0-0.1-0.2,0
		c-0.6,0.1-0.7,0.2-0.7,0.2c0,0.1-0.2,0.2-0.3,0.1c-0.1,0-0.2-0.2-0.1-0.3c0,0,0-0.2-0.4-0.6L78,41.3l-0.2,0.2
		c-0.2,0.4-0.2,0.9-0.1,1c0.1,0.1,0.1,0.2,0,0.3c-0.1,0.1-0.3,0.1-0.3,0c-0.3-0.4-0.1-1.6,0.3-1.9c0.2-0.2,0.5-0.2,0.8,0.1
		c0.2,0.2,0.3,0.4,0.4,0.6c0.1-0.1,0.4-0.1,0.7-0.2c0.5-0.1,0.7,0.2,0.7,0.5C80.3,42.5,79.8,43.6,79.3,43.7z"/>
	<path class="st6" d="M78,45.5c-0.1,0-0.3,0-0.4-0.1c-0.9-0.5-1.1-1.4-1-2.1c0.2-0.7,0.8-1,1.2-0.7c0.3,0.2,0.4,0.4,0.5,0.5
		c0.2,0.1,0.4,0,0.7,0s0.4,0.1,0.5,0.2s0.1,0.3,0.1,0.5C79.7,44.5,79,45.5,78,45.5z M77.5,43c-0.1,0-0.3,0.2-0.3,0.5
		c-0.1,0.5,0,1.2,0.7,1.5h0.2c0.7,0,1.1-0.7,1.1-1.2v-0.2h-0.1c-0.4,0-0.6,0.1-0.6,0.2s-0.2,0.2-0.3,0.1c-0.1,0-0.2-0.1-0.2-0.3
		C78,43.5,78,43.3,77.5,43C77.6,43,77.5,43,77.5,43z"/>
	<path class="st6" d="M76.4,48.5C76.4,48.5,76.3,48.5,76.4,48.5c-0.2-0.1-0.3-0.2-0.2-0.3l1-3.2c0-0.1,0.2-0.2,0.3-0.2
		s0.2,0.2,0.2,0.3l-1,3.2C76.6,48.4,76.5,48.5,76.4,48.5z M77.1,48.4c-0.2,0-0.3-0.2-0.2-0.3l0.8-2.9c0-0.1,0.2-0.2,0.3-0.2
		s0.2,0.2,0.2,0.3l-0.9,2.9C77.3,48.3,77.2,48.4,77.1,48.4z M76,36.4c-0.1,0-0.1,0-0.2-0.1c-0.1-0.1-0.1-0.2,0-0.3
		c0.1-0.1,0.3-0.3,0.2-0.5c0-0.3-0.1-0.5-0.2-0.7c0-0.1-0.1-0.1-0.1-0.2l-0.1,0.1c-0.2,0.2-0.3,0.4-0.5,0.7
		c-0.1,0.2,0.1,0.4,0.1,0.5c0.1,0.1,0,0.3-0.1,0.3c-0.1,0.1-0.3,0-0.3-0.1s-0.4-0.6-0.2-1s0.3-0.6,0.6-0.8c0.1-0.1,0.2-0.2,0.3-0.4
		c0.1-0.1,0.1-0.1,0.2-0.1c0.1,0,0.2,0.1,0.2,0.2c0.1,0.3,0.2,0.4,0.2,0.6c0.1,0.2,0.2,0.4,0.3,0.8C76.5,35.9,76.1,36.3,76,36.4
		C76.1,36.4,76,36.4,76,36.4z"/>
	<path class="st6" d="M76.3,38c-0.1,0-0.2-0.1-0.2-0.2s0-0.3,0.1-0.3c0.2-0.1,0.4-1,0.3-1.3c0,0,0-0.1-0.2,0
		c-0.5,0.2-0.6,0.4-0.6,0.4c0,0.1-0.1,0.2-0.3,0.2c-0.1,0-0.2-0.1-0.2-0.3c0,0-0.1-0.2-0.5-0.5c-0.1-0.1-0.2-0.1-0.2,0
		c-0.2,0.2-0.2,1.2,0,1.3c0.1,0.1,0.1,0.2,0,0.3c-0.1,0.1-0.2,0.1-0.3,0c-0.4-0.3-0.4-1.5-0.1-2c0.2-0.2,0.5-0.3,0.8-0.1
		c0.3,0.2,0.4,0.3,0.5,0.5c0.1-0.1,0.3-0.2,0.6-0.3c0.4-0.2,0.7,0,0.8,0.3C77.1,36.7,76.8,37.8,76.3,38L76.3,38z"/>
	<path class="st6" d="M76.1,39.8c-0.1,0-0.2-0.1-0.2-0.1c-0.1-0.1,0-0.3,0.1-0.3c0.2-0.1,0.4-1,0.3-1.3c0,0,0-0.1-0.2,0
		c-0.5,0.2-0.6,0.4-0.6,0.4c0,0.1-0.1,0.2-0.3,0.2c-0.1,0-0.2-0.1-0.2-0.3c0,0-0.1-0.2-0.5-0.5c-0.1-0.1-0.2-0.1-0.2,0
		c-0.2,0.2-0.2,1.2,0,1.3c0.1,0.1,0.1,0.2,0,0.3c-0.1,0.1-0.2,0.1-0.3,0c-0.4-0.3-0.4-1.5-0.1-2c0.1-0.2,0.4-0.3,0.8,0
		c0.3,0.2,0.4,0.3,0.5,0.5c0.1-0.1,0.3-0.2,0.6-0.3c0.4-0.2,0.7,0,0.8,0.3C76.9,38.4,76.6,39.6,76.1,39.8L76.1,39.8z"/>
	<path class="st6" d="M75.9,41.6c-0.1,0-0.2-0.1-0.2-0.2s0-0.3,0.1-0.3c0.2-0.1,0.4-1,0.3-1.3c0,0,0-0.1-0.2,0
		c-0.6,0.2-0.7,0.4-0.7,0.4c0,0.1-0.1,0.2-0.3,0.2c-0.1,0-0.2-0.1-0.2-0.3c0,0-0.1-0.2-0.5-0.5c-0.1-0.1-0.2-0.1-0.2,0
		c-0.2,0.2-0.2,1.2,0,1.3c0.1,0.1,0.1,0.2,0,0.3c-0.1,0.1-0.2,0.1-0.3,0c-0.4-0.3-0.4-1.5-0.1-1.9c0.2-0.2,0.5-0.4,0.9-0.1
		c0.3,0.2,0.4,0.3,0.5,0.5c0.1-0.1,0.3-0.2,0.6-0.3c0.4-0.2,0.7,0,0.8,0.3C76.7,40.2,76.4,41.4,75.9,41.6L75.9,41.6z"/>
	<path class="st6" d="M74.7,43.6h-0.1c-1.1-0.3-1.5-1.2-1.4-1.9c0.1-0.7,0.6-1,1.1-0.8c0.3,0.1,0.5,0.3,0.6,0.4
		c0.1-0.1,0.3-0.2,0.6-0.3c0.5-0.1,0.8,0.2,0.8,0.8C76.4,42.6,75.8,43.6,74.7,43.6z M74,41.3c-0.1,0-0.3,0.2-0.3,0.5
		c-0.1,0.5,0.2,1.2,1,1.4c0.8,0,1.2-0.9,1.2-1.3c0-0.1,0-0.4-0.2-0.3c-0.5,0.1-0.6,0.3-0.6,0.3c0,0.1-0.2,0.2-0.3,0.2
		s-0.2-0.1-0.2-0.2v-0.1c0-0.1-0.1-0.2-0.5-0.4L74,41.3z M73.7,48.8c-0.2,0-0.3-0.1-0.2-0.3l0.5-5.2c0-0.1,0.1-0.2,0.3-0.2
		c0.1,0,0.2,0.1,0.2,0.3l-0.6,5.2C73.9,48.7,73.8,48.8,73.7,48.8z M74.3,48.7c-0.2,0-0.3-0.1-0.2-0.3l0.6-5.1c0-0.1,0.1-0.2,0.3-0.2
		c0.1,0,0.2,0.1,0.2,0.3l-0.6,5.1C74.6,48.6,74.5,48.7,74.3,48.7z"/>
	<path class="st6" d="M70.3,51c-5.4,0-10.4-1.5-10.4-2.7c0-0.1,0.1-0.2,0.2-0.2c0.1,0,0.2,0.1,0.2,0.2c0,0.5,4.1,2.2,9.9,2.2
		s9.9-1.7,9.9-2.3c0-0.1,0.1-0.2,0.2-0.2c0.1,0,0.2,0.1,0.2,0.2C80.6,49.5,75.6,51,70.3,51z M70.3,53.2c-5.3,0-10.1-1.5-10.1-2.7
		c0-0.1,0.1-0.2,0.2-0.2c0.1,0,0.2,0.1,0.2,0.2c0,0.6,3.9,2.3,9.6,2.3c5.2,0,9-1.4,9.6-2.2c0.1-0.1,0.2-0.1,0.3-0.1
		c0.1,0.1,0.1,0.2,0.1,0.3C79.5,51.8,75.4,53.2,70.3,53.2z M70.3,55.4c-5.3,0-9.6-1.5-9.6-2.7c0-0.1,0.1-0.2,0.2-0.2
		c0.1,0,0.2,0.1,0.2,0.2c0,0.5,3.2,2.2,9.1,2.2c5,0,8.5-1.1,9.1-1.9c0.1-0.1,0.2-0.1,0.3-0.1c0.1,0.1,0.1,0.2,0.1,0.3
		C79.1,54.3,75.3,55.4,70.3,55.4z M70.3,57.6c-4.7,0-7.7-1.1-8.5-2.1c-0.1-0.1-0.1-0.3,0-0.3c0.1-0.1,0.2-0.1,0.3,0
		c0.6,0.8,3.3,1.9,8.1,1.9s7.9-1.2,8.4-2.1c0.1-0.1,0.2-0.1,0.3-0.1C79,55,79,55.1,79,55.2C78.5,56.3,75.3,57.6,70.3,57.6z"/>
	<path class="st6" d="M69.7,59.4c-1,0-1.8-0.7-2-8.7c0-0.1,0.1-0.2,0.2-0.2c0.1,0,0.2,0.1,0.2,0.2c0.2,7.2,0.9,8.2,1.6,8.2
		c0.1,0,0.2,0.1,0.2,0.2C70,59.3,69.9,59.4,69.7,59.4z M67.7,59.3C67.6,59.3,67.6,59.3,67.7,59.3c-1.9-0.6-2.8-1.9-3.3-9.1
		c0-0.1,0.1-0.2,0.2-0.3c0.1,0,0.2,0.1,0.3,0.2c0.5,6.8,1.3,8.1,2.9,8.6c0.1,0,0.2,0.2,0.2,0.3C67.8,59.2,67.8,59.3,67.7,59.3z
		 M65,58.7h-0.1c-1.9-1.3-2.6-5-3.1-8.2l-0.2-0.9c0-0.1,0.1-0.3,0.2-0.3s0.3,0.1,0.3,0.2l0.2,0.9c0.6,3.2,1.2,6.7,2.9,7.9
		c0.1,0.1,0.1,0.2,0.1,0.3C65.2,58.7,65.1,58.7,65,58.7z M70.8,59.4c-0.1,0-0.2-0.1-0.2-0.2s0.1-0.2,0.2-0.3c0.6,0,1.4-0.1,1.3-8.2
		c0-0.1,0.1-0.2,0.2-0.2c0.1,0,0.2,0.1,0.2,0.2C72.6,58.7,71.9,59.3,70.8,59.4z M72.6,59.3c-0.1,0-0.2-0.1-0.2-0.2s0-0.3,0.2-0.3
		c2.2-0.6,2.8-1.5,3.3-8.7c0-0.1,0.1-0.3,0.3-0.2c0.1,0,0.2,0.1,0.2,0.3C75.8,57.3,75.3,58.6,72.6,59.3
		C72.7,59.3,72.7,59.3,72.6,59.3z"/>
	<path class="st6" d="M75.3,58.9c-0.1,0-0.2-0.1-0.2-0.2s0-0.3,0.1-0.3c1.8-0.7,2.9-3.6,3.5-9.1c0-0.1,0.1-0.2,0.3-0.2
		c0.1,0,0.2,0.1,0.2,0.3C78.6,55.2,77.4,58.1,75.3,58.9C75.4,58.9,75.4,58.9,75.3,58.9z M60.1,46.9c-0.1,0-0.1,0-0.2-0.1
		s-1.5-1.9-1.5-3.4c0-0.5,0.2-0.8,0.6-1.1c0.8-0.4,2.1-0.2,2.3-0.1c0.1,0.1,0.1,0.2,0.1,0.3c-0.1,0.1-0.2,0.1-0.3,0.1
		c-0.2-0.1-1.3-0.3-1.9,0.1c-0.2,0.2-0.3,0.5-0.3,0.7c0,1.3,1.4,3.1,1.4,3.1c0.1,0.1,0.1,0.3,0,0.3C60.2,46.9,60.2,46.9,60.1,46.9z"
		/>
	<path class="st6" d="M61.1,46.6c-0.1,0-0.1,0-0.2-0.1c-0.5-0.7-1.6-2.4-1.4-2.9c0-0.1,0.1-0.2,0.2-0.3h0.1c0.6-0.2,0.8-0.3,2,0.1
		c0.1,0,0.2,0.2,0.2,0.3c0,0.1-0.2,0.2-0.3,0.2c-1.1-0.3-1.2-0.3-1.7-0.1c0,0.3,0.6,1.4,1.4,2.5c0.1,0.1,0.1,0.3-0.1,0.3H61.1z
		 M79.4,46.7L79.4,46.7c-0.2-0.1-0.2-0.2-0.2-0.3c0.8-1.2,1.4-2.4,1.3-2.6c-0.1-0.1-0.5-0.3-1.1-0.1c-0.1,0-0.3,0-0.3-0.2
		c0-0.1,0-0.3,0.2-0.3c0.8-0.2,1.4,0,1.6,0.3c0.4,0.5-0.6,2.2-1.3,3.2H79.4z"/>
	<path class="st6" d="M70.3,59.4c-5.4,0-6.7-1.2-7.8-2.6c-0.4-0.5-2.4-3.6-2.7-9.9c0-0.1,0-0.3,0.1-0.4s0.2-0.1,0.3-0.1
		c0.1,0.1,0.1,0.2,0.1,0.3v0.1c0.3,6.2,2.2,9.1,2.6,9.6c0.8,1.1,1.8,2.4,7.4,2.4c4.7,0,6-0.7,7.1-1.6c1-0.8,2.4-4.4,2.9-10.4
		l-0.1-0.1c-0.1-0.1-0.1-0.2,0-0.3c0.1-0.1,0.2-0.1,0.3,0s0.3,0.3,0.3,0.5c-0.5,5.4-1.7,9.7-3.1,10.8C76.5,58.7,75.1,59.4,70.3,59.4
		z M60.3,38.1c-0.1,0-0.2,0-0.2-0.1c-0.2-0.4-0.6-1-1.2-0.9c-0.1,0-0.2-0.1-0.3-0.2c0-0.1,0.1-0.2,0.2-0.3c0.7-0.1,1.3,0.3,1.7,1.2
		C60.6,37.9,60.5,38.1,60.3,38.1C60.4,38.1,60.3,38.1,60.3,38.1z M60.6,36.9c-0.1,0-0.2-0.1-0.2-0.2c0,0-0.3-1.1-1-1.2
		c-0.1,0-0.2-0.1-0.2-0.3c0-0.1,0.1-0.2,0.3-0.2c1,0.1,1.4,1.5,1.5,1.5C60.8,36.7,60.8,36.9,60.6,36.9z M60.6,36.6
		c-0.1,0-0.2,0-0.2-0.1c0,0-0.5-0.8-0.1-1.7c0.1-0.1,0.2-0.2,0.3-0.1s0.2,0.2,0.1,0.3c-0.3,0.7,0,1.2,0,1.2c0.1,0.1,0,0.3-0.1,0.3
		C60.7,36.6,60.6,36.6,60.6,36.6z M60.4,38.6c-0.1,0-0.2-0.1-0.2-0.2c0,0-0.1-0.2-0.7-0.4c-0.1,0-0.2-0.2-0.2-0.3
		c0-0.1,0.2-0.2,0.3-0.2c1,0.3,1.1,0.7,1.1,0.8C60.6,38.4,60.5,38.6,60.4,38.6z M61.6,37.5c-0.1,0-0.2-0.1-0.2-0.2
		c0,0-0.3-0.9,0.4-1.7c0.1-0.1,0.2-0.1,0.3,0s0.1,0.2,0,0.3c-0.5,0.7-0.3,1.3-0.3,1.3C61.8,37.3,61.8,37.5,61.6,37.5z M64.9,35.8
		c-0.1,0-0.2-0.1-0.2-0.2c0,0-0.4-1-1.1-1.1c-0.1,0-0.2-0.1-0.2-0.2s0.1-0.2,0.2-0.2c1,0,1.5,1.3,1.6,1.4
		C65.1,35.6,65.1,35.7,64.9,35.8z M65.3,34.5c-0.1,0-0.2-0.1-0.2-0.2c0,0-0.2-1.1-0.9-1.3c-0.1,0-0.2-0.1-0.2-0.3
		c0-0.1,0.1-0.2,0.3-0.2c1,0.2,1.3,1.6,1.3,1.6C65.6,34.4,65.5,34.5,65.3,34.5z"/>
	<path class="st6" d="M65.4,34.3c-0.1,0-0.2,0-0.2-0.1c0,0-0.4-0.8,0.1-1.7c0.1-0.1,0.2-0.2,0.3-0.1s0.2,0.2,0.1,0.3
		c-0.4,0.7-0.1,1.2-0.1,1.2c0.1,0.1,0,0.3-0.1,0.3C65.5,34.2,65.4,34.3,65.4,34.3z M64.8,36.3c-0.1,0-0.2-0.1-0.2-0.2
		c0,0-0.1-0.2-0.7-0.5c-0.1,0-0.2-0.2-0.1-0.3c0-0.1,0.1-0.2,0.2-0.1c0.9,0.3,1,0.7,1,0.9C65,36.2,64.9,36.3,64.8,36.3z M66.1,35.3
		c-0.1,0-0.2-0.1-0.2-0.2c0,0-0.2-0.9,0.6-1.6c0.1-0.1,0.2-0.1,0.3,0s0.1,0.2,0,0.3c-0.6,0.5-0.4,1.2-0.4,1.2
		C66.4,35.2,66.3,35.3,66.1,35.3z M69.8,35.2c-0.1,0-0.2-0.1-0.2-0.2c0,0-0.2-1.1-0.9-1.3c-0.1,0-0.2-0.1-0.2-0.3
		c0-0.1,0.2-0.2,0.3-0.2c1,0.2,1.3,1.6,1.3,1.7S70,35.2,69.8,35.2z M70.4,34.1c-0.1,0-0.2-0.1-0.2-0.2c0,0,0-1.2-0.7-1.4
		c-0.1-0.1-0.2-0.2-0.1-0.3c0.1-0.1,0.2-0.2,0.3-0.1c1,0.4,1,1.8,1,1.9C70.7,34,70.6,34.1,70.4,34.1z"/>
	<path class="st6" d="M70.5,33.8c-0.1,0-0.2-0.1-0.2-0.2c0,0-0.3-0.9,0.4-1.6c0.1-0.1,0.2-0.1,0.3,0s0.1,0.2,0,0.3
		c-0.5,0.5-0.3,1.2-0.3,1.2C70.8,33.6,70.7,33.8,70.5,33.8C70.6,33.8,70.6,33.8,70.5,33.8z M69.6,35.6c-0.2,0-0.2-0.1-0.2-0.3
		c0,0,0-0.3-0.6-0.6c-0.1-0.1-0.1-0.2-0.1-0.3c0.1-0.1,0.2-0.1,0.3-0.1c0.9,0.5,0.8,1,0.8,1.1C69.9,35.5,69.8,35.6,69.6,35.6
		L69.6,35.6z M71.1,34.9c-0.1,0-0.2-0.1-0.2-0.2c0,0,0-0.9,0.9-1.5c0.1-0.1,0.3,0,0.3,0.1c0.1,0.1,0,0.3-0.1,0.3
		c-0.7,0.4-0.7,1-0.7,1C71.4,34.8,71.3,34.9,71.1,34.9L71.1,34.9z M80.6,38.2L80.6,38.2c-0.2-0.1-0.3-0.2-0.2-0.3
		c0-0.1,0.7-1.2,1.8-1c0.1,0,0.2,0.1,0.2,0.3c0,0.1-0.1,0.2-0.3,0.2c-0.7-0.1-1.3,0.8-1.3,0.8C80.8,38.1,80.7,38.2,80.6,38.2z
		 M80.5,36.9C80.4,36.9,80.4,36.8,80.5,36.9c-0.2-0.1-0.3-0.2-0.2-0.3c0-0.1,0.5-1.4,1.6-1.4c0.1,0,0.2,0.1,0.2,0.2
		s-0.1,0.2-0.2,0.2c-0.7,0-1.1,1.1-1.1,1.1C80.7,36.8,80.6,36.9,80.5,36.9z"/>
	<path class="st6" d="M80.5,36.6c-0.1,0-0.1,0-0.1-0.1c-0.1-0.1-0.1-0.2,0-0.3c0,0,0.4-0.5,0.1-1.2c0-0.1,0-0.3,0.1-0.3
		s0.3,0,0.3,0.1c0.4,1-0.1,1.7-0.2,1.7C80.6,36.6,80.5,36.6,80.5,36.6z M80.7,38.7C80.6,38.7,80.6,38.7,80.7,38.7
		c-0.2,0-0.3-0.2-0.2-0.3c0-0.1,0.2-0.5,1.1-0.7c0.1,0,0.3,0.1,0.3,0.2s-0.1,0.3-0.2,0.3c-0.7,0.1-0.8,0.3-0.8,0.3
		C80.9,38.6,80.8,38.7,80.7,38.7z M79.5,37.5C79.5,37.5,79.4,37.5,79.5,37.5c-0.2-0.1-0.3-0.2-0.2-0.3c0,0,0.2-0.6-0.3-1.2
		c-0.1-0.1-0.1-0.3,0-0.3c0.1-0.1,0.2-0.1,0.3,0c0.7,0.8,0.3,1.7,0.3,1.7C79.7,37.5,79.6,37.5,79.5,37.5z M76.3,35.8
		C76.2,35.8,76.2,35.8,76.3,35.8c-0.2,0-0.3-0.2-0.2-0.3c0-0.1,0.4-1.4,1.4-1.5c0.1,0,0.2,0.1,0.3,0.2c0,0.1-0.1,0.2-0.2,0.3
		c-0.7,0.1-1,1.2-1,1.2C76.5,35.7,76.4,35.8,76.3,35.8z M75.9,34.6C75.8,34.6,75.8,34.6,75.9,34.6c-0.1,0-0.2-0.1-0.2-0.3
		c0-0.1,0.1-1.5,1.1-1.8c0.1,0,0.3,0,0.3,0.2c0,0.1,0,0.3-0.2,0.3c-0.7,0.2-0.8,1.4-0.8,1.4C76.1,34.5,76,34.6,75.9,34.6z"/>
	<path class="st6" d="M75.8,34.4C75.8,34.4,75.7,34.4,75.8,34.4c-0.2-0.1-0.3-0.2-0.2-0.3c0,0,0.2-0.6-0.2-1.2
		c-0.1-0.1-0.1-0.3,0-0.3c0.1-0.1,0.3-0.1,0.3,0c0.6,0.8,0.3,1.6,0.3,1.6C76,34.3,75.9,34.4,75.8,34.4L75.8,34.4z M76.4,36.3
		c-0.1,0-0.2-0.1-0.2-0.2s0-0.5,0.9-1c0.1-0.1,0.3,0,0.3,0.1c0.1,0.1,0,0.3-0.1,0.3c-0.6,0.3-0.6,0.5-0.6,0.5L76.4,36.3z M74.9,35.4
		c-0.2,0-0.3-0.1-0.2-0.3c0-0.2,0.1-0.6-0.6-1.1c-0.1,0-0.1-0.1,0-0.2s0.2-0.1,0.3-0.1c0.9,0.6,0.8,1.3,0.8,1.5
		C75.2,35.3,75.1,35.4,74.9,35.4z"/>
	<path class="st6" d="M44.4,103.9C6.8,89.3,1.1,57.1,1,39.1V2.3C1,2.2,1.1,2.1,1.1,2c0.1-0.1,0.2-0.1,0.3-0.1h85.8
		c0.1,0,0.2,0.1,0.3,0.1c0.1,0.1,0.1,0.2,0.1,0.3v36.8C87.6,57.1,82.3,89.1,44.4,103.9z M2,2.8v36.3c0,17.7,5.5,49.6,42.4,63.7
		c36.8-14.2,42.4-46,42.4-63.7V2.8H2z"/>
	<path class="st1" d="M87.2,1.9c0.1,0,0.2,0.1,0.3,0.1c0.1,0.1,0.1,0.2,0.1,0.3v36.8c0,18-5.3,50-43.2,64.8
		C6.8,89.3,1.1,57.1,1,39.1V2.3C1,2.2,1.1,2.1,1.1,2c0.1-0.1,0.2-0.1,0.3-0.1L87.2,1.9 M87.2-0.1H1.4c-0.7,0-1.3,0.2-1.7,0.7
		l-0.6,0.6v0.5C-1,1.9-1,2.1-1,2.4v36.8c0.1,18.5,6,51.7,44.7,66.7l0.7,0.3l0.7-0.3C62.2,99.2,74.6,88.4,82,73.7
		c5-10.1,7.6-21.7,7.6-34.5V2.4c0-0.7-0.2-1.3-0.7-1.7l-0.6-0.6h-0.5C87.7,0,87.5-0.1,87.2-0.1L87.2-0.1z"/>
</g>
</svg>
